<?xml version="1.0" encoding="utf-8"?>
<!-- Generator: Adobe Illustrator 24.1.3, SVG Export Plug-In . SVG Version: 6.00 Build 0)  -->
<svg version="1.1" id="Layer_1" xmlns="http://www.w3.org/2000/svg" xmlns:xlink="http://www.w3.org/1999/xlink" x="0px" y="0px"
	 viewBox="0 0 470 832" style="enable-background:new 0 0 470 832;" xml:space="preserve">
<style type="text/css">
	.st0{fill:#111629;}
	.st1{fill:#3E3E3E;}
	.st2{fill:#868978;}
	.st3{fill:#6B6F60;}
	.st4{fill:#909685;}
</style>
<g>
	<rect x="1.5" y="1.7" class="st0" width="467" height="828"/>
	<g>
		<path class="st1" d="M435.6,2.4h27.3c0,0,3.2-0.5,3.8,1.1c0.5,1.5,0.3,3.2,0.3,3.2V36c0,0-2.7-1.2-2.9-2.7
			c-0.2-1.5-2.2-4.4-2.2-4.4s4.4-4.8,1.9-6c-2.4-1.2-5.3,6.3-5.3,6.3s-2.9,0.2-3.1-3.1s-0.2-4.6-0.2-4.6s-5.8,0.7-7.3-1.9
			c-1.5-2.7-0.2-5.3-0.2-5.3s-2.2,0.5-4.8-0.7c-2.7-1.2-4.4-2.2-4.4-2.2s5.3-0.7,6.5-2.7c1.2-1.9,1.2-3.1,1.2-3.1s-1.5-1.7-2.9-0.5
			c-1.5,1.2-3.1,2.2-3.1,2.2L435.6,2.4z"/>
		<path class="st2" d="M436,2h27.3c0,0,3.2-0.5,3.8,1.1c0.5,1.5,0.3,3.2,0.3,3.2v29.3c0,0-2.7-1.2-2.9-2.7c-0.2-1.5-2.2-4.4-2.2-4.4
			s4.4-4.8,1.9-6c-2.4-1.2-5.3,6.3-5.3,6.3s-2.9,0.2-3.1-3.1s-0.2-4.6-0.2-4.6s-5.8,0.7-7.3-1.9c-1.5-2.7-0.2-5.3-0.2-5.3
			s-2.2,0.5-4.8-0.7c-2.7-1.2-4.4-2.2-4.4-2.2s5.3-0.7,6.5-2.7s1.2-3.1,1.2-3.1s-1.5-1.7-2.9-0.5c-1.5,1.2-3.1,2.2-3.1,2.2L436,2z"
			/>
		<path class="st1" d="M450.5,10.7c0,0,0.5-0.5,0.2-2.9s-2.2-4.1-2.2-4.1h14.7l-6.5,7.5c0,0-2.7-0.7-3.4-0.5
			C452.7,10.9,450.5,10.7,450.5,10.7z"/>
		<path class="st3" d="M450.9,10.3c0,0,0.4-0.4,0.2-2.6c-0.2-2.2-2-3.7-2-3.7h13.3l-5.9,6.8c0,0-2.4-0.7-3.1-0.4
			C452.9,10.6,450.9,10.3,450.9,10.3z"/>
		<path class="st1" d="M457,13.1c0,0,0.7,1,0.7,2.4s0.2,2.7,0.2,2.7s1.7-0.5,3.1,0c1.5,0.5,3.1,1.2,3.1,1.2s1.7-14,0.7-14
			S457,13.1,457,13.1z"/>
		<path class="st3" d="M457.6,13.3c0,0,0.7,0.9,0.7,2.2s0.2,2.4,0.2,2.4s1.5-0.4,2.8,0c1.3,0.4,2.8,1.1,2.8,1.1s1.5-12.6,0.7-12.6
			S457.6,13.3,457.6,13.3z"/>
		<path class="st1" d="M463.8,20.7c0,0-3.3,0.1-4.4,1.5c-1.1,1.4-0.2,4.3-0.2,4.3s-4.4-2.6-1.1-5.8
			C460.4,18.3,463.8,20.7,463.8,20.7z"/>
		<path class="st3" d="M462.5,20.8c0,0-2.5,0.1-3.2,1.3c-0.8,1.3-0.2,3.9-0.2,3.9s-3.2-2.4-0.8-5.3C460,18.6,462.5,20.8,462.5,20.8z
			"/>
		<path class="st1" d="M442.8,11.3c0,0,2.9-0.5,4.5-1.8c1.1-0.9,1-3.6,1-3.6s2.5,4.2-0.2,5.8C445.4,13.3,442.8,11.3,442.8,11.3z"/>
		<path class="st3" d="M443.9,11.2c0,0,2.3-0.4,3.6-1.4c0.9-0.7,0.8-2.9,0.8-2.9s2,3.4-0.2,4.6S443.9,11.2,443.9,11.2z"/>
		<path class="st1" d="M450.2,13.4c1.4-1.3,3.9-2.3,5.2-0.7s1.9,4.4,0.7,5.6c-1.1,1.3-3.9,2.3-5.5,0.4
			C449,16.9,449.1,14.4,450.2,13.4z"/>
		<path class="st3" d="M450.6,13.5c1.3-1.2,3.5-2,4.7-0.7c1.2,1.4,1.7,3.9,0.7,5.1c-1,1.2-3.6,2-4.9,0.4S449.7,14.4,450.6,13.5z"/>
		<circle class="st1" cx="440.9" cy="3.8" r="1.2"/>
		<circle class="st1" cx="465.3" cy="29.9" r="1.3"/>
		<circle class="st1" cx="465.6" cy="3" r="1.1"/>
		<circle class="st4" cx="441.1" cy="3.8" r="1"/>
		<circle class="st4" cx="465.1" cy="29.9" r="1.1"/>
		<circle class="st4" cx="465.6" cy="3" r="1"/>
	</g>
	<g>
		<path class="st1" d="M435.6,829.2h27.3c0,0,3.2,0.5,3.8-1.1c0.5-1.5,0.3-3.2,0.3-3.2v-29.3c0,0-2.7,1.2-2.9,2.7
			c-0.2,1.5-2.2,4.4-2.2,4.4s4.4,4.8,1.9,6c-2.4,1.2-5.3-6.3-5.3-6.3s-2.9-0.2-3.1,3.1c-0.2,3.4-0.2,4.6-0.2,4.6s-5.8-0.7-7.3,1.9
			c-1.5,2.7-0.2,5.3-0.2,5.3s-2.2-0.5-4.8,0.7c-2.7,1.2-4.4,2.2-4.4,2.2s5.3,0.7,6.5,2.7c1.2,1.9,1.2,3.1,1.2,3.1s-1.5,1.7-2.9,0.5
			c-1.5-1.2-3.1-2.2-3.1-2.2L435.6,829.2z"/>
		<path class="st2" d="M436,829.5h27.3c0,0,3.2,0.5,3.8-1.1c0.5-1.5,0.3-3.2,0.3-3.2v-29.3c0,0-2.7,1.2-2.9,2.7s-2.2,4.4-2.2,4.4
			s4.4,4.8,1.9,6c-2.4,1.2-5.3-6.3-5.3-6.3s-2.9-0.2-3.1,3.1c-0.2,3.4-0.2,4.6-0.2,4.6s-5.8-0.7-7.3,1.9c-1.5,2.7-0.2,5.3-0.2,5.3
			s-2.2-0.5-4.8,0.7c-2.7,1.2-4.4,2.2-4.4,2.2s5.3,0.7,6.5,2.7s1.2,3.1,1.2,3.1s-1.5,1.7-2.9,0.5c-1.5-1.2-3.1-2.2-3.1-2.2
			L436,829.5z"/>
		<path class="st1" d="M450.5,820.8c0,0,0.5,0.5,0.2,2.9s-2.2,4.1-2.2,4.1h14.7l-6.5-7.5c0,0-2.7,0.7-3.4,0.5
			C452.7,820.6,450.5,820.8,450.5,820.8z"/>
		<path class="st3" d="M450.9,821.2c0,0,0.4,0.4,0.2,2.6c-0.2,2.2-2,3.7-2,3.7h13.3l-5.9-6.8c0,0-2.4,0.7-3.1,0.4
			C452.9,821,450.9,821.2,450.9,821.2z"/>
		<path class="st1" d="M457,818.4c0,0,0.7-1,0.7-2.4s0.2-2.7,0.2-2.7s1.7,0.5,3.1,0c1.5-0.5,3.1-1.2,3.1-1.2s1.7,14,0.7,14
			S457,818.4,457,818.4z"/>
		<path class="st3" d="M457.6,818.3c0,0,0.7-0.9,0.7-2.2c0-1.3,0.2-2.4,0.2-2.4s1.5,0.4,2.8,0s2.8-1.1,2.8-1.1s1.5,12.6,0.7,12.6
			S457.6,818.3,457.6,818.3z"/>
		<path class="st1" d="M463.8,810.9c0,0-3.3-0.1-4.4-1.5c-1.1-1.4-0.2-4.3-0.2-4.3s-4.4,2.6-1.1,5.8
			C460.4,813.3,463.8,810.9,463.8,810.9z"/>
		<path class="st3" d="M462.5,810.7c0,0-2.5-0.1-3.2-1.3c-0.8-1.3-0.2-3.9-0.2-3.9s-3.2,2.4-0.8,5.3
			C460,813,462.5,810.7,462.5,810.7z"/>
		<path class="st1" d="M442.8,820.3c0,0,2.9,0.5,4.5,1.8c1.1,0.9,1,3.6,1,3.6s2.5-4.2-0.2-5.8C445.4,818.3,442.8,820.3,442.8,820.3z
			"/>
		<path class="st3" d="M443.9,820.3c0,0,2.3,0.4,3.6,1.4c0.9,0.7,0.8,2.9,0.8,2.9s2-3.4-0.2-4.6C446,818.7,443.9,820.3,443.9,820.3z
			"/>
		<path class="st1" d="M450.2,818.1c1.4,1.3,3.9,2.3,5.2,0.7c1.3-1.5,1.9-4.4,0.7-5.6s-3.9-2.3-5.5-0.4
			C449,814.6,449.1,817.1,450.2,818.1z"/>
		<path class="st3" d="M450.6,818c1.3,1.2,3.5,2,4.7,0.7c1.2-1.4,1.7-3.9,0.7-5.1c-1-1.2-3.6-2-4.9-0.4S449.7,817.2,450.6,818z"/>
		<circle class="st1" cx="440.9" cy="827.8" r="1.2"/>
		<circle class="st1" cx="465.3" cy="801.7" r="1.3"/>
		<circle class="st1" cx="465.6" cy="828.6" r="1.1"/>
		<circle class="st4" cx="441.1" cy="827.8" r="1"/>
		<circle class="st4" cx="465.1" cy="801.7" r="1.1"/>
		<circle class="st4" cx="465.6" cy="828.6" r="1"/>
	</g>
	<g>
		<path class="st1" d="M32.8,2.4H5.4c0,0-3.2-0.5-3.8,1.1C1.2,4.9,1.3,6.7,1.3,6.7V36c0,0,2.7-1.2,2.9-2.7c0.2-1.5,2.2-4.4,2.2-4.4
			s-4.4-4.8-1.9-6s5.3,6.3,5.3,6.3s2.9,0.2,3.1-3.1c0.2-3.4,0.2-4.6,0.2-4.6s5.8,0.7,7.3-1.9s0.2-5.3,0.2-5.3s2.2,0.5,4.8-0.7
			s4.4-2.2,4.4-2.2s-5.3-0.7-6.5-2.7c-1.2-1.9-1.2-3.1-1.2-3.1S23.6,3.8,25,5s3.1,2.2,3.1,2.2L32.8,2.4z"/>
		<path class="st2" d="M32.4,2H5.1c0,0-3.2-0.5-3.8,1.1C0.8,4.6,1,6.3,1,6.3v29.3c0,0,2.7-1.2,2.9-2.7C4.1,31.5,6,28.6,6,28.6
			s-4.4-4.8-1.9-6c2.4-1.2,5.3,6.3,5.3,6.3s2.9,0.2,3.1-3.1s0.2-4.6,0.2-4.6s5.8,0.7,7.3-1.9s0.2-5.3,0.2-5.3s2.2,0.5,4.8-0.7
			s4.4-2.2,4.4-2.2s-5.3-0.7-6.5-2.7s-1.2-3.1-1.2-3.1s1.5-1.7,2.9-0.5s3.1,2.2,3.1,2.2L32.4,2z"/>
		<path class="st1" d="M17.9,10.7c0,0-0.5-0.5-0.2-2.9s2.2-4.1,2.2-4.1H5.1l6.5,7.5c0,0,2.7-0.7,3.4-0.5
			C15.7,10.9,17.9,10.7,17.9,10.7z"/>
		<path class="st3" d="M17.4,10.3c0,0-0.4-0.4-0.2-2.6s2-3.7,2-3.7H5.9l5.9,6.8c0,0,2.4-0.7,3.1-0.4C15.5,10.6,17.4,10.3,17.4,10.3z
			"/>
		<path class="st1" d="M11.4,13.1c0,0-0.7,1-0.7,2.4s-0.2,2.7-0.2,2.7s-1.7-0.5-3.1,0c-1.5,0.5-3.1,1.2-3.1,1.2s-1.7-14-0.7-14
			S11.4,13.1,11.4,13.1z"/>
		<path class="st3" d="M10.8,13.3c0,0-0.7,0.9-0.7,2.2s-0.2,2.4-0.2,2.4s-1.5-0.4-2.8,0c-1.3,0.4-2.8,1.1-2.8,1.1S2.8,6.3,3.6,6.3
			S10.8,13.3,10.8,13.3z"/>
		<path class="st1" d="M4.6,20.7c0,0,3.3,0.1,4.4,1.5c1.1,1.4,0.2,4.3,0.2,4.3s4.4-2.6,1.1-5.8C8,18.3,4.6,20.7,4.6,20.7z"/>
		<path class="st3" d="M5.9,20.8c0,0,2.5,0.1,3.2,1.3c0.8,1.3,0.2,3.9,0.2,3.9s3.2-2.4,0.8-5.3C8.4,18.6,5.9,20.8,5.9,20.8z"/>
		<path class="st1" d="M25.5,11.3c0,0-2.9-0.5-4.5-1.8c-1.1-0.9-1-3.6-1-3.6s-2.5,4.2,0.2,5.8S25.5,11.3,25.5,11.3z"/>
		<path class="st3" d="M24.5,11.2c0,0-2.3-0.4-3.6-1.4C20,9.1,20,6.9,20,6.9s-2,3.4,0.2,4.6S24.5,11.2,24.5,11.2z"/>
		<path class="st1" d="M18.2,13.4c-1.4-1.3-3.9-2.3-5.2-0.7s-1.9,4.4-0.7,5.6c1.1,1.3,3.9,2.3,5.5,0.4
			C19.3,16.9,19.3,14.4,18.2,13.4z"/>
		<path class="st3" d="M17.8,13.5c-1.3-1.2-3.5-2-4.7-0.7s-1.7,3.9-0.7,5.1s3.6,2,4.9,0.4C18.8,16.6,18.7,14.4,17.8,13.5z"/>
		<circle class="st1" cx="27.5" cy="3.8" r="1.2"/>
		<circle class="st1" cx="3.1" cy="29.9" r="1.3"/>
		<circle class="st1" cx="2.8" cy="3" r="1.1"/>
		<circle class="st4" cx="27.3" cy="3.8" r="1"/>
		<circle class="st4" cx="3.2" cy="29.9" r="1.1"/>
		<circle class="st4" cx="2.8" cy="3" r="1"/>
	</g>
	<g>
		<path class="st1" d="M32.8,829.2H5.4c0,0-3.2,0.5-3.8-1.1c-0.5-1.5-0.3-3.2-0.3-3.2v-29.3c0,0,2.7,1.2,2.9,2.7
			c0.2,1.5,2.2,4.4,2.2,4.4s-4.4,4.8-1.9,6s5.3-6.3,5.3-6.3s2.9-0.2,3.1,3.1c0.2,3.4,0.2,4.6,0.2,4.6s5.8-0.7,7.3,1.9
			c1.5,2.7,0.2,5.3,0.2,5.3s2.2-0.5,4.8,0.7c2.7,1.2,4.4,2.2,4.4,2.2s-5.3,0.7-6.5,2.7c-1.2,1.9-1.2,3.1-1.2,3.1s1.5,1.7,2.9,0.5
			s3.1-2.2,3.1-2.2L32.8,829.2z"/>
		<path class="st2" d="M32.4,829.5H5.1c0,0-3.2,0.5-3.8-1.1C0.8,827,1,825.2,1,825.2v-29.3c0,0,2.7,1.2,2.9,2.7
			C4.1,800.1,6,803,6,803s-4.4,4.8-1.9,6c2.4,1.2,5.3-6.3,5.3-6.3s2.9-0.2,3.1,3.1c0.2,3.4,0.2,4.6,0.2,4.6s5.8-0.7,7.3,1.9
			s0.2,5.3,0.2,5.3s2.2-0.5,4.8,0.7c2.7,1.2,4.4,2.2,4.4,2.2s-5.3,0.7-6.5,2.7s-1.2,3.1-1.2,3.1s1.5,1.7,2.9,0.5
			c1.5-1.2,3.1-2.2,3.1-2.2L32.4,829.5z"/>
		<path class="st1" d="M17.9,820.8c0,0-0.5,0.5-0.2,2.9s2.2,4.1,2.2,4.1H5.1l6.5-7.5c0,0,2.7,0.7,3.4,0.5
			C15.7,820.6,17.9,820.8,17.9,820.8z"/>
		<path class="st3" d="M17.4,821.2c0,0-0.4,0.4-0.2,2.6c0.2,2.2,2,3.7,2,3.7H5.9l5.9-6.8c0,0,2.4,0.7,3.1,0.4S17.4,821.2,17.4,821.2
			z"/>
		<path class="st1" d="M11.4,818.4c0,0-0.7-1-0.7-2.4s-0.2-2.7-0.2-2.7s-1.7,0.5-3.1,0s-3.1-1.2-3.1-1.2s-1.7,14-0.7,14
			S11.4,818.4,11.4,818.4z"/>
		<path class="st3" d="M10.8,818.3c0,0-0.7-0.9-0.7-2.2c0-1.3-0.2-2.4-0.2-2.4s-1.5,0.4-2.8,0s-2.8-1.1-2.8-1.1s-1.5,12.6-0.7,12.6
			S10.8,818.3,10.8,818.3z"/>
		<path class="st1" d="M4.6,810.9c0,0,3.3-0.1,4.4-1.5c1.1-1.4,0.2-4.3,0.2-4.3s4.4,2.6,1.1,5.8C8,813.3,4.6,810.9,4.6,810.9z"/>
		<path class="st3" d="M5.9,810.7c0,0,2.5-0.1,3.2-1.3c0.8-1.3,0.2-3.9,0.2-3.9s3.2,2.4,0.8,5.3C8.4,813,5.9,810.7,5.9,810.7z"/>
		<path class="st1" d="M25.5,820.3c0,0-2.9,0.5-4.5,1.8c-1.1,0.9-1,3.6-1,3.6s-2.5-4.2,0.2-5.8C23,818.3,25.5,820.3,25.5,820.3z"/>
		<path class="st3" d="M24.5,820.3c0,0-2.3,0.4-3.6,1.4c-0.9,0.7-0.8,2.9-0.8,2.9s-2-3.4,0.2-4.6C22.4,818.7,24.5,820.3,24.5,820.3z
			"/>
		<path class="st1" d="M18.2,818.1c-1.4,1.3-3.9,2.3-5.2,0.7c-1.3-1.5-1.9-4.4-0.7-5.6s3.9-2.3,5.5-0.4
			C19.3,814.6,19.3,817.1,18.2,818.1z"/>
		<path class="st3" d="M17.8,818c-1.3,1.2-3.5,2-4.7,0.7s-1.7-3.9-0.7-5.1s3.6-2,4.9-0.4C18.8,814.9,18.7,817.2,17.8,818z"/>
		<circle class="st1" cx="27.5" cy="827.8" r="1.2"/>
		<circle class="st1" cx="3.1" cy="801.7" r="1.3"/>
		<circle class="st1" cx="2.8" cy="828.6" r="1.1"/>
		<circle class="st4" cx="27.3" cy="827.8" r="1"/>
		<circle class="st4" cx="3.2" cy="801.7" r="1.1"/>
		<circle class="st4" cx="2.8" cy="828.6" r="1"/>
	</g>
</g>
</svg>
