<?xml version="1.0" encoding="utf-8"?>
<!-- Generator: Adobe Illustrator 24.1.0, SVG Export Plug-In . SVG Version: 6.00 Build 0)  -->
<svg version="1.1" id="Layer_1" xmlns="http://www.w3.org/2000/svg" xmlns:xlink="http://www.w3.org/1999/xlink" x="0px" y="0px"
	 viewBox="0 0 84 84" style="enable-background:new 0 0 84 84;" xml:space="preserve">
<style type="text/css">
	.st0{fill:#1A1A1A;}
	.st1{fill:#5C8EAC;}
	.st2{fill:#4E466F;}
	.st3{fill:#A2BBD2;}
</style>
<path class="st0" d="M82.8,76.8c0,3.2-2.4,5.5-5.5,5.5H9.4c-2.8,0-5-2.3-5-5L4.5,8.5c0-2.8,2.3-5,5-5h68.3c2.8,0,5,2.3,5,5
	L82.8,76.8z"/>
<path class="st1" d="M80.3,74.8c0,2.8-2.3,5-5,5H7c-2.8,0-5-2.3-5-5L2.1,6.1c0-2.8,2.3-5,5-5h68.3c2.8,0,5,2.3,5,5L80.3,74.8z"/>
<path class="st2" d="M77.4,1.5c1.8,0.8,3.1,2.6,3.1,4.6l-0.1,68.7c0,2.8-2.3,5-5,5H7c-1.4,0-2.7-0.6-3.6-1.5L77.4,1.5z"/>
<path class="st3" d="M77.6,72.3c0,2.7-2.2,4.8-4.8,4.8H9.5c-2.7,0-4.8-2.2-4.8-4.8L4.8,8.6c0-2.7,2.2-4.8,4.8-4.8h63.3
	c2.7,0,4.8,2.2,4.8,4.8L77.6,72.3z"/>
</svg>
