<?xml version="1.0" encoding="utf-8"?>
<!-- Generator: Adobe Illustrator 24.1.3, SVG Export Plug-In . SVG Version: 6.00 Build 0)  -->
<svg version="1.1" id="Layer_1" xmlns="http://www.w3.org/2000/svg" xmlns:xlink="http://www.w3.org/1999/xlink" x="0px" y="0px"
	 viewBox="0 0 158 104" style="enable-background:new 0 0 158 104;" xml:space="preserve">
<style type="text/css">
	.st0{fill:#151514;}
	.st1{fill:#141414;}
	.st2{fill:#3E3E3E;}
	.st3{fill:#868978;}
	.st4{fill:#6B6F60;}
	.st5{fill:#909685;}
	.st6{fill:#6C6B52;}
	.st7{fill:none;stroke:#6C6B52;stroke-width:0.3408;stroke-miterlimit:10;}
	.st8{fill:none;stroke:#6C6B52;stroke-width:0.1136;stroke-miterlimit:10;}
	.st9{fill:#9CA18F;}
</style>
<g>
	<g>
		<path class="st0" d="M156.2,101.9c0,0.4-0.3,0.7-0.7,0.7H8.2c-0.4,0-0.7-0.3-0.7-0.7V2.5c0-0.4,0.3-0.7,0.7-0.7h147.4
			c0.4,0,0.7,0.3,0.7,0.7V101.9z"/>
	</g>
	<g>
		<path class="st1" d="M8.1,101.9c0,0.4-0.3,0.7-0.7,0.7H7.2c-0.4,0-0.7-0.3-0.7-0.7V2.5c0-0.4,0.3-0.7,0.7-0.7h0.2
			c0.4,0,0.7,0.3,0.7,0.7V101.9z"/>
	</g>
	<g>
		<rect x="2.2" y="12.6" class="st2" width="1.3" height="5.8"/>
		<path class="st2" d="M35.4,15.3c0,0-3.3,0.7-4.9,1.3C29,17.1,27.9,19,27.9,19s-1.4-2.4-3.9-2.5c-2.9-0.2-5.2,4.5-5.2,4.5
			s-3.3-5.3-6.5-2s2.1,4.9,2.1,4.9s-2,1.9-6.7-0.7c-3.5-2-3.7-3.8-3.7-3.8l-2.8,0.1v-2.6h3.1v-3H1.4v-2.6l2.8,0.1
			c0,0,0.2-1.8,3.7-3.8c4.7-2.6,6.7-0.7,6.7-0.7s-5.3,1.6-2.1,4.9s6.5-2,6.5-2s2.3,4.8,5.2,4.5c2.5-0.2,3.9-2.5,3.9-2.5
			s1.1,1.9,2.6,2.4C32.1,14.5,35.4,15.3,35.4,15.3L35.4,15.3z M10.3,11.3c0,0-0.3-1.2-0.6-1.8c-0.3-0.6,0.5-2,0.5-2S9.3,8,7.8,9.2
			s-2.1,2.5-2.1,2.5L10.3,11.3z M9.9,14.1C9.4,14,6.3,14,6.3,14v3c0,0,3.1,0,3.6-0.1c0.7-0.2,1.1-0.1,1.1-1.4S10.5,14.2,9.9,14.1z
			 M5.7,19c0,0,0.6,1.3,2.1,2.5c1.5,1.3,2.4,1.7,2.4,1.7s-0.8-1.4-0.5-2c0.3-0.6,0.6-1.8,0.6-1.8L5.7,19z M16.4,14.9
			c0,0,1.2,0.4,1.7,0.8c0.5,0.4,0.6,1.5,0.6,1.5s0.4-0.6,1.1-1.1c0.6-0.4,1.6-1.2,1.6-1.2v-0.2c0,0-1-0.7-1.6-1.2
			c-0.6-0.4-1.1-1.1-1.1-1.1s-0.1,1.1-0.6,1.5S16.4,14.8,16.4,14.9L16.4,14.9z M26.5,14.8l1.3,1.3l1.4-1.2l0-0.1l-1.4-1.2L26.5,14.8
			L26.5,14.8z"/>
		<path class="st3" d="M35.6,15.1c0,0-3.3,0.7-4.9,1.3c-1.6,0.5-2.6,2.4-2.6,2.4s-1.4-2.4-3.9-2.5C21.3,16,19,20.8,19,20.8
			s-3.3-5.3-6.5-2s2.1,4.9,2.1,4.9s-2,1.9-6.7-0.7c-3.5-2-3.7-3.8-3.7-3.8l-2.8,0.1v-2.6h3.1v-3H1.5v-2.6L4.3,11
			c0,0,0.2-1.8,3.7-3.8c4.7-2.6,6.7-0.7,6.7-0.7S9.3,8,12.5,11.3s6.5-2,6.5-2s2.3,4.8,5.2,4.5c2.5-0.2,3.9-2.5,3.9-2.5
			s1.1,1.9,2.6,2.4C32.3,14.3,35.6,15,35.6,15.1L35.6,15.1z M10.5,11.1c0,0-0.3-1.2-0.6-1.8c-0.3-0.6,0.5-2,0.5-2S9.4,7.7,8,9
			s-2.1,2.5-2.1,2.5L10.5,11.1z M10.1,13.9c-0.5-0.1-3.6-0.1-3.6-0.1v3c0,0,3.1,0,3.6-0.1c0.7-0.2,1.1-0.1,1.1-1.4
			S10.6,13.9,10.1,13.9z M5.9,18.8c0,0,0.6,1.3,2.1,2.5c1.5,1.3,2.4,1.7,2.4,1.7s-0.8-1.4-0.5-2c0.3-0.6,0.6-1.8,0.6-1.8L5.9,18.8z
			 M16.5,14.6c0,0,1.2,0.4,1.7,0.8c0.5,0.4,0.6,1.5,0.6,1.5s0.4-0.6,1.1-1.1c0.6-0.4,1.6-1.2,1.6-1.2v-0.2c0,0-1-0.7-1.6-1.2
			c-0.6-0.4-1.1-1.1-1.1-1.1s-0.1,1.1-0.6,1.5C17.7,14.2,16.5,14.6,16.5,14.6L16.5,14.6z M26.6,14.6l1.3,1.3l1.4-1.2l0-0.1l-1.4-1.2
			L26.6,14.6L26.6,14.6z"/>
		<rect x="1.4" y="14.2" class="st3" width="2.7" height="2.2"/>
		<polyline class="st2" points="2.2,16.3 1.4,16.3 1.4,14.2 2.2,14.2 		"/>
		<polyline class="st2" points="2.3,13.5 1.5,13.5 1.5,10.9 2.3,10.9 		"/>
		<polyline class="st2" points="2.3,19.2 1.5,19.2 1.5,16.6 2.3,16.6 		"/>
	</g>
	<g>
		<rect x="2.2" y="87" class="st2" width="1.3" height="5.8"/>
		<path class="st2" d="M35.4,89.7c0,0-3.3,0.7-4.9,1.3c-1.6,0.5-2.6,2.4-2.6,2.4s-1.4-2.4-3.9-2.5c-2.9-0.2-5.2,4.5-5.2,4.5
			s-3.3-5.3-6.5-2c-3.2,3.3,2.1,4.9,2.1,4.9s-2,1.9-6.7-0.7c-3.5-2-3.7-3.8-3.7-3.8l-2.8,0.1v-2.6h3.1v-3H1.4v-2.6l2.8,0.1
			c0,0,0.2-1.8,3.7-3.8c4.7-2.6,6.7-0.7,6.7-0.7s-5.3,1.6-2.1,4.9s6.5-2,6.5-2s2.3,4.8,5.2,4.5c2.5-0.2,3.9-2.5,3.9-2.5
			s1.1,1.9,2.6,2.4C32.1,88.9,35.4,89.7,35.4,89.7L35.4,89.7z M10.3,85.7c0,0-0.3-1.2-0.6-1.8c-0.3-0.6,0.5-2,0.5-2s-1,0.4-2.4,1.7
			c-1.5,1.3-2.1,2.5-2.1,2.5L10.3,85.7z M9.9,88.5c-0.5-0.1-3.6-0.1-3.6-0.1v3c0,0,3.1,0,3.6-0.1c0.7-0.2,1.1-0.1,1.1-1.4
			S10.5,88.6,9.9,88.5z M5.7,93.4c0,0,0.6,1.3,2.1,2.5s2.4,1.7,2.4,1.7s-0.8-1.4-0.5-2c0.3-0.6,0.6-1.8,0.6-1.8L5.7,93.4z
			 M16.4,89.3c0,0,1.2,0.4,1.7,0.8c0.5,0.4,0.6,1.5,0.6,1.5s0.4-0.6,1.1-1.1c0.6-0.4,1.6-1.2,1.6-1.2v-0.2c0,0-1-0.7-1.6-1.2
			c-0.6-0.4-1.1-1.1-1.1-1.1s-0.1,1.1-0.6,1.5C17.5,88.8,16.4,89.2,16.4,89.3L16.4,89.3z M26.5,89.2l1.3,1.3l1.4-1.2l0-0.1L27.7,88
			L26.5,89.2L26.5,89.2z"/>
		<path class="st3" d="M35.6,89.5c0,0-3.3,0.7-4.9,1.3c-1.6,0.5-2.6,2.4-2.6,2.4s-1.4-2.4-3.9-2.5c-2.9-0.2-5.2,4.5-5.2,4.5
			s-3.3-5.3-6.5-2c-3.2,3.3,2.1,4.9,2.1,4.9s-2,1.9-6.7-0.7c-3.5-2-3.7-3.8-3.7-3.8l-2.8,0.1V91h3.1v-3H1.5v-2.6l2.8,0.1
			c0,0,0.2-1.8,3.7-3.8c4.7-2.6,6.7-0.7,6.7-0.7s-5.3,1.6-2.1,4.9s6.5-2,6.5-2s2.3,4.8,5.2,4.5c2.5-0.2,3.9-2.5,3.9-2.5
			s1.1,1.9,2.6,2.4C32.3,88.7,35.6,89.4,35.6,89.5L35.6,89.5z M10.5,85.5c0,0-0.3-1.2-0.6-1.8s0.5-2,0.5-2s-1,0.4-2.4,1.7
			c-1.5,1.3-2.1,2.5-2.1,2.5L10.5,85.5z M10.1,88.3c-0.5-0.1-3.6-0.1-3.6-0.1v3c0,0,3.1,0,3.6-0.1c0.7-0.2,1.1-0.1,1.1-1.4
			S10.6,88.3,10.1,88.3z M5.9,93.2c0,0,0.6,1.3,2.1,2.5s2.4,1.7,2.4,1.7s-0.8-1.4-0.5-2c0.3-0.6,0.6-1.8,0.6-1.8L5.9,93.2z M16.5,89
			c0,0,1.2,0.4,1.7,0.8c0.5,0.4,0.6,1.5,0.6,1.5s0.4-0.6,1.1-1.1c0.6-0.4,1.6-1.2,1.6-1.2v-0.2c0,0-1-0.7-1.6-1.2
			c-0.6-0.4-1.1-1.1-1.1-1.1s-0.1,1.1-0.6,1.5C17.7,88.6,16.5,89,16.5,89L16.5,89z M26.6,89l1.3,1.3l1.4-1.2l0-0.1l-1.4-1.2L26.6,89
			L26.6,89z"/>
		<rect x="1.4" y="88.6" class="st3" width="2.7" height="2.2"/>
		<polyline class="st2" points="2.2,90.8 1.4,90.8 1.4,88.6 2.2,88.6 		"/>
		<polyline class="st2" points="2.3,87.9 1.5,87.9 1.5,85.3 2.3,85.3 		"/>
		<polyline class="st2" points="2.3,93.6 1.5,93.6 1.5,91 2.3,91 		"/>
	</g>
	<g>
		<path class="st2" d="M140.6,1.7h13.7c0,0,1.6-0.3,1.9,0.6c0.2,0.7,0.2,1.6,0.2,1.6v14.6c0,0-1.3-0.6-1.5-1.3
			c-0.1-0.7-1.1-2.2-1.1-2.2s2.2-2.4,1-3c-1.2-0.6-2.7,3.1-2.7,3.1s-1.5,0.1-1.6-1.6s-0.1-2.3-0.1-2.3s-2.9,0.4-3.6-1
			s-0.1-2.7-0.1-2.7s-1.1,0.2-2.4-0.4c-1.3-0.6-2.2-1.1-2.2-1.1s2.7-0.4,3.3-1.3c0.6-1,0.6-1.6,0.6-1.6s-0.7-0.8-1.5-0.2
			s-1.6,1.1-1.6,1.1L140.6,1.7z"/>
		<path class="st3" d="M140.8,1.5h13.7c0,0,1.6-0.3,1.9,0.6c0.2,0.7,0.2,1.6,0.2,1.6v14.6c0,0-1.3-0.6-1.5-1.3
			c-0.1-0.7-1.1-2.2-1.1-2.2s2.2-2.4,1-3c-1.2-0.6-2.7,3.1-2.7,3.1s-1.5,0.1-1.6-1.6s-0.1-2.3-0.1-2.3s-2.9,0.4-3.6-1
			c-0.7-1.3-0.1-2.7-0.1-2.7s-1.1,0.2-2.4-0.4c-1.3-0.6-2.2-1.1-2.2-1.1s2.7-0.4,3.3-1.3c0.6-1,0.6-1.6,0.6-1.6s-0.7-0.8-1.5-0.2
			c-0.7,0.6-1.6,1.1-1.6,1.1L140.8,1.5z"/>
		<path class="st2" d="M148.1,5.9c0,0,0.2-0.2,0.1-1.5s-1.1-2.1-1.1-2.1h7.4l-3.3,3.7c0,0-1.3-0.4-1.7-0.2
			C149.2,6,148.1,5.9,148.1,5.9z"/>
		<path class="st4" d="M148.3,5.7c0,0,0.2-0.2,0.1-1.3c-0.1-1.1-1-1.9-1-1.9h6.7l-2.9,3.4c0,0-1.2-0.3-1.5-0.2S148.3,5.7,148.3,5.7z
			"/>
		<path class="st2" d="M151.3,7.1c0,0,0.4,0.5,0.4,1.2s0.1,1.3,0.1,1.3s0.8-0.2,1.6,0s1.6,0.6,1.6,0.6s0.8-7,0.4-7
			S151.3,7.1,151.3,7.1z"/>
		<path class="st4" d="M151.6,7.1c0,0,0.3,0.4,0.3,1.1s0.1,1.2,0.1,1.2s0.8-0.2,1.4,0c0.7,0.2,1.4,0.5,1.4,0.5s0.8-6.3,0.3-6.3
			S151.6,7.1,151.6,7.1z"/>
		<path class="st2" d="M154.7,10.8c0,0-1.7,0-2.2,0.7c-0.5,0.7-0.1,2.1-0.1,2.1s-2.2-1.3-0.6-2.9C153,9.6,154.7,10.8,154.7,10.8z"/>
		<path class="st4" d="M154.1,10.9c0,0-1.2,0-1.6,0.7c-0.4,0.6-0.1,2-0.1,2s-1.6-1.2-0.4-2.7C152.8,9.8,154.1,10.9,154.1,10.9z"/>
		<path class="st2" d="M144.3,6.1c0,0,1.5-0.2,2.3-0.9c0.5-0.4,0.5-1.8,0.5-1.8s1.2,2.1-0.1,2.9C145.5,7.1,144.3,6.1,144.3,6.1z"/>
		<path class="st4" d="M144.8,6.1c0,0,1.2-0.2,1.8-0.7C147,5.1,147,4,147,4s1,1.7-0.1,2.3C145.8,6.9,144.8,6.1,144.8,6.1z"/>
		<path class="st2" d="M147.9,7.2c0.7-0.6,1.9-1.1,2.6-0.4s0.9,2.2,0.4,2.8c-0.6,0.6-2,1.1-2.7,0.2C147.4,9,147.4,7.7,147.9,7.2z"/>
		<path class="st4" d="M148.1,7.3c0.6-0.6,1.7-1,2.3-0.3s0.8,2,0.3,2.5c-0.5,0.6-1.8,1-2.5,0.2C147.6,8.8,147.7,7.7,148.1,7.3z"/>
		<circle class="st2" cx="143.3" cy="2.4" r="0.6"/>
		<circle class="st2" cx="155.5" cy="15.4" r="0.6"/>
		<circle class="st2" cx="155.6" cy="2" r="0.6"/>
		<circle class="st5" cx="143.4" cy="2.4" r="0.5"/>
		<circle class="st5" cx="155.4" cy="15.4" r="0.5"/>
		<circle class="st5" cx="155.6" cy="2" r="0.5"/>
	</g>
	<g>
		<path class="st2" d="M140.6,102.5h13.7c0,0,1.6,0.3,1.9-0.6c0.2-0.7,0.2-1.6,0.2-1.6V85.7c0,0-1.3,0.6-1.5,1.3
			c-0.1,0.7-1.1,2.2-1.1,2.2s2.2,2.4,1,3c-1.2,0.6-2.7-3.1-2.7-3.1s-1.5-0.1-1.6,1.6c-0.1,1.7-0.1,2.3-0.1,2.3s-2.9-0.4-3.6,1
			s-0.1,2.7-0.1,2.7s-1.1-0.2-2.4,0.4c-1.3,0.6-2.2,1.1-2.2,1.1s2.7,0.4,3.3,1.3c0.6,1,0.6,1.6,0.6,1.6s-0.7,0.8-1.5,0.2
			s-1.6-1.1-1.6-1.1L140.6,102.5z"/>
		<path class="st3" d="M140.8,102.7h13.7c0,0,1.6,0.3,1.9-0.6c0.2-0.7,0.2-1.6,0.2-1.6V85.9c0,0-1.3,0.6-1.5,1.3
			c-0.1,0.7-1.1,2.2-1.1,2.2s2.2,2.4,1,3c-1.2,0.6-2.7-3.1-2.7-3.1s-1.5-0.1-1.6,1.6c-0.1,1.7-0.1,2.3-0.1,2.3s-2.9-0.4-3.6,1
			c-0.7,1.3-0.1,2.7-0.1,2.7s-1.1-0.2-2.4,0.4c-1.3,0.6-2.2,1.1-2.2,1.1s2.7,0.4,3.3,1.3c0.6,1,0.6,1.6,0.6,1.6s-0.7,0.8-1.5,0.2
			c-0.7-0.6-1.6-1.1-1.6-1.1L140.8,102.7z"/>
		<path class="st2" d="M148.1,98.3c0,0,0.2,0.2,0.1,1.5s-1.1,2.1-1.1,2.1h7.4l-3.3-3.7c0,0-1.3,0.4-1.7,0.2
			C149.2,98.2,148.1,98.3,148.1,98.3z"/>
		<path class="st4" d="M148.3,98.5c0,0,0.2,0.2,0.1,1.3c-0.1,1.1-1,1.9-1,1.9h6.7l-2.9-3.4c0,0-1.2,0.3-1.5,0.2
			S148.3,98.5,148.3,98.5z"/>
		<path class="st2" d="M151.3,97.1c0,0,0.4-0.5,0.4-1.2c0-0.7,0.1-1.3,0.1-1.3s0.8,0.2,1.6,0c0.7-0.2,1.6-0.6,1.6-0.6s0.8,7,0.4,7
			S151.3,97.1,151.3,97.1z"/>
		<path class="st4" d="M151.6,97c0,0,0.3-0.4,0.3-1.1s0.1-1.2,0.1-1.2s0.8,0.2,1.4,0c0.7-0.2,1.4-0.5,1.4-0.5s0.8,6.3,0.3,6.3
			S151.6,97,151.6,97z"/>
		<path class="st2" d="M154.7,93.3c0,0-1.7,0-2.2-0.7c-0.5-0.7-0.1-2.1-0.1-2.1s-2.2,1.3-0.6,2.9C153,94.6,154.7,93.3,154.7,93.3z"
			/>
		<path class="st4" d="M154.1,93.3c0,0-1.2,0-1.6-0.7c-0.4-0.6-0.1-2-0.1-2s-1.6,1.2-0.4,2.7C152.8,94.4,154.1,93.3,154.1,93.3z"/>
		<path class="st2" d="M144.3,98.1c0,0,1.5,0.2,2.3,0.9c0.5,0.4,0.5,1.8,0.5,1.8s1.2-2.1-0.1-2.9C145.5,97,144.3,98.1,144.3,98.1z"
			/>
		<path class="st4" d="M144.8,98.1c0,0,1.2,0.2,1.8,0.7c0.4,0.3,0.4,1.5,0.4,1.5s1-1.7-0.1-2.3C145.8,97.3,144.8,98.1,144.8,98.1z"
			/>
		<path class="st2" d="M147.9,97c0.7,0.6,1.9,1.1,2.6,0.4s0.9-2.2,0.4-2.8c-0.6-0.6-2-1.1-2.7-0.2C147.4,95.2,147.4,96.5,147.9,97z"
			/>
		<path class="st4" d="M148.1,96.9c0.6,0.6,1.7,1,2.3,0.3c0.6-0.7,0.8-2,0.3-2.5c-0.5-0.6-1.8-1-2.5-0.2S147.7,96.5,148.1,96.9z"/>
		<circle class="st2" cx="143.3" cy="101.8" r="0.6"/>
		<circle class="st2" cx="155.5" cy="88.7" r="0.6"/>
		<circle class="st2" cx="155.6" cy="102.2" r="0.6"/>
		<circle class="st5" cx="143.4" cy="101.8" r="0.5"/>
		<circle class="st5" cx="155.4" cy="88.7" r="0.5"/>
		<circle class="st5" cx="155.6" cy="102.2" r="0.5"/>
	</g>
	<g>
		<path class="st6" d="M40.4,23c-0.7,0-1.4-0.1-2.2-0.2c-1.1-0.2-2-0.4-2.6-0.6c-0.6-0.1-1.1-0.1-1.7,0.1c-0.4,0.2-0.8,0.4-1,0.8
			c-0.2,0.4-0.2,0.7-0.1,1.1c0.1,0.3,0.3,0.6,0.6,0.7c0.3,0.2,0.6,0.2,0.8,0.1c0.2-0.1,0.4-0.2,0.5-0.5c0.1-0.2,0.1-0.4,0-0.6
			c-0.1-0.2-0.2-0.3-0.3-0.3c-0.1,0.3-0.2,0.5-0.3,0.6c-0.4,0.1-0.7,0.1-0.8-0.3c-0.1-0.2,0-0.3,0.1-0.5c0.1-0.2,0.2-0.3,0.4-0.4
			c0.2-0.1,0.4,0,0.7,0.1c0.2,0.1,0.4,0.4,0.5,0.6c0.1,0.3,0.1,0.5-0.1,0.8c-0.1,0.3-0.3,0.5-0.6,0.6c-0.4,0.1-0.8,0.1-1.1-0.1
			c-0.3-0.2-0.6-0.4-0.7-0.8c-0.2-0.5-0.2-1,0.1-1.4c0.2-0.5,0.6-0.8,1.2-1c-0.2-0.1-0.3-0.2-0.4-0.2c0-0.1,0-0.1,0-0.2
			c0-0.1,0.1-0.1,0.1-0.1c0.5-0.2,1.1-0.1,1.9,0.3c0.2,0.1,0.4,0.2,0.6,0.3c0.4,0.2,0.9,0.3,1.4,0.5c0.4,0.1,0.9,0.2,1.4,0.2
			c0.5,0,1,0.1,1.4,0.1c0.3,0,0.5,0,0.8-0.1c0.1,0,0.1,0,0.1,0.1c0,0.1,0,0.1,0,0.2C41.2,23,40.9,23,40.4,23z"/>
	</g>
	<g>
		<path class="st6" d="M82.5,23.2c-0.2-0.4-0.5-0.7-1-0.8c-0.5-0.2-1.1-0.2-1.7-0.1c-0.6,0.2-1.4,0.4-2.6,0.6
			c-0.8,0.1-1.5,0.2-2.2,0.2c-0.5,0-33.8,0-33.9,0c-0.1,0-0.1-0.1,0-0.2c0-0.1,0.1-0.1,0.1-0.1c0.3,0,33.5,0,33.8,0.1
			c0.5,0,0.9,0,1.4-0.1c0.5-0.1,1-0.1,1.4-0.2c0.5-0.1,1-0.3,1.4-0.5c0.2-0.1,0.4-0.2,0.6-0.3c0.8-0.3,1.4-0.4,1.9-0.3
			c0.1,0,0.1,0.1,0.1,0.1c0,0.1,0,0.1,0,0.2c0,0.1-0.1,0.1-0.4,0.2c0.6,0.2,1,0.6,1.2,1c0.1,0.1,0.1,0.2,0.1,0.3L82.5,23.2z"/>
	</g>
	<g>
		<path class="st6" d="M118.1,22.9c-0.1,0-0.1-0.1,0-0.2c0-0.1,0.1-0.1,0.1-0.1c0.3,0,5.9,0,6.1,0.1c0.5,0,0.9,0,1.4-0.1
			c0.5-0.1,1-0.1,1.4-0.2c0.5-0.1,1-0.3,1.4-0.5c0.2-0.1,0.4-0.2,0.6-0.3c0.8-0.3,1.4-0.4,1.9-0.3c0.1,0,0.1,0.1,0.1,0.1
			c0,0.1,0,0.1,0,0.2c0,0.1-0.1,0.1-0.4,0.2c0.6,0.2,1,0.6,1.2,1c0.2,0.4,0.3,0.9,0.1,1.4c-0.1,0.4-0.4,0.6-0.7,0.8
			c-0.4,0.2-0.7,0.2-1.1,0.1c-0.3-0.1-0.5-0.3-0.6-0.6c-0.1-0.3-0.2-0.5-0.1-0.8c0.1-0.3,0.3-0.5,0.5-0.6c0.2-0.1,0.4-0.2,0.7-0.1
			c0.2,0.1,0.3,0.2,0.4,0.4c0.1,0.2,0.1,0.3,0.1,0.5c-0.1,0.3-0.4,0.4-0.8,0.3c-0.1,0-0.2-0.2-0.3-0.6c-0.1,0-0.2,0.1-0.3,0.3
			c-0.1,0.2-0.1,0.4,0,0.6c0.1,0.2,0.3,0.4,0.5,0.5c0.3,0.1,0.5,0.1,0.8-0.1c0.3-0.2,0.5-0.4,0.6-0.7c0.1-0.4,0.1-0.7-0.1-1.1
			c-0.2-0.4-0.5-0.7-1-0.8c-0.5-0.2-1.1-0.2-1.7-0.1c-0.6,0.2-1.4,0.4-2.6,0.6c-0.8,0.1-1.5,0.2-2.2,0.2
			C123.8,23,118.2,23,118.1,22.9z"/>
	</g>
	<g>
		<path class="st6" d="M82.7,23.4c0-0.1,0.1-0.2,0.1-0.3c0.2-0.5,0.6-0.8,1.2-1c-0.2-0.1-0.3-0.2-0.4-0.2c0-0.1,0-0.1,0-0.2
			c0-0.1,0.1-0.1,0.1-0.1c0.5-0.2,1.1-0.1,1.9,0.3c0.2,0.1,0.4,0.2,0.6,0.3c0.4,0.2,0.9,0.3,1.4,0.5c0.4,0.1,0.9,0.2,1.4,0.2
			c0.5,0,1,0.1,1.4,0.1c0.3,0,27.4,0,27.6-0.1c0.1,0,0.1,0,0.1,0.1c0,0.1,0,0.1,0,0.2c-0.1,0-27.2,0.1-27.7,0
			c-0.7,0-1.4-0.1-2.2-0.2c-1.1-0.2-2-0.4-2.6-0.6c-0.6-0.1-1.1-0.1-1.7,0.1c-0.4,0.2-0.8,0.4-1,0.8L82.7,23.4z"/>
	</g>
	<g>
		<path class="st2" d="M75.8,80.5c0,0-34.6,0-34.8-0.1c-0.4-0.1-1-0.1-2-0.1c-0.3,0-0.8,0.1-1.4,0.2c-1.1,0.2-1.7,0.3-1.9,0.3
			c-0.6,0.1-1.1,0-1.6-0.2c-0.5-0.2-0.9-0.5-1.1-1c-0.2-0.4-0.3-0.9-0.1-1.4c0.2-0.4,0.4-0.7,0.8-0.9c0.3-0.2,0.7-0.2,1-0.1
			c0.4,0.1,0.6,0.4,0.8,0.7c0.2,0.3,0.2,0.6,0.1,0.9c-0.1,0.2-0.3,0.4-0.5,0.5c-0.3,0.1-0.5,0.1-0.7,0.1c-0.2-0.1-0.4-0.2-0.5-0.4
			c-0.1-0.2-0.1-0.3-0.1-0.5c0.1-0.2,0.2-0.4,0.4-0.4c0.2-0.1,0.3-0.1,0.5,0c0.2,0.1,0.3,0.2,0.4,0.4c0.1,0.2,0.1,0.3,0.2,0.3
			c0,0,0.1,0,0.1,0l0-0.1c0.2-0.5,0-0.9-0.7-1.1c-0.3-0.1-0.6-0.1-0.8,0c-0.3,0.1-0.5,0.4-0.6,0.7c-0.2,0.4-0.1,0.7,0,1.1
			c0.2,0.3,0.5,0.6,1,0.8c0.3,0.1,0.8,0.1,1.5,0c0.4-0.1,0.8-0.2,1-0.3c0.1,0,0.3-0.2,0.8-0.5c0.2-0.2,0.4-0.2,0.6-0.2
			c0.1,0.1,0.2,0.2,0.1,0.3c0,0,0,0.1-0.1,0.2c-0.1,0.1-0.1,0.1-0.1,0.2c0,0.1,0,0.2,0.1,0.2c0.1,0,0.4-0.1,0.8-0.4
			c0.3-0.2,0.6-0.3,0.8-0.2c0.1,0,0.1,0.1,0.1,0.2c0,0,0,0.1-0.1,0.1c-0.1,0.1-0.1,0.1-0.1,0.1c0,0,0,0.1,0.1,0.1c0,0,0.1,0,0.1,0
			c1,0.1,35.9,0.2,36,0.2"/>
	</g>
	<g>
		<path class="st6" d="M77.3,80.2c0.2,0,0.4,0,0.6,0.1c0.2,0,0.2,0.5,0,0.5c-0.1,0-0.3-0.1-0.7-0.2s-1.5-0.1-1.5-0.1
			c0,0-34.6,0-34.8-0.1c-0.4-0.1-1-0.1-2-0.1c-0.3,0-0.8,0.1-1.4,0.2c-1.1,0.2-1.7,0.3-1.9,0.3c-0.6,0.1-1.1,0-1.6-0.2
			c-0.5-0.2-0.9-0.5-1.1-1c-0.2-0.4-0.3-0.9-0.1-1.4c0.2-0.4,0.4-0.7,0.8-0.9c0.3-0.2,0.7-0.2,1-0.1c0.4,0.1,0.6,0.4,0.8,0.7
			c0.2,0.3,0.2,0.6,0.1,0.9c-0.1,0.2-0.3,0.4-0.5,0.5c-0.3,0.1-0.5,0.1-0.7,0.1c-0.2-0.1-0.4-0.2-0.5-0.4c-0.1-0.2-0.1-0.3-0.1-0.5
			c0.1-0.2,0.2-0.4,0.4-0.4c0.2-0.1,0.3-0.1,0.5,0c0.2,0.1,0.3,0.2,0.4,0.4c0.1,0.2,0.1,0.3,0.2,0.3c0,0,0.1,0,0.1,0l0-0.1
			c0.2-0.5,0-0.9-0.7-1.1c-0.3-0.1-0.6-0.1-0.8,0c-0.3,0.1-0.5,0.4-0.6,0.7c-0.2,0.4-0.1,0.7,0,1.1c0.2,0.3,0.5,0.6,1,0.8
			c0.3,0.1,0.8,0.1,1.5,0c0.4-0.1,0.8-0.2,1-0.3c0.1,0,0.3-0.2,0.8-0.5c0.2-0.2,0.4-0.2,0.6-0.2c0.1,0.1,0.2,0.2,0.1,0.3
			c0,0,0,0.1-0.1,0.2c-0.1,0.1-0.1,0.1-0.1,0.2c0,0.1,0,0.2,0.1,0.2c0.1,0,0.4-0.1,0.8-0.4c0.3-0.2,0.6-0.3,0.8-0.2
			c0.1,0,0.1,0.1,0.1,0.2c0,0,0,0.1-0.1,0.1c-0.1,0.1-0.1,0.1-0.1,0.1c0,0,0,0.1,0.1,0.1c0,0,0.1,0,0.1,0c1,0.1,35.9,0.2,36,0.2
			C75.9,80.2,77.1,80.2,77.3,80.2z"/>
	</g>
	<g>
		<path class="st6" d="M77,80.3c0.2,0,0.4-0.1,0.6-0.1c0.2-0.1,0.4-0.1,0.6-0.2c0.3-0.1,0.5-0.1,0.8-0.1c0.3,0,0.8,0.1,1.4,0.3
			c0.1,0,0.2,0.1,0.3,0.1c0.2,0,0.3,0.1,0.4,0.1c0.1,0,0.1,0,0.1,0.1c0,0-0.1,0.1-0.4,0.1c-0.4,0.1-0.8,0.2-1.1,0.3
			c-0.4,0.1-0.7,0.2-1,0.2c-0.2,0-0.4,0-0.6-0.1c0,0-0.2,0-0.4-0.1c-0.1,0-0.3-0.1-0.4-0.1c-0.2-0.1-0.3-0.1-0.4-0.1
			c-0.1,0-0.1,0-0.2,0c-0.1,0-0.1,0-0.1-0.1C76.8,80.3,76.8,80.3,77,80.3z M77.8,81.5c0.3-0.1,0.9-0.2,1.8-0.3c0.1,0,0.3,0,0.6-0.1
			c0.2,0,0.3,0,0.4-0.1c0.2-0.1,0.4-0.2,0.5-0.3c0.1-0.1,0.2-0.3,0.2-0.4c0-0.2-0.1-0.4-0.3-0.5c-0.4-0.2-0.7-0.3-1.1-0.3
			c-0.1,0-0.1,0-0.2,0c-0.1,0-0.2,0-0.2,0c-0.8,0-1.4-0.1-1.9-0.3c-0.5-0.2-0.7-0.3-0.7-0.6c0-0.1,0-0.1,0.1-0.2
			c0-0.1,0.1-0.1,0.1-0.1c0.1,0,0.1,0,0.1,0.1c0,0,0,0,0,0.1c0,0,0,0.1,0,0.1c0,0.1,0.1,0.2,0.2,0.3c0.2,0.1,0.4,0.1,0.7,0.1
			c0.1,0,0.3,0,0.6-0.1c0.3-0.1,0.4-0.1,0.6-0.1c0.3,0,0.6,0,0.9,0.1c0.2,0.1,0.5,0.2,0.7,0.4c0.2,0.2,0.4,0.3,0.6,0.5
			c0.1,0.2,0.2,0.3,0.2,0.3c0,0.1-0.1,0.2-0.2,0.4c-0.1,0.1-0.4,0.3-0.7,0.5c-0.4,0.3-0.8,0.4-1.2,0.4c-0.2,0-0.4,0-0.7-0.1
			c-0.3-0.1-0.5-0.1-0.5-0.1c-0.3,0-0.5,0-0.7,0.1c-0.2,0.1-0.3,0.2-0.3,0.3c0,0,0,0,0,0.1c0,0,0,0.1,0,0.1c0,0.1,0,0.1-0.1,0.1
			c-0.1,0-0.2-0.1-0.2-0.2C76.8,81.8,77.2,81.6,77.8,81.5z M78.3,80.4c0.1,0,0.2,0,0.3,0c0.2,0,0.3,0,0.4,0c0.3,0,0.6,0,0.9,0
			c0.2,0,0.3,0,0.3-0.1c0,0,0,0,0,0c0,0,0,0-0.1,0c-0.4,0-0.7,0-1,0s-0.5,0-0.4,0c-0.1,0-0.2,0-0.3,0C78.3,80.4,78.3,80.4,78.3,80.4
			C78.3,80.4,78.3,80.4,78.3,80.4z"/>
	</g>
	<g>
		<path class="st6" d="M90.4,80.2c0.1,0,34.2-0.1,35.2-0.2c0,0,0.1,0,0.1,0c0.1,0,0.1-0.1,0.1-0.1c0,0,0-0.1-0.1-0.1
			c0-0.1-0.1-0.1-0.1-0.1c0-0.1,0-0.1,0.1-0.2c0.2-0.1,0.5,0,0.8,0.2c0.5,0.3,0.8,0.5,0.8,0.4c0.1,0,0.1-0.1,0.1-0.2
			c0,0-0.1-0.1-0.1-0.2c-0.1-0.1-0.1-0.1-0.1-0.2c-0.1-0.1,0-0.2,0.1-0.3c0.2-0.1,0.3,0,0.6,0.2c0.5,0.3,0.7,0.5,0.8,0.5
			c0.2,0.1,0.6,0.2,1,0.3c0.7,0.1,1.2,0.1,1.5,0c0.5-0.2,0.8-0.5,1-0.8c0.2-0.3,0.2-0.7,0-1.1c-0.1-0.4-0.3-0.6-0.6-0.7
			c-0.3-0.1-0.6-0.2-0.8,0c-0.6,0.2-0.8,0.6-0.7,1.1l0,0.1c0,0,0,0,0.1,0c0,0,0.1-0.1,0.2-0.3c0.1-0.2,0.2-0.3,0.4-0.4
			c0.2-0.1,0.3-0.1,0.5,0c0.2,0.1,0.3,0.2,0.4,0.4c0.1,0.2,0,0.3-0.1,0.5c-0.1,0.2-0.3,0.3-0.5,0.4c-0.2,0.1-0.5,0.1-0.7-0.1
			c-0.3-0.1-0.4-0.3-0.5-0.5c-0.1-0.3-0.1-0.6,0.1-0.9c0.2-0.3,0.4-0.5,0.8-0.7c0.3-0.1,0.7-0.1,1,0.1c0.4,0.2,0.6,0.5,0.8,0.9
			c0.2,0.5,0.2,0.9-0.1,1.4c-0.2,0.4-0.6,0.8-1.1,1c-0.4,0.2-0.9,0.2-1.6,0.2c-0.2,0-0.9-0.1-1.9-0.3c-0.6-0.1-1.1-0.2-1.4-0.2
			c-1-0.1-1.6,0-2,0.1c-0.2,0.1-34,0.1-34,0.1c0,0-1.1,0-1.5,0.1c-0.4,0.1-0.5,0.2-0.7,0.2c-0.1,0-0.2-0.5,0-0.5
			c0.2,0,0.4-0.1,0.6-0.1C89.1,80.2,90.4,80.2,90.4,80.2z"/>
	</g>
	<g>
		<path class="st6" d="M89.5,80.4C89.5,80.4,89.5,80.4,89.5,80.4c-0.1,0.1-0.2,0.1-0.3,0.1c-0.1,0-0.2,0.1-0.4,0.1
			c-0.1,0-0.3,0.1-0.4,0.1c-0.2,0.1-0.3,0.1-0.4,0.1c-0.2,0-0.4,0.1-0.6,0.1c-0.3,0-0.6-0.1-1-0.2c-0.3-0.1-0.7-0.2-1.1-0.3
			c-0.2-0.1-0.4-0.1-0.4-0.1c0,0,0-0.1,0.1-0.1c0.1,0,0.3,0,0.4-0.1c0.1,0,0.2-0.1,0.3-0.1c0.6-0.2,1.1-0.3,1.4-0.3
			c0.3,0,0.5,0,0.8,0.1c0.2,0.1,0.4,0.1,0.6,0.2c0.2,0,0.4,0.1,0.6,0.1C89.4,80.3,89.5,80.3,89.5,80.4z M89.4,82.2
			c0,0.1-0.1,0.2-0.2,0.2c-0.1,0-0.1,0-0.1-0.1c0,0,0,0,0-0.1c0,0,0-0.1,0-0.1c0-0.1-0.1-0.2-0.3-0.3c-0.2-0.1-0.4-0.1-0.7-0.1
			c-0.1,0-0.3,0-0.5,0.1c-0.3,0.1-0.5,0.1-0.7,0.1c-0.4,0-0.8-0.1-1.2-0.4c-0.3-0.2-0.6-0.4-0.7-0.5c-0.2-0.1-0.2-0.3-0.2-0.4
			c0-0.1,0.1-0.2,0.2-0.3c0.1-0.2,0.3-0.4,0.6-0.5c0.3-0.2,0.5-0.3,0.7-0.4c0.3-0.1,0.6-0.1,0.9-0.1c0.1,0,0.3,0,0.6,0.1
			c0.3,0.1,0.5,0.1,0.6,0.1c0.3,0,0.5,0,0.7-0.1c0.2-0.1,0.2-0.2,0.2-0.3c0,0,0-0.1,0-0.1s0-0.1,0-0.1c0-0.1,0-0.1,0.1-0.1
			c0.1,0,0.1,0,0.1,0.1c0,0.1,0.1,0.1,0.1,0.2c0,0.2-0.2,0.4-0.7,0.6c-0.5,0.2-1.1,0.3-1.9,0.3c0,0-0.1,0-0.2,0c-0.1,0-0.2,0-0.2,0
			c-0.4,0-0.7,0.1-1.1,0.3c-0.2,0.1-0.3,0.3-0.3,0.5c0,0.1,0.1,0.3,0.2,0.4c0.1,0.1,0.3,0.2,0.5,0.3c0.1,0,0.2,0,0.4,0.1
			c0.3,0,0.5,0,0.6,0.1c0.9,0.1,1.5,0.2,1.8,0.3C89.1,81.6,89.4,81.8,89.4,82.2z M88,80.4c0,0-0.1,0-0.2-0.1c-0.1,0-0.2,0-0.3,0
			c0,0-0.1,0-0.4,0s-0.7,0-1,0c0,0,0,0-0.1,0c0,0,0,0,0,0c0,0,0.1,0,0.3,0.1c0.2,0,0.5,0,0.9,0c0.1,0,0.2,0,0.4,0
			C87.8,80.4,87.9,80.4,88,80.4C88,80.4,88,80.4,88,80.4z"/>
	</g>
	<g>
		<path class="st6" d="M84.9,80.2c0,0.6-0.2,1-0.5,1.4c-0.3,0.3-0.8,0.5-1.4,0.5c-0.4,0-0.8-0.2-1.2-0.5c-0.4-0.4-0.5-0.8-0.5-1.3
			c0-0.7,0.4-1.2,1.1-1.7c0.1-0.1,0.4-0.1,0.7-0.1c0.6,0,1.1,0.3,1.4,0.8C84.8,79.6,84.9,79.9,84.9,80.2z M84.5,80.3
			c0-0.2,0-0.4-0.1-0.6c-0.1-0.2-0.3-0.4-0.5-0.6c-0.3-0.2-0.5-0.3-0.8-0.3c-0.4,0-0.7,0.1-1,0.4c-0.3,0.3-0.4,0.6-0.4,1
			c0,0.4,0.1,0.8,0.4,1.1c0.3,0.3,0.6,0.4,1,0.4c0.4,0,0.8-0.1,1-0.4C84.4,81.1,84.5,80.7,84.5,80.3z M83.7,80.2
			c0,0.2,0,0.3-0.1,0.4c-0.1,0.1-0.2,0.2-0.4,0.2c-0.1,0-0.3-0.1-0.4-0.2c-0.1-0.1-0.2-0.2-0.2-0.4c0-0.1,0.1-0.2,0.2-0.4
			c0.1-0.1,0.2-0.2,0.3-0.2c0.1,0,0.3,0.1,0.4,0.2C83.6,79.9,83.7,80,83.7,80.2z"/>
	</g>
	<line class="st7" x1="34.6" y1="25.3" x2="34.6" y2="77.4"/>
	<line class="st7" x1="131" y1="25.3" x2="131" y2="77.4"/>
	<rect x="37.4" y="25.9" class="st8" width="90.7" height="51"/>
	<g>
		<path class="st9" d="M46.9,57v-15h11.1v2.5H50v3.3h7.5v2.5H50v4.1h8.4V57H46.9z"/>
		<path class="st9" d="M61,57v-15h3l6.2,10v-10h2.8v15h-3l-6.1-9.8V57H61z"/>
		<path class="st9" d="M79.5,57V44.5H75v-2.5H87v2.5h-4.5V57H79.5z"/>
		<path class="st9" d="M88.9,57v-15h11.1v2.5H92v3.3h7.5v2.5H92v4.1h8.4V57H88.9z"/>
		<path class="st9" d="M103,57v-15h6.4c1.6,0,2.8,0.1,3.5,0.4c0.7,0.3,1.3,0.8,1.7,1.4s0.7,1.5,0.7,2.4c0,1.1-0.3,2.1-1,2.8
			s-1.7,1.2-3,1.4c0.7,0.4,1.2,0.8,1.6,1.3s1,1.3,1.7,2.4l1.8,2.9h-3.6l-2.2-3.3c-0.8-1.2-1.3-1.9-1.6-2.2s-0.6-0.5-0.9-0.6
			c-0.3-0.1-0.8-0.2-1.5-0.2H106V57H103z M106,48.3h2.2c1.5,0,2.4-0.1,2.7-0.2s0.6-0.3,0.9-0.6s0.3-0.7,0.3-1.1
			c0-0.5-0.1-0.9-0.4-1.2c-0.3-0.3-0.7-0.5-1.1-0.6c-0.2,0-1-0.1-2.2-0.1H106V48.3z"/>
	</g>
</g>
</svg>
