<?xml version="1.0" encoding="utf-8"?>
<!-- Generator: Adobe Illustrator 24.1.0, SVG Export Plug-In . SVG Version: 6.00 Build 0)  -->
<svg version="1.1" id="Layer_1" xmlns="http://www.w3.org/2000/svg" xmlns:xlink="http://www.w3.org/1999/xlink" x="0px" y="0px"
	 viewBox="0 0 56 56" style="enable-background:new 0 0 56 56;" xml:space="preserve">
<style type="text/css">
	.st0{fill:#F3F2F7;}
	.st1{fill:#A2BBD2;}
	.st2{fill:none;stroke:#000000;stroke-width:0.5;stroke-linecap:round;stroke-miterlimit:10;}
	.st3{fill:#0A1B4F;}
	.st4{font-family:'HelveticaNeue-Bold';}
	.st5{font-size:26px;}
	.st6{fill:#5C8EAC;}
	.st7{fill:#4E466F;}
	.st8{fill:none;stroke:#A2BBD2;stroke-width:0.5;stroke-linecap:round;stroke-miterlimit:10;}
</style>
<g>
	<ellipse cx="30.3" cy="50.7" rx="24.7" ry="4.6"/>
	<circle class="st0" cx="25.3" cy="24.5" r="23.9"/>
	<circle class="st1" cx="25" cy="25.4" r="23"/>
	<path class="st2" d="M8.5,41.7c-9.4-9.4-9.4-24.5,0-33.9s24.5-9.4,33.9,0c8.8,8.8,9.3,22.8,1.5,32.2"/>
	<text transform="matrix(1 0 0 1 17.1854 34.6663)" class="st3 st4 st5">X</text>
	<ellipse transform="matrix(0.332 -0.9433 0.9433 0.332 14.3918 37.69)" class="st0" cx="33.8" cy="8.7" rx="2.9" ry="5.1"/>
	<path class="st6" d="M5.7,44.4c0-2.1,9.1-3.8,20.3-3.8s20.3,1.7,20.3,3.8v6c0,2.1-9.1,3.8-20.3,3.8S5.7,52.5,5.7,50.4V44.4z"/>
	<ellipse class="st7" cx="26" cy="44.4" rx="20.3" ry="3.8"/>
	<path class="st6" d="M43.9,43.1c0,1.9-8,3.4-18,3.4S8,45,8,43.1v-3c0-1.9,8-3.4,18-3.4s18,1.5,18,3.4V43.1z"/>
	<path class="st8" d="M43.9,40.4c0,1.9-8,3.4-18,3.4S8,42.3,8,40.4"/>
	<ellipse class="st7" cx="26" cy="39.3" rx="11.6" ry="2.2"/>
</g>
</svg>
