<?xml version="1.0" encoding="utf-8"?>
<!-- Generator: Adobe Illustrator 24.1.0, SVG Export Plug-In . SVG Version: 6.00 Build 0)  -->
<svg version="1.1" id="Layer_1" xmlns="http://www.w3.org/2000/svg" xmlns:xlink="http://www.w3.org/1999/xlink" x="0px" y="0px"
	 viewBox="0 0 38 50" style="enable-background:new 0 0 38 50;" xml:space="preserve">
<style type="text/css">
	.st0{fill:#534741;}
	.st1{fill:#CCCCCC;}
	.st2{fill:#C7B299;}
	.st3{fill:none;stroke:#CCCCCC;stroke-width:1.6;stroke-linecap:round;stroke-miterlimit:10;}
	.st4{fill:none;stroke:#CCCCCC;stroke-linecap:round;stroke-miterlimit:10;}
	.st5{fill:none;stroke:#CCCCCC;stroke-width:0.6;stroke-linecap:round;stroke-miterlimit:10;}
</style>
<g>
	<ellipse cx="25.5" cy="47.4" rx="8.1" ry="0.9"/>
	<path class="st0" d="M21.1,48.1c0-0.8,1.6-1.5,3.5-1.5s2.5,0.7,2.5,1.5H21.1z"/>
	<path class="st0" d="M34.9,48.1c0-0.8-1.6-1.5-3.5-1.5s-2.5,0.7-2.5,1.5H34.9z"/>
	<path class="st0" d="M33.5,46.8c0,0,3.4-10.7,3.8-21.8S36.9,1.1,36.9,1.1s-2.1,3-3,6.4C33,10.9,32.6,16,32.6,16h-9.7
		c0,0-0.4-5.1-1.3-8.6s-3-6.4-3-6.4S17.8,13.9,18.2,25c0.4,11.1,3.8,21.8,3.8,21.8H33.5z"/>
	<circle class="st1" cx="23.9" cy="22.5" r="3.1"/>
	<circle cx="22.9" cy="22.6" r="1.5"/>
	<circle class="st1" cx="31.5" cy="22.5" r="3.1"/>
	<circle cx="30.5" cy="22.6" r="1.5"/>
	<path class="st2" d="M28,34.6c1,0,2,0.9,2,0.9s0.3,1.9,0.5,4.4c0.2,2.4,2.7,7,2.7,7h-11c0,0,2.5-4.5,2.7-7s0.5-4.4,0.5-4.4
		s1-0.9,2-0.9"/>
	<path class="st2" d="M23.1,28.3c0-1.3,0.7-2.4,1.6-2.4s4.1,1.2,4.1,2.5c0,1.3-3.2,2.3-4.1,2.3S23.1,29.6,23.1,28.3z"/>
	<ellipse cx="24.6" cy="28.3" rx="1.3" ry="1.9"/>
	<path class="st3" d="M13.2,39.1c-6.6,0-12-5.6-12-12.5s5.4-12.5,12-12.5"/>
	<path class="st4" d="M13.2,34.1c-4,0-7.2-3.4-7.2-7.5S9.3,19,13.2,19"/>
	<path class="st5" d="M12.8,29.9c-1.9,0-3.4-1.6-3.4-3.6s1.5-3.6,3.4-3.6"/>
</g>
</svg>
