<?xml version="1.0" encoding="utf-8"?>
<!-- Generator: Adobe Illustrator 24.1.0, SVG Export Plug-In . SVG Version: 6.00 Build 0)  -->
<svg version="1.1" id="Layer_1" xmlns="http://www.w3.org/2000/svg" xmlns:xlink="http://www.w3.org/1999/xlink" x="0px" y="0px"
	 viewBox="0 0 84 96" style="enable-background:new 0 0 84 96;" xml:space="preserve">
<style type="text/css">
	.st0{fill:#0A1B4F;}
	.st1{fill:#CDC8C5;}
</style>
<g>
	<path class="st0" d="M20.9,6.6c-0.8-0.3-2-0.5-3.4-1.6s-3.9-3.1-3.9-3.1s-0.5-0.9,0.5-0.9s3.6,1.6,5,1.9s1.7,0.6,4.2,1.6
		s4.8,2.2,6.9,3s3.3,1.1,5.3,2.3c2,1.3,5,2.3,8.4,5.9s7.2,9.7,9.2,17.4c2,7.7,3.8,14.5,3.8,14.5s1.3-0.5,2.3,0.8
		c1.1,1.3,1.7,3,1.4,5.6c-0.3,2.7,0,9.7,0,9.7s2.7-0.3,5.3,1.1c2.7,1.4,12.7,5.9,13.8,8.6c1.1,2.7,4.1,5.2-2.8,11.1
		s-8.8,6.1-10.6,6.9s-4.1,2.2-7.3,2.5s-17.8,0.9-22.5-0.6c-4.7-1.6-7.7-1.9-10.3-2.3c-2.7-0.5-14.1-4.1-16.9-5.2S2,81.6,1.7,79.1
		c-0.3-2.5,1.6-3.9,1.6-3.9s-1.4-0.9-0.6-1.4c0.8-0.5,4.1-2,4.7-2.7s5.2-3.8,7-5c1.9-1.3,6.1-2.7,6.1-2.7s0.3-2,1.7-6.1
		c1.4-4.1,1.7-5.8,3.3-6.9c1.6-1.1,3.9-0.9,4.2-1.9s0-5.2,1.3-7.2c1.3-2,3.4-3.3,3.4-4.1c0-0.8-2.8-4.7-2.5-7.3
		c0.3-2.7,1.3-4.1,0.9-4.8c-0.3-0.8-2.2-2.8-4.1-5.9s-1.7-5.6-2.8-6.9c-1.1-1.3-2.8-2.2-3.3-3.1C22.2,8.3,21.7,6.9,20.9,6.6z"/>
	<path class="st1" d="M53.6,49.4c0.5,2.8,0.4,5.9-1.5,8.5c-5.5,7.7-17.4,2.3-17.4,2.3s5.3-0.5,11.7-6.1c1.3-1.2,2.2-2.4,2.9-3.7
		c0,0,0.6-0.1,1.8-0.4C52.4,49.8,53.6,49.4,53.6,49.4z"/>
	<path class="st1" d="M50.2,50.5c0,0,1.1,0,2.3-0.4s1.9-0.7,1.9-0.7c-0.9-4.7-3.7-8.8-3.7-8.8S52.6,45.6,50.2,50.5"/>
	<polyline class="st1" points="23.1,54.7 25.5,53.3 25.1,56.1 27.2,58.1 24.4,58.5 23.2,61.1 21.9,58.6 	"/>
	<polygon class="st1" points="30.3,15.6 28.2,15.9 29.2,14 28.3,12.1 30.4,12.6 31.9,11.1 32.1,13.2 34,14.2 32.1,15.1 31.7,17.2 	
		"/>
	<polygon class="st1" points="39.1,45.7 37.2,47 37.4,44.7 35.6,43.2 37.8,42.7 38.7,40.5 39.9,42.5 42.2,42.7 40.7,44.4 41.3,46.7 
			"/>
	<polyline class="st1" points="50.2,24.9 49.7,25.6 50.8,28.9 47.8,27.6 45.3,29.5 45.3,26.1 42.7,23.9 45.7,23.1 46.5,19.9 
		48.4,22.8 49.2,22.8 	"/>
	<polygon class="st1" points="65.1,69.8 67.7,69.7 65.9,68.4 66.5,66.7 64.1,67.3 61.9,66.3 62.2,68.1 60.3,69.1 62.8,69.6 
		63.8,71.2 	"/>
	<polygon class="st1" points="14.1,78.4 10.1,78.9 11.7,76.6 9.6,74.3 13.6,74.6 16.2,72.7 17.1,75.2 20.8,76.2 17.4,77.5 
		17.1,80.1 	"/>
	<polygon class="st1" points="61.6,84.8 57.1,86 58.7,82.8 55.9,80.1 60.7,80.1 63.5,77.3 64.8,80.5 69.4,81.5 65.4,83.4 65.4,86.8 
			"/>
	<polygon class="st1" points="37.4,78 41.3,78.6 39.7,76.3 41.9,74 37.8,74.3 35.3,72.3 34.4,74.9 30.6,75.9 34.1,77.2 34.3,79.8 	
		"/>
</g>
</svg>
