<?xml version="1.0" encoding="utf-8"?>
<!-- Generator: Adobe Illustrator 24.1.3, SVG Export Plug-In . SVG Version: 6.00 Build 0)  -->
<svg version="1.1" id="Layer_1" xmlns="http://www.w3.org/2000/svg" xmlns:xlink="http://www.w3.org/1999/xlink" x="0px" y="0px"
	 viewBox="0 0 167 96" style="enable-background:new 0 0 167 96;" xml:space="preserve">
<style type="text/css">
	.st0{opacity:0.84;fill:#111629;stroke:#7D8499;stroke-miterlimit:10;}
	.st1{fill:#A7A9AC;}
	.st2{fill:#C7972E;}
</style>
<g>
	<path class="st0" d="M166.1,82.3c0,7.5-5.7,13-13,13H13.2c-6.6,0-11.9-5.3-11.9-11.9l0.3-70.6C1.6,6.1,7,0.8,13.6,0.8h140.9
		c6.6,0,11.9,5.3,11.9,11.9L166.1,82.3z"/>
	<g>
		<path class="st1" d="M36,34.3v-2.9h7.5v6.8c-0.7,0.7-1.8,1.3-3.2,1.9s-2.8,0.8-4.2,0.8c-1.8,0-3.4-0.4-4.7-1.1
			c-1.3-0.8-2.3-1.8-3-3.2s-1-2.9-1-4.6c0-1.8,0.4-3.4,1.1-4.8s1.8-2.5,3.3-3.2c1.1-0.6,2.5-0.9,4.1-0.9c2.1,0,3.8,0.4,5,1.3
			s2,2.1,2.3,3.7l-3.4,0.6c-0.2-0.8-0.7-1.5-1.4-2S37,26.1,36,26.1c-1.5,0-2.7,0.5-3.6,1.4c-0.9,1-1.3,2.4-1.3,4.3
			c0,2,0.5,3.6,1.4,4.6c0.9,1,2.1,1.5,3.6,1.5c0.7,0,1.5-0.1,2.2-0.4s1.4-0.6,1.9-1v-2.2H36z"/>
		<path class="st1" d="M49.1,32l-3-0.5c0.3-1.2,0.9-2.1,1.7-2.7s2-0.9,3.7-0.9c1.5,0,2.6,0.2,3.3,0.5s1.2,0.8,1.5,1.3
			s0.4,1.5,0.4,2.9l0,3.8c0,1.1,0.1,1.9,0.2,2.4s0.3,1.1,0.6,1.7h-3.3c-0.1-0.2-0.2-0.5-0.3-1c-0.1-0.2-0.1-0.3-0.1-0.4
			c-0.6,0.5-1.2,1-1.8,1.2s-1.3,0.4-2.1,0.4c-1.3,0-2.3-0.3-3-1s-1.1-1.6-1.1-2.6c0-0.7,0.2-1.3,0.5-1.9s0.8-1,1.4-1.3
			s1.5-0.5,2.6-0.8c1.5-0.3,2.6-0.6,3.2-0.8v-0.3c0-0.6-0.2-1.1-0.5-1.4s-0.9-0.4-1.8-0.4c-0.6,0-1,0.1-1.4,0.3S49.3,31.4,49.1,32z
			 M53.5,34.7c-0.4,0.1-1.1,0.3-2,0.5s-1.5,0.4-1.8,0.6c-0.4,0.3-0.6,0.7-0.6,1.2c0,0.5,0.2,0.9,0.5,1.2s0.8,0.5,1.3,0.5
			c0.6,0,1.2-0.2,1.7-0.6c0.4-0.3,0.7-0.7,0.8-1.1c0.1-0.3,0.1-0.8,0.1-1.6V34.7z"/>
		<path class="st1" d="M59.8,28.2h3v1.7c1.1-1.3,2.4-2,3.9-2c0.8,0,1.5,0.2,2.1,0.5s1.1,0.8,1.4,1.5c0.5-0.7,1.1-1.2,1.8-1.5
			s1.3-0.5,2-0.5c0.9,0,1.7,0.2,2.3,0.6s1.1,0.9,1.4,1.6c0.2,0.5,0.3,1.4,0.3,2.6v8h-3.3v-7.1c0-1.2-0.1-2-0.3-2.4
			c-0.3-0.5-0.8-0.7-1.4-0.7c-0.5,0-0.9,0.1-1.3,0.4s-0.7,0.7-0.9,1.2s-0.3,1.4-0.3,2.6v6h-3.3v-6.8c0-1.2-0.1-2-0.2-2.3
			s-0.3-0.6-0.5-0.8s-0.6-0.3-1-0.3c-0.5,0-1,0.1-1.4,0.4c-0.4,0.3-0.7,0.7-0.9,1.2s-0.3,1.4-0.3,2.6v6h-3.3V28.2z"/>
		<path class="st1" d="M88.6,36.7l3.3,0.6c-0.4,1.2-1.1,2.1-2,2.7s-2,0.9-3.4,0.9c-2.2,0-3.8-0.7-4.8-2.1c-0.8-1.1-1.2-2.6-1.2-4.3
			c0-2.1,0.5-3.7,1.6-4.8s2.4-1.8,4.1-1.8c1.9,0,3.3,0.6,4.4,1.8s1.6,3.1,1.5,5.6h-8.2c0,1,0.3,1.7,0.8,2.3s1.1,0.8,1.9,0.8
			c0.5,0,0.9-0.1,1.3-0.4S88.4,37.3,88.6,36.7z M88.7,33.4c0-1-0.3-1.7-0.7-2.2s-1-0.7-1.7-0.7c-0.7,0-1.3,0.3-1.8,0.8
			s-0.7,1.2-0.7,2.1H88.7z"/>
		<path class="st1" d="M35.2,63.9l3.4-0.3c0.2,1.1,0.6,2,1.2,2.5s1.5,0.8,2.5,0.8c1.1,0,2-0.2,2.5-0.7s0.8-1,0.8-1.7
			c0-0.4-0.1-0.8-0.4-1s-0.7-0.5-1.2-0.7c-0.4-0.1-1.3-0.4-2.8-0.8c-1.9-0.5-3.2-1-3.9-1.7c-1.1-0.9-1.6-2.1-1.6-3.5
			c0-0.9,0.2-1.7,0.7-2.5s1.2-1.3,2.1-1.7s2.1-0.6,3.4-0.6c2.2,0,3.8,0.5,4.9,1.4s1.7,2.2,1.7,3.8l-3.5,0.2c-0.1-0.9-0.5-1.5-1-1.9
			S43,54.9,42,54.9c-1,0-1.8,0.2-2.4,0.6c-0.4,0.3-0.6,0.6-0.6,1.1c0,0.4,0.2,0.8,0.5,1c0.4,0.4,1.5,0.8,3.2,1.1s2.9,0.8,3.7,1.2
			s1.4,1,1.9,1.7s0.7,1.7,0.7,2.7c0,1-0.3,1.9-0.8,2.8S47,68.7,46,69.1s-2.2,0.6-3.7,0.6c-2.2,0-3.8-0.5-5-1.5S35.4,65.8,35.2,63.9z
			"/>
		<path class="st1" d="M57.7,57v2.6h-2.2v5c0,1,0,1.6,0.1,1.8s0.1,0.3,0.3,0.4s0.3,0.2,0.6,0.2c0.3,0,0.7-0.1,1.3-0.3l0.3,2.6
			c-0.8,0.3-1.6,0.5-2.6,0.5c-0.6,0-1.1-0.1-1.6-0.3s-0.8-0.5-1-0.8s-0.4-0.7-0.5-1.3c-0.1-0.4-0.1-1.2-0.1-2.3v-5.4h-1.5V57h1.5
			v-2.5l3.3-1.9V57H57.7z"/>
		<path class="st1" d="M62.5,60.8l-3-0.5c0.3-1.2,0.9-2.1,1.7-2.7s2-0.9,3.7-0.9c1.5,0,2.6,0.2,3.3,0.5s1.2,0.8,1.5,1.3
			s0.4,1.5,0.4,2.9l0,3.8c0,1.1,0.1,1.9,0.2,2.4s0.3,1.1,0.6,1.7h-3.3c-0.1-0.2-0.2-0.5-0.3-1c-0.1-0.2-0.1-0.3-0.1-0.4
			c-0.6,0.5-1.2,1-1.8,1.2s-1.3,0.4-2.1,0.4c-1.3,0-2.3-0.3-3-1s-1.1-1.6-1.1-2.6c0-0.7,0.2-1.3,0.5-1.9c0.3-0.6,0.8-1,1.4-1.3
			s1.5-0.5,2.6-0.8c1.5-0.3,2.6-0.6,3.2-0.8V61c0-0.6-0.2-1.1-0.5-1.4s-0.9-0.4-1.8-0.4c-0.6,0-1,0.1-1.4,0.3S62.7,60.2,62.5,60.8z
			 M66.9,63.5c-0.4,0.1-1.1,0.3-2,0.5c-0.9,0.2-1.5,0.4-1.8,0.6c-0.4,0.3-0.6,0.7-0.6,1.2c0,0.5,0.2,0.9,0.5,1.2s0.8,0.5,1.3,0.5
			c0.6,0,1.2-0.2,1.7-0.6c0.4-0.3,0.7-0.7,0.8-1.1c0.1-0.3,0.1-0.8,0.1-1.6V63.5z"/>
		<path class="st1" d="M79.1,57v2.6h-2.2v5c0,1,0,1.6,0.1,1.8s0.1,0.3,0.3,0.4s0.3,0.2,0.6,0.2c0.3,0,0.7-0.1,1.3-0.3l0.3,2.6
			c-0.8,0.3-1.6,0.5-2.6,0.5c-0.6,0-1.1-0.1-1.6-0.3s-0.8-0.5-1-0.8s-0.4-0.7-0.5-1.3c-0.1-0.4-0.1-1.2-0.1-2.3v-5.4H72V57h1.5v-2.5
			l3.3-1.9V57H79.1z"/>
		<path class="st1" d="M80.2,65.9l3.3-0.5c0.1,0.6,0.4,1.1,0.9,1.5s1,0.5,1.8,0.5c0.9,0,1.5-0.2,1.9-0.5c0.3-0.2,0.4-0.5,0.4-0.9
			c0-0.2-0.1-0.5-0.2-0.6c-0.2-0.2-0.5-0.3-1.1-0.4c-2.7-0.6-4.3-1.1-5.1-1.6c-1-0.7-1.5-1.6-1.5-2.8c0-1.1,0.4-2,1.3-2.7
			s2.2-1.1,4-1.1c1.7,0,3,0.3,3.8,0.8s1.4,1.4,1.7,2.5l-3.1,0.6c-0.1-0.5-0.4-0.9-0.8-1.1s-0.9-0.4-1.6-0.4c-0.9,0-1.5,0.1-1.9,0.4
			c-0.2,0.2-0.4,0.4-0.4,0.7c0,0.2,0.1,0.4,0.3,0.6c0.3,0.2,1.3,0.5,3.1,0.9s3,0.9,3.7,1.5c0.7,0.6,1,1.4,1,2.4
			c0,1.1-0.5,2.1-1.4,2.9s-2.4,1.2-4.2,1.2c-1.7,0-3-0.3-4-1S80.5,67.1,80.2,65.9z"/>
	</g>
	<g>
		<path class="st2" d="M144,46c0,2.4-0.6,4.8-1.8,7.3c-1.2,2.5-2.7,4.5-4.6,6c-2,1.7-3.9,2.8-5.6,3.5c-1.8,0.7-3.8,1-6.1,1
			c-5.5,0-9.6-1.2-12.1-3.6c-4.2-4-6.3-8.6-6.3-13.8c0-3.4,0.6-6.1,1.8-8.2c2-3.4,4.3-5.9,6.9-7.4c2.6-1.6,5.8-2.4,9.5-2.4h1.2
			c2,0,4.1,0.5,6.4,1.4c2.5,1,4.5,2.4,6.2,4.2c1.5,1.7,2.7,3.3,3.4,5C143.6,40.9,144,43.2,144,46z M142.8,44.8
			c0-0.3-0.2-1.4-0.6-3.3c-0.2-1-0.5-2.2-1-3.6c-1.1-2.2-3.2-4.4-6.4-6.4c-3.2-1.4-6-2.2-8.4-2.2c-2.3,0-4.6,0.4-6.7,1.1
			s-3.9,1.7-5.2,2.9c-2.4,2.1-4,4.2-4.9,6.3c-0.8,1.9-1.2,4.4-1.2,7.4c0,1.5,0.4,3.3,1.1,5.1c0.8,2.1,1.9,3.9,3.2,5.6
			c3,3.5,7.2,5.3,12.8,5.3c4.9,0,9.3-2,13.1-5.9C141.4,54,142.8,50,142.8,44.8z M141.4,45.4c0,1.7-0.2,2.7-0.6,3.2
			c0.1,0.2,0.1,0.3,0.1,0.5c0,0.6-0.7,2.2-2,4.6c-0.7,1.4-1.3,2.4-1.8,2.9c-0.8,1-1.9,1.9-3.2,2.7c-2.8,1.6-5.8,2.4-9,2.4
			c-0.9,0-2.1-0.2-3.6-0.6c-1.5-0.4-2.7-0.8-3.7-1.3c-2.5-1.3-4.4-3.1-5.8-5.5c-1.4-2.4-2-5.1-2-8c0-1.1,0.1-2.3,0.4-3.6
			c0.2-1,0.4-1.7,0.6-2c1.5-3.2,3.6-5.7,6.3-7.5c2.6-1.8,5.4-2.6,8.5-2.6c3.9,0,6.9,0.9,9,2.6c2.6,2.1,4.4,4.1,5.3,5.8
			C140.8,40.6,141.4,42.8,141.4,45.4z M123.1,45.1c-0.3-0.9-1.1-1.7-2.2-2.4c-1.9-1.2-2.9-1.8-3-1.8c-0.4-0.3-0.9-1-1.4-1.9
			c-0.5-1-1-1.8-1.4-2.2c-0.6,0.3-1.1,0.9-1.5,1.7c-0.1,0.1-0.4,0.9-1,2.5c-0.1,0.2-0.3,0.8-0.5,1.6c-0.1,0.6-0.2,1.4-0.3,2.2
			c-0.1,0.7-0.2,1.1-0.2,1.2c0,1.5,0.3,3,0.9,4.5c1.2,3,2.2,4.5,3,4.5c0.3-0.7,0.6-1.3,0.8-1.7c1.6-1.2,3.3-2.5,4.9-3.7
			c1.2-1,1.8-1.8,1.8-2.6v-0.2c-0.5-0.3-1.4-0.5-2.7-0.5c0.3,0-0.5,0.1-2.4,0.2c-1,1.4-1.8,2.2-2.5,2.2c-0.6,0-1.2-0.2-1.8-0.7
			c-0.6-0.5-0.9-1-0.9-1.5c0-0.9,0.2-1.7,0.7-2.3c0.4-0.6,1-0.9,1.7-0.9c0.7,0,1.3,0.3,1.8,0.9c0.7,0.9,1.7,1.3,2.9,1.3
			C121.3,45.5,122.4,45.3,123.1,45.1z M134.2,56c-0.4-0.2-1.1-0.7-2.1-1.4c-1.4-2.3-3-4.4-4.8-6.1h-0.5c-0.1,0.2-0.2,0.4-0.3,0.7
			c0,0.1,0,0.2,0,0.4c0,0.2,0,0.3,0,0.4c0,0.5-0.1,1.3-0.2,2.3c0,0.5,0.4,1.2,1.1,1.9c0.7,0.7,1.1,1.2,1.1,1.4c0,0.5-0.2,1-0.7,1.6
			c-0.5,0.6-1,0.9-1.4,0.9c-0.6,0-1.2-0.2-1.8-0.6s-0.8-0.8-0.8-1.3s0.2-1,0.6-1.5l0.7-1c0.2-0.2,0.3-1.3,0.3-3.2
			c0-1.2-0.3-1.8-1-1.8c-0.4,0-0.7,0.3-1.1,1c-0.7,1.2-1.2,2.1-1.5,2.5c-0.9,1.2-1.6,2-2.2,2.5c-0.9,0.8-1.9,1.4-3,1.7
			c0.1,0.7,0.5,1.2,1,1.6c0.5,0.3,1.3,0.6,2.4,0.8c0,0,0.9,0.2,2.5,0.6c0.9,0.2,1.6,0.3,2.1,0.3h1.4c1.8,0,3.6-0.4,5.4-1.3
			C132.9,57.8,133.9,56.9,134.2,56z M134.3,36.1c-0.9-2.3-3.8-3.5-8.6-3.5c-1.3,0-2.9,0.3-4.7,0.8c-2.3,0.6-3.6,1.4-3.7,2.3
			c1.2,0.7,1.9,1.2,2.2,1.4c0.6,0.5,1,1.1,1.3,1.7c0.1,0.4,0.3,0.8,0.4,1.1c0.1,0.4,0.4,0.7,0.7,1c0.1,0.1,0.4,0.6,1,1.5
			c0.3,0.6,0.8,0.8,1.5,0.8c0.2,0,0.3,0,0.4,0c0.3-0.3,0.5-1.5,0.5-3.4c0-0.6-0.3-1.2-0.9-1.8s-0.9-1.3-0.9-1.9
			c0-0.6,0.2-1.1,0.6-1.6c0.4-0.5,0.9-0.7,1.5-0.7c0.6,0,1.2,0.2,1.6,0.7c0.5,0.5,0.7,1,0.7,1.5c0,0.1-0.3,0.6-0.8,1.6
			c-0.5,1-0.8,1.9-0.8,2.7c0,1,0.2,2,0.6,3.1c0.4-0.3,0.8-0.7,1.3-1c0.4-0.4,0.8-0.8,1.1-1.2c1.4-2.1,2.1-3.1,2.2-3.2
			C132.4,37,133.3,36.4,134.3,36.1z M139.2,45.2c0-1.4-0.4-3.2-1.2-5.4c-0.7-1.5-1.5-2.3-2.2-2.3c-0.3,0.2-0.6,0.7-1.1,1.5
			c-0.4,0.7-0.9,1.3-1.3,1.6c-0.9,0.6-1.8,1.2-2.6,1.7c-1,0.7-1.8,1.5-2.3,2.3c1,0.5,1.7,0.8,2.3,0.8h1.6c0.4,0,0.9-0.4,1.7-1.2
			c0.8-0.8,1.4-1.2,2-1.2c0.6,0,1.2,0.2,1.6,0.7c0.5,0.4,0.7,1,0.7,1.6c0,1.8-0.7,2.6-2.2,2.6c-0.2,0-0.9-0.3-2-0.9
			c-1.2-0.6-2.3-0.9-3.4-0.9c-0.8,0-1.7,0.2-2.6,0.7c0.4,0.9,1.1,1.7,2,2.3c0.8,0.5,1.5,0.9,2.3,1.4c1.3,0.8,2.4,2.1,3.2,3.8
			c1.1-0.3,1.9-1.2,2.6-2.8C138.8,50,139.2,47.9,139.2,45.2z"/>
	</g>
</g>
</svg>
