<?xml version="1.0" encoding="utf-8"?>
<!-- Generator: Adobe Illustrator 24.1.3, SVG Export Plug-In . SVG Version: 6.00 Build 0)  -->
<svg version="1.1" id="Layer_1" xmlns="http://www.w3.org/2000/svg" xmlns:xlink="http://www.w3.org/1999/xlink" x="0px" y="0px"
	 viewBox="0 0 167 96" style="enable-background:new 0 0 167 96;" xml:space="preserve">
<style type="text/css">
	.st0{opacity:0.84;fill:#111629;stroke:#7D8499;stroke-miterlimit:10;}
	.st1{fill:#A7A9AC;}
	.st2{fill:#C7972E;}
</style>
<g>
	<path class="st0" d="M165.8,82.3c0,7.5-5.7,13-13,13H13C6.4,95.3,1,89.9,1,83.3l0.3-70.6c0-6.6,5.3-11.9,11.9-11.9h140.9
		c6.6,0,11.9,5.3,11.9,11.9L165.8,82.3z"/>
	<g>
		<path class="st1" d="M46.3,73.7V59.4h-5.1v-2.9h13.7v2.9h-5.1v14.3H46.3z"/>
		<path class="st1" d="M63.5,73.7v-1.9c-0.5,0.7-1,1.2-1.8,1.6s-1.5,0.6-2.3,0.6c-0.8,0-1.6-0.2-2.2-0.6s-1.1-0.9-1.4-1.5
			s-0.4-1.6-0.4-2.8v-7.9h3.3v5.7c0,1.8,0.1,2.8,0.2,3.2s0.3,0.7,0.7,0.9s0.7,0.3,1.2,0.3c0.6,0,1.1-0.2,1.5-0.5s0.8-0.7,0.9-1.1
			s0.2-1.6,0.2-3.4v-5.2h3.3v12.4H63.5z"/>
		<path class="st1" d="M75.6,61.2v2.6h-2.2v5c0,1,0,1.6,0.1,1.8s0.1,0.3,0.3,0.4s0.3,0.2,0.6,0.2c0.3,0,0.7-0.1,1.3-0.3l0.3,2.6
			c-0.8,0.3-1.6,0.5-2.6,0.5c-0.6,0-1.1-0.1-1.6-0.3s-0.8-0.5-1-0.8s-0.4-0.7-0.5-1.3c-0.1-0.4-0.1-1.2-0.1-2.3v-5.4h-1.5v-2.6h1.5
			v-2.5l3.3-1.9v4.4H75.6z"/>
		<path class="st1" d="M77.1,67.3c0-1.1,0.3-2.2,0.8-3.2c0.5-1,1.3-1.8,2.3-2.3s2.1-0.8,3.3-0.8c1.9,0,3.4,0.6,4.6,1.8
			s1.8,2.8,1.8,4.6c0,1.9-0.6,3.4-1.8,4.7s-2.7,1.9-4.6,1.9c-1.1,0-2.2-0.3-3.3-0.8s-1.8-1.3-2.4-2.3S77.1,68.7,77.1,67.3z
			 M80.5,67.4c0,1.2,0.3,2.2,0.9,2.8s1.3,1,2.2,1s1.6-0.3,2.2-1s0.9-1.6,0.9-2.9c0-1.2-0.3-2.2-0.9-2.8c-0.6-0.7-1.3-1-2.2-1
			s-1.6,0.3-2.2,1C80.8,65.3,80.5,66.2,80.5,67.4z"/>
		<path class="st1" d="M95.7,73.7h-3.3V61.2h3.1V63c0.5-0.8,1-1.4,1.4-1.7s0.9-0.4,1.4-0.4c0.8,0,1.5,0.2,2.2,0.6l-1,2.9
			c-0.6-0.4-1.1-0.5-1.5-0.5c-0.5,0-0.9,0.1-1.2,0.4S96.2,65,96,65.6s-0.3,2.1-0.3,4.2V73.7z"/>
		<path class="st1" d="M101.9,59.5v-3h3.3v3H101.9z M101.9,73.7V61.2h3.3v12.4H101.9z"/>
		<path class="st1" d="M111,65l-3-0.5c0.3-1.2,0.9-2.1,1.7-2.7s2-0.9,3.7-0.9c1.5,0,2.6,0.2,3.3,0.5s1.2,0.8,1.5,1.3
			s0.4,1.5,0.4,2.9l0,3.8c0,1.1,0.1,1.9,0.2,2.4s0.3,1.1,0.6,1.7h-3.3c-0.1-0.2-0.2-0.5-0.3-1c-0.1-0.2-0.1-0.3-0.1-0.4
			c-0.6,0.5-1.2,1-1.8,1.2s-1.3,0.4-2.1,0.4c-1.3,0-2.3-0.3-3-1s-1.1-1.6-1.1-2.6c0-0.7,0.2-1.3,0.5-1.9s0.8-1,1.4-1.3
			s1.5-0.5,2.6-0.8c1.5-0.3,2.6-0.6,3.2-0.8v-0.3c0-0.6-0.2-1.1-0.5-1.4c-0.3-0.3-0.9-0.4-1.8-0.4c-0.6,0-1,0.1-1.4,0.3
			C111.5,64,111.2,64.4,111,65z M115.4,67.7c-0.4,0.1-1.1,0.3-2,0.5s-1.5,0.4-1.8,0.6c-0.4,0.3-0.6,0.7-0.6,1.2
			c0,0.5,0.2,0.9,0.5,1.2s0.8,0.5,1.3,0.5c0.6,0,1.2-0.2,1.7-0.6c0.4-0.3,0.7-0.7,0.8-1.1c0.1-0.3,0.1-0.8,0.1-1.6V67.7z"/>
		<path class="st1" d="M121.9,73.7V56.5h3.3v17.2H121.9z"/>
	</g>
	<g>
		<path class="st2" d="M101,46.9c0,0.3-0.2,0.4-0.5,0.4c-0.6,0-1.9-0.7-3.9-2.1C93.6,43,91,39.9,89,36.1c-1.7,2.5-2.6,6.5-2.6,11.9
			c0,0.1,0,0.2,0,0.3c0,0.1,0,0.2,0,0.2c0,0.2-0.2,0.4-0.7,0.4c-1.5,0-2.3,0-2.5-0.1c-0.5-0.1-0.8-0.3-0.8-0.7c0-0.1,0-0.2,0.1-0.5
			c0-0.3,0.1-0.5,0.1-0.7c0-0.6-0.1-1.8-0.4-3.5c-0.4-2.6-1.1-5.3-1.9-8.1l-0.3,0.1c-0.8,2.8-2.6,5.6-5.3,8.3
			c-1.1,1.1-2.2,1.9-3.2,2.6c-1,0.6-1.7,0.8-2.2,0.8c-0.2,0-0.4-0.1-0.7-0.2v-0.4c2.4-0.9,4.7-2.5,6.7-4.8c2.1-2.4,3.5-5.2,4.2-8.4
			c-0.9-2.7-2.2-5.3-3.7-7.8c-1.6-2.5-3.2-4.3-4.9-5.4l-2.1-1.4c0-0.2,0.2-0.4,0.5-0.4c0.3,0,1,0.3,2,0.8c1.3,0.6,2.7,1.5,4.2,2.6
			c2.4,1.7,4.5,4.2,6.5,7.4c1.3-1.7,2.1-4.1,2.5-7.3c0.1-0.4,0.3-1.4,0.4-3.1c0-0.5,0.2-0.8,0.4-0.9c0.2-0.1,0.9-0.2,2-0.2
			c0,0,0.1,0,0.1,0c0,0,0.1,0,0.1,0c0.4,0,0.7,0.3,0.8,0.9c0.1,1,0.3,2,0.4,3c0.6,3.1,1.3,5.9,2.2,8.5c0.1-0.1,0.4-0.6,0.9-1.6
			c0.6-1.3,1.2-2.4,1.9-3.4c1.5-2,3-3.7,4.5-5.1c1.1-0.9,1.8-1.4,2-1.4c0.2,0,0.4,0.2,0.6,0.5l0,0L99.5,20c-1.2,0.9-2.4,2.1-3.5,3.5
			c-1.4,1.7-2.4,3.3-3.2,4.9c-0.7,1.4-1,2.4-1,3.2c0,1,0.3,2.5,1,4.3c0.8,2.2,1.8,4.2,3.1,6.2c1.1,1.8,2.3,3,3.6,3.6
			C100.5,46.3,101,46.7,101,46.9z M88.4,34.8c0,0.2-0.8-2.3-2.5-7.4c-0.1-0.4-0.3-1-0.5-1.8c-0.1-0.4-0.2-0.6-0.3-0.6
			c0,0-0.5,0.9-1.3,2.7c-0.2,0.5-0.6,1.1-1,1.7c-0.3,0.5-0.4,0.7-0.4,0.8c0,0,0.4,1,1.1,2.8c0.9,2.2,1.7,4.5,2.3,7
			C87.5,36.6,88.4,34.9,88.4,34.8z"/>
	</g>
</g>
</svg>
