<?xml version="1.0" encoding="utf-8"?>
<!-- Generator: Adobe Illustrator 24.1.3, SVG Export Plug-In . SVG Version: 6.00 Build 0)  -->
<svg version="1.1" id="Layer_1" xmlns="http://www.w3.org/2000/svg" xmlns:xlink="http://www.w3.org/1999/xlink" x="0px" y="0px"
	 viewBox="0 0 143 83" style="enable-background:new 0 0 143 83;" xml:space="preserve">
<style type="text/css">
	.st0{fill:#282829;stroke:#6D6E71;stroke-miterlimit:10;}
	.st1{fill:#A7A9AC;}
	.st2{fill:#6D6E71;}
</style>
<g>
	<path class="st0" d="M141.4,70.4c0,6.3-4.8,11-11,11H11.9c-5.6,0-10.1-4.5-10.1-10.1L2,11.5C2,5.9,6.5,1.4,12.1,1.4h119.5
		c5.6,0,10.1,4.5,10.1,10.1L141.4,70.4z"/>
	<g>
		<path class="st1" d="M20.5,65.8l-4.6-12.9h2.8l3.3,9.5l3.2-9.5h2.8l-4.6,12.9H20.5z"/>
		<path class="st1" d="M29.1,65.8V52.9h2.6v12.9H29.1z"/>
		<path class="st1" d="M34.2,52.9h5.2c1,0,1.8,0,2.3,0.1s0.9,0.3,1.3,0.5s0.7,0.6,1,1.1s0.4,1,0.4,1.5c0,0.6-0.2,1.2-0.5,1.7
			s-0.8,0.9-1.3,1.1c0.8,0.2,1.4,0.6,1.8,1.2s0.6,1.2,0.6,1.9c0,0.6-0.1,1.2-0.4,1.7s-0.6,1-1.1,1.3s-1.1,0.5-1.7,0.6
			c-0.4,0-1.5,0.1-3.1,0.1h-4.4V52.9z M36.8,55.1v3h1.7c1,0,1.6,0,1.9,0c0.4-0.1,0.8-0.2,1.1-0.5s0.4-0.6,0.4-1c0-0.4-0.1-0.7-0.3-1
			s-0.5-0.4-1-0.5c-0.3,0-1,0-2.2,0H36.8z M36.8,60.2v3.4h2.4c0.9,0,1.5,0,1.8-0.1c0.4-0.1,0.7-0.2,0.9-0.5s0.4-0.6,0.4-1.1
			c0-0.4-0.1-0.7-0.3-1s-0.5-0.5-0.8-0.6s-1.1-0.2-2.3-0.2H36.8z"/>
		<path class="st1" d="M47.2,65.8V52.9h5.5c1.4,0,2.4,0.1,3,0.3s1.1,0.6,1.5,1.2s0.6,1.3,0.6,2c0,1-0.3,1.8-0.9,2.4s-1.4,1-2.5,1.2
			c0.6,0.3,1,0.7,1.4,1.1s0.9,1.1,1.5,2.1l1.6,2.5h-3.1L53.8,63c-0.7-1-1.1-1.6-1.4-1.9s-0.5-0.4-0.8-0.5s-0.7-0.1-1.3-0.1h-0.5v5.4
			H47.2z M49.8,58.4h1.9c1.2,0,2-0.1,2.3-0.2s0.6-0.3,0.7-0.5s0.3-0.6,0.3-1c0-0.4-0.1-0.8-0.3-1.1s-0.6-0.4-1-0.5
			c-0.2,0-0.8,0-1.9,0h-2V58.4z"/>
		<path class="st1" d="M71.8,65.8H69l-1.1-2.9h-5.2l-1.1,2.9h-2.8l5-12.9h2.8L71.8,65.8z M67,60.7l-1.8-4.8l-1.7,4.8H67z"/>
		<path class="st1" d="M74.8,65.8V55.1H71v-2.2h10.2v2.2h-3.8v10.7H74.8z"/>
		<path class="st1" d="M82.8,65.8V52.9h2.6v12.9H82.8z"/>
		<path class="st1" d="M87.3,59.4c0-1.3,0.2-2.4,0.6-3.3c0.3-0.7,0.7-1.2,1.2-1.8s1.1-0.9,1.7-1.2c0.8-0.3,1.7-0.5,2.8-0.5
			c1.9,0,3.4,0.6,4.6,1.8s1.7,2.8,1.7,4.9c0,2.1-0.6,3.7-1.7,4.9S95.5,66,93.6,66c-1.9,0-3.4-0.6-4.6-1.8S87.3,61.5,87.3,59.4z
			 M90,59.4c0,1.5,0.3,2.6,1,3.3s1.5,1.1,2.6,1.1s1.9-0.4,2.6-1.1s1-1.9,1-3.4c0-1.5-0.3-2.6-1-3.3s-1.5-1.1-2.6-1.1
			S91.7,55.3,91,56S90,57.9,90,59.4z"/>
		<path class="st1" d="M101.9,65.8V52.9h2.5l5.3,8.6v-8.6h2.4v12.9h-2.6l-5.2-8.4v8.4H101.9z"/>
		<path class="st1" d="M114.2,61.6l2.5-0.2c0.2,0.8,0.5,1.5,0.9,1.9s1.1,0.6,1.9,0.6c0.8,0,1.5-0.2,1.9-0.5s0.6-0.8,0.6-1.2
			c0-0.3-0.1-0.6-0.3-0.8s-0.5-0.4-0.9-0.6c-0.3-0.1-1-0.3-2.1-0.6c-1.4-0.3-2.4-0.8-2.9-1.3c-0.8-0.7-1.2-1.6-1.2-2.6
			c0-0.7,0.2-1.3,0.6-1.8s0.9-1,1.6-1.3s1.5-0.4,2.5-0.4c1.6,0,2.8,0.4,3.7,1.1s1.2,1.7,1.3,2.8l-2.6,0.1c-0.1-0.7-0.4-1.1-0.7-1.4
			s-0.9-0.4-1.6-0.4c-0.8,0-1.3,0.2-1.8,0.5c-0.3,0.2-0.4,0.5-0.4,0.8c0,0.3,0.1,0.6,0.4,0.8c0.3,0.3,1.1,0.6,2.4,0.9
			s2.2,0.6,2.8,0.9s1.1,0.8,1.4,1.3s0.5,1.2,0.5,2.1c0,0.7-0.2,1.4-0.6,2.1s-1,1.1-1.7,1.4s-1.7,0.5-2.8,0.5c-1.6,0-2.9-0.4-3.8-1.1
			S114.4,63.1,114.2,61.6z"/>
	</g>
	<g>
		<path class="st2" d="M70.3,30.5L70,30.7c-0.2,0.1-0.5,0.1-0.8,0.2l-1.7,0.1l-7.6,0.7c-0.1-0.6-0.1-1.2-0.1-1.8H60
			c0.1,0,0.3,0,0.7,0c0.3,0,0.6,0,0.8,0H62c0.4,0,1.1,0,2.1,0.1c1,0.1,1.9,0.1,2.5,0.1c0.7,0,1.3,0,1.9,0c0.5,0.1,1,0.2,1.5,0.3
			C70,30.4,70.1,30.4,70.3,30.5z M68.4,31.6c-4.6,1.2-7.4,1.9-8.4,1.9c-0.1,0-0.2-0.1-0.2-0.3v-0.1c0-0.3,0.7-0.6,2.1-0.9
			c1.1-0.2,3.3-0.5,6.4-0.8L68.4,31.6z M67.9,29.6l-0.3,0.2c0,0-0.1,0-0.1,0c-0.1,0-0.1,0-0.1,0c-0.1,0-0.2,0-0.4,0
			c-0.2,0-0.3,0-0.3,0c-0.1,0-1.8-0.3-5.2-0.8c-0.6-0.1-1-0.1-1-0.1c-0.3-0.1-0.4-0.2-0.4-0.4c0-0.3,0.1-0.4,0.4-0.4
			c0.2,0,0.8,0.1,1.8,0.3c1.3,0.3,2.5,0.5,3.5,0.7C67,29.1,67.8,29.4,67.9,29.6z M70.2,29.3c-0.3,0.1-0.5,0.1-0.7,0.1
			c-0.3,0-0.8-0.1-1.6-0.4c-0.9-0.3-1.6-0.8-2.2-1.3s-1.1-1.5-1.7-2.9c-0.2-0.6-0.4-1.2-0.5-1.9c-0.1-0.7-0.2-1.1-0.3-1.3
			c-0.4-0.9-0.7-1.6-1.1-2c-0.5-0.5-1.1-0.8-1.9-0.9c-0.2-0.2-0.3-0.3-0.3-0.5c0-0.3,0.2-0.4,0.5-0.4c0.2,0,0.5,0.1,0.8,0.5
			c0.7,0.5,1.1,0.8,1.4,1c0.4,0.3,1,1.1,1.7,2.6c0.7-2.7,2.1-4.1,4.3-4.2c0.4,0,0.6,0,0.9,0.2c0.2,0.1,0.3,0.3,0.3,0.5
			s-0.1,0.3-0.4,0.3c-0.2,0-0.4,0-0.6-0.1c-0.2,0-0.4,0-0.4,0c-0.7,0-1.5,0.3-2.2,0.9c-0.8,0.8-1.3,1.7-1.3,2.8
			C65,22.2,65,22.3,65,22.5c0,0.3,0.1,0.4,0.4,0.4c0.1,0,0.2,0,0.3-0.1c0.1,0,0.2-0.1,0.3-0.1c0.3,0,0.5,0.1,0.5,0.4
			c0,0.1-0.1,0.4-0.4,0.8c-0.3,0.4-0.4,0.8-0.4,1.1c0,0.6,0.2,1,0.6,1.2c0.4,0.2,0.6,0.5,0.7,0.7c0.1,0.6,0.4,1,0.9,1.3
			c0.3,0.2,1.1,0.5,2.3,0.8L70.2,29.3z M70.3,31.9c0,0.2-0.1,0.4-0.2,0.5c-1.9,0.4-2.8,0.9-2.8,1.5c0,0.1,0.1,0.3,0.3,0.5
			c0.2,0.3,0.3,0.5,0.3,0.6c0,0.2-0.1,0.4-0.4,0.4c-0.4,0-0.8-0.2-1.3-0.5c-0.2,0.1-0.4,0.4-0.6,0.9c0.3,0.8,0.4,1.4,0.4,1.6
			c0,0.1-0.2,0.2-0.5,0.3c-0.3,0.1-0.5,0.4-0.5,0.7c0,1,0.4,2,1.1,2.9c0.6,0.8,1.1,1.2,1.5,1.2c0.1,0,0.3,0,0.6-0.1
			c0.3-0.1,0.5-0.1,0.6-0.1c0.4,0,0.7,0.1,1,0.2c0.3,0.1,0.4,0.3,0.4,0.5c0,0.1-0.1,0.2-0.2,0.3c-0.1,0.1-0.3,0.1-0.5,0.1h-0.6
			c-0.9,0-1.8-0.4-2.6-1.1c-0.9-0.8-1.6-1.9-2.1-3.2c-0.1,0-0.2,0.2-0.4,0.6c-0.3,0.6-0.7,1.1-1.2,1.6c-0.9,0.9-1.7,1.3-2.2,1.3
			c-0.2,0-0.3-0.2-0.3-0.5c0-0.3,0.2-0.5,0.7-0.7c0.6-0.2,0.9-0.3,0.9-0.3c0.7-0.7,1.3-1.7,1.7-2.9c0.5-1.7,0.8-2.5,0.8-2.6
			c0.5-1.1,1.2-1.9,2-2.5c0.6-0.4,1.3-0.8,2.2-1.1c0.7-0.3,1.2-0.4,1.3-0.4h0.6C70.2,31.7,70.3,31.8,70.3,31.9z"/>
		<path class="st2" d="M80.6,42.3c0,0.3-0.1,0.4-0.3,0.4c-0.1,0-0.2-0.1-0.4-0.2c-1.2-0.5-2-1.2-2.6-2c-0.3-0.5-0.6-0.9-0.8-1.4
			c-0.4,1.3-1.1,2.3-2.1,3.1c-0.9,0.8-1.8,1.2-2.7,1.2c-0.3,0-0.6-0.1-1-0.2l-0.2-0.4c0.4-0.3,0.8-0.5,1.4-0.5c0.1,0,0.3,0,0.5,0.1
			c0.3,0.1,0.5,0.1,0.6,0.1c0.3,0,0.7-0.4,1.4-1.1c0.8-0.9,1.2-2,1.2-3.1c0-0.5-0.2-0.7-0.5-0.7c0,0,0,0-0.2,0
			c-0.2,0-0.3-0.1-0.3-0.2c0-0.1,0.1-0.3,0.2-0.6c0.1-0.4,0.2-0.7,0.2-1c-0.2-0.5-0.4-0.8-0.5-0.9c-0.5,0.3-1,0.5-1.4,0.5
			c-0.2,0-0.4-0.1-0.4-0.4c0-0.1,0.1-0.3,0.3-0.6c0.2-0.3,0.3-0.5,0.3-0.6c0-0.2-0.2-0.4-0.6-0.7c-0.4-0.3-1-0.5-1.8-0.7l-0.5-0.1
			c-0.2-0.1-0.2-0.3-0.2-0.4c0-0.2,0.1-0.4,0.4-0.4c0.4,0,1.2,0.2,2.2,0.7c1.2,0.5,2.1,1.2,2.6,1.9c0.7,0.9,1.1,1.6,1.3,2.2
			c0.2,0.8,0.4,1.6,0.7,2.3c0.3,0.9,0.6,1.5,1.1,2.1c0.2,0.3,0.7,0.5,1.3,0.8C80.3,41.7,80.6,42,80.6,42.3z M80.7,29.8
			c0,0.7,0,1.3-0.1,1.8c-1.4-0.1-3.8-0.3-7.1-0.6c-1.8-0.1-2.7-0.3-2.9-0.4l-0.2-0.1c0-0.1,0.1-0.1,0.3-0.2c0.7-0.2,1.5-0.3,2.4-0.3
			h1c-0.1,0,2-0.1,6.1-0.3L80.7,29.8z M80.6,18.3c0,0.2-0.1,0.3-0.3,0.5c-1.5,0.1-2.6,1.2-3.2,3.5c-0.1,0.4-0.1,0.8-0.2,1.3
			c-0.1,0.8-0.4,1.5-0.8,2.1c-0.2,0.4-0.3,0.7-0.5,1.1c-0.3,0.5-0.6,1-1.1,1.4c-0.5,0.4-1.1,0.8-2,1.1c-0.7,0.3-1.3,0.4-1.7,0.4
			c-0.2,0-0.4,0-0.5-0.1V29c0.4-0.1,1.1-0.3,2.1-0.7c0.5-0.2,0.9-0.5,1-0.9c0.1-0.2,0.1-0.5,0.2-0.7c0-0.1,0.3-0.3,0.7-0.5
			c0.4-0.2,0.5-0.5,0.5-0.9c0-0.5-0.1-0.9-0.4-1.4c-0.3-0.4-0.4-0.7-0.4-0.8c0-0.3,0.2-0.4,0.5-0.4c0,0,0.1,0,0.2,0.1
			c0.1,0.1,0.2,0.1,0.3,0.1c0.3,0,0.4-0.1,0.4-0.4c0-0.1,0-0.1-0.1-0.2c-0.1-1.1-0.4-1.9-0.8-2.4c-0.3-0.3-0.8-0.7-1.6-1
			c-0.6-0.2-1-0.4-1.1-0.4c-0.4,0-0.7,0.1-0.9,0.1c-0.2-0.1-0.3-0.2-0.3-0.3s0.1-0.3,0.3-0.5c0.2-0.1,0.5-0.2,0.9-0.2
			c1,0,1.9,0.4,2.7,1.1c0.8,0.7,1.3,1.7,1.6,3c0.7-1.3,1.5-2.3,2.4-3c0.7-0.6,1.2-0.8,1.5-0.8c0.1,0,0.2,0.1,0.5,0.2V18.3z
			 M80.7,33.1c0,0.2-0.1,0.2-0.4,0.2c0,0-2.7-0.6-8.2-1.8l0.1-0.2c1,0,2.2,0.1,3.7,0.4c1.4,0.3,2.9,0.5,4.3,0.8
			C80.6,32.8,80.7,33,80.7,33.1z M80.7,28.3c-0.1,0.3-0.6,0.5-1.3,0.6c-0.4,0.1-1.5,0.2-3.1,0.4l-2.4,0.3h-0.2c-0.1,0-0.2,0-0.4,0
			c-0.5,0-0.7,0-0.7-0.1c0-0.2,1-0.5,3-0.7c1.1-0.1,2.2-0.3,3.2-0.6l1.4-0.3C80.4,27.9,80.6,28.1,80.7,28.3z"/>
	</g>
</g>
</svg>
