<?xml version="1.0" encoding="utf-8"?>
<!-- Generator: Adobe Illustrator 24.1.3, SVG Export Plug-In . SVG Version: 6.00 Build 0)  -->
<svg version="1.1" id="Layer_1" xmlns="http://www.w3.org/2000/svg" xmlns:xlink="http://www.w3.org/1999/xlink" x="0px" y="0px"
	 viewBox="0 0 154 74" style="enable-background:new 0 0 154 74;" xml:space="preserve">
<style type="text/css">
	.st0{opacity:0.84;fill:#111629;stroke:#7D8499;stroke-miterlimit:10;}
	.st1{fill:#A7A9AC;}
</style>
<g>
	<path class="st0" d="M151.4,58.9c0,7.5-5.7,13.1-13,13.1H13.8c-6.6,0-12-5.4-12-12l0.3-45.9c0-6.6,5.4-12,12-12h125.6
		c6.6,0,12,5.4,12,12L151.4,58.9z"/>
	<g>
		<g>
			<path class="st1" d="M31.3,42.8V25.6h5.2l3.1,11.7l3.1-11.7h5.2v17.2h-3.2V29.3l-3.4,13.5h-3.3l-3.4-13.5v13.5H31.3z"/>
			<path class="st1" d="M58.5,38.9l3.3,0.6c-0.4,1.2-1.1,2.1-2,2.7s-2,0.9-3.4,0.9c-2.2,0-3.8-0.7-4.8-2.1c-0.8-1.1-1.2-2.6-1.2-4.3
				c0-2.1,0.5-3.7,1.6-4.8c1.1-1.2,2.4-1.8,4.1-1.8c1.9,0,3.3,0.6,4.4,1.8c1.1,1.2,1.6,3.1,1.5,5.6h-8.2c0,1,0.3,1.7,0.8,2.3
				s1.1,0.8,1.9,0.8c0.5,0,0.9-0.1,1.3-0.4S58.3,39.5,58.5,38.9z M58.7,35.5c0-1-0.3-1.7-0.7-2.2s-1-0.7-1.7-0.7
				c-0.7,0-1.3,0.3-1.8,0.8s-0.7,1.2-0.7,2.1H58.7z"/>
			<path class="st1" d="M76,42.8h-3.3v-6.4c0-1.3-0.1-2.2-0.2-2.6s-0.4-0.7-0.7-0.9s-0.7-0.3-1.1-0.3c-0.6,0-1.1,0.2-1.5,0.5
				s-0.8,0.7-0.9,1.2s-0.3,1.5-0.3,2.9v5.6h-3.3V30.4h3.1v1.8c1.1-1.4,2.5-2.1,4.1-2.1c0.7,0,1.4,0.1,2,0.4s1.1,0.6,1.4,1
				s0.5,0.9,0.6,1.4s0.2,1.3,0.2,2.2V42.8z"/>
			<path class="st1" d="M87.5,42.8V41c-0.5,0.7-1,1.2-1.8,1.6s-1.5,0.6-2.3,0.6c-0.8,0-1.6-0.2-2.2-0.6S80,41.7,79.7,41
				s-0.4-1.6-0.4-2.8v-7.9h3.3v5.7c0,1.8,0.1,2.8,0.2,3.2s0.3,0.7,0.7,0.9s0.7,0.3,1.2,0.3c0.6,0,1.1-0.2,1.5-0.5s0.8-0.7,0.9-1.1
				s0.2-1.6,0.2-3.4v-5.2h3.3v12.4H87.5z"/>
		</g>
	</g>
	<g>
		<path class="st1" d="M110.6,29.5c1.1,0,1.6,0.4,1.6,1.1c0,0,0,0.3,0,0.7c0,0.4-0.1,0.9-0.1,1.3l0,0.3l0.3-0.1
			c1-0.8,1.5-1.2,1.8-1.2c0.1,0,0.1,0,0.2,0.1v0.1c0,0.2-0.2,0.7-0.7,1.4c-0.5,0.7-0.7,1.2-0.7,1.5c0,0.3,0.1,0.6,0.3,0.9
			c0.2,0.3,0.4,0.5,0.6,0.5c0.1,0,1.1-0.8,3-2.4l0.4,0l0.1,0.5c-0.3,0.5-0.7,1.2-1.2,2.2h0.2c0.2,0,0.5,0,0.8-0.1s0.6-0.1,0.7-0.1
			c0.2,0,0.5,0.3,1,1c0.5,0.7,1.3,1,2.3,1c0.4,0,1.3,0,2.6-0.1s2.6-0.1,3.6-0.1c0.3,0,1.1,0.1,2.4,0.2c1.3,0.1,2.5,0.2,3.6,0.2
			c0.8,0,1.5-0.2,2.1-0.5c-0.3-1-1.3-1.4-2.7-1.4c-0.4,0-1.8,0.4-4.2,1.2c-0.4-0.1-0.7-0.3-1-0.8c-0.3-0.4-0.4-0.9-0.4-1.3
			c0-0.8,0.3-1.3,0.8-1.5c0.6-0.3,0.9-0.4,1-0.4c-0.1-0.5-0.6-1.5-1.5-2.8c0.2-0.8,0.7-1.2,1.4-1.2c0.8,0,1.3,0.2,1.4,0.6v0.1
			c0,0.2-0.1,0.4-0.4,0.6c0.5,0.6,1.2,1.2,2,1.6c0.6,0.3,1.2,0.6,1.8,0.9c0.6,0.3,1.4,1.2,2.5,2.5c0.7,0.9,1,1.4,1.1,1.4
			c0.3,0.4,0.6,0.6,1,0.7c0.3,0.1,0.6,0.2,0.9,0.3c0.3,0.1,0.4,0.3,0.4,0.6c0,0.6-0.2,1-0.6,1c-0.3-0.1-0.6-0.1-0.8-0.1h-0.2
			c-1,1.7-1.9,2.9-2.8,3.6c-0.8,0.6-1.9,1.1-3.3,1.4c-0.7,0.2-1.1,0.3-1.3,0.5s-0.4,0.6-0.5,1.3c-0.2,1.1-0.5,1.6-1,1.6
			c-0.3,0-0.7-0.2-0.9-0.6c-0.3-0.4-0.4-0.8-0.4-1.4c0-0.2,0.1-0.5,0.3-0.9c0.2-0.4,0.3-0.7,0.3-0.8c-1-0.9-1.5-1.7-1.5-2.5
			c0-0.3,0.2-0.6,0.7-0.9c0.5-0.3,1-0.4,1.5-0.4c0.2,0,0.6,0.1,1.3,0.3c0.7,0.2,1.3,0.3,1.7,0.3c0.9,0,1.9-0.4,3.2-1.3
			c-0.3-0.2-0.7-0.4-1.1-0.4c-0.4,0-0.9,0-1.6,0.1c-0.7,0.1-1.3,0.1-1.6,0.1c-0.2,0-0.5,0-1.1,0c-0.5,0-1,0-1.3,0
			c-2,0-4.2,0-6.5,0.1c-2.3,0.1-3.7,0.1-4,0.1h-0.6l-1.3-0.1c0.1,0.4,0.4,0.9,0.8,1.3c0.4,0.5,0.6,0.8,0.6,1c0,0.2-0.1,0.4-0.2,0.6
			c-0.7-0.2-1.4-0.6-2.1-1.4c-0.7-0.8-1.1-1.2-1.2-1.2c-0.2,0-0.4,0.1-0.6,0.3s-0.3,0.4-0.3,0.6c0,0.2,0.3,0.8,0.8,1.8
			c0.5,1,0.8,1.7,0.8,2.1c0,0.1,0,0.1-0.1,0.3c0,0.2-0.1,0.2-0.2,0.2c-0.1,0-0.5-0.4-1.4-1.2c-0.2-0.2-0.4-0.4-0.8-0.7
			c0,0.1,0,0.2,0,0.4c0,0.2,0,0.4,0,0.6c0,0.2,0,0.4,0,0.5c0,0.1,0,0.3,0.1,0.6s0.1,0.5,0.1,0.6c0,0.3-0.2,0.5-0.5,0.7
			s-0.6,0.3-1,0.3c-0.9,0-1.3-0.3-1.3-1c0-0.1,0-0.3,0.1-0.5s0.1-0.4,0.1-0.5c0-0.1,0-0.2,0-0.2c0-0.2-0.1-0.4-0.2-0.5
			c-0.2,0.1-0.5,0.5-1,1.2c-0.3,0.4-0.6,0.6-0.9,0.6c-0.2,0-0.4-0.2-0.4-0.5c0-0.5,0.5-1.5,1.4-3v-0.5c0-0.3-0.1-0.6-0.4-0.8
			c-0.3-0.2-0.6-0.4-0.9-0.4c-0.3,0-0.8,0.4-1.5,1.1c-0.7,0.8-1.1,1.1-1.3,1.1c-0.4,0-0.6-0.2-0.6-0.6c0-0.2,0.2-0.7,0.7-1.5
			c0.5-0.8,0.7-1.3,0.7-1.6c0-0.2-0.2-0.2-0.5-0.2c-0.2,0-0.5,0.1-0.8,0.2c-0.4,0.1-0.6,0.2-0.7,0.2c-0.7,0-1.1-0.6-1.1-1.9
			c0-1,0.2-1.5,0.5-1.5h0.2c0,0,0.1,0,0.3,0c0.2,0,0.5,0,0.8,0c0.3,0.1,0.6,0.1,0.8,0.1c0,0,0.1,0,0.2,0c0.1,0,0.2,0,0.3,0
			c-0.2-0.3-0.5-0.7-1.2-1c-0.5-0.3-0.8-0.6-0.8-0.8c0-0.4,0.2-0.6,0.7-0.7c2,1.2,3.1,1.8,3.3,1.8c0.3,0,0.5-0.1,0.7-0.4
			c0.2-0.2,0.3-0.5,0.3-0.8c0-0.6-0.4-1.2-1.2-1.7c-0.8-0.5-1.2-1-1.2-1.4c0-0.3,0.2-0.5,0.7-0.5c0.5,0,0.9,0.2,1.3,0.6
			c0.8,0.9,1.3,1.4,1.3,1.4c0.2-0.2,0.2-0.5,0.2-0.8c0-0.2,0-0.5-0.1-0.8c-0.1-0.4-0.1-0.6-0.1-0.8c0-0.4,0.1-0.7,0.4-1
			C109.9,29.6,110.2,29.5,110.6,29.5z M110.8,36.7c-0.3,0-0.7,0.2-1.2,0.6c-0.5,0.4-0.7,0.7-0.7,1c0,0.4,0.2,0.7,0.5,1.1
			c0.3,0.4,0.6,0.6,1,0.6c1.3,0,1.9-0.4,1.9-1.3c0-0.5-0.2-1-0.5-1.4S111.2,36.7,110.8,36.7z"/>
	</g>
</g>
</svg>
