<?xml version="1.0" encoding="utf-8"?>
<!-- Generator: Adobe Illustrator 24.1.3, SVG Export Plug-In . SVG Version: 6.00 Build 0)  -->
<svg version="1.1" id="Layer_1" xmlns="http://www.w3.org/2000/svg" xmlns:xlink="http://www.w3.org/1999/xlink" x="0px" y="0px"
	 viewBox="0 0 167 96" style="enable-background:new 0 0 167 96;" xml:space="preserve">
<style type="text/css">
	.st0{opacity:0.84;fill:#111629;stroke:#7D8499;stroke-miterlimit:10;}
	.st1{fill:#A7A9AC;}
	.st2{fill:#C7972E;}
</style>
<g>
	<path class="st0" d="M165.9,82.4c0,7.5-5.7,13-13,13H13.1C6.5,95.4,1.1,90,1.1,83.4l0.3-70.6c0-6.6,5.3-11.9,11.9-11.9h140.9
		c6.6,0,11.9,5.3,11.9,11.9L165.9,82.4z"/>
	<g>
		<path class="st1" d="M33.8,35.4v-2.9h7.5v6.8c-0.7,0.7-1.8,1.3-3.2,1.9S35.4,42,34,42c-1.8,0-3.4-0.4-4.7-1.1s-2.3-1.8-3-3.2
			s-1-2.9-1-4.6c0-1.8,0.4-3.4,1.1-4.8s1.8-2.5,3.3-3.2c1.1-0.6,2.5-0.9,4.1-0.9c2.1,0,3.8,0.4,5,1.3s2,2.1,2.3,3.7l-3.4,0.6
			c-0.2-0.8-0.7-1.5-1.4-2s-1.5-0.7-2.5-0.7c-1.5,0-2.7,0.5-3.6,1.4s-1.3,2.4-1.3,4.3c0,2,0.5,3.6,1.4,4.6s2.1,1.5,3.6,1.5
			c0.7,0,1.5-0.1,2.2-0.4s1.4-0.6,1.9-1v-2.2H33.8z"/>
		<path class="st1" d="M47,33.1l-3-0.5c0.3-1.2,0.9-2.1,1.7-2.7s2-0.9,3.7-0.9c1.5,0,2.6,0.2,3.3,0.5s1.2,0.8,1.5,1.3
			s0.4,1.5,0.4,2.9l0,3.8c0,1.1,0.1,1.9,0.2,2.4s0.3,1.1,0.6,1.7H52c-0.1-0.2-0.2-0.5-0.3-1c-0.1-0.2-0.1-0.3-0.1-0.4
			c-0.6,0.5-1.2,1-1.8,1.2S48.5,42,47.8,42c-1.3,0-2.3-0.3-3-1s-1.1-1.6-1.1-2.6c0-0.7,0.2-1.3,0.5-1.9s0.8-1,1.4-1.3
			s1.5-0.5,2.6-0.8c1.5-0.3,2.6-0.6,3.2-0.8v-0.3c0-0.6-0.2-1.1-0.5-1.4s-0.9-0.4-1.8-0.4c-0.6,0-1,0.1-1.4,0.3S47.2,32.5,47,33.1z
			 M51.4,35.7c-0.4,0.1-1.1,0.3-2,0.5s-1.5,0.4-1.8,0.6c-0.4,0.3-0.6,0.7-0.6,1.2c0,0.5,0.2,0.9,0.5,1.2s0.8,0.5,1.3,0.5
			c0.6,0,1.2-0.2,1.7-0.6c0.4-0.3,0.7-0.7,0.8-1.1c0.1-0.3,0.1-0.8,0.1-1.6V35.7z"/>
		<path class="st1" d="M57.6,29.3h3V31c1.1-1.3,2.4-2,3.9-2c0.8,0,1.5,0.2,2.1,0.5s1.1,0.8,1.4,1.5c0.5-0.7,1.1-1.2,1.8-1.5
			s1.3-0.5,2-0.5c0.9,0,1.7,0.2,2.3,0.6s1.1,0.9,1.4,1.6c0.2,0.5,0.3,1.4,0.3,2.6v8h-3.3v-7.1c0-1.2-0.1-2-0.3-2.4
			c-0.3-0.5-0.8-0.7-1.4-0.7c-0.5,0-0.9,0.1-1.3,0.4s-0.7,0.7-0.9,1.2s-0.3,1.4-0.3,2.6v6h-3.3v-6.8c0-1.2-0.1-2-0.2-2.3
			s-0.3-0.6-0.5-0.8s-0.6-0.3-1-0.3c-0.5,0-1,0.1-1.4,0.4s-0.7,0.7-0.9,1.2s-0.3,1.4-0.3,2.6v6h-3.3V29.3z"/>
		<path class="st1" d="M86.4,37.7l3.3,0.6c-0.4,1.2-1.1,2.1-2,2.7s-2,0.9-3.4,0.9c-2.2,0-3.8-0.7-4.8-2.1c-0.8-1.1-1.2-2.6-1.2-4.3
			c0-2.1,0.5-3.7,1.6-4.8s2.4-1.8,4.1-1.8c1.9,0,3.3,0.6,4.4,1.8s1.6,3.1,1.5,5.6h-8.2c0,1,0.3,1.7,0.8,2.3s1.1,0.8,1.9,0.8
			c0.5,0,0.9-0.1,1.3-0.4S86.2,38.4,86.4,37.7z M86.6,34.4c0-1-0.3-1.7-0.7-2.2s-1-0.7-1.7-0.7c-0.7,0-1.3,0.3-1.8,0.8
			s-0.7,1.2-0.7,2.1H86.6z"/>
		<path class="st1" d="M61.9,70.5V53.3h11.8v2.9h-8.3v4.1h7.2v2.9h-7.2v7.3H61.9z"/>
		<path class="st1" d="M74.8,70.5l5.9-9l-5.3-8.2h4.1l3.4,5.5l3.4-5.5h4l-5.3,8.3l5.9,8.8h-4.2l-3.8-5.9L79,70.5H74.8z"/>
	</g>
	<g>
		<path class="st2" d="M143.4,56.8c0,0.3-0.3,0.8-0.8,1.4c-0.5,0.6-1,0.9-1.5,0.9c-0.2,0-1-0.4-2.2-1.1c-1.2-0.7-2.4-1.1-3.6-1.1
			c-1.5,0-3.1,0.3-4.7,1c0,0.1,0.2,0.8,0.7,2.1c0.3,1.1,0.5,2.3,0.5,3.4c0,1.6-0.3,2.4-1,2.4c-0.5,0-0.9-0.6-1.1-1.8
			c-0.3-2.2-0.6-3.7-0.9-4.4c-0.9-2.8-2.7-4.2-5.4-4.2c-1.7,0-3.1,0.6-4.3,1.8c-1.6,1.7-2.4,3.7-2.4,6c0,0.3,0,0.5,0.1,0.8
			c0.1,0.3,0.1,0.5,0.1,0.5c0,0.3-0.4,0.5-1.2,0.7c-0.7-0.3-1.1-0.8-1.1-1.6c0-0.5,0.1-1.1,0.2-1.9c0.1-0.8,0.2-1.3,0.2-1.5
			c0-0.2-0.1-0.4-0.4-0.6c-0.2-0.2-0.5-0.4-0.8-0.6c-1.4-1.2-2.9-1.8-4.6-1.8c-0.9,0-1.8,0.2-2.7,0.7c-0.9,0.5-1.5,0.7-1.7,0.7
			c-1,0-1.4-0.6-1.4-1.8c0-1.3,0.3-2.2,0.9-3c0.6-0.7,1.5-1.1,2.5-1.1c1.2,0,2.3,0.3,3.4,1c0.7,0.5,1.7,1.3,2.9,2.4
			c0.4,0.4,0.8,0.6,1,0.6c0.1,0,0.2,0,0.4-0.1c0-0.1,0-0.2,0.1-0.4c0.1-0.1,0.1-0.2,0.1-0.3c0-0.1-0.3-0.5-0.9-1.2
			c-1.7-1.9-2.8-3-3.4-3.3c-2.8-1.4-4.3-2.1-4.4-2.2c-1.2-0.8-1.8-1.6-1.8-2.5c0-0.8,0.5-1.2,1.5-1.2c1.9,0,4.4,1.3,7.4,3.8
			c0.7,0.6,1.1,0.9,1.2,1c0.5,0.5,0.9,1,1.2,1.6c0.3,0.6,0.7,1.2,1,1.8c0.4,0.7,0.8,1.2,1.2,1.6c0.2-0.2,0.4-0.5,0.4-0.9
			c0-0.5-0.8-2.1-2.5-4.6c-1-1.6-2.3-3-3.8-4.2c-1.4-1-2.7-1.9-4-2.9c-1.1-0.8-1.7-1.6-1.7-2.3c0-0.4,0.2-0.8,0.5-1.2
			c0.3-0.4,0.6-0.6,0.9-0.6c0.9,0,2.1,0.6,3.8,1.9c1.9,1.5,3.8,3.4,5.6,5.8c0.3,0.4,0.8,1.4,1.5,3.1c0.7,1.7,1.5,3,2.3,4.1
			c0.1-0.1,0.1-0.3,0.1-0.4c0-0.2,0-0.3,0-0.4c0-1.7-0.9-4.1-2.6-7.2c-0.6-1.1-1.3-2.4-2.2-3.9c-0.7-1-2.1-2.4-3.9-4.3
			c-1.3-1.3-2-2.2-2-2.7c0-0.4,0.3-0.9,0.8-1.3s1.1-0.7,1.7-0.7c1,0,2.3,0.9,3.8,2.7c1.6,1.9,2.9,4.3,3.8,7.1
			c0.6,1.8,1.2,3.8,1.7,5.9c0.3,1.4,0.5,2.1,0.7,2.2c0.2-0.3,0.2-0.8,0.2-1.7c0-2.5-0.3-5.1-0.9-7.8c-0.5-2.5-1.2-4.4-1.9-5.9
			c-0.4-0.7-1-1.8-2-3.2c-0.7-1-1-1.7-1-2c0-0.3,0.1-0.5,0.4-0.5c0.3,0,0.9,0.3,1.7,0.9c1,0.7,1.8,1.2,2.4,1.4
			c0.2-0.3,0.2-0.6,0.2-0.9c0-0.1,0-0.3,0-0.6c0-0.3,0-0.5,0-0.6c0-1,0.6-1.4,1.8-1.4c0.9,0,1.3,0.5,1.3,1.4c0,0.2,0,0.5-0.1,0.8
			c-0.1,0.4-0.1,0.6-0.1,0.8c0,0,0,0.1,0,0.2c0,0.1,0,0.1,0,0.2c0.1,0.1,0.1,0.1,0.2,0.1c0.2,0,0.6-0.4,1.4-1.2
			c0.7-0.8,1.2-1.2,1.6-1.2c0.2,0,0.3,0.1,0.5,0.2c-2.5,6.2-3.7,12.7-3.7,19.5c0,0.5,0.1,1.2,0.4,2c0.3-0.8,0.9-3.6,1.9-8.6
			c0.5-2.2,1.4-4.8,2.8-8c0.3-0.7,0.6-1.4,0.9-2.1c0.5-0.7,1.2-1,2.3-1c0.9,0,1.3,0.6,1.3,1.7c0,0.2-0.4,1.1-1.2,2.8
			c-1.1,2.3-2.1,4.4-2.9,6.3c-1.3,3.2-2.5,6.6-3.5,10.1c0.6-0.5,1.3-1.5,1.9-3c1-2.3,1.7-3.7,2.1-4.4c3.4-5.8,5.8-8.7,7.4-8.7
			c0.5,0,0.9,0.3,1.2,0.8c0.4,0.5,0.5,1,0.5,1.6c0,0.3-0.5,1-1.6,2.1c-1.3,1.2-2.5,2.4-3.7,3.6c-2.2,2.3-4.1,5.1-5.8,8.2l0.1,0.6
			c2.6-2.9,5-5.1,7.4-6.8c2.1-1.4,3.6-2.2,4.8-2.2c0.5,0,1,0.2,1.4,0.6c0.4,0.4,0.7,0.8,0.7,1.3c0,0.4-0.1,0.8-0.4,1.2
			c-0.3,0.5-0.7,0.9-1.1,1.2c-0.5,0.3-1.4,0.7-2.8,1.1c-1.7,0.6-2.7,0.9-3,1c-1.8,0.7-3.8,2.3-6,4.8l0.1,0.6
			c1.4-0.6,2.8-1.2,4.2-1.8c2.1-0.9,4-1.3,6-1.3C142.1,52.4,143.4,53.8,143.4,56.8z M126.6,63.9c0,1.2-0.6,1.8-1.9,1.8
			c-2.3,0-3.7-0.1-4.2-0.4c-0.7-0.3-1-1.1-1-2.4c0-2.1,0.3-3.5,0.8-4.2c0.5-0.7,1.6-1.1,3.3-1.1c0.7,0,1.3,0.3,2,0.9
			c0.6,0.6,1,1.3,1,2c0,0.2,0,0.4-0.1,0.7c-0.1,0.3-0.1,0.5-0.1,0.6c0,0.2,0,0.5,0.1,1C126.6,63.2,126.6,63.6,126.6,63.9z"/>
	</g>
</g>
</svg>
