<?xml version="1.0" encoding="utf-8"?>
<!-- Generator: Adobe Illustrator 24.1.3, SVG Export Plug-In . SVG Version: 6.00 Build 0)  -->
<svg version="1.1" id="Layer_1" xmlns="http://www.w3.org/2000/svg" xmlns:xlink="http://www.w3.org/1999/xlink" x="0px" y="0px"
	 viewBox="0 0 143 83" style="enable-background:new 0 0 143 83;" xml:space="preserve">
<style type="text/css">
	.st0{fill:#282829;stroke:#6D6E71;stroke-miterlimit:10;}
	.st1{fill:#A7A9AC;}
	.st2{fill:#6D6E71;}
</style>
<g>
	<path class="st0" d="M141.4,70.4c0,6.3-4.8,11-11,11H11.9c-5.6,0-10.1-4.5-10.1-10.1L2,11.5C2,5.9,6.5,1.4,12.1,1.4h119.5
		c5.6,0,10.1,4.5,10.1,10.1L141.4,70.4z"/>
	<g>
		<path class="st1" d="M42,65.9V53h3.9l2.3,8.8l2.3-8.8h3.9v12.9H52V55.7l-2.6,10.1H47l-2.5-10.1v10.1H42z"/>
		<path class="st1" d="M57,53h2.6v7c0,1.1,0,1.8,0.1,2.2c0.1,0.5,0.4,1,0.8,1.3s1,0.5,1.7,0.5c0.7,0,1.3-0.2,1.7-0.5
			c0.4-0.3,0.6-0.7,0.7-1.1s0.1-1.2,0.1-2.2V53h2.6v6.8c0,1.5-0.1,2.6-0.2,3.3s-0.4,1.2-0.8,1.6s-0.9,0.8-1.5,1.1s-1.5,0.4-2.5,0.4
			c-1.2,0-2.2-0.1-2.8-0.4S58.4,65,58,64.5s-0.6-0.9-0.7-1.4c-0.2-0.7-0.3-1.8-0.3-3.3V53z"/>
		<path class="st1" d="M69.4,61.7l2.5-0.2c0.2,0.8,0.5,1.5,0.9,1.9s1.1,0.6,1.9,0.6c0.8,0,1.5-0.2,1.9-0.5s0.6-0.8,0.6-1.2
			c0-0.3-0.1-0.6-0.3-0.8s-0.5-0.4-0.9-0.6c-0.3-0.1-1-0.3-2.1-0.6c-1.4-0.3-2.4-0.8-2.9-1.3c-0.8-0.7-1.2-1.6-1.2-2.6
			c0-0.7,0.2-1.3,0.6-1.8s0.9-1,1.6-1.3s1.5-0.4,2.5-0.4c1.6,0,2.8,0.4,3.7,1.1s1.2,1.7,1.3,2.8l-2.6,0.1c-0.1-0.7-0.4-1.1-0.7-1.4
			s-0.9-0.4-1.6-0.4c-0.8,0-1.3,0.2-1.8,0.5c-0.3,0.2-0.4,0.5-0.4,0.8c0,0.3,0.1,0.6,0.4,0.8c0.3,0.3,1.1,0.6,2.4,0.9
			s2.2,0.6,2.8,0.9s1.1,0.8,1.4,1.3s0.5,1.2,0.5,2.1c0,0.7-0.2,1.4-0.6,2.1s-1,1.1-1.7,1.4s-1.7,0.5-2.8,0.5c-1.6,0-2.9-0.4-3.8-1.1
			S69.5,63.1,69.4,61.7z"/>
		<path class="st1" d="M82,65.9V53h2.6v12.9H82z"/>
		<path class="st1" d="M95.3,61.1l2.5,0.8c-0.4,1.4-1,2.5-1.9,3.1s-2,1-3.4,1c-1.7,0-3.1-0.6-4.2-1.8s-1.7-2.8-1.7-4.8
			c0-2.1,0.6-3.8,1.7-5s2.6-1.8,4.4-1.8c1.6,0,2.9,0.5,3.8,1.4c0.6,0.6,1,1.3,1.3,2.4l-2.6,0.6c-0.2-0.7-0.5-1.2-1-1.6
			S93.2,55,92.5,55c-1,0-1.7,0.3-2.3,1s-0.9,1.8-0.9,3.3c0,1.6,0.3,2.8,0.9,3.5s1.3,1,2.3,1c0.7,0,1.3-0.2,1.8-0.7
			S95.1,62.1,95.3,61.1z"/>
	</g>
	<g>
		<g>
			<path class="st2" d="M79.2,28.1c-0.2,0.6-0.4,0.8-0.6,0.8c-0.1,0-0.3-0.2-0.5-0.6c-0.2-0.4-0.4-0.6-0.5-0.6
				c-0.2,0-0.4,0.1-0.6,0.3c-0.3,0.3-0.4,0.6-0.5,0.9c-0.2,0.6-0.3,1.8-0.2,3.6c0,1.8-0.1,3.2-0.3,4c-0.6,2.2-1.6,3.8-2.9,4.8
				c-1.2,1-5,3.4-6.3,3c-1-0.3-1.8-0.8-2.3-1.7c-0.5-0.8-0.7-1.6-0.5-2.4c0.2-0.5,0.5-1,1.1-1.3c0.6-0.4,1.1-0.5,1.6-0.3
				c0.5,0.2,1,0.4,1.3,0.9c0.3,0.4,0.4,0.8,0.3,1.2c-0.1,0.3-0.3,0.6-0.6,0.8c-0.3,0.2-0.5,0.3-0.8,0.2c-0.5-0.1-0.7-0.6-0.7-1.3
				c0-0.2,0-0.5,0.1-0.8c0-0.2-0.1-0.3-0.2-0.3c-0.2-0.1-0.4,0-0.7,0.3c-0.3,0.3-0.5,0.6-0.6,1c-0.2,0.6-0.1,1.2,0.3,1.8
				c0.4,0.6,0.9,1,1.6,1.2c1,0.3,4.6-1.9,5.5-2.6c0.9-0.6,1.6-1.6,1.9-2.8c0.1-0.2-0.1-0.7-0.4-1.4s-0.5-1.2-0.4-1.6
				c0.1-0.5,0.4-0.7,0.7-0.6c-0.1,0,0.3,0.2,0.9,0.7c0.2-0.1,0.3-0.2,0.3-0.4c0.1-0.4,0-1-0.5-1.5c-0.4-0.6-0.9-1.1-1.3-1.7
				c-0.3-0.5-0.4-1-0.3-1.3c0.1-0.3,0.4-0.4,0.9-0.2c0.1,0,0.5,0.2,1.1,0.7c-0.1-0.5-0.4-1.2-0.8-2c-0.5-0.8-0.9-1.6-1.4-2.4
				c-1.6-2.9-2.1-5.6-1.4-8c0.3-1.1,1.1-2,2.2-2.7c1.1-0.7,2.2-0.9,3.3-0.6c0.7,0.2,1.3,0.6,1.6,1.2c0.4,0.6,0.5,1.2,0.3,1.9
				c-0.2,0.6-0.5,1.1-1.1,1.4c-0.5,0.4-1.1,0.5-1.5,0.4c-0.3-0.1-0.6-0.3-0.8-0.6c-0.2-0.3-0.3-0.6-0.2-0.8c0.1-0.3,0.3-0.5,0.6-0.7
				c0.3-0.2,0.7-0.2,1-0.1c0.1,0,0.3,0.1,0.5,0.3c0.2,0.1,0.3,0.2,0.4,0.2c0.2,0.1,0.4-0.1,0.5-0.5c0.1-0.3,0-0.6-0.3-1
				c-0.3-0.4-0.8-0.6-1.5-0.8c-0.8-0.2-1.6,0-2.5,0.6c-0.9,0.6-1.4,1.4-1.7,2.5c-0.7,2.3-0.3,4.5,1.1,6.7c0.3,0.4,0.7,1,1.2,1.7
				c0.1,0.5,0.4,1.2,0.9,2.1c0.2-0.3,0.3-0.5,0.4-0.7c0-0.1,0.1-0.3,0.1-0.6c0.1-0.3,0.1-0.5,0.1-0.7c0.1-0.4,0.4-0.7,0.9-1
				s1-0.2,1.5-0.1C79.2,26.7,79.5,27.3,79.2,28.1z"/>
		</g>
		<g>
			<path class="st2" d="M67.2,36.9c1.3,0.4,2.3,1.1,2.8,2c0.6,1,0.7,2.1,0.3,3.3c-0.3,1.1-1.1,1.9-2.3,2.5c-1.2,0.5-2.4,0.6-3.6,0.2
				c-1-0.3-1.8-1-2.4-2c-0.6-1.1-0.7-2.1-0.5-3c0.3-1.1,1.1-2,2.2-2.6C65,36.7,66.1,36.6,67.2,36.9z"/>
		</g>
	</g>
</g>
</svg>
