<?xml version="1.0" encoding="utf-8"?>
<!-- Generator: Adobe Illustrator 24.1.3, SVG Export Plug-In . SVG Version: 6.00 Build 0)  -->
<svg version="1.1" id="Layer_1" xmlns="http://www.w3.org/2000/svg" xmlns:xlink="http://www.w3.org/1999/xlink" x="0px" y="0px"
	 viewBox="0 0 58 63" style="enable-background:new 0 0 58 63;" xml:space="preserve">
<style type="text/css">
	.st0{fill:#544842;}
	.st1{fill:#755A3D;}
	.st2{fill:#C8B299;}
	.st3{fill:#010101;}
	.st4{fill:#402715;}
	.st5{fill:none;stroke:#6D6E71;stroke-width:1.7061;stroke-linecap:round;stroke-miterlimit:10;}
	.st6{fill:none;stroke:#6D6E71;stroke-width:1.0663;stroke-linecap:round;stroke-miterlimit:10;}
	.st7{fill:none;stroke:#6D6E71;stroke-width:0.6398;stroke-linecap:round;stroke-miterlimit:10;}
</style>
<g>
	<g>
		<path class="st0" d="M35.8,51c0-0.9-1.7-1.6-3.8-1.6s-2.7,0.7-2.7,1.6H35.8z"/>
		<path class="st0" d="M21.1,51c0-0.9,1.7-1.6,3.8-1.6s2.7,0.7,2.7,1.6H21.1z"/>
		<path class="st1" d="M22.6,49.7c0,0-3.6-11.4-4.1-23.3S19,0.9,19,0.9s2.3,3.2,3.2,6.8s1.4,9.1,1.4,9.1h10.3c0,0,0.5-5.5,1.4-9.1
			s3.2-6.8,3.2-6.8s0.9,13.7,0.5,25.5c-0.5,11.9-4.1,23.3-4.1,23.3H22.6z"/>
		<circle class="st2" cx="32.8" cy="23.7" r="3.3"/>
		<circle class="st3" cx="33.8" cy="23.8" r="1.6"/>
		<circle class="st2" cx="24.7" cy="23.7" r="3.3"/>
		<circle class="st3" cx="25.7" cy="23.8" r="1.6"/>
		<path class="st4" d="M28.5,36.6c-1,0-2.1,1-2.1,1s-0.3,2-0.5,4.6c-0.2,2.6-2.9,7.4-2.9,7.4h11.7c0,0-2.7-4.8-2.9-7.4
			c-0.2-2.6-0.5-4.6-0.5-4.6s-1.1-1-2.1-1"/>
		<ellipse transform="matrix(0.2274 -0.9738 0.9738 0.2274 -8.2055 52.5311)" class="st3" cx="29" cy="31.4" rx="3.9" ry="2.6"/>
		<path class="st5" d="M44.2,41.4c7,0,12.8-6,12.8-13.3s-5.7-13.3-12.8-13.3"/>
		<path class="st6" d="M44.2,36c4.2,0,7.7-3.6,7.7-8s-3.4-8-7.7-8"/>
		<path class="st7" d="M44.6,31.7c2,0,3.7-1.7,3.7-3.8S46.6,24,44.6,24"/>
	</g>
	<polygon class="st3" points="7.8,57.9 42.5,57.9 52.7,61.9 57.5,61.9 45.1,53.9 51.3,51.2 56.7,46.3 51.8,46.8 42,51.2 13.2,51.2 
		0.8,35.3 0.8,47.7 	"/>
</g>
</svg>
