<?xml version="1.0" encoding="utf-8"?>
<!-- Generator: Adobe Illustrator 24.1.3, SVG Export Plug-In . SVG Version: 6.00 Build 0)  -->
<svg version="1.1" id="Layer_1" xmlns="http://www.w3.org/2000/svg" xmlns:xlink="http://www.w3.org/1999/xlink" x="0px" y="0px"
	 viewBox="0 0 154 74" style="enable-background:new 0 0 154 74;" xml:space="preserve">
<style type="text/css">
	.st0{opacity:0.84;fill:#111629;stroke:#7D8499;stroke-miterlimit:10;}
	.st1{fill:#A7A9AC;}
</style>
<g>
	<path class="st0" d="M151.4,59.2c0,7.3-5.7,12.7-13,12.7H13.7c-6.6,0-12-5.2-12-11.7L2,13.6C2,7.2,7.4,1.9,14,1.9h125.6
		c6.6,0,12,5.2,12,11.7L151.4,59.2z"/>
	<g>
		<path class="st1" d="M32.6,43.8V26.6h5.6c2.1,0,3.5,0.1,4.1,0.3c1,0.3,1.8,0.8,2.5,1.7s1,2,1,3.3c0,1.1-0.2,1.9-0.6,2.7
			s-0.9,1.3-1.5,1.7s-1.2,0.7-1.8,0.8c-0.8,0.2-2,0.2-3.6,0.2h-2.3v6.5H32.6z M36.1,29.6v4.9H38c1.4,0,2.3-0.1,2.7-0.3
			s0.8-0.5,1.1-0.8s0.4-0.8,0.4-1.3c0-0.6-0.2-1.1-0.6-1.5s-0.8-0.7-1.4-0.8c-0.4-0.1-1.2-0.1-2.5-0.1H36.1z"/>
		<path class="st1" d="M48.6,43.8V26.6h3.3v17.2H48.6z"/>
		<path class="st1" d="M57.7,35.2l-3-0.5c0.3-1.2,0.9-2.1,1.7-2.7c0.8-0.6,2-0.9,3.7-0.9c1.5,0,2.6,0.2,3.3,0.5
			c0.7,0.3,1.2,0.8,1.5,1.3s0.4,1.5,0.4,2.9l0,3.8c0,1.1,0.1,1.9,0.2,2.4s0.3,1.1,0.6,1.7h-3.3c-0.1-0.2-0.2-0.5-0.3-1
			c-0.1-0.2-0.1-0.3-0.1-0.4c-0.6,0.5-1.2,1-1.8,1.2s-1.3,0.4-2.1,0.4c-1.3,0-2.3-0.3-3-1s-1.1-1.6-1.1-2.6c0-0.7,0.2-1.3,0.5-1.9
			s0.8-1,1.4-1.3s1.5-0.5,2.6-0.8c1.5-0.3,2.6-0.6,3.2-0.8v-0.3c0-0.6-0.2-1.1-0.5-1.4s-0.9-0.4-1.8-0.4c-0.6,0-1,0.1-1.4,0.3
			S57.9,34.6,57.7,35.2z M62.1,37.8c-0.4,0.1-1.1,0.3-2,0.5s-1.5,0.4-1.8,0.6c-0.4,0.3-0.6,0.7-0.6,1.2c0,0.5,0.2,0.9,0.5,1.2
			s0.8,0.5,1.3,0.5c0.6,0,1.2-0.2,1.7-0.6c0.4-0.3,0.7-0.7,0.8-1.1c0.1-0.3,0.1-0.8,0.1-1.6V37.8z"/>
		<path class="st1" d="M67,31.4h3.5l3,8.8l2.9-8.8h3.4l-4.4,12l-0.8,2.2c-0.3,0.7-0.6,1.3-0.8,1.7s-0.6,0.7-0.9,0.9
			s-0.8,0.4-1.3,0.6s-1.1,0.2-1.7,0.2c-0.6,0-1.3-0.1-1.9-0.2l-0.3-2.6c0.5,0.1,1,0.2,1.4,0.2c0.8,0,1.3-0.2,1.7-0.7s0.6-1,0.8-1.7
			L67,31.4z"/>
	</g>
	<g>
		<g>
			<path class="st1" d="M108.9,20.2c0.2,0,0.4,0.3,0.4,0.9c0,1.8,0.2,3.2,0.7,4.4c0.6,1.5,1.8,2.9,3.5,4.3c0.5,0.4,1.6,1.2,3.4,2.5
				c1.4,1,2.4,1.8,3.1,2.5c1,1,1.8,2,2.3,2.9c0.5,1,0.7,2.2,0.7,3.5c0,1.9-0.6,3.5-1.7,4.7c-1.1,1.3-2.5,1.9-4.1,1.9
				c-1.3,0-2.3-0.4-3.2-1.3c-0.9-0.8-1.3-1.9-1.3-3.1c0-0.6,0.3-1.2,0.8-1.7c0.5-0.5,1.1-0.8,1.8-0.8c0.7,0,1.3,0.2,1.7,0.5
				c0.4,0.3,0.6,0.8,0.6,1.3c0,0.3-0.3,0.7-0.8,1.1c-0.5,0.4-0.8,0.7-0.8,0.9c0,0.3,0.2,0.6,0.5,0.8c0.3,0.2,0.7,0.4,1.2,0.4
				c1.1,0,1.9-0.3,2.5-0.9c0.6-0.6,0.9-1.3,0.9-2.3c0-0.9-0.4-1.7-1.3-2.5c-0.9-0.7-1.9-1.5-2.8-2.2c-1.3-1-2.6-2.6-4-4.6
				c-1-1.4-2.4-3.7-4.3-6.8l-0.3-0.2c0,0.1-0.1,0.1-0.2,0.2c-1.5,2.8-2.4,4.6-2.8,5.4c-0.9,1.7-1.8,2.9-2.5,3.7
				c-1.3,1.5-2.7,2.8-4.2,4c-1.5,1.1-2.3,2.1-2.3,3c0,0.9,0.4,1.7,1.1,2.5c0.7,0.7,1.6,1.1,2.5,1.1c0.4,0,0.7-0.1,1-0.3
				c0.3-0.2,0.5-0.3,0.5-0.5s-0.2-0.5-0.6-1.1c-0.4-0.6-0.6-0.9-0.6-1.2c0-0.5,0.2-0.9,0.6-1.2c0.4-0.4,1-0.5,1.6-0.5
				c0.7,0,1.4,0.3,2,0.8c0.6,0.6,0.9,1.2,0.9,1.9c0,1.2-0.4,2.2-1.3,2.9c-0.9,0.7-2.1,1.1-3.6,1.1c-1.5,0-2.9-0.6-4-1.9
				c-1.2-1.3-1.8-2.8-1.8-4.5c0-2.5,1.1-4.8,3.2-6.9c0.5-0.5,1.5-1.3,3-2.5c1.5-1.2,2.7-2.2,3.5-3c2.2-2.2,3.5-5,3.8-8.5
				C108.5,20.4,108.6,20.2,108.9,20.2z"/>
		</g>
	</g>
</g>
</svg>
