<?xml version="1.0" encoding="utf-8"?>
<!-- Generator: Adobe Illustrator 24.1.3, SVG Export Plug-In . SVG Version: 6.00 Build 0)  -->
<svg version="1.1" id="Layer_1" xmlns="http://www.w3.org/2000/svg" xmlns:xlink="http://www.w3.org/1999/xlink" x="0px" y="0px"
	 viewBox="0 0 167 96" style="enable-background:new 0 0 167 96;" xml:space="preserve">
<style type="text/css">
	.st0{opacity:0.84;fill:#111629;stroke:#7D8499;stroke-miterlimit:10;}
	.st1{fill:#A7A9AC;}
	.st2{fill:#C7972E;}
</style>
<g>
	<path class="st0" d="M165.9,82.3c0,7.5-5.7,13-13,13H13.1c-6.6,0-11.9-5.3-11.9-11.9l0.3-70.6c0-6.6,5.3-11.9,11.9-11.9h140.9
		c6.6,0,11.9,5.3,11.9,11.9L165.9,82.3z"/>
	<g>
		<path class="st1" d="M47.2,41.7V24.5h3.5v6.8h6.8v-6.8H61v17.2h-3.5v-7.5h-6.8v7.5H47.2z"/>
		<path class="st1" d="M64.5,27.6v-3h3.3v3H64.5z M64.5,41.7V29.3h3.3v12.4H64.5z"/>
		<path class="st1" d="M70.9,42.5l3.8,0.5c0.1,0.4,0.2,0.7,0.4,0.9c0.3,0.2,0.8,0.4,1.5,0.4c0.9,0,1.5-0.1,1.9-0.4
			c0.3-0.2,0.5-0.4,0.7-0.8c0.1-0.3,0.2-0.8,0.2-1.5v-1.8c-1,1.3-2.2,2-3.7,2c-1.7,0-3-0.7-4-2.1c-0.8-1.1-1.1-2.5-1.1-4.2
			c0-2.1,0.5-3.7,1.5-4.8s2.3-1.7,3.7-1.7c1.5,0,2.8,0.7,3.8,2v-1.7h3.1v11.2c0,1.5-0.1,2.6-0.4,3.3s-0.6,1.3-1,1.7s-1,0.7-1.8,1
			s-1.7,0.4-2.8,0.4c-2.1,0-3.6-0.4-4.5-1.1s-1.3-1.6-1.3-2.7C70.9,42.8,70.9,42.7,70.9,42.5z M73.8,35.2c0,1.3,0.3,2.3,0.8,2.9
			s1.1,0.9,1.9,0.9c0.8,0,1.5-0.3,2-0.9s0.8-1.6,0.8-2.8c0-1.3-0.3-2.2-0.8-2.9c-0.5-0.6-1.2-0.9-2-0.9c-0.8,0-1.4,0.3-2,0.9
			C74.1,33,73.8,34,73.8,35.2z"/>
		<path class="st1" d="M89.1,24.5v6.3c1.1-1.2,2.3-1.9,3.8-1.9c0.8,0,1.4,0.1,2.1,0.4s1.1,0.6,1.4,1.1s0.5,0.9,0.6,1.5
			c0.1,0.5,0.2,1.4,0.2,2.5v7.3h-3.3v-6.6c0-1.3-0.1-2.1-0.2-2.5S93.4,32,93,31.8c-0.3-0.2-0.7-0.3-1.2-0.3c-0.5,0-1,0.1-1.5,0.4
			c-0.4,0.3-0.7,0.7-0.9,1.2s-0.3,1.3-0.3,2.4v6.2h-3.3V24.5H89.1z"/>
		<path class="st1" d="M19.6,64.9l3.4-0.3c0.2,1.1,0.6,2,1.2,2.5s1.5,0.8,2.5,0.8c1.1,0,2-0.2,2.5-0.7s0.8-1,0.8-1.7
			c0-0.4-0.1-0.8-0.4-1s-0.7-0.5-1.2-0.7c-0.4-0.1-1.3-0.4-2.8-0.8c-1.9-0.5-3.2-1-3.9-1.7c-1.1-0.9-1.6-2.1-1.6-3.5
			c0-0.9,0.2-1.7,0.7-2.5s1.2-1.3,2.1-1.7s2.1-0.6,3.4-0.6c2.2,0,3.8,0.5,4.9,1.4s1.7,2.2,1.7,3.8l-3.5,0.2c-0.1-0.9-0.5-1.5-1-1.9
			s-1.2-0.6-2.2-0.6c-1,0-1.8,0.2-2.4,0.6c-0.4,0.3-0.6,0.6-0.6,1.1c0,0.4,0.2,0.8,0.5,1c0.4,0.4,1.5,0.8,3.2,1.1s2.9,0.8,3.7,1.2
			s1.4,1,1.9,1.7s0.7,1.7,0.7,2.7c0,1-0.3,1.9-0.8,2.8s-1.3,1.5-2.3,1.9s-2.2,0.6-3.7,0.6c-2.2,0-3.8-0.5-5-1.5S19.8,66.8,19.6,64.9
			z"/>
		<path class="st1" d="M47.3,61.7l-3.2,0.6c-0.1-0.6-0.4-1.1-0.7-1.5s-0.9-0.5-1.5-0.5c-0.8,0-1.5,0.3-2,0.8s-0.7,1.5-0.7,2.8
			c0,1.5,0.2,2.5,0.7,3.1s1.2,0.9,2,0.9c0.6,0,1.1-0.2,1.5-0.5s0.7-1,0.8-1.8l3.2,0.6c-0.3,1.5-1,2.6-1.9,3.4s-2.2,1.1-3.8,1.1
			c-1.8,0-3.3-0.6-4.4-1.7s-1.6-2.7-1.6-4.8c0-2.1,0.5-3.7,1.6-4.8s2.6-1.7,4.4-1.7c1.5,0,2.7,0.3,3.6,1S46.9,60.4,47.3,61.7z"/>
		<path class="st1" d="M49.1,64.1c0-1.1,0.3-2.2,0.8-3.2s1.3-1.8,2.3-2.3s2.1-0.8,3.3-0.8c1.9,0,3.4,0.6,4.6,1.8s1.8,2.8,1.8,4.6
			c0,1.9-0.6,3.4-1.8,4.7s-2.7,1.9-4.6,1.9c-1.1,0-2.2-0.3-3.3-0.8s-1.8-1.3-2.4-2.3S49.1,65.5,49.1,64.1z M52.4,64.3
			c0,1.2,0.3,2.2,0.9,2.8s1.3,1,2.2,1s1.6-0.3,2.2-1s0.9-1.6,0.9-2.9c0-1.2-0.3-2.2-0.9-2.8s-1.3-1-2.2-1s-1.6,0.3-2.2,1
			S52.4,63,52.4,64.3z"/>
		<path class="st1" d="M67.6,70.5h-3.3V58.1h3.1v1.8c0.5-0.8,1-1.4,1.4-1.7s0.9-0.4,1.4-0.4c0.8,0,1.5,0.2,2.2,0.6l-1,2.9
			c-0.6-0.4-1.1-0.5-1.5-0.5c-0.5,0-0.9,0.1-1.2,0.4s-0.6,0.7-0.8,1.4s-0.3,2.1-0.3,4.2V70.5z"/>
		<path class="st1" d="M81,66.5l3.3,0.6c-0.4,1.2-1.1,2.1-2,2.7s-2,0.9-3.4,0.9c-2.2,0-3.8-0.7-4.8-2.1c-0.8-1.1-1.2-2.6-1.2-4.3
			c0-2.1,0.5-3.7,1.6-4.8s2.4-1.8,4.1-1.8c1.9,0,3.3,0.6,4.4,1.8s1.6,3.1,1.5,5.6h-8.2c0,1,0.3,1.7,0.8,2.3s1.1,0.8,1.9,0.8
			c0.5,0,0.9-0.1,1.3-0.4S80.9,67.2,81,66.5z M81.2,63.2c0-1-0.3-1.7-0.7-2.2s-1-0.7-1.7-0.7c-0.7,0-1.3,0.3-1.8,0.8
			s-0.7,1.2-0.7,2.1H81.2z"/>
		<path class="st1" d="M86,66.9l3.3-0.5c0.1,0.6,0.4,1.1,0.9,1.5s1,0.5,1.8,0.5c0.9,0,1.5-0.2,1.9-0.5c0.3-0.2,0.4-0.5,0.4-0.9
			c0-0.2-0.1-0.5-0.2-0.6c-0.2-0.2-0.5-0.3-1.1-0.4c-2.7-0.6-4.3-1.1-5.1-1.6c-1-0.7-1.5-1.6-1.5-2.8c0-1.1,0.4-2,1.3-2.7
			s2.2-1.1,4-1.1c1.7,0,3,0.3,3.8,0.8s1.4,1.4,1.7,2.5l-3.1,0.6c-0.1-0.5-0.4-0.9-0.8-1.1s-0.9-0.4-1.6-0.4c-0.9,0-1.5,0.1-1.9,0.4
			c-0.2,0.2-0.4,0.4-0.4,0.7c0,0.2,0.1,0.4,0.3,0.6c0.3,0.2,1.3,0.5,3.1,0.9s3,0.9,3.7,1.5c0.7,0.6,1,1.4,1,2.4
			c0,1.1-0.5,2.1-1.4,2.9s-2.4,1.2-4.2,1.2c-1.7,0-3-0.3-4-1S86.3,68.1,86,66.9z"/>
	</g>
	<g>
		<path class="st2" d="M123.3,50.5c0,0.6-0.3,0.9-0.8,0.9c-0.5,0-0.9-0.5-1.2-1.6c-0.2-0.9-0.4-1.8-0.7-2.7c-0.2-0.5-1-1.6-2.4-3.4
			c-0.5-0.7-0.9-1-1-1c-0.1,0-0.4,0.1-0.8,0.2c-0.4,0.1-0.7,0.2-1,0.2c-0.5,0-0.9-0.3-1.4-1c-0.5-0.7-0.7-1.4-0.7-2.1
			c0-0.9,0.3-1.6,0.9-2.2c0.6-0.6,1.4-0.9,2.3-0.9s1.4,0.4,1.4,1.2c0,0.1,0,0.2-0.1,0.4c0,0.2-0.1,0.3-0.1,0.4
			c0,0.4,0.3,1.1,0.9,2.2c0.8,1.3,1.6,2.5,2.4,3.8C122.6,47.2,123.3,49.2,123.3,50.5z M143.8,53c0,0.6-0.1,1.3-0.3,1.9
			c-0.2,0.7-0.4,1.1-0.6,1.3c-0.2,0.2-1.9,0.3-5.2,0.3c-0.2,0-0.7,0-1.3-0.1c-0.7,0-1.2-0.1-1.6-0.1c-1,0-2.9,0-5.8,0.1
			c-2.9,0.1-5.3,0.1-7.3,0.1c-1.5,0-2.2-0.6-2.2-1.8c0-0.9,0.2-1.5,0.7-1.8c0.3-0.2,1-0.3,2.1-0.3h0.4c0,0,0.6,0,2,0.1
			c1.6,0.1,3.3,0.1,5.1,0.2c2.6,0.1,5.4,0.1,8.4,0.1c0.1,0,1.4-0.2,3.8-0.5l1.4-0.2C143.6,52.5,143.8,52.7,143.8,53z M128.8,50.6
			c0,0.5-0.4,0.8-1.1,0.8c-0.5,0-0.9-0.4-1.1-1.1c-0.1-0.2-0.3-1.4-0.7-3.6c-0.5-3-1-5.2-1.5-6.6c-0.1-0.3-0.3-0.8-0.6-1.2
			c-0.3-0.5-0.5-0.8-0.6-0.9c-0.1-0.3-0.1-0.7-0.2-1s-0.4-0.6-0.9-0.8c-1.2-0.5-1.8-0.8-2-0.9c-0.3-0.3-0.5-0.8-0.5-1.5
			c0-1.1,0.3-2,0.8-2.8c0.5-0.7,1.2-1.1,1.8-1.1c0.8,0,1.5,0.2,2.1,0.7c0.6,0.5,0.9,1,0.9,1.6c0,0.2-0.1,0.4-0.3,0.7
			c-0.3,0.4-0.4,0.8-0.5,1.1C127.4,44.5,128.8,50,128.8,50.6z M136.5,61.8c0,0.7-0.4,1.4-1.2,2c-0.8,0.6-1.7,0.9-2.7,0.9
			c-1.4,0-2.5-0.2-3.3-0.7c-0.8-0.5-1.2-1-1.2-1.8c0-0.7,0.5-1.3,1.4-2c0.9-0.7,1.8-1,2.7-1c1.2,0,2.2,0.3,3,0.8
			C136,60.6,136.5,61.2,136.5,61.8z M134.4,31.3c0,0.2-0.2,0.6-0.5,1c-0.5,0.6-0.8,1.1-0.9,1.6c-0.3,0.8-0.4,3-0.4,6.6
			c0,1.7,0.1,3.6,0.4,5.7c0.2,2.1,0.4,3.3,0.4,3.6c0,0.3-0.1,0.6-0.4,0.9c-0.3,0.3-0.6,0.5-0.8,0.5c-0.2,0-0.4-0.2-0.6-0.5
			c-0.2-0.3-0.3-0.8-0.3-1.2v-8.9c0-0.1-0.2-2.3-0.7-6.6c-1.3-0.9-1.9-1.8-1.9-2.5c0-0.8,0.3-1.6,0.9-2.3c0.6-0.7,1.2-1.1,1.9-1.1
			c0.7,0,1.4,0.4,2.1,1.1C134,29.9,134.4,30.6,134.4,31.3z M142.8,32.2c0,2.7-0.9,4.1-2.8,4.2c-0.5,2-1.3,4.6-2.3,7.6
			c-0.7,2.1-1,3.4-1,4c0,0.1,0,0.2,0,0.4c0,0.2,0,0.3,0,0.4c0,1-0.1,1.6-0.2,1.8c-0.2,0.4-0.6,0.6-1.3,0.6c-0.6,0-0.9-0.3-0.9-0.8
			c0,0.2,0.5-2.2,1.6-7c0.4-1.7,0.8-3.6,1.4-5.5c0.4-1.4,0.6-2.2,0.6-2.4c0-0.2-0.2-0.6-0.5-1.2c-0.3-0.6-0.5-1.1-0.5-1.4
			c0-2,1-3,3.1-3C141.9,29.8,142.8,30.6,142.8,32.2z M149.8,38.6c0,0.8-0.2,1.5-0.6,2c-0.4,0.5-0.9,0.8-1.6,0.8
			c-0.2,0-0.4-0.1-0.8-0.2c-0.3-0.1-0.6-0.2-0.7-0.2c-0.6,0-1.5,1.7-2.8,5c-1.3,3.4-2.1,5-2.6,5c-0.4,0-0.6-0.3-0.8-0.8
			c0.3-2,0.9-3.9,1.6-5.6c0.4-1.1,1-2.2,1.7-3.4c0.6-0.9,0.8-1.5,0.8-1.6c0-0.3-0.1-0.7-0.4-1.2c-0.3-0.5-0.4-0.9-0.4-1.1
			c0-1.1,1.2-1.6,3.5-1.6c0.7,0,1.3,0.3,1.9,1C149.5,37.2,149.8,37.9,149.8,38.6z"/>
	</g>
</g>
</svg>
