<?xml version="1.0" encoding="utf-8"?>
<!-- Generator: Adobe Illustrator 24.1.3, SVG Export Plug-In . SVG Version: 6.00 Build 0)  -->
<svg version="1.1" id="Layer_1" xmlns="http://www.w3.org/2000/svg" xmlns:xlink="http://www.w3.org/1999/xlink" x="0px" y="0px"
	 viewBox="0 0 164 59" style="enable-background:new 0 0 164 59;" xml:space="preserve">
<style type="text/css">
	.st0{fill:#010101;}
	.st1{fill:#FDB63B;}
	.st2{fill:#868978;}
</style>
<g>
	<g>
		<g>
			<path class="st0" d="M91.7,49.5c1.4-0.2,2.5-0.6,2.5-0.6s2.3,0.2,3.7,1.4c1.4,1.2,2.7,3.5,2.7,3.5s1.5-1.6,1.2-3.7
				c-0.4-2.9-2.5-4.8-2.5-4.8s1.4-2.7,1.9-5.2c0.4-2.5-2.7-5.6-2.7-5.6s1.7-2.9,2.3-3.9c0.6-1,1-3.3,1-3.3s3.3,0.2,7.4,5.2
				c4.9,5.8-0.4,15.1-0.4,15.1s15.5,10.9,28.3,10.7c19-0.2,26.2-7.4,26.2-7.4s-9.2-0.3-12.4-5.8c-3.9-6.8-2.9-11.6-2.9-11.6
				s-7.5-0.3-10.7-4.1c-3.7-4.3-2.9-10.7-2.9-10.7s-5.6,3.1-11.2,1.2c-5.6-1.9-7.4-7.2-7.4-7.2s-4.5,3.1-8.9,2.7
				c-4.7-0.4-6.6-2.7-6.6-2.7s-0.8-2.6-2.9-5.6C95.4,4.2,91.7,3,91.7,3h-0.2c0,0-3.7,1.2-5.8,4.1c-2.1,3-2.9,5.6-2.9,5.6
				s-1.9,2.2-6.6,2.7c-4.3,0.4-8.9-2.7-8.9-2.7s-1.9,5.4-7.4,7.2c-5.6,1.9-11.2-1.2-11.2-1.2s0.8,6.4-2.9,10.7
				c-3.3,3.8-10.7,4.1-10.7,4.1l9.4,9c12.8,0.1,29.8,5,29.8,5s-5.3-9.2-0.4-15.1c4.1-5,7.4-5.2,7.4-5.2s0.4,2.3,1,3.3
				c0.6,1,2.3,3.9,2.3,3.9s-3.1,3.1-2.7,5.6c0.4,2.5,1.9,5.2,1.9,5.2s-2.1,1.9-2.5,4.8c-0.3,2.1,1.2,3.7,1.2,3.7s1.2-2.3,2.7-3.5
				c1.4-1.2,3.7-1.4,3.7-1.4s1,0.4,2.5,0.6"/>
			<path class="st0" d="M13.4,3"/>
			<path class="st0" d="M66.3,40.6c2.8,4.9,11,5.2,11,5.2s-6.4,6.4-23.4,6.6c-11.4,0.1-25.2-9.6-25.2-9.6s4.7-8.2,0.4-13.4
				c-3.7-4.4-6.6-4.6-6.6-4.6s-0.4,2-0.9,2.9c-0.6,0.9-2,3.5-2,3.5s2.8,2.8,2.4,5c-0.4,2.2-1.7,4.6-1.7,4.6s1.8,1.7,2.2,4.2
				c0.3,1.9-1.1,3.3-1.1,3.3s-1.1-2-2.4-3.1s-3.3-1.3-3.3-1.3s-0.9,0.4-2.2,0.6h-0.2c-1.3-0.2-2.2-0.6-2.2-0.6S9,44,7.7,45.2
				s-2.4,3.1-2.4,3.1S4,46.8,4.2,45c0.4-2.6,2.2-4.2,2.2-4.2s-1.3-2.4-1.7-4.6c-0.4-2.2,2.4-5,2.4-5s-1.5-2.6-2-3.5
				s-0.9-2.9-0.9-2.9s-0.9,0.1-1.4,0.7c-0.6,0.6-2.2,2.4-2.2,2.4V0.5h90.9V18c0,0-14.1,7.2-18.7,12.7S66.3,40.6,66.3,40.6z"/>
			<g>
				<circle class="st1" cx="88.7" cy="42.4" r="2"/>
				<circle class="st1" cx="95.4" cy="42.4" r="2"/>
			</g>
		</g>
	</g>
	<g>
		<path class="st2" d="M30.7,19.4l2.5-0.2c0.2,0.8,0.5,1.5,0.9,1.9s1.1,0.6,1.9,0.6c0.8,0,1.5-0.2,1.9-0.5s0.6-0.8,0.6-1.2
			c0-0.3-0.1-0.6-0.3-0.8s-0.5-0.4-0.9-0.6c-0.3-0.1-1-0.3-2.1-0.6c-1.4-0.3-2.4-0.8-2.9-1.3c-0.8-0.7-1.2-1.6-1.2-2.6
			c0-0.7,0.2-1.3,0.6-1.8c0.4-0.6,0.9-1,1.6-1.3s1.5-0.4,2.5-0.4c1.6,0,2.8,0.4,3.7,1.1s1.2,1.7,1.3,2.8l-2.6,0.1
			c-0.1-0.7-0.4-1.1-0.7-1.4s-0.9-0.4-1.6-0.4c-0.8,0-1.3,0.2-1.8,0.5c-0.3,0.2-0.4,0.5-0.4,0.8c0,0.3,0.1,0.6,0.4,0.8
			c0.3,0.3,1.1,0.6,2.4,0.9s2.2,0.6,2.8,0.9s1.1,0.8,1.4,1.3s0.5,1.2,0.5,2.1c0,0.7-0.2,1.4-0.6,2.1s-1,1.1-1.7,1.4
			s-1.7,0.5-2.8,0.5c-1.6,0-2.9-0.4-3.8-1.1C31.4,22,30.8,20.9,30.7,19.4z"/>
		<path class="st2" d="M43.3,13v-2.3h2.5V13H43.3z M43.3,23.6v-9.3h2.5v9.3H43.3z"/>
		<path class="st2" d="M48.1,24.3l2.8,0.3c0,0.3,0.2,0.6,0.3,0.7c0.2,0.2,0.6,0.3,1.1,0.3c0.6,0,1.1-0.1,1.5-0.3
			c0.2-0.1,0.4-0.3,0.5-0.6c0.1-0.2,0.1-0.6,0.1-1.1v-1.4c-0.7,1-1.7,1.5-2.8,1.5c-1.3,0-2.2-0.5-3-1.6c-0.6-0.8-0.9-1.9-0.9-3.1
			c0-1.6,0.4-2.8,1.1-3.6c0.8-0.8,1.7-1.2,2.8-1.2c1.2,0,2.1,0.5,2.9,1.5v-1.3h2.3v8.4c0,1.1-0.1,1.9-0.3,2.5s-0.4,1-0.8,1.3
			s-0.8,0.6-1.3,0.7s-1.2,0.3-2.1,0.3c-1.6,0-2.7-0.3-3.4-0.8s-1-1.2-1-2.1C48.1,24.5,48.1,24.4,48.1,24.3z M50.3,18.8
			c0,1,0.2,1.7,0.6,2.2s0.9,0.7,1.4,0.7c0.6,0,1.1-0.2,1.5-0.7s0.6-1.2,0.6-2.1c0-1-0.2-1.7-0.6-2.2S53,16,52.3,16
			c-0.6,0-1.1,0.2-1.5,0.7S50.3,17.8,50.3,18.8z"/>
		<path class="st2" d="M67.8,23.6h-2.5v-4.8c0-1-0.1-1.7-0.2-2s-0.3-0.5-0.5-0.7S64.1,16,63.8,16c-0.4,0-0.8,0.1-1.2,0.4
			s-0.6,0.5-0.7,0.9s-0.2,1.1-0.2,2.1v4.2h-2.5v-9.3h2.3v1.4c0.8-1.1,1.8-1.6,3.1-1.6c0.5,0,1,0.1,1.5,0.3s0.8,0.4,1,0.8
			s0.4,0.7,0.5,1c0.1,0.4,0.1,0.9,0.1,1.7V23.6z"/>
		<path class="st2" d="M75.3,10.8h2.6v7c0,1.1,0,1.8,0.1,2.2c0.1,0.5,0.4,1,0.8,1.3s1,0.5,1.7,0.5c0.7,0,1.3-0.2,1.7-0.5
			s0.6-0.7,0.7-1.1s0.1-1.2,0.1-2.2v-7.1h2.6v6.8c0,1.5-0.1,2.6-0.2,3.3S85,22,84.6,22.4s-0.9,0.8-1.5,1.1s-1.5,0.4-2.5,0.4
			c-1.2,0-2.2-0.1-2.8-0.4s-1.1-0.7-1.5-1.1s-0.6-0.9-0.7-1.4c-0.2-0.7-0.3-1.8-0.3-3.3V10.8z"/>
		<path class="st2" d="M88.2,14.3h2.3v1.4c0.3-0.5,0.7-0.8,1.2-1.1s1.1-0.4,1.7-0.4c1.1,0,2,0.4,2.8,1.3c0.8,0.8,1.1,2,1.1,3.6
			c0,1.6-0.4,2.8-1.1,3.6s-1.7,1.3-2.8,1.3c-0.5,0-1-0.1-1.4-0.3s-0.9-0.6-1.3-1.1v4.7h-2.5V14.3z M90.7,18.8c0,1,0.2,1.8,0.6,2.3
			s0.9,0.8,1.5,0.8c0.6,0,1.1-0.2,1.4-0.7s0.6-1.2,0.6-2.3c0-1-0.2-1.7-0.6-2.2S93.4,16,92.8,16c-0.6,0-1.1,0.2-1.5,0.7
			S90.7,17.9,90.7,18.8z"/>
	</g>
</g>
</svg>
