<?xml version="1.0" encoding="utf-8"?>
<!-- Generator: Adobe Illustrator 24.1.3, SVG Export Plug-In . SVG Version: 6.00 Build 0)  -->
<svg version="1.1" id="Layer_1" xmlns="http://www.w3.org/2000/svg" xmlns:xlink="http://www.w3.org/1999/xlink" x="0px" y="0px"
	 viewBox="0 0 143 83" style="enable-background:new 0 0 143 83;" xml:space="preserve">
<style type="text/css">
	.st0{fill:#282829;stroke:#6D6E71;stroke-miterlimit:10;}
	.st1{fill:#A7A9AC;}
	.st2{fill:#6D6E71;}
</style>
<g>
	<path class="st0" d="M141.4,70.4c0,6.3-4.8,11-11,11H11.9c-5.6,0-10.1-4.5-10.1-10.1L2,11.5C2,5.9,6.5,1.4,12.1,1.4h119.5
		c5.6,0,10.1,4.5,10.1,10.1L141.4,70.4z"/>
	<g>
		<path class="st1" d="M32.1,62.4l2.5-0.2c0.2,0.8,0.5,1.5,0.9,1.9c0.5,0.4,1.1,0.6,1.9,0.6c0.8,0,1.5-0.2,1.9-0.5
			c0.4-0.4,0.6-0.8,0.6-1.2c0-0.3-0.1-0.6-0.3-0.8s-0.5-0.4-0.9-0.6c-0.3-0.1-1-0.3-2.1-0.6c-1.4-0.3-2.4-0.8-2.9-1.3
			c-0.8-0.7-1.2-1.6-1.2-2.6c0-0.7,0.2-1.3,0.6-1.8s0.9-1,1.6-1.3s1.5-0.4,2.5-0.4c1.6,0,2.8,0.4,3.7,1.1s1.2,1.7,1.3,2.8l-2.6,0.1
			c-0.1-0.7-0.4-1.1-0.7-1.4s-0.9-0.4-1.6-0.4c-0.8,0-1.3,0.2-1.8,0.5c-0.3,0.2-0.4,0.5-0.4,0.8c0,0.3,0.1,0.6,0.4,0.8
			c0.3,0.3,1.1,0.6,2.4,0.9s2.2,0.6,2.8,0.9s1.1,0.8,1.4,1.3s0.5,1.2,0.5,2.1c0,0.7-0.2,1.4-0.6,2.1s-1,1.1-1.7,1.4
			s-1.7,0.5-2.8,0.5c-1.6,0-2.9-0.4-3.8-1.1S32.3,63.9,32.1,62.4z"/>
		<path class="st1" d="M44.3,60.2c0-1.3,0.2-2.4,0.6-3.3c0.3-0.7,0.7-1.2,1.2-1.8s1.1-0.9,1.7-1.2c0.8-0.3,1.7-0.5,2.8-0.5
			c1.9,0,3.4,0.6,4.6,1.8s1.7,2.8,1.7,4.9c0,2.1-0.6,3.7-1.7,4.9c-1.1,1.2-2.6,1.8-4.5,1.8c-1.9,0-3.4-0.6-4.6-1.8
			C44.8,63.9,44.3,62.3,44.3,60.2z M46.9,60.2c0,1.5,0.3,2.6,1,3.3c0.7,0.8,1.5,1.1,2.6,1.1s1.9-0.4,2.6-1.1c0.7-0.7,1-1.9,1-3.4
			c0-1.5-0.3-2.6-1-3.3s-1.5-1.1-2.6-1.1s-1.9,0.4-2.6,1.1S46.9,58.7,46.9,60.2z"/>
		<path class="st1" d="M58.8,53.7h2.6v7c0,1.1,0,1.8,0.1,2.2c0.1,0.5,0.4,1,0.8,1.3c0.4,0.3,1,0.5,1.7,0.5c0.7,0,1.3-0.2,1.7-0.5
			c0.4-0.3,0.6-0.7,0.7-1.1s0.1-1.2,0.1-2.2v-7.1H69v6.8c0,1.5-0.1,2.6-0.2,3.3c-0.1,0.6-0.4,1.2-0.8,1.6s-0.9,0.8-1.5,1
			s-1.5,0.4-2.5,0.4c-1.2,0-2.2-0.1-2.8-0.4s-1.1-0.7-1.5-1.1s-0.6-0.9-0.7-1.4c-0.2-0.7-0.3-1.8-0.3-3.3V53.7z"/>
		<path class="st1" d="M71.8,66.6V53.7h2.5l5.3,8.6v-8.6H82v12.9h-2.6l-5.2-8.4v8.4H71.8z"/>
		<path class="st1" d="M84.8,53.7h4.8c1.1,0,1.9,0.1,2.5,0.2c0.8,0.2,1.4,0.6,1.9,1.2s0.9,1.3,1.2,2.1s0.4,1.8,0.4,3
			c0,1.1-0.1,2-0.4,2.7c-0.3,0.9-0.8,1.7-1.4,2.3c-0.5,0.4-1.1,0.8-1.8,1c-0.6,0.2-1.3,0.3-2.3,0.3h-4.9V53.7z M87.4,55.9v8.5h1.9
			c0.7,0,1.3,0,1.6-0.1c0.4-0.1,0.8-0.3,1.1-0.5c0.3-0.3,0.5-0.7,0.7-1.2s0.3-1.4,0.3-2.4s-0.1-1.8-0.3-2.3s-0.4-0.9-0.7-1.2
			s-0.7-0.5-1.2-0.6c-0.4-0.1-1.1-0.1-2.1-0.1H87.4z"/>
		<path class="st1" d="M97.1,62.4l2.5-0.2c0.2,0.8,0.5,1.5,0.9,1.9c0.5,0.4,1.1,0.6,1.9,0.6c0.8,0,1.5-0.2,1.9-0.5
			c0.4-0.4,0.6-0.8,0.6-1.2c0-0.3-0.1-0.6-0.3-0.8s-0.5-0.4-0.9-0.6c-0.3-0.1-1-0.3-2.1-0.6c-1.4-0.3-2.4-0.8-2.9-1.3
			c-0.8-0.7-1.2-1.6-1.2-2.6c0-0.7,0.2-1.3,0.6-1.8s0.9-1,1.6-1.3s1.5-0.4,2.5-0.4c1.6,0,2.8,0.4,3.7,1.1s1.2,1.7,1.3,2.8l-2.6,0.1
			c-0.1-0.7-0.4-1.1-0.7-1.4s-0.9-0.4-1.6-0.4c-0.8,0-1.3,0.2-1.8,0.5c-0.3,0.2-0.4,0.5-0.4,0.8c0,0.3,0.1,0.6,0.4,0.8
			c0.3,0.3,1.1,0.6,2.4,0.9s2.2,0.6,2.8,0.9s1.1,0.8,1.4,1.3s0.5,1.2,0.5,2.1c0,0.7-0.2,1.4-0.6,2.1s-1,1.1-1.7,1.4
			s-1.7,0.5-2.8,0.5c-1.6,0-2.9-0.4-3.8-1.1S97.3,63.9,97.1,62.4z"/>
	</g>
	<g>
		<path class="st2" d="M74.2,33.3c-0.2,1.2-0.9,2.2-2,2.9c-1.1,0.7-2.2,1-3.5,0.7c-1.4-0.3-2.4-0.9-3-2c-0.7-1-0.9-2.2-0.6-3.5
			c0.2-1.1,0.9-2.1,2-2.8s2.1-1,3.2-0.8c1,0.2,2,0.8,2.9,1.9C74.1,30.9,74.5,32.1,74.2,33.3z M70.4,24.6c-0.1,0.3-0.2,0.5-0.4,0.7
			c-0.2,0.2-0.4,0.3-0.7,0.2c-0.1,0-0.3-0.1-0.5-0.3c0.1-0.4,0-2.5-0.2-6.4c0.5-0.2,0.9-0.3,1.2-0.2c0.5,0.1,0.8,0.3,0.8,0.5
			c0,0.4-0.1,1.5-0.1,3.2C70.6,23.4,70.5,24.1,70.4,24.6z M71.8,33.1c0.3-1.5-0.3-2.5-1.9-3c-0.6-0.1-1.1,0.1-1.5,0.5
			c-0.4,0.4-0.7,1-0.9,1.8c-0.1,0.6,0,1.1,0.3,1.6c0.3,0.5,0.7,0.8,1.3,0.9c0.6,0.1,1.2,0,1.7-0.3C71.3,34.3,71.6,33.8,71.8,33.1z
			 M70.3,45.8c-0.1,0.6-0.4,0.9-0.9,0.8c-0.6-0.1-1-0.3-1.1-0.6l0-0.1c0.1-0.6,0.1-2.6,0.1-6.1c0.4-0.1,0.8-0.2,1.2-0.1
			c0.5,0.1,0.7,0.4,0.7,1C70.3,44,70.3,45.7,70.3,45.8z M75.9,20.7c-1.3,3.4-2.5,5.2-3.6,5.4c-0.3-0.3-0.4-0.7-0.3-0.9
			c0-0.2,0.3-0.8,0.7-1.7c0.6-1.3,1-2.4,1.4-3.4c0.2-0.2,0.4-0.3,0.6-0.2C74.8,19.9,75.2,20.2,75.9,20.7z M75.2,45.3
			c0,0.2-0.2,0.3-0.5,0.5c-0.3,0.1-0.5,0.2-0.8,0.1c-0.2,0-0.4-0.4-0.7-1c-0.6-1.3-1-2.5-1.4-3.7c-0.3-0.9-0.4-1.4-0.3-1.4
			c0-0.2,0.2-0.4,0.4-0.6c0.2-0.2,0.4-0.2,0.6-0.2c0.2,0,0.6,0.6,1.1,1.7C74.7,43.4,75.3,44.9,75.2,45.3z M80.5,23.9
			c0,0.2-0.4,0.5-1.1,1.1c-2.6,2.3-4,3.4-4.2,3.3c-0.2,0-0.3-0.2-0.5-0.4c-0.2-0.2-0.2-0.4-0.2-0.6c0-0.1,0.4-0.4,1.1-1.1
			c1.1-1,2.1-1.9,2.9-2.7c0.2-0.2,0.3-0.3,0.5-0.5c0.2-0.2,0.4-0.2,0.7-0.1c0.2,0,0.4,0.2,0.6,0.4C80.4,23.5,80.5,23.7,80.5,23.9z
			 M79.2,42.4c0,0.2-0.2,0.4-0.5,0.5C78.5,43,78.2,43.1,78,43c-0.3-0.1-0.8-0.5-1.4-1.4c-1.7-2.1-2.5-3.3-2.5-3.5c0-0.1,0.4-0.5,1-1
			C77.9,40.1,79.3,41.9,79.2,42.4z M82.8,28.7c-0.1,0.3-0.7,0.6-1.8,1c-2.5,0.7-4,1.1-4.4,1c-0.2,0-0.4-0.2-0.5-0.4
			c-0.2-0.2-0.2-0.4-0.2-0.5c0-0.2,0.6-0.4,1.6-0.8c2.9-0.9,4.5-1.4,4.7-1.3c0.2,0,0.3,0.2,0.5,0.4C82.8,28.3,82.9,28.5,82.8,28.7z
			 M81.7,37.8l-0.3,0.7c-0.5,0.2-0.8,0.3-0.9,0.3c-0.1,0-0.6-0.3-1.4-0.7c-1.2-0.7-2.3-1.3-3.3-1.8c0.2-0.8,0.7-1.2,1.3-1
			c0.3,0.1,0.7,0.3,1.5,0.7c0.7,0.4,1.2,0.7,1.5,0.7C80.3,36.8,80.8,37.1,81.7,37.8z M82.9,33.7c-0.1,0.5-0.5,0.8-1.1,0.7
			c0,0-0.6,0-1.8-0.1c-0.8,0-1.5-0.1-2.2-0.3c-1-0.2-1.4-0.6-1.3-1.2c0.1-0.4,0.5-0.6,1.3-0.4c0.6,0.1,1.3,0.1,2.4-0.1
			c1-0.1,1.7-0.2,2-0.1C82.8,32.5,83,32.9,82.9,33.7z"/>
	</g>
</g>
</svg>
