<?xml version="1.0" encoding="utf-8"?>
<!-- Generator: Adobe Illustrator 24.1.3, SVG Export Plug-In . SVG Version: 6.00 Build 0)  -->
<svg version="1.1" id="Layer_1" xmlns="http://www.w3.org/2000/svg" xmlns:xlink="http://www.w3.org/1999/xlink" x="0px" y="0px"
	 viewBox="0 0 154 74" style="enable-background:new 0 0 154 74;" xml:space="preserve">
<style type="text/css">
	.st0{opacity:0.84;fill:#111629;stroke:#7D8499;stroke-miterlimit:10;}
	.st1{fill:#A7A9AC;}
</style>
<g>
	<path class="st0" d="M151.5,58.8c0,7.3-5.7,12.7-13,12.7H13.9c-6.6,0-12-5.2-12-11.7l0.3-46.6c0-6.5,5.4-11.7,12-11.7h125.6
		c6.6,0,12,5.2,12,11.7L151.5,58.8z"/>
	<g>
		<path class="st1" d="M40.7,33.4V16.2h3.4l7,11.5V16.2h3.2v17.2h-3.5l-6.9-11.2v11.2H40.7z"/>
		<path class="st1" d="M65.2,29.5l3.3,0.6c-0.4,1.2-1.1,2.1-2,2.7s-2,0.9-3.4,0.9c-2.2,0-3.8-0.7-4.8-2.1C57.4,30.4,57,29,57,27.3
			c0-2.1,0.5-3.7,1.6-4.8s2.4-1.8,4.1-1.8c1.9,0,3.3,0.6,4.4,1.8s1.6,3.1,1.5,5.6h-8.3c0,1,0.3,1.7,0.8,2.3s1.1,0.8,1.9,0.8
			c0.5,0,0.9-0.1,1.3-0.4S65,30.1,65.2,29.5z M65.4,26.1c0-1-0.3-1.7-0.7-2.2s-1-0.7-1.7-0.7c-0.7,0-1.3,0.3-1.8,0.8
			s-0.7,1.2-0.7,2.1H65.4z"/>
		<path class="st1" d="M73.7,33.4L69.7,21h3.2l2.3,8.2l2.1-8.2h3.2l2.1,8.2L85,21h3.2l-4,12.4h-3.2l-2.1-8l-2.1,8H73.7z"/>
		<path class="st1" d="M31.3,49.1v-2.9h7.5V53c-0.7,0.7-1.8,1.3-3.2,1.9s-2.8,0.8-4.2,0.8c-1.8,0-3.4-0.4-4.7-1.1s-2.3-1.8-3-3.2
			s-1-2.9-1-4.6c0-1.8,0.4-3.4,1.1-4.8s1.8-2.5,3.3-3.2c1.1-0.6,2.5-0.9,4.1-0.9c2.1,0,3.8,0.4,5,1.3s2,2.1,2.3,3.7l-3.4,0.6
			c-0.2-0.8-0.7-1.5-1.4-2s-1.5-0.7-2.5-0.7c-1.5,0-2.7,0.5-3.6,1.4s-1.3,2.4-1.3,4.3c0,2,0.5,3.6,1.4,4.6s2.1,1.5,3.6,1.5
			c0.7,0,1.5-0.1,2.2-0.4s1.4-0.6,1.9-1v-2.2H31.3z"/>
		<path class="st1" d="M44.4,46.8l-3-0.5c0.3-1.2,0.9-2.1,1.7-2.7s2-0.9,3.7-0.9c1.5,0,2.6,0.2,3.3,0.5s1.2,0.8,1.5,1.3
			s0.4,1.5,0.4,2.9l0,3.8c0,1.1,0.1,1.9,0.2,2.4s0.3,1.1,0.6,1.7h-3.3c-0.1-0.2-0.2-0.5-0.3-1c-0.1-0.2-0.1-0.3-0.1-0.4
			c-0.6,0.5-1.2,1-1.8,1.2s-1.3,0.4-2.1,0.4c-1.3,0-2.3-0.3-3-1s-1.1-1.6-1.1-2.6c0-0.7,0.2-1.3,0.5-1.9s0.8-1,1.4-1.3
			s1.5-0.5,2.6-0.8c1.5-0.3,2.6-0.6,3.2-0.8V47c0-0.6-0.2-1.1-0.5-1.4s-0.9-0.4-1.8-0.4c-0.6,0-1,0.1-1.4,0.3S44.6,46.2,44.4,46.8z
			 M48.8,49.4c-0.4,0.1-1.1,0.3-2,0.5s-1.5,0.4-1.8,0.6c-0.4,0.3-0.6,0.7-0.6,1.2c0,0.5,0.2,0.9,0.5,1.2s0.8,0.5,1.3,0.5
			c0.6,0,1.2-0.2,1.7-0.6c0.4-0.3,0.7-0.7,0.8-1.1c0.1-0.3,0.1-0.8,0.1-1.6V49.4z"/>
		<path class="st1" d="M55.1,43h3v1.7c1.1-1.3,2.4-2,3.9-2c0.8,0,1.5,0.2,2.1,0.5c0.6,0.3,1.1,0.8,1.4,1.5c0.5-0.7,1.1-1.2,1.8-1.5
			s1.3-0.5,2-0.5c0.9,0,1.7,0.2,2.3,0.6s1.1,0.9,1.4,1.6c0.2,0.5,0.3,1.4,0.3,2.6v8h-3.3v-7.1c0-1.2-0.1-2-0.3-2.4
			c-0.3-0.5-0.8-0.7-1.4-0.7c-0.5,0-0.9,0.1-1.3,0.4s-0.7,0.7-0.9,1.2s-0.3,1.4-0.3,2.6v6h-3.3v-6.8c0-1.2-0.1-2-0.2-2.3
			s-0.3-0.6-0.5-0.8s-0.6-0.3-1-0.3c-0.5,0-1,0.1-1.4,0.4s-0.7,0.7-0.9,1.2s-0.3,1.4-0.3,2.6v6h-3.3V43z"/>
		<path class="st1" d="M83.9,51.5l3.3,0.6c-0.4,1.2-1.1,2.1-2,2.7s-2,0.9-3.4,0.9c-2.2,0-3.8-0.7-4.8-2.1c-0.8-1.1-1.2-2.6-1.2-4.3
			c0-2.1,0.5-3.7,1.6-4.8s2.4-1.8,4.1-1.8c1.9,0,3.3,0.6,4.4,1.8s1.6,3.1,1.5,5.6h-8.2c0,1,0.3,1.7,0.8,2.3s1.1,0.8,1.9,0.8
			c0.5,0,0.9-0.1,1.3-0.4S83.7,52.1,83.9,51.5z M84.1,48.1c0-1-0.3-1.7-0.7-2.2s-1-0.7-1.7-0.7c-0.7,0-1.3,0.3-1.8,0.8
			s-0.7,1.2-0.7,2.1H84.1z"/>
	</g>
	<g>
		<path class="st1" d="M110.5,53c-1.2-1.2-2.5-2.3-3.7-3.5c-4.5-4.7-6.8-8.9-6.8-12.6c0-0.5,0.2-0.9,0.7-1.3
			c0.5-0.4,0.9-0.5,1.5-0.5c0.5,0,1.4,0.7,2.7,2c0.1-4.6,1.5-8.3,4.2-11.2c2.6-2.8,5.9-4.2,9.8-4.2c3,0,5.5,1,7.6,3
			c2.3,2.1,3.4,4.7,3.4,7.8c0,2.2-0.8,4.2-2.4,5.8c-1.6,1.7-3.5,2.5-5.6,2.5c-2.4,0-4.3-0.6-5.9-1.8c-1.6-1.2-2.4-2.7-2.4-4.5
			c0-1.5,0.5-2.9,1.4-4c1-1.1,2.1-1.7,3.5-1.7c2.7,0,4.1,1.6,4.1,4.9c0,1-1.1,2.3-3.3,3.7c0.2,1,1.1,1.4,2.6,1.4
			c1.7,0,3.2-0.6,4.4-1.9c1.2-1.3,1.8-3,1.8-5c0-2.2-0.9-4.1-2.8-5.8c-1.9-1.7-4.2-2.6-7-2.6c-3,0-5.6,1.1-7.8,3.4
			c-2.3,2.4-3.4,5.4-3.4,9c0,4.4,1.2,8.5,3.6,12.3"/>
	</g>
</g>
</svg>
