<?xml version="1.0" encoding="utf-8"?>
<!-- Generator: Adobe Illustrator 24.1.3, SVG Export Plug-In . SVG Version: 6.00 Build 0)  -->
<svg version="1.1" id="Layer_1" xmlns="http://www.w3.org/2000/svg" xmlns:xlink="http://www.w3.org/1999/xlink" x="0px" y="0px"
	 viewBox="0 0 167 96" style="enable-background:new 0 0 167 96;" xml:space="preserve">
<style type="text/css">
	.st0{opacity:0.84;fill:#111629;stroke:#7D8499;stroke-miterlimit:10;}
	.st1{fill:#A7A9AC;}
	.st2{fill:#C7972E;}
</style>
<g>
	<path class="st0" d="M165.8,82.5c0,7.5-5.7,13-13,13H13C6.4,95.4,1,90.1,1,83.5l0.3-70.6c0-6.6,5.3-11.9,11.9-11.9h140.9
		c6.6,0,11.9,5.3,11.9,11.9L165.8,82.5z"/>
	<g>
		<path class="st1" d="M53,73.8h-3.8l-1.5-3.9h-6.9l-1.4,3.9h-3.7l6.7-17.2h3.7L53,73.8z M46.6,67l-2.4-6.4L41.9,67H46.6z"/>
		<path class="st1" d="M65.7,65l-3.2,0.6c-0.1-0.6-0.4-1.1-0.7-1.5c-0.4-0.3-0.9-0.5-1.5-0.5c-0.8,0-1.5,0.3-2,0.8
			c-0.5,0.6-0.7,1.5-0.7,2.8c0,1.5,0.2,2.5,0.7,3.1s1.2,0.9,2,0.9c0.6,0,1.1-0.2,1.5-0.5s0.7-1,0.8-1.8l3.2,0.6
			c-0.3,1.5-1,2.6-1.9,3.4s-2.2,1.1-3.8,1.1c-1.8,0-3.3-0.6-4.4-1.7s-1.6-2.7-1.6-4.8c0-2.1,0.5-3.7,1.6-4.8s2.6-1.7,4.4-1.7
			c1.5,0,2.7,0.3,3.6,1S65.3,63.7,65.7,65z"/>
		<path class="st1" d="M79,65l-3.2,0.6c-0.1-0.6-0.4-1.1-0.7-1.5c-0.4-0.3-0.9-0.5-1.5-0.5c-0.8,0-1.5,0.3-2,0.8
			c-0.5,0.6-0.7,1.5-0.7,2.8c0,1.5,0.2,2.5,0.7,3.1s1.2,0.9,2,0.9c0.6,0,1.1-0.2,1.5-0.5s0.7-1,0.8-1.8l3.2,0.6
			c-0.3,1.5-1,2.6-1.9,3.4s-2.2,1.1-3.8,1.1c-1.8,0-3.3-0.6-4.4-1.7s-1.6-2.7-1.6-4.8c0-2.1,0.5-3.7,1.6-4.8s2.6-1.7,4.4-1.7
			c1.5,0,2.7,0.3,3.6,1S78.6,63.7,79,65z"/>
		<path class="st1" d="M80.8,67.4c0-1.1,0.3-2.2,0.8-3.2c0.5-1,1.3-1.8,2.3-2.3s2.1-0.8,3.3-0.8c1.9,0,3.4,0.6,4.6,1.8
			c1.2,1.2,1.8,2.8,1.8,4.6c0,1.9-0.6,3.4-1.8,4.7s-2.7,1.9-4.6,1.9c-1.1,0-2.2-0.3-3.3-0.8S82.1,72,81.6,71S80.8,68.8,80.8,67.4z
			 M84.1,67.6c0,1.2,0.3,2.2,0.9,2.8s1.3,1,2.2,1s1.6-0.3,2.2-1s0.9-1.6,0.9-2.9c0-1.2-0.3-2.2-0.9-2.8s-1.3-1-2.2-1s-1.6,0.3-2.2,1
			S84.1,66.3,84.1,67.6z"/>
		<path class="st1" d="M104.4,73.8v-1.9c-0.5,0.7-1,1.2-1.8,1.6s-1.5,0.6-2.3,0.6c-0.8,0-1.6-0.2-2.2-0.6s-1.1-0.9-1.4-1.5
			s-0.4-1.6-0.4-2.8v-7.9h3.3v5.7c0,1.8,0.1,2.8,0.2,3.2s0.3,0.7,0.7,0.9s0.7,0.3,1.2,0.3c0.6,0,1.1-0.2,1.5-0.5s0.8-0.7,0.9-1.1
			s0.2-1.6,0.2-3.4v-5.2h3.3v12.4H104.4z"/>
		<path class="st1" d="M122.2,73.8h-3.3v-6.4c0-1.3-0.1-2.2-0.2-2.6s-0.4-0.7-0.7-0.9c-0.3-0.2-0.7-0.3-1.1-0.3
			c-0.6,0-1.1,0.2-1.5,0.5c-0.5,0.3-0.8,0.7-0.9,1.2s-0.3,1.5-0.3,2.9v5.6h-3.3V61.3h3.1v1.8c1.1-1.4,2.5-2.1,4.1-2.1
			c0.7,0,1.4,0.1,2,0.4s1.1,0.6,1.4,1s0.5,0.9,0.6,1.4c0.1,0.5,0.2,1.3,0.2,2.2V73.8z"/>
		<path class="st1" d="M131.2,61.3V64H129v5c0,1,0,1.6,0.1,1.8s0.1,0.3,0.3,0.4s0.3,0.2,0.6,0.2c0.3,0,0.7-0.1,1.3-0.3l0.3,2.6
			c-0.8,0.3-1.6,0.5-2.6,0.5c-0.6,0-1.1-0.1-1.6-0.3s-0.8-0.5-1-0.8s-0.4-0.7-0.5-1.3c-0.1-0.4-0.1-1.2-0.1-2.3V64h-1.5v-2.6h1.5
			v-2.5l3.3-1.9v4.4H131.2z"/>
	</g>
	<g>
		<path class="st2" d="M107.8,45.5c0,1.9-0.3,2.8-1,2.8c-0.5,0-1-0.3-1.6-1c-0.6-0.7-1.1-1-1.3-1c-0.1,0-1,0.2-2.7,0.7
			c-1.6,0.5-3.1,0.7-4.3,0.7c-1.1,0-2.4-0.3-4.1-0.8c-1.9-0.6-3.7-1.4-5.4-2.4c-0.7-0.5-1.7-1.1-2.9-2c-0.8-0.6-1.2-0.9-1.4-0.9
			c-0.1,0-0.4,0.2-1,0.7c-0.9,0.8-1.7,1.4-2.3,1.9c-2.5,1.9-5.1,2.9-7.9,2.9c-1.3,0-2.7-0.2-4.4-0.6C66,46.2,65.1,46,64.9,46
			c-1.2,0-2,0.2-2.4,0.7c-0.4,0.4-0.8,0.9-1.1,1.3c-0.4,0.4-0.7,0.6-0.9,0.6c-0.5,0-0.7-0.5-0.7-1.4c0-0.5,0.2-1,0.5-1.4
			c0.3-0.3,0.9-0.8,1.7-1.3c-0.8-1.4-1.2-2.4-1.2-3.1c0-0.6,0.2-1.2,0.5-2c0.3-0.8,0.7-1.4,1.2-1.8c0.7-0.6,1.8-1,3.3-1
			c0.4,0,0.8,0.3,1.3,0.9c1,1.1,1.5,2,1.5,2.5c0,0.5-0.3,0.8-0.8,0.8c-0.2,0-0.6-0.2-1.1-0.6c-0.5-0.4-0.8-0.6-1-0.6
			c-0.3,0-0.6,0.2-1.1,0.5c-0.5,0.4-0.9,0.9-1.3,1.5c0,0,0,0,0,0.1c0,0,0.1,0.1,0.2,0.1c0.2,0,0.6-0.1,1.1-0.4s0.8-0.4,1-0.4
			c0.4,0,0.7,0.3,1.1,1c0.5,0.9,0.9,1.5,1.2,1.8c0.8,0.9,2.5,1.3,5.1,1.3c1.8,0,3.6-0.7,5.6-2c0.9-0.6,1.6-1.2,2.1-1.8
			c0.5-0.5,0.7-0.9,0.7-1.2c0-0.1-0.3-0.5-0.8-1.3c-0.7-1-1.4-2-1.9-3c-1.2-2-1.7-3.8-1.7-5.3c0-2.5,0.4-4.4,1.2-5.6
			c0.6-0.9,1.3-1.6,2.2-2.2c0.9-0.6,1.8-0.8,2.5-0.8c1.9,0,3.5,0.8,5,2.3c1.5,1.6,2.2,3.4,2.2,5.5c0,0.8-0.2,1.9-0.7,3.1
			c-0.6,1.4-1.3,2.8-2.3,4c-0.2,0.2-0.7,0.9-1.5,1.9c-0.4,0.5-0.6,0.8-0.6,1c0,0.3,0.8,1,2.4,2c2.5,1.6,5.2,2.4,8.2,2.4
			c1.2,0,2.2-0.2,3-0.7c0.7-0.4,1-0.9,1-1.5c0-0.1,0-0.4-0.1-0.7c-0.1-0.3-0.1-0.6-0.1-0.7c0-0.7,0.5-1,1.6-1.2c0.1,0,0.2,0,0.4-0.1
			c-0.2-0.4-0.7-0.7-1.3-1c-0.5-0.2-0.8-0.4-0.8-0.6c0-0.2,0.2-0.5,0.5-0.7c0.3-0.2,0.8-0.4,1.3-0.6c0.3,0.1,0.7,0.3,1.1,0.6
			c0.4,0.3,0.6,0.4,0.8,0.4c0.1,0,0.2-0.1,0.3-0.2s0.2-0.2,0.3-0.2c0.2,0,0.5,0.2,0.7,0.5c0.2,0.3,0.4,0.7,0.4,1
			c0,0.2-0.3,0.9-0.8,2.1c-0.5,1.2-0.8,1.9-0.8,2.1c0,0.2,0.1,0.4,0.3,0.6c0.2,0.2,0.5,0.3,0.7,0.3c0.2,0,0.5-0.1,0.9-0.4
			s0.8-0.4,1-0.4C107.1,42.8,107.8,43.7,107.8,45.5z M87.1,28.7c0-0.8-0.3-1.4-0.8-2c-0.5-0.5-1.2-0.8-1.9-0.8
			c-2.4,0-3.6,1.6-3.6,4.9c0,2.5,0.5,5,1.6,7.5c0.1,0.1,0.3,0.1,0.4,0.1c0.2,0,0.3,0,0.5-0.1C85.9,36.3,87.1,33.1,87.1,28.7z
			 M85.9,19.4c0,0.3-0.2,0.7-0.7,1c-0.5,0.3-1,0.4-1.6,0.4c-0.7,0-1.3-0.2-1.8-0.6c-0.5-0.4-0.7-0.8-0.7-1.4c0-0.5,0.2-1,0.5-1.3
			C82,17.2,82.5,17,83,17c0.5,0,1.2,0.3,1.9,0.8C85.6,18.4,85.9,18.9,85.9,19.4z"/>
	</g>
</g>
</svg>
