<?xml version="1.0" encoding="utf-8"?>
<!-- Generator: Adobe Illustrator 24.1.3, SVG Export Plug-In . SVG Version: 6.00 Build 0)  -->
<svg version="1.1" id="Layer_1" xmlns="http://www.w3.org/2000/svg" xmlns:xlink="http://www.w3.org/1999/xlink" x="0px" y="0px"
	 viewBox="0 0 154 74" style="enable-background:new 0 0 154 74;" xml:space="preserve">
<style type="text/css">
	.st0{opacity:0.84;fill:#111629;stroke:#7D8499;stroke-miterlimit:10;}
	.st1{fill:#A7A9AC;}
</style>
<g>
	<path class="st0" d="M151.7,58.9c0,7.5-5.7,13.1-13,13.1H14c-6.6,0-12-5.4-12-12l0.3-45.9c0-6.6,5.4-12,12-12H140
		c6.6,0,12,5.4,12,12L151.7,58.9z"/>
	<g>
		<path class="st1" d="M64.7,44.8l-4.1-17.2h3.6l2.6,11.8l3.1-11.8H74l3,12l2.6-12h3.5L79,44.8h-3.7L71.9,32l-3.4,12.8H64.7z"/>
		<path class="st1" d="M83.7,38.4c0-1.1,0.3-2.2,0.8-3.2s1.3-1.8,2.3-2.3s2.1-0.8,3.3-0.8c1.9,0,3.4,0.6,4.6,1.8s1.8,2.8,1.8,4.6
			c0,1.9-0.6,3.4-1.8,4.7s-2.7,1.9-4.6,1.9c-1.1,0-2.2-0.3-3.3-0.8s-1.8-1.3-2.4-2.3S83.7,39.9,83.7,38.4z M87.1,38.6
			c0,1.2,0.3,2.2,0.9,2.8s1.3,1,2.2,1s1.6-0.3,2.2-1s0.9-1.6,0.9-2.9c0-1.2-0.3-2.2-0.9-2.8s-1.3-1-2.2-1s-1.6,0.3-2.2,1
			S87.1,37.4,87.1,38.6z"/>
		<path class="st1" d="M102.3,44.8H99V32.4h3.1v1.8c0.5-0.8,1-1.4,1.4-1.7s0.9-0.4,1.4-0.4c0.8,0,1.5,0.2,2.2,0.6l-1,2.9
			c-0.6-0.4-1.1-0.5-1.5-0.5c-0.5,0-0.9,0.1-1.2,0.4s-0.6,0.7-0.8,1.4s-0.3,2.1-0.3,4.2V44.8z"/>
		<path class="st1" d="M119.9,44.8h-3.1V43c-0.5,0.7-1.1,1.2-1.8,1.6s-1.4,0.5-2.1,0.5c-1.4,0-2.7-0.6-3.7-1.7s-1.5-2.8-1.5-4.8
			c0-2.1,0.5-3.7,1.5-4.8s2.2-1.6,3.8-1.6c1.4,0,2.6,0.6,3.6,1.7v-6.2h3.3V44.8z M111.1,38.3c0,1.3,0.2,2.3,0.6,2.9
			c0.5,0.9,1.3,1.3,2.2,1.3c0.8,0,1.4-0.3,1.9-1s0.8-1.6,0.8-2.9c0-1.4-0.3-2.5-0.8-3.1s-1.2-0.9-2-0.9c-0.8,0-1.4,0.3-2,0.9
			S111.1,37.1,111.1,38.3z"/>
		<path class="st1" d="M122,41.3l3.3-0.5c0.1,0.6,0.4,1.1,0.9,1.5s1,0.5,1.8,0.5c0.9,0,1.5-0.2,1.9-0.5c0.3-0.2,0.4-0.5,0.4-0.9
			c0-0.2-0.1-0.5-0.2-0.6c-0.2-0.2-0.5-0.3-1.1-0.4c-2.7-0.6-4.3-1.1-5.1-1.6c-1-0.7-1.5-1.6-1.5-2.8c0-1.1,0.4-2,1.3-2.7
			s2.2-1.1,4-1.1c1.7,0,3,0.3,3.8,0.8s1.4,1.4,1.7,2.5l-3.1,0.6c-0.1-0.5-0.4-0.9-0.8-1.1s-0.9-0.4-1.6-0.4c-0.9,0-1.5,0.1-1.9,0.4
			c-0.2,0.2-0.4,0.4-0.4,0.7c0,0.2,0.1,0.4,0.3,0.6c0.3,0.2,1.3,0.5,3.1,0.9s3,0.9,3.7,1.5c0.7,0.6,1,1.4,1,2.4
			c0,1.1-0.5,2.1-1.4,2.9s-2.4,1.2-4.2,1.2c-1.7,0-3-0.3-4-1S122.3,42.5,122,41.3z"/>
	</g>
	<g>
		<path class="st1" d="M47.1,29.9c0.3,0.3,0.4,0.6,0.4,1c0,0.2,0,0.4-0.1,0.8c-0.1,0.4-0.1,0.7-0.1,0.8c0,0.3,0.1,0.6,0.2,0.8
			c0.1,0,0.5-0.5,1.3-1.4c0.4-0.4,0.8-0.6,1.3-0.6c0.5,0,0.7,0.2,0.7,0.5c0,0.4-0.4,0.9-1.2,1.4c-0.8,0.5-1.2,1.1-1.2,1.7
			c0,0.3,0.1,0.5,0.3,0.8c0.2,0.2,0.5,0.4,0.7,0.4c0.2,0,1.3-0.6,3.3-1.8c0.5,0.1,0.7,0.3,0.7,0.7c0,0.3-0.3,0.5-0.8,0.8
			c-0.6,0.3-1,0.7-1.2,1c0.1,0,0.2,0,0.3,0c0.1,0,0.2,0,0.2,0c0.2,0,0.5,0,0.8-0.1c0.3,0,0.5,0,0.8,0c0.2,0,0.3,0,0.3,0H54
			c0.3,0,0.5,0.5,0.5,1.5c0,1.3-0.4,1.9-1.1,1.9c-0.1,0-0.4-0.1-0.7-0.2c-0.4-0.1-0.6-0.2-0.8-0.2c-0.3,0-0.5,0.1-0.5,0.2
			c0,0.3,0.2,0.8,0.7,1.6c0.5,0.8,0.7,1.3,0.7,1.5c0,0.4-0.2,0.6-0.6,0.6c-0.2,0-0.6-0.4-1.3-1.1c-0.7-0.8-1.2-1.1-1.5-1.1
			c-0.3,0-0.6,0.1-0.9,0.4c-0.3,0.2-0.4,0.5-0.4,0.8v0.5c1,1.5,1.4,2.5,1.4,3c0,0.3-0.1,0.5-0.4,0.5c-0.3,0-0.6-0.2-0.9-0.6
			c-0.5-0.6-0.9-1-1-1.2c-0.2,0.1-0.2,0.3-0.2,0.5c0,0,0,0.1,0,0.2c0,0.1,0,0.3,0.1,0.5s0.1,0.4,0.1,0.5c0,0.7-0.4,1-1.3,1
			c-0.3,0-0.7-0.1-1-0.3s-0.5-0.5-0.5-0.7c0-0.1,0-0.3,0.1-0.6s0.1-0.5,0.1-0.6c0-0.1,0-0.3,0-0.5c0-0.2,0-0.4,0-0.6
			c0-0.1,0-0.3,0-0.4c-0.3,0.3-0.6,0.5-0.8,0.7c-0.9,0.8-1.3,1.2-1.4,1.2c-0.1,0-0.2-0.1-0.2-0.2c-0.1-0.1-0.1-0.2-0.1-0.3
			c0-0.4,0.3-1.1,0.8-2.1c0.5-1,0.8-1.6,0.8-1.8c0-0.2-0.1-0.4-0.3-0.6s-0.4-0.3-0.6-0.3c-0.1,0-0.5,0.4-1.2,1.2
			c-0.7,0.8-1.4,1.3-2.1,1.4c-0.2-0.2-0.2-0.4-0.2-0.6c0-0.2,0.2-0.6,0.6-1c0.4-0.5,0.6-0.9,0.8-1.3L39.2,40h-0.6
			c-0.4,0-1.7,0-4-0.1c-2.3-0.1-4.5-0.1-6.5-0.1c-0.3,0-0.8,0-1.3,0c-0.5,0-0.9,0-1.1,0c-0.4,0-0.9,0-1.6-0.1
			c-0.7-0.1-1.3-0.1-1.6-0.1c-0.4,0-0.7,0.1-1.1,0.4c1.3,0.9,2.3,1.3,3.2,1.3c0.5,0,1-0.1,1.7-0.3c0.7-0.2,1.1-0.3,1.3-0.3
			c0.5,0,1,0.1,1.5,0.4c0.5,0.3,0.7,0.6,0.7,0.9c0,0.8-0.5,1.6-1.5,2.5c0,0.1,0.1,0.4,0.3,0.8c0.2,0.4,0.3,0.7,0.3,0.9
			c0,0.5-0.1,1-0.4,1.4c-0.3,0.4-0.6,0.6-0.9,0.6c-0.5,0-0.9-0.5-1-1.6c-0.1-0.7-0.3-1.1-0.5-1.3s-0.6-0.4-1.3-0.5
			c-1.4-0.3-2.5-0.8-3.3-1.4c-0.9-0.7-1.9-1.9-2.8-3.6h-0.2c-0.2,0-0.5,0-0.8,0.1c-0.4,0-0.6-0.3-0.6-1c0-0.3,0.1-0.5,0.4-0.6
			c0.3-0.1,0.6-0.2,0.9-0.3c0.3-0.1,0.6-0.3,1-0.7c0.1-0.1,0.5-0.6,1.1-1.4c1-1.4,1.9-2.2,2.5-2.5c0.6-0.3,1.2-0.6,1.8-0.9
			c0.8-0.4,1.5-1,2-1.6c-0.2-0.2-0.4-0.4-0.4-0.6v-0.1c0.1-0.4,0.6-0.6,1.4-0.6c0.7,0,1.1,0.4,1.4,1.2c-0.9,1.4-1.3,2.3-1.5,2.8
			c0,0,0.3,0.2,1,0.4c0.5,0.2,0.8,0.7,0.8,1.5c0,0.4-0.1,0.9-0.4,1.3c-0.3,0.4-0.6,0.7-1,0.8c-2.4-0.8-3.8-1.2-4.2-1.2
			c-1.5,0-2.4,0.5-2.7,1.4c0.6,0.3,1.3,0.5,2.1,0.5c1.1,0,2.3-0.1,3.6-0.2c1.3-0.1,2.1-0.2,2.4-0.2c1,0,2.2,0,3.6,0.1
			s2.3,0.1,2.6,0.1c1,0,1.7-0.3,2.3-1c0.5-0.7,0.9-1,1-1c0.1,0,0.4,0,0.7,0.1s0.6,0.1,0.8,0.1h0.2c-0.4-1-0.8-1.7-1.2-2.2l0.1-0.5
			l0.4,0c2,1.6,3,2.4,3,2.4c0.2,0,0.4-0.2,0.6-0.5c0.2-0.3,0.3-0.6,0.3-0.9c0-0.3-0.2-0.8-0.7-1.5c-0.5-0.7-0.7-1.2-0.7-1.4v-0.1
			c0.1-0.1,0.2-0.1,0.2-0.1c0.2,0,0.8,0.4,1.8,1.2l0.3,0.1l0-0.3c0-0.5-0.1-0.9-0.1-1.3c0-0.4,0-0.7,0-0.7c0-0.7,0.5-1.1,1.6-1.1
			C46.5,29.5,46.8,29.6,47.1,29.9z M44.9,37.3c-0.3,0.4-0.5,0.9-0.5,1.4c0,0.9,0.6,1.3,1.9,1.3c0.4,0,0.7-0.2,1-0.6
			c0.3-0.4,0.5-0.7,0.5-1.1c0-0.3-0.2-0.6-0.7-1c-0.5-0.4-0.8-0.6-1.2-0.6C45.5,36.7,45.2,36.9,44.9,37.3z"/>
	</g>
</g>
</svg>
