<?xml version="1.0" encoding="utf-8"?>
<!-- Generator: Adobe Illustrator 24.1.3, SVG Export Plug-In . SVG Version: 6.00 Build 0)  -->
<svg version="1.1" id="Layer_1" xmlns="http://www.w3.org/2000/svg" xmlns:xlink="http://www.w3.org/1999/xlink" x="0px" y="0px"
	 viewBox="0 0 118 55" style="enable-background:new 0 0 118 55;" xml:space="preserve">
<style type="text/css">
	.st0{fill:#282829;stroke:#6D6E71;stroke-miterlimit:10;}
	.st1{fill:#808285;}
</style>
<g>
	<path class="st0" d="M117,44.8c0,5.2-4,9.1-9.1,9.1H9.6c-4.6,0-8.4-3.7-8.4-8.3L1.5,9.2c0-4.6,3.8-8.3,8.4-8.3h99
		c4.6,0,8.4,3.7,8.4,8.3L117,44.8z"/>
	<g>
		<g>
			<path class="st1" d="M30,28.7l2.5-0.2c0.2,0.8,0.5,1.5,0.9,1.9s1.1,0.6,1.9,0.6c0.8,0,1.5-0.2,1.9-0.5s0.6-0.8,0.6-1.2
				c0-0.3-0.1-0.6-0.3-0.8s-0.5-0.4-0.9-0.6c-0.3-0.1-1-0.3-2.1-0.6c-1.4-0.3-2.4-0.8-2.9-1.3c-0.8-0.7-1.2-1.6-1.2-2.6
				c0-0.7,0.2-1.3,0.6-1.8s0.9-1,1.6-1.3s1.5-0.4,2.5-0.4c1.6,0,2.8,0.4,3.7,1.1s1.2,1.7,1.3,2.8l-2.6,0.1c-0.1-0.7-0.4-1.1-0.7-1.4
				s-0.9-0.4-1.6-0.4c-0.8,0-1.3,0.2-1.8,0.5c-0.3,0.2-0.4,0.5-0.4,0.8c0,0.3,0.1,0.6,0.4,0.8c0.3,0.3,1.1,0.6,2.4,0.9
				s2.2,0.6,2.8,0.9s1.1,0.8,1.4,1.3s0.5,1.2,0.5,2.1c0,0.7-0.2,1.4-0.6,2.1s-1,1.1-1.7,1.4s-1.7,0.5-2.8,0.5
				c-1.6,0-2.9-0.4-3.8-1.1S30.2,30.1,30,28.7z"/>
			<path class="st1" d="M42.7,22.3V20h2.5v2.3H42.7z M42.7,32.9v-9.3h2.5v9.3H42.7z"/>
			<path class="st1" d="M47.5,33.5l2.8,0.3c0,0.3,0.2,0.6,0.3,0.7c0.2,0.2,0.6,0.3,1.1,0.3c0.6,0,1.1-0.1,1.5-0.3
				c0.2-0.1,0.4-0.3,0.5-0.6c0.1-0.2,0.1-0.6,0.1-1.1v-1.4c-0.7,1-1.7,1.5-2.8,1.5c-1.3,0-2.2-0.5-3-1.6c-0.6-0.8-0.9-1.9-0.9-3.1
				c0-1.6,0.4-2.8,1.1-3.6s1.7-1.2,2.8-1.2c1.2,0,2.1,0.5,2.9,1.5v-1.3h2.3v8.4c0,1.1-0.1,1.9-0.3,2.5s-0.4,1-0.8,1.3
				s-0.8,0.6-1.3,0.7s-1.2,0.3-2.1,0.3c-1.6,0-2.7-0.3-3.4-0.8s-1-1.2-1-2.1C47.4,33.7,47.5,33.6,47.5,33.5z M49.7,28
				c0,1,0.2,1.7,0.6,2.2s0.9,0.7,1.4,0.7c0.6,0,1.1-0.2,1.5-0.7s0.6-1.2,0.6-2.1c0-1-0.2-1.7-0.6-2.2s-0.9-0.7-1.5-0.7
				c-0.6,0-1.1,0.2-1.5,0.7S49.7,27.1,49.7,28z"/>
			<path class="st1" d="M67.2,32.9h-2.5v-4.8c0-1-0.1-1.7-0.2-2s-0.3-0.5-0.5-0.7c-0.2-0.2-0.5-0.2-0.9-0.2c-0.4,0-0.8,0.1-1.2,0.4
				s-0.6,0.5-0.7,0.9s-0.2,1.1-0.2,2.1v4.2h-2.5v-9.3H61v1.4c0.8-1.1,1.8-1.6,3.1-1.6c0.5,0,1,0.1,1.5,0.3s0.8,0.4,1,0.8
				s0.4,0.7,0.5,1s0.1,0.9,0.1,1.7V32.9z"/>
			<path class="st1" d="M74.6,32.9V20h2.6v12.9H74.6z"/>
			<path class="st1" d="M88.2,32.9h-2.5v-4.8c0-1-0.1-1.7-0.2-2s-0.3-0.5-0.5-0.7s-0.5-0.2-0.9-0.2c-0.4,0-0.8,0.1-1.2,0.4
				s-0.6,0.5-0.7,0.9s-0.2,1.1-0.2,2.1v4.2h-2.5v-9.3H82v1.4c0.8-1.1,1.8-1.6,3.1-1.6c0.5,0,1,0.1,1.5,0.3s0.8,0.4,1,0.8
				s0.4,0.7,0.5,1s0.1,0.9,0.1,1.7V32.9z"/>
		</g>
	</g>
</g>
</svg>
