<?xml version="1.0" encoding="utf-8"?>
<!-- Generator: Adobe Illustrator 24.1.3, SVG Export Plug-In . SVG Version: 6.00 Build 0)  -->
<svg version="1.1" id="Layer_1" xmlns="http://www.w3.org/2000/svg" xmlns:xlink="http://www.w3.org/1999/xlink" x="0px" y="0px"
	 viewBox="0 0 154 74" style="enable-background:new 0 0 154 74;" xml:space="preserve">
<style type="text/css">
	.st0{opacity:0.84;fill:#111629;stroke:#7D8499;stroke-miterlimit:10;}
	.st1{fill:#A7A9AC;}
</style>
<g>
	<path class="st0" d="M151.5,58.4c0,7.5-5.7,13.1-13,13.1H13.9c-6.6,0-12-5.4-12-12l0.3-45.9c0-6.6,5.4-12,12-12h125.6
		c6.6,0,12,5.4,12,12L151.5,58.4z"/>
	<g>
		<path class="st1" d="M66,33.3V19.1h-5.1v-2.9h13.7v2.9h-5.1v14.3H66z"/>
		<path class="st1" d="M74.2,26.9c0-1.1,0.3-2.2,0.8-3.2s1.3-1.8,2.3-2.3s2.1-0.8,3.3-0.8c1.9,0,3.4,0.6,4.6,1.8s1.8,2.8,1.8,4.6
			c0,1.9-0.6,3.4-1.8,4.7s-2.7,1.9-4.6,1.9c-1.1,0-2.2-0.3-3.3-0.8s-1.8-1.3-2.4-2.3S74.2,28.4,74.2,26.9z M77.6,27.1
			c0,1.2,0.3,2.2,0.9,2.8s1.3,1,2.2,1s1.6-0.3,2.2-1s0.9-1.6,0.9-2.9c0-1.2-0.3-2.2-0.9-2.8s-1.3-1-2.2-1s-1.6,0.3-2.2,1
			S77.6,25.9,77.6,27.1z"/>
		<path class="st1" d="M89.5,20.9h3.1v1.8c0.4-0.6,0.9-1.1,1.6-1.5s1.4-0.6,2.3-0.6c1.4,0,2.7,0.6,3.7,1.7s1.5,2.7,1.5,4.7
			c0,2.1-0.5,3.7-1.5,4.8s-2.2,1.7-3.7,1.7c-0.7,0-1.3-0.1-1.9-0.4s-1.1-0.7-1.8-1.4v6.3h-3.3V20.9z M92.8,26.9
			c0,1.4,0.3,2.4,0.8,3.1s1.2,1,2,1c0.8,0,1.4-0.3,1.9-0.9s0.8-1.6,0.8-3c0-1.3-0.3-2.3-0.8-2.9s-1.2-0.9-1.9-0.9
			c-0.8,0-1.5,0.3-2,0.9S92.8,25.7,92.8,26.9z"/>
		<path class="st1" d="M61.2,49.7l3.4-0.3c0.2,1.1,0.6,2,1.2,2.5s1.5,0.8,2.5,0.8c1.1,0,2-0.2,2.5-0.7s0.8-1,0.8-1.7
			c0-0.4-0.1-0.8-0.4-1s-0.7-0.5-1.2-0.7c-0.4-0.1-1.3-0.4-2.8-0.8c-1.9-0.5-3.2-1-3.9-1.7c-1.1-0.9-1.6-2.1-1.6-3.5
			c0-0.9,0.2-1.7,0.7-2.5s1.2-1.3,2.1-1.7s2.1-0.6,3.4-0.6c2.2,0,3.8,0.5,4.9,1.4s1.7,2.2,1.7,3.8l-3.5,0.2c-0.1-0.9-0.5-1.5-1-1.9
			s-1.2-0.6-2.2-0.6c-1,0-1.8,0.2-2.4,0.6c-0.4,0.3-0.6,0.6-0.6,1.1c0,0.4,0.2,0.8,0.5,1c0.4,0.4,1.5,0.8,3.2,1.1s2.9,0.8,3.7,1.2
			s1.4,1,1.9,1.7s0.7,1.7,0.7,2.7c0,1-0.3,1.9-0.8,2.8s-1.3,1.5-2.3,1.9s-2.2,0.6-3.7,0.6c-2.2,0-3.8-0.5-5-1.5S61.5,51.7,61.2,49.7
			z"/>
		<path class="st1" d="M89,46.6l-3.2,0.6c-0.1-0.6-0.4-1.1-0.7-1.5s-0.9-0.5-1.5-0.5c-0.8,0-1.5,0.3-2,0.8s-0.7,1.5-0.7,2.8
			c0,1.5,0.2,2.5,0.7,3.1s1.2,0.9,2,0.9c0.6,0,1.1-0.2,1.5-0.5s0.7-1,0.8-1.8l3.2,0.6c-0.3,1.5-1,2.6-1.9,3.4s-2.2,1.1-3.8,1.1
			c-1.8,0-3.3-0.6-4.4-1.7s-1.6-2.7-1.6-4.8c0-2.1,0.5-3.7,1.6-4.8s2.6-1.7,4.4-1.7c1.5,0,2.7,0.3,3.6,1S88.6,45.2,89,46.6z"/>
		<path class="st1" d="M90.7,48.9c0-1.1,0.3-2.2,0.8-3.2s1.3-1.8,2.3-2.3s2.1-0.8,3.3-0.8c1.9,0,3.4,0.6,4.6,1.8s1.8,2.8,1.8,4.6
			c0,1.9-0.6,3.4-1.8,4.7s-2.7,1.9-4.6,1.9c-1.1,0-2.2-0.3-3.3-0.8s-1.8-1.3-2.4-2.3S90.7,50.4,90.7,48.9z M94.1,49.1
			c0,1.2,0.3,2.2,0.9,2.8s1.3,1,2.2,1s1.6-0.3,2.2-1s0.9-1.6,0.9-2.9c0-1.2-0.3-2.2-0.9-2.8s-1.3-1-2.2-1s-1.6,0.3-2.2,1
			S94.1,47.9,94.1,49.1z"/>
		<path class="st1" d="M109.3,55.3H106V42.9h3.1v1.8c0.5-0.8,1-1.4,1.4-1.7s0.9-0.4,1.4-0.4c0.8,0,1.5,0.2,2.2,0.6l-1,2.9
			c-0.6-0.4-1.1-0.5-1.5-0.5c-0.5,0-0.9,0.1-1.2,0.4s-0.6,0.7-0.8,1.4s-0.3,2.1-0.3,4.2V55.3z"/>
		<path class="st1" d="M122.7,51.4l3.3,0.6c-0.4,1.2-1.1,2.1-2,2.7s-2,0.9-3.4,0.9c-2.2,0-3.8-0.7-4.8-2.1c-0.8-1.1-1.2-2.6-1.2-4.3
			c0-2.1,0.5-3.7,1.6-4.8s2.4-1.8,4.1-1.8c1.9,0,3.3,0.6,4.4,1.8s1.6,3.1,1.5,5.6h-8.2c0,1,0.3,1.7,0.8,2.3s1.1,0.8,1.9,0.8
			c0.5,0,0.9-0.1,1.3-0.4S122.5,52,122.7,51.4z M122.8,48c0-1-0.3-1.7-0.7-2.2s-1-0.7-1.7-0.7c-0.7,0-1.3,0.3-1.8,0.8
			s-0.7,1.2-0.7,2.1H122.8z"/>
		<path class="st1" d="M127.6,51.8l3.3-0.5c0.1,0.6,0.4,1.1,0.9,1.5s1,0.5,1.8,0.5c0.9,0,1.5-0.2,1.9-0.5c0.3-0.2,0.4-0.5,0.4-0.9
			c0-0.2-0.1-0.5-0.2-0.6c-0.2-0.2-0.5-0.3-1.1-0.4c-2.7-0.6-4.3-1.1-5.1-1.6c-1-0.7-1.5-1.6-1.5-2.8c0-1.1,0.4-2,1.3-2.7
			s2.2-1.1,4-1.1c1.7,0,3,0.3,3.8,0.8s1.4,1.4,1.7,2.5l-3.1,0.6c-0.1-0.5-0.4-0.9-0.8-1.1s-0.9-0.4-1.6-0.4c-0.9,0-1.5,0.1-1.9,0.4
			c-0.2,0.2-0.4,0.4-0.4,0.7c0,0.2,0.1,0.4,0.3,0.6c0.3,0.2,1.3,0.5,3.1,0.9s3,0.9,3.7,1.5c0.7,0.6,1,1.4,1,2.4
			c0,1.1-0.5,2.1-1.4,2.9s-2.4,1.2-4.2,1.2c-1.7,0-3-0.3-4-1S127.9,53,127.6,51.8z"/>
	</g>
	<g>
		<path class="st1" d="M46.9,29.4c0.3,0.3,0.4,0.6,0.4,1c0,0.2,0,0.4-0.1,0.8c-0.1,0.4-0.1,0.7-0.1,0.8c0,0.3,0.1,0.6,0.2,0.8
			c0.1,0,0.5-0.5,1.3-1.4c0.4-0.4,0.8-0.6,1.3-0.6c0.5,0,0.7,0.2,0.7,0.5c0,0.4-0.4,0.9-1.2,1.4c-0.8,0.5-1.2,1.1-1.2,1.7
			c0,0.3,0.1,0.5,0.3,0.8c0.2,0.2,0.5,0.4,0.7,0.4c0.2,0,1.3-0.6,3.3-1.8c0.5,0.1,0.7,0.3,0.7,0.7c0,0.3-0.3,0.5-0.8,0.8
			c-0.6,0.3-1,0.7-1.2,1c0.1,0,0.2,0,0.3,0c0.1,0,0.2,0,0.2,0c0.2,0,0.5,0,0.8-0.1c0.3,0,0.5,0,0.8,0c0.2,0,0.3,0,0.3,0h0.2
			c0.3,0,0.5,0.5,0.5,1.5c0,1.3-0.4,1.9-1.1,1.9c-0.1,0-0.4-0.1-0.7-0.2c-0.4-0.1-0.6-0.2-0.8-0.2c-0.3,0-0.5,0.1-0.5,0.2
			c0,0.3,0.2,0.8,0.7,1.6c0.5,0.8,0.7,1.3,0.7,1.5c0,0.4-0.2,0.6-0.6,0.6c-0.2,0-0.6-0.4-1.3-1.1c-0.7-0.8-1.2-1.1-1.5-1.1
			c-0.3,0-0.6,0.1-0.9,0.4c-0.3,0.2-0.4,0.5-0.4,0.8v0.5c1,1.5,1.4,2.5,1.4,3c0,0.3-0.1,0.5-0.4,0.5c-0.3,0-0.6-0.2-0.9-0.6
			c-0.5-0.6-0.9-1-1-1.2c-0.2,0.1-0.2,0.3-0.2,0.5c0,0,0,0.1,0,0.2c0,0.1,0,0.3,0.1,0.5s0.1,0.4,0.1,0.5c0,0.7-0.4,1-1.3,1
			c-0.3,0-0.7-0.1-1-0.3s-0.5-0.5-0.5-0.7c0-0.1,0-0.3,0.1-0.6s0.1-0.5,0.1-0.6c0-0.1,0-0.3,0-0.5c0-0.2,0-0.4,0-0.6
			c0-0.1,0-0.3,0-0.4c-0.3,0.3-0.6,0.5-0.8,0.7c-0.9,0.8-1.3,1.2-1.4,1.2c-0.1,0-0.2-0.1-0.2-0.2c-0.1-0.1-0.1-0.2-0.1-0.3
			c0-0.4,0.3-1.1,0.8-2.1c0.5-1,0.8-1.6,0.8-1.8c0-0.2-0.1-0.4-0.3-0.6s-0.4-0.3-0.6-0.3c-0.1,0-0.5,0.4-1.2,1.2
			c-0.7,0.8-1.4,1.3-2.1,1.4c-0.2-0.2-0.2-0.4-0.2-0.6c0-0.2,0.2-0.6,0.6-1c0.4-0.5,0.6-0.9,0.8-1.3L39,39.5h-0.6
			c-0.4,0-1.7,0-4-0.1c-2.3-0.1-4.5-0.1-6.5-0.1c-0.3,0-0.8,0-1.3,0c-0.5,0-0.9,0-1.1,0c-0.4,0-0.9,0-1.6-0.1
			c-0.7-0.1-1.3-0.1-1.6-0.1c-0.4,0-0.7,0.1-1.1,0.4c1.3,0.9,2.3,1.3,3.2,1.3c0.5,0,1-0.1,1.7-0.3c0.7-0.2,1.1-0.3,1.3-0.3
			c0.5,0,1,0.1,1.5,0.4c0.5,0.3,0.7,0.6,0.7,0.9c0,0.8-0.5,1.6-1.5,2.5c0,0.1,0.1,0.4,0.3,0.8c0.2,0.4,0.3,0.7,0.3,0.9
			c0,0.5-0.1,1-0.4,1.4c-0.3,0.4-0.6,0.6-0.9,0.6c-0.5,0-0.9-0.5-1-1.6c-0.1-0.7-0.3-1.1-0.5-1.3s-0.6-0.4-1.3-0.5
			c-1.4-0.3-2.5-0.8-3.3-1.4c-0.9-0.7-1.9-1.9-2.8-3.6h-0.2c-0.2,0-0.5,0-0.8,0.1c-0.4,0-0.6-0.3-0.6-1c0-0.3,0.1-0.5,0.4-0.6
			c0.3-0.1,0.6-0.2,0.9-0.3c0.3-0.1,0.6-0.3,1-0.7c0.1-0.1,0.5-0.6,1.1-1.4c1-1.4,1.9-2.2,2.5-2.5c0.6-0.3,1.2-0.6,1.8-0.9
			c0.8-0.4,1.5-1,2-1.6c-0.2-0.2-0.4-0.4-0.4-0.6v-0.1c0.1-0.4,0.6-0.6,1.4-0.6c0.7,0,1.1,0.4,1.4,1.2c-0.9,1.4-1.3,2.3-1.5,2.8
			c0,0,0.3,0.2,1,0.4c0.5,0.2,0.8,0.7,0.8,1.5c0,0.4-0.1,0.9-0.4,1.3c-0.3,0.4-0.6,0.7-1,0.8c-2.4-0.8-3.8-1.2-4.2-1.2
			c-1.5,0-2.4,0.5-2.7,1.4c0.6,0.3,1.3,0.5,2.1,0.5c1.1,0,2.3-0.1,3.6-0.2c1.3-0.1,2.1-0.2,2.4-0.2c1,0,2.2,0,3.6,0.1
			c1.4,0.1,2.3,0.1,2.6,0.1c1,0,1.7-0.3,2.3-1c0.5-0.7,0.9-1,1-1c0.1,0,0.4,0,0.7,0.1s0.6,0.1,0.8,0.1h0.2c-0.4-1-0.8-1.7-1.2-2.2
			l0.1-0.5l0.4,0c2,1.6,3,2.4,3,2.4c0.2,0,0.4-0.2,0.6-0.5c0.2-0.3,0.3-0.6,0.3-0.9c0-0.3-0.2-0.8-0.7-1.5c-0.5-0.7-0.7-1.2-0.7-1.4
			v-0.1c0.1-0.1,0.2-0.1,0.2-0.1c0.2,0,0.8,0.4,1.8,1.2l0.3,0.1l0-0.3c0-0.5-0.1-0.9-0.1-1.3c0-0.4,0-0.7,0-0.7
			c0-0.7,0.5-1.1,1.6-1.1C46.4,29,46.7,29.1,46.9,29.4z M44.7,36.8c-0.3,0.4-0.5,0.9-0.5,1.4c0,0.9,0.6,1.3,1.9,1.3
			c0.4,0,0.7-0.2,1-0.6c0.3-0.4,0.5-0.7,0.5-1.1c0-0.3-0.2-0.6-0.7-1c-0.5-0.4-0.8-0.6-1.2-0.6C45.4,36.2,45,36.4,44.7,36.8z"/>
	</g>
</g>
</svg>
