<?xml version="1.0" encoding="utf-8"?>
<!-- Generator: Adobe Illustrator 24.1.3, SVG Export Plug-In . SVG Version: 6.00 Build 0)  -->
<svg version="1.1" id="Layer_1" xmlns="http://www.w3.org/2000/svg" xmlns:xlink="http://www.w3.org/1999/xlink" x="0px" y="0px"
	 viewBox="0 0 38 37" style="enable-background:new 0 0 38 37;" xml:space="preserve">
<style type="text/css">
	.st0{fill:#C7972E;}
</style>
<g>
	<path class="st0" d="M37.4,18.5c0,2.4-0.6,4.8-1.8,7.3c-1.2,2.5-2.7,4.5-4.6,6c-2,1.7-3.9,2.8-5.6,3.5c-1.8,0.7-3.8,1-6.1,1
		c-5.5,0-9.6-1.2-12.1-3.6c-4.2-4-6.3-8.6-6.3-13.8c0-3.4,0.6-6.1,1.8-8.2c2-3.4,4.3-5.9,6.9-7.4c2.6-1.6,5.8-2.4,9.5-2.4h1.2
		c2,0,4.1,0.5,6.4,1.4c2.5,1,4.5,2.4,6.2,4.2c1.5,1.7,2.7,3.3,3.4,5C37,13.4,37.4,15.7,37.4,18.5z M36.2,17.3c0-0.3-0.2-1.4-0.6-3.3
		c-0.2-1-0.5-2.2-1-3.6c-1.1-2.2-3.2-4.4-6.4-6.4c-3.2-1.4-6-2.2-8.4-2.2c-2.3,0-4.6,0.4-6.7,1.1S9.2,4.6,7.8,5.8
		c-2.4,2.1-4,4.2-4.9,6.3c-0.8,1.9-1.2,4.4-1.2,7.4c0,1.5,0.4,3.3,1.1,5.1c0.8,2.1,1.9,3.9,3.2,5.6c3,3.5,7.2,5.3,12.8,5.3
		c4.9,0,9.3-2,13.1-5.9C34.7,26.5,36.2,22.5,36.2,17.3z M34.7,17.9c0,1.7-0.2,2.7-0.6,3.2c0.1,0.2,0.1,0.3,0.1,0.5
		c0,0.6-0.7,2.2-2,4.6c-0.7,1.4-1.3,2.4-1.8,2.9c-0.8,1-1.9,1.9-3.2,2.7c-2.8,1.6-5.8,2.4-9,2.4c-0.9,0-2.1-0.2-3.6-0.6
		c-1.5-0.4-2.7-0.8-3.7-1.3c-2.5-1.3-4.4-3.1-5.8-5.5c-1.4-2.4-2-5.1-2-8c0-1.1,0.1-2.3,0.4-3.6c0.2-1,0.4-1.7,0.6-2
		c1.5-3.2,3.6-5.7,6.3-7.5c2.6-1.8,5.4-2.6,8.5-2.6c3.9,0,6.9,0.9,9,2.6c2.6,2.1,4.4,4.1,5.3,5.8C34.2,13.1,34.7,15.3,34.7,17.9z
		 M16.5,17.6c-0.3-0.9-1.1-1.7-2.2-2.4c-1.9-1.2-2.9-1.8-3-1.8c-0.4-0.3-0.9-1-1.4-1.9c-0.5-1-1-1.8-1.4-2.2
		C7.9,9.6,7.5,10.2,7.1,11C7,11,6.7,11.9,6,13.5c-0.1,0.2-0.3,0.8-0.5,1.6c-0.1,0.6-0.2,1.4-0.3,2.2C5.1,18,5,18.4,5,18.5
		c0,1.5,0.3,3,0.9,4.5c1.2,3,2.2,4.5,3,4.5c0.3-0.7,0.6-1.3,0.8-1.7c1.6-1.2,3.3-2.5,4.9-3.7c1.2-1,1.8-1.8,1.8-2.6v-0.2
		c-0.5-0.3-1.4-0.5-2.7-0.5c0.3,0-0.5,0.1-2.4,0.2c-1,1.4-1.8,2.2-2.5,2.2c-0.6,0-1.2-0.2-1.8-0.7c-0.6-0.5-0.9-1-0.9-1.5
		c0-0.9,0.2-1.7,0.7-2.3c0.4-0.6,1-0.9,1.7-0.9c0.7,0,1.3,0.3,1.8,0.9c0.7,0.9,1.7,1.3,2.9,1.3C14.6,18,15.8,17.8,16.5,17.6z
		 M27.6,28.5c-0.4-0.2-1.1-0.7-2.1-1.4c-1.4-2.3-3-4.4-4.8-6.1h-0.5c-0.1,0.2-0.2,0.4-0.3,0.7c0,0.1,0,0.2,0,0.4c0,0.2,0,0.3,0,0.4
		c0,0.5-0.1,1.3-0.2,2.3c0,0.5,0.4,1.2,1.1,1.9c0.7,0.7,1.1,1.2,1.1,1.4c0,0.5-0.2,1-0.7,1.6c-0.5,0.6-1,0.9-1.4,0.9
		c-0.6,0-1.2-0.2-1.8-0.6S17,29.2,17,28.7s0.2-1,0.6-1.5l0.7-1c0.2-0.2,0.3-1.3,0.3-3.2c0-1.2-0.3-1.8-1-1.8c-0.4,0-0.7,0.3-1.1,1
		c-0.7,1.2-1.2,2.1-1.5,2.5c-0.9,1.2-1.6,2-2.2,2.5c-0.9,0.8-1.9,1.4-3,1.7c0.1,0.7,0.5,1.2,1,1.6c0.5,0.3,1.3,0.6,2.4,0.8
		c0,0,0.9,0.2,2.5,0.6c0.9,0.2,1.6,0.3,2.1,0.3h1.4c1.8,0,3.6-0.4,5.4-1.3C26.2,30.3,27.2,29.4,27.6,28.5z M27.7,8.6
		c-0.9-2.3-3.8-3.5-8.6-3.5c-1.3,0-2.9,0.3-4.7,0.8c-2.3,0.6-3.6,1.4-3.7,2.3c1.2,0.7,1.9,1.2,2.2,1.4c0.6,0.5,1,1.1,1.3,1.7
		c0.1,0.4,0.3,0.8,0.4,1.1c0.1,0.4,0.4,0.7,0.7,1c0.1,0.1,0.4,0.6,1,1.5c0.3,0.6,0.8,0.8,1.5,0.8c0.2,0,0.3,0,0.4,0
		c0.3-0.3,0.5-1.5,0.5-3.4c0-0.6-0.3-1.2-0.9-1.8s-0.9-1.3-0.9-1.9c0-0.6,0.2-1.1,0.6-1.6c0.4-0.5,0.9-0.7,1.5-0.7
		c0.6,0,1.2,0.2,1.6,0.7c0.5,0.5,0.7,1,0.7,1.5c0,0.1-0.3,0.6-0.8,1.6c-0.5,1-0.8,1.9-0.8,2.7c0,1,0.2,2,0.6,3.1
		c0.4-0.3,0.8-0.7,1.3-1c0.4-0.4,0.8-0.8,1.1-1.2c1.4-2.1,2.1-3.1,2.2-3.2C25.7,9.5,26.6,8.9,27.7,8.6z M32.5,17.7
		c0-1.4-0.4-3.2-1.2-5.4c-0.7-1.5-1.5-2.3-2.2-2.3c-0.3,0.2-0.6,0.7-1.1,1.5c-0.4,0.7-0.9,1.3-1.3,1.6c-0.9,0.6-1.8,1.2-2.6,1.7
		c-1,0.7-1.8,1.5-2.3,2.3c1,0.5,1.7,0.8,2.3,0.8h1.6c0.4,0,0.9-0.4,1.7-1.2c0.8-0.8,1.4-1.2,2-1.2c0.6,0,1.2,0.2,1.6,0.7
		c0.5,0.4,0.7,1,0.7,1.6c0,1.8-0.7,2.6-2.2,2.6c-0.2,0-0.9-0.3-2-0.9c-1.2-0.6-2.3-0.9-3.4-0.9c-0.8,0-1.7,0.2-2.6,0.7
		c0.4,0.9,1.1,1.7,2,2.3c0.8,0.5,1.5,0.9,2.3,1.4c1.3,0.8,2.4,2.1,3.2,3.8c1.1-0.3,1.9-1.2,2.6-2.8C32.2,22.5,32.5,20.4,32.5,17.7z"
		/>
</g>
</svg>
