<?xml version="1.0" encoding="utf-8"?>
<!-- Generator: Adobe Illustrator 24.1.3, SVG Export Plug-In . SVG Version: 6.00 Build 0)  -->
<svg version="1.1" id="Layer_1" xmlns="http://www.w3.org/2000/svg" xmlns:xlink="http://www.w3.org/1999/xlink" x="0px" y="0px"
	 viewBox="0 0 30 30" style="enable-background:new 0 0 30 30;" xml:space="preserve">
<style type="text/css">
	.st0{fill:#6D6E71;}
</style>
<g>
	<path class="st0" d="M15.4,15.3l-0.2,0.1c-0.2,0.1-0.5,0.1-0.8,0.2l-1.7,0.1l-7.6,0.7C5.1,15.7,5,15.1,5,14.5h0.1
		c0.1,0,0.3,0,0.7,0c0.3,0,0.6,0,0.8,0h0.5c0.4,0,1.1,0,2.1,0.1c1,0.1,1.9,0.1,2.5,0.1c0.7,0,1.3,0,1.9,0c0.5,0.1,1,0.2,1.5,0.3
		C15.2,15.1,15.3,15.2,15.4,15.3z M13.6,16.3c-4.6,1.2-7.4,1.9-8.4,1.9c-0.1,0-0.2-0.1-0.2-0.3v-0.1c0-0.3,0.7-0.6,2.1-0.9
		c1.1-0.2,3.3-0.5,6.4-0.8L13.6,16.3z M13,14.3l-0.3,0.2c0,0-0.1,0-0.1,0c-0.1,0-0.1,0-0.1,0c-0.1,0-0.2,0-0.4,0c-0.2,0-0.3,0-0.3,0
		c-0.1,0-1.8-0.3-5.2-0.8c-0.6-0.1-1-0.1-1-0.1c-0.3-0.1-0.4-0.2-0.4-0.4c0-0.3,0.1-0.4,0.4-0.4c0.2,0,0.8,0.1,1.8,0.3
		c1.3,0.3,2.5,0.5,3.5,0.7C12.2,13.9,12.9,14.1,13,14.3z M15.4,14c-0.3,0.1-0.5,0.1-0.7,0.1c-0.3,0-0.8-0.1-1.6-0.4
		c-0.9-0.3-1.6-0.8-2.2-1.3S9.9,11,9.3,9.6C9,9,8.9,8.4,8.7,7.7C8.6,7,8.5,6.6,8.5,6.4c-0.4-0.9-0.7-1.6-1.1-2
		C6.9,3.9,6.3,3.6,5.5,3.5C5.2,3.3,5.1,3.1,5.1,2.9c0-0.3,0.2-0.4,0.5-0.4c0.2,0,0.5,0.1,0.8,0.5c0.7,0.5,1.1,0.8,1.4,1
		c0.4,0.3,1,1.1,1.7,2.6c0.7-2.7,2.1-4.1,4.3-4.2c0.4,0,0.6,0,0.9,0.2c0.2,0.1,0.3,0.3,0.3,0.5S15,3.2,14.8,3.2
		c-0.2,0-0.4,0-0.6-0.1c-0.2,0-0.4,0-0.4,0c-0.7,0-1.5,0.3-2.2,0.9c-0.8,0.8-1.3,1.7-1.3,2.8c-0.1,0.1-0.1,0.2-0.1,0.3
		c0,0.3,0.1,0.4,0.4,0.4c0.1,0,0.2,0,0.3-0.1c0.1,0,0.2-0.1,0.3-0.1c0.3,0,0.5,0.1,0.5,0.4c0,0.1-0.1,0.4-0.4,0.8
		C11,9,10.8,9.4,10.8,9.7c0,0.6,0.2,1,0.6,1.2c0.4,0.2,0.6,0.5,0.7,0.7c0.1,0.6,0.4,1,0.9,1.3c0.3,0.2,1.1,0.5,2.3,0.8L15.4,14z
		 M15.5,16.6c0,0.2-0.1,0.4-0.2,0.5c-1.9,0.4-2.8,0.9-2.8,1.5c0,0.1,0.1,0.3,0.3,0.5c0.2,0.3,0.3,0.5,0.3,0.6c0,0.2-0.1,0.4-0.4,0.4
		c-0.4,0-0.8-0.2-1.3-0.5c-0.2,0.1-0.4,0.4-0.6,0.9c0.3,0.8,0.4,1.4,0.4,1.6c0,0.1-0.2,0.2-0.5,0.3c-0.3,0.1-0.5,0.4-0.5,0.7
		c0,1,0.4,2,1.1,2.9c0.6,0.8,1.1,1.2,1.5,1.2c0.1,0,0.3,0,0.6-0.1c0.3-0.1,0.5-0.1,0.6-0.1c0.4,0,0.7,0.1,1,0.2
		c0.3,0.1,0.4,0.3,0.4,0.5c0,0.1-0.1,0.2-0.2,0.3c-0.1,0.1-0.3,0.1-0.5,0.1h-0.6c-0.9,0-1.8-0.4-2.6-1.1c-0.9-0.8-1.6-1.9-2.1-3.2
		c-0.1,0-0.2,0.2-0.4,0.6c-0.3,0.6-0.7,1.1-1.2,1.6c-0.9,0.9-1.7,1.3-2.2,1.3c-0.2,0-0.3-0.2-0.3-0.5c0-0.3,0.2-0.5,0.7-0.7
		c0.6-0.2,0.9-0.3,0.9-0.3c0.7-0.7,1.3-1.7,1.7-2.9c0.5-1.7,0.8-2.5,0.8-2.6c0.5-1.1,1.2-1.9,2-2.5c0.6-0.4,1.3-0.8,2.2-1.1
		c0.7-0.3,1.2-0.4,1.3-0.4h0.6C15.4,16.4,15.5,16.5,15.5,16.6z"/>
	<path class="st0" d="M25.8,27c0,0.3-0.1,0.4-0.3,0.4c-0.1,0-0.2-0.1-0.4-0.2c-1.2-0.5-2-1.2-2.6-2c-0.3-0.5-0.6-0.9-0.8-1.4
		c-0.4,1.3-1.1,2.3-2.1,3.1c-0.9,0.8-1.8,1.2-2.7,1.2c-0.3,0-0.6-0.1-1-0.2l-0.2-0.4c0.4-0.3,0.8-0.5,1.4-0.5c0.1,0,0.3,0,0.5,0.1
		c0.3,0.1,0.5,0.1,0.6,0.1c0.3,0,0.7-0.4,1.4-1.1c0.8-0.9,1.2-2,1.2-3.1c0-0.5-0.2-0.7-0.5-0.7c0,0,0,0-0.2,0
		c-0.2,0-0.3-0.1-0.3-0.2c0-0.1,0.1-0.3,0.2-0.6c0.1-0.4,0.2-0.7,0.2-1c-0.2-0.5-0.4-0.8-0.5-0.9c-0.5,0.3-1,0.5-1.4,0.5
		c-0.2,0-0.4-0.1-0.4-0.4c0-0.1,0.1-0.3,0.3-0.6c0.2-0.3,0.3-0.5,0.3-0.6c0-0.2-0.2-0.4-0.6-0.7c-0.4-0.3-1-0.5-1.8-0.7l-0.5-0.1
		c-0.2-0.1-0.2-0.3-0.2-0.4c0-0.2,0.1-0.4,0.4-0.4c0.4,0,1.2,0.2,2.2,0.7c1.2,0.5,2.1,1.2,2.6,1.9c0.7,0.9,1.1,1.6,1.3,2.2
		c0.2,0.8,0.4,1.6,0.7,2.3c0.3,0.9,0.6,1.5,1.1,2.1c0.2,0.3,0.7,0.5,1.3,0.8C25.5,26.4,25.8,26.7,25.8,27z M25.9,14.5
		c0,0.7,0,1.3-0.1,1.8c-1.4-0.1-3.8-0.3-7.1-0.6c-1.8-0.1-2.7-0.3-2.9-0.4l-0.2-0.1c0-0.1,0.1-0.1,0.3-0.2c0.7-0.2,1.5-0.3,2.4-0.3
		h1c-0.1,0,2-0.1,6.1-0.3L25.9,14.5z M25.8,3c0,0.2-0.1,0.3-0.3,0.5c-1.5,0.1-2.6,1.2-3.2,3.5c-0.1,0.4-0.1,0.8-0.2,1.3
		c-0.1,0.8-0.4,1.5-0.8,2.1c-0.2,0.4-0.3,0.7-0.5,1.1c-0.3,0.5-0.6,1-1.1,1.4c-0.5,0.4-1.1,0.8-2,1.1c-0.7,0.3-1.3,0.4-1.7,0.4
		c-0.2,0-0.4,0-0.5-0.1v-0.3c0.4-0.1,1.1-0.3,2.1-0.7c0.5-0.2,0.9-0.5,1-0.9c0.1-0.2,0.1-0.5,0.2-0.7c0-0.1,0.3-0.3,0.7-0.5
		c0.4-0.2,0.5-0.5,0.5-0.9c0-0.5-0.1-0.9-0.4-1.4c-0.3-0.4-0.4-0.7-0.4-0.8c0-0.3,0.2-0.4,0.5-0.4c0,0,0.1,0,0.2,0.1
		c0.1,0.1,0.2,0.1,0.3,0.1c0.3,0,0.4-0.1,0.4-0.4c0-0.1,0-0.1-0.1-0.2c-0.1-1.1-0.4-1.9-0.8-2.4c-0.3-0.3-0.8-0.7-1.6-1
		c-0.6-0.2-1-0.4-1.1-0.4c-0.4,0-0.7,0.1-0.9,0.1c-0.2-0.1-0.3-0.2-0.3-0.3s0.1-0.3,0.3-0.5c0.2-0.1,0.5-0.2,0.9-0.2
		c1,0,1.9,0.4,2.7,1.1c0.8,0.7,1.3,1.7,1.6,3c0.7-1.3,1.5-2.3,2.4-3c0.7-0.6,1.2-0.8,1.5-0.8c0.1,0,0.2,0.1,0.5,0.2V3z M25.9,17.9
		c0,0.2-0.1,0.2-0.4,0.2c0,0-2.7-0.6-8.2-1.8l0.1-0.2c1,0,2.2,0.1,3.7,0.4c1.4,0.3,2.9,0.5,4.3,0.8C25.7,17.5,25.9,17.7,25.9,17.9z
		 M25.9,13.1c-0.1,0.3-0.6,0.5-1.3,0.6c-0.4,0.1-1.5,0.2-3.1,0.4l-2.4,0.3h-0.2c-0.1,0-0.2,0-0.4,0c-0.5,0-0.7,0-0.7-0.1
		c0-0.2,1-0.5,3-0.7c1.1-0.1,2.2-0.3,3.2-0.6l1.4-0.3C25.6,12.7,25.8,12.8,25.9,13.1z"/>
</g>
</svg>
