<?xml version="1.0" encoding="utf-8"?>
<!-- Generator: Adobe Illustrator 24.1.3, SVG Export Plug-In . SVG Version: 6.00 Build 0)  -->
<svg version="1.1" id="Layer_1" xmlns="http://www.w3.org/2000/svg" xmlns:xlink="http://www.w3.org/1999/xlink" x="0px" y="0px"
	 viewBox="0 0 54 86" style="enable-background:new 0 0 54 86;" xml:space="preserve">
<style type="text/css">
	.st0{fill:#6D6E71;}
	.st1{fill:#010101;}
</style>
<g>
	<circle class="st0" cx="15.6" cy="70.5" r="15"/>
	<g>
		<path class="st1" d="M16.4,71.7c-0.1,0.3-0.6,0.3-1.1,0.1s-0.7-0.6-0.6-0.9L48.2,2.1l3.3,1.6L16.4,71.7z"/>
		<path class="st1" d="M41.4,20c1.9,0.9,3,2.5,2.4,3.7c-0.2,0.5-2.3,1.1-2.7,2.1c-0.5,1,0.5,2.4,0,3.4c-0.6,1.1-2.5,1.3-4.4,0.4
			L36,29.2c-1.9-0.9-3-2.5-2.4-3.7c0.5-1,2.3-1.1,2.7-2.1c0.5-1-0.2-2.9,0-3.4c0.6-1.1,2.5-1.3,4.4-0.4L41.4,20z"/>
		<path class="st1" d="M46.1,10.7c1.9,0.9,3,2.5,2.4,3.7c-0.2,0.5-2.3,1.1-2.7,2.1s0.5,2.4,0,3.4c-0.6,1.1-2.5,1.3-4.4,0.4l-0.7-0.3
			c-1.9-0.9-3-2.5-2.4-3.7c0.5-1,2.3-1.1,2.7-2.1s-0.2-2.9,0-3.4c0.6-1.1,2.5-1.3,4.4-0.4L46.1,10.7z"/>
		<path class="st1" d="M50.7,1.5c1.9,0.9,3,2.5,2.4,3.7c-0.2,0.5-2.3,1.1-2.7,2.1c-0.5,1,0.5,2.4,0,3.4c-0.6,1.1-2.5,1.3-4.4,0.4
			l-0.7-0.3c-1.9-0.9-3-2.5-2.4-3.7c0.5-1,2.3-1.1,2.7-2.1c0.5-1-0.2-2.9,0-3.4c0.6-1.1,2.5-1.3,4.4-0.4L50.7,1.5z"/>
		<path class="st1" d="M27.6,47.2c1.1,0.5,2.5,0.5,2.7-0.2c0.2-0.8,0-1.3,0.1-1.9s1.5,0,2.3-1.1c0.5-0.8-0.4-2.2-1.9-2.9l-0.1-0.1
			c-1.5-0.7-3.2-0.6-3.6,0.3c-0.5,1.3,0.9,1.9,0.5,2.4s-1,0.6-1.5,1.3c-0.5,0.6,0.3,1.7,1.5,2.2L27.6,47.2z"/>
	</g>
</g>
</svg>
