<?xml version="1.0" encoding="utf-8"?>
<!-- Generator: Adobe Illustrator 24.1.3, SVG Export Plug-In . SVG Version: 6.00 Build 0)  -->
<svg version="1.1" id="Layer_1" xmlns="http://www.w3.org/2000/svg" xmlns:xlink="http://www.w3.org/1999/xlink" x="0px" y="0px"
	 viewBox="0 0 36 36" style="enable-background:new 0 0 36 36;" xml:space="preserve">
<style type="text/css">
	.st0{fill:#C7972E;}
</style>
<g>
	<path class="st0" d="M17.9,0.5c0.3,0,0.4,0.4,0.4,1.2c0,2.2,0.3,4,0.9,5.4c0.8,1.9,2.3,3.7,4.4,5.4c0.6,0.5,2,1.5,4.3,3.2
		c1.7,1.3,3,2.3,3.9,3.2c1.3,1.3,2.3,2.5,2.8,3.6c0.6,1.3,0.9,2.7,0.9,4.4c0,2.4-0.7,4.3-2.1,5.9c-1.4,1.6-3.1,2.4-5.1,2.4
		c-1.6,0-2.9-0.5-4-1.6c-1.1-1.1-1.6-2.3-1.6-3.8c0-0.8,0.3-1.5,0.9-2.2c0.6-0.7,1.4-1,2.2-1c0.9,0,1.6,0.2,2.1,0.6
		c0.5,0.4,0.8,1,0.8,1.7c0,0.4-0.3,0.9-1,1.4s-1,0.8-1,1.1c0,0.4,0.2,0.7,0.6,1s0.9,0.4,1.6,0.4c1.3,0,2.4-0.4,3.2-1.1
		c0.8-0.7,1.2-1.7,1.2-2.8c0-1.1-0.6-2.1-1.7-3.2c-1.2-0.9-2.3-1.8-3.5-2.8c-1.6-1.3-3.2-3.2-5-5.8c-1.2-1.8-3-4.6-5.4-8.5l-0.3-0.2
		c-0.1,0.1-0.1,0.2-0.3,0.2c-1.8,3.5-3,5.8-3.6,6.7c-1.2,2.1-2.2,3.6-3.1,4.7c-1.6,1.9-3.4,3.5-5.3,4.9c-1.9,1.4-2.9,2.7-2.9,3.8
		c0,1.1,0.5,2.2,1.4,3.1c0.9,0.9,1.9,1.4,3.1,1.4c0.5,0,0.9-0.1,1.3-0.3c0.4-0.2,0.6-0.4,0.6-0.6s-0.3-0.6-0.8-1.3
		c-0.5-0.7-0.8-1.2-0.8-1.4c0-0.6,0.3-1.1,0.8-1.5c0.5-0.4,1.2-0.7,2-0.7c0.9,0,1.7,0.3,2.5,1c0.7,0.7,1.1,1.5,1.1,2.3
		c0,1.5-0.6,2.7-1.7,3.6c-1.1,0.9-2.6,1.4-4.5,1.4c-1.9,0-3.6-0.8-5-2.4c-1.5-1.6-2.2-3.5-2.2-5.6c0-3.1,1.3-6,4-8.7
		c0.6-0.6,1.9-1.7,3.8-3.1c1.9-1.5,3.4-2.7,4.4-3.7c2.7-2.7,4.3-6.3,4.7-10.7C17.3,0.8,17.5,0.5,17.9,0.5z"/>
</g>
</svg>
