<?xml version="1.0" encoding="utf-8"?>
<!-- Generator: Adobe Illustrator 24.1.3, SVG Export Plug-In . SVG Version: 6.00 Build 0)  -->
<svg version="1.1" id="Layer_1" xmlns="http://www.w3.org/2000/svg" xmlns:xlink="http://www.w3.org/1999/xlink" x="0px" y="0px"
	 viewBox="0 0 30 30" style="enable-background:new 0 0 30 30;" xml:space="preserve">
<style type="text/css">
	.st0{fill:#6D6E71;}
</style>
<g>
	<g>
		<path class="st0" d="M24.3,13c-0.2,0.6-0.4,0.8-0.6,0.7c-0.1,0-0.3-0.2-0.5-0.6c-0.2-0.4-0.4-0.6-0.5-0.6c-0.2,0-0.4,0.1-0.6,0.3
			c-0.3,0.3-0.4,0.5-0.5,0.9c-0.2,0.6-0.2,1.8-0.2,3.6c0,1.8-0.1,3.1-0.3,3.9c-0.6,2.1-1.6,3.7-2.9,4.7c-1.2,1-4.9,3.3-6.1,2.9
			c-1-0.3-1.7-0.8-2.2-1.6C9.2,26.5,9,25.7,9.3,25c0.2-0.5,0.5-1,1-1.3c0.5-0.4,1.1-0.5,1.5-0.3c0.5,0.2,0.9,0.4,1.3,0.8
			c0.3,0.4,0.4,0.8,0.3,1.2c-0.1,0.3-0.3,0.6-0.5,0.7c-0.3,0.2-0.5,0.3-0.8,0.2c-0.5-0.1-0.7-0.5-0.7-1.2c0-0.2,0-0.5,0.1-0.7
			c0-0.2-0.1-0.3-0.2-0.3c-0.2-0.1-0.4,0-0.7,0.3c-0.3,0.2-0.5,0.6-0.6,1c-0.2,0.6-0.1,1.2,0.3,1.8c0.4,0.6,0.9,1,1.5,1.2
			c1,0.3,4.5-1.9,5.4-2.5c0.9-0.6,1.5-1.5,1.9-2.7c0.1-0.2-0.1-0.7-0.4-1.3s-0.5-1.2-0.4-1.5c0.1-0.5,0.4-0.7,0.7-0.6
			c-0.1,0,0.2,0.2,0.9,0.7c0.2-0.1,0.3-0.2,0.3-0.4c0.1-0.4,0-0.9-0.5-1.5c-0.4-0.6-0.9-1.1-1.3-1.6c-0.3-0.5-0.4-0.9-0.3-1.3
			c0.1-0.3,0.4-0.4,0.9-0.2c0.1,0,0.5,0.2,1.1,0.7c-0.1-0.5-0.4-1.2-0.8-2c-0.5-0.8-0.9-1.6-1.4-2.4c-1.6-2.8-2-5.4-1.3-7.8
			c0.3-1.1,1-2,2.1-2.7C19.9,0.2,21,0,22,0.3c0.7,0.2,1.2,0.6,1.6,1.2C24,2,24.1,2.7,23.9,3.3c-0.2,0.6-0.5,1-1,1.4
			c-0.5,0.4-1,0.5-1.5,0.4c-0.3-0.1-0.5-0.3-0.7-0.6c-0.2-0.3-0.3-0.6-0.2-0.8c0.1-0.3,0.3-0.5,0.6-0.7c0.3-0.2,0.7-0.2,1-0.1
			c0.1,0,0.3,0.1,0.4,0.2c0.2,0.1,0.3,0.2,0.4,0.2c0.2,0.1,0.4-0.1,0.5-0.5c0.1-0.3,0-0.6-0.3-1c-0.3-0.3-0.8-0.6-1.5-0.8
			c-0.8-0.2-1.6,0-2.4,0.5C18.4,2.2,17.8,3,17.5,4c-0.6,2.3-0.3,4.4,1.1,6.6c0.3,0.4,0.7,0.9,1.2,1.6c0.1,0.5,0.4,1.2,0.8,2.1
			c0.2-0.3,0.3-0.5,0.4-0.7c0-0.1,0.1-0.3,0.1-0.6c0-0.3,0.1-0.5,0.1-0.6c0.1-0.4,0.4-0.7,0.9-0.9c0.5-0.2,0.9-0.2,1.5-0.1
			C24.3,11.7,24.5,12.2,24.3,13z"/>
	</g>
	<g>
		<path class="st0" d="M12.5,21.6c1.3,0.4,2.2,1,2.8,2s0.7,2,0.3,3.2c-0.3,1.1-1.1,1.9-2.3,2.4c-1.2,0.5-2.4,0.6-3.5,0.2
			c-1-0.3-1.7-0.9-2.3-2s-0.7-2-0.5-3c0.3-1.1,1-1.9,2.2-2.5C10.3,21.4,11.4,21.3,12.5,21.6z"/>
	</g>
</g>
</svg>
