<?xml version="1.0" encoding="utf-8"?>
<!-- Generator: Adobe Illustrator 24.1.3, SVG Export Plug-In . SVG Version: 6.00 Build 0)  -->
<svg version="1.1" id="Layer_1" xmlns="http://www.w3.org/2000/svg" xmlns:xlink="http://www.w3.org/1999/xlink" x="0px" y="0px"
	 viewBox="0 0 38 38" style="enable-background:new 0 0 38 38;" xml:space="preserve">
<style type="text/css">
	.st0{fill:#C7972E;}
</style>
<g>
	<path class="st0" d="M10.7,23c0,0.6-0.3,0.9-0.8,0.9c-0.5,0-0.9-0.5-1.2-1.6c-0.2-0.9-0.4-1.8-0.7-2.7c-0.2-0.5-1-1.6-2.4-3.4
		c-0.5-0.7-0.9-1-1-1c-0.1,0-0.4,0.1-0.8,0.2c-0.4,0.1-0.7,0.2-1,0.2c-0.5,0-0.9-0.3-1.4-1c-0.5-0.7-0.7-1.4-0.7-2.1
		c0-0.9,0.3-1.6,0.9-2.2C2.3,9.7,3,9.4,3.9,9.4s1.4,0.4,1.4,1.2c0,0.1,0,0.2-0.1,0.4c0,0.2-0.1,0.3-0.1,0.4c0,0.4,0.3,1.1,0.9,2.2
		c0.8,1.3,1.6,2.5,2.4,3.8C10,19.8,10.7,21.7,10.7,23z M31.2,25.6c0,0.6-0.1,1.3-0.3,1.9c-0.2,0.7-0.4,1.1-0.6,1.3
		C30,29,28.3,29,25.1,29c-0.2,0-0.7,0-1.3-0.1c-0.7,0-1.2-0.1-1.6-0.1c-1,0-2.9,0-5.8,0.1c-2.9,0.1-5.3,0.1-7.3,0.1
		c-1.5,0-2.2-0.6-2.2-1.8c0-0.9,0.2-1.5,0.7-1.8c0.3-0.2,1-0.3,2.1-0.3H10c0,0,0.6,0,2,0.1c1.6,0.1,3.3,0.1,5.1,0.2
		c2.6,0.1,5.4,0.1,8.4,0.1c0.1,0,1.4-0.2,3.8-0.5l1.4-0.2C31,25,31.2,25.2,31.2,25.6z M16.2,23.2c0,0.5-0.4,0.8-1.1,0.8
		c-0.5,0-0.9-0.4-1.1-1.1c-0.1-0.2-0.3-1.4-0.7-3.6c-0.5-3-1-5.2-1.5-6.6c-0.1-0.3-0.3-0.8-0.6-1.2c-0.3-0.5-0.5-0.8-0.6-0.9
		c-0.1-0.3-0.1-0.7-0.2-1s-0.4-0.6-0.9-0.8c-1.2-0.5-1.8-0.8-2-0.9C7.3,7.5,7.1,7,7.1,6.3c0-1.1,0.3-2,0.8-2.8
		c0.5-0.7,1.2-1.1,1.8-1.1c0.8,0,1.5,0.2,2.1,0.7c0.6,0.5,0.9,1,0.9,1.6c0,0.2-0.1,0.4-0.3,0.7C12.2,6,12.1,6.4,12,6.6
		C14.8,17.1,16.2,22.6,16.2,23.2z M23.9,34.4c0,0.7-0.4,1.4-1.2,2c-0.8,0.6-1.7,0.9-2.7,0.9c-1.4,0-2.5-0.2-3.3-0.7
		c-0.8-0.5-1.2-1-1.2-1.8c0-0.7,0.5-1.3,1.4-2c0.9-0.7,1.8-1,2.7-1c1.2,0,2.2,0.3,3,0.8C23.4,33.1,23.9,33.7,23.9,34.4z M21.7,3.9
		c0,0.2-0.2,0.6-0.5,1c-0.5,0.6-0.8,1.1-0.9,1.6c-0.3,0.8-0.4,3-0.4,6.6c0,1.7,0.1,3.6,0.4,5.7c0.2,2.1,0.4,3.3,0.4,3.6
		c0,0.3-0.1,0.6-0.4,0.9c-0.3,0.3-0.6,0.5-0.8,0.5c-0.2,0-0.4-0.2-0.6-0.5c-0.2-0.3-0.3-0.8-0.3-1.2v-8.9c0-0.1-0.2-2.3-0.7-6.6
		c-1.3-0.9-1.9-1.8-1.9-2.5c0-0.8,0.3-1.6,0.9-2.3C17.4,1,18,0.7,18.7,0.7c0.7,0,1.4,0.4,2.1,1.1C21.4,2.5,21.7,3.2,21.7,3.9z
		 M30.1,4.7c0,2.7-0.9,4.1-2.8,4.2c-0.5,2-1.3,4.6-2.3,7.6c-0.7,2.1-1,3.4-1,4c0,0.1,0,0.2,0,0.4c0,0.2,0,0.3,0,0.4
		c0,1-0.1,1.6-0.2,1.8c-0.2,0.4-0.6,0.6-1.3,0.6c-0.6,0-0.9-0.3-0.9-0.8c0,0.2,0.5-2.2,1.6-7c0.4-1.7,0.8-3.6,1.4-5.5
		C25.1,9,25.3,8.2,25.3,8c0-0.2-0.2-0.6-0.5-1.2c-0.3-0.6-0.5-1.1-0.5-1.4c0-2,1-3,3.1-3C29.3,2.4,30.1,3.2,30.1,4.7z M37.2,11.2
		c0,0.8-0.2,1.5-0.6,2c-0.4,0.5-0.9,0.8-1.6,0.8c-0.2,0-0.4-0.1-0.8-0.2c-0.3-0.1-0.6-0.2-0.7-0.2c-0.6,0-1.5,1.7-2.8,5
		c-1.3,3.4-2.1,5-2.6,5c-0.4,0-0.6-0.3-0.8-0.8c0.3-2,0.9-3.9,1.6-5.6c0.4-1.1,1-2.2,1.7-3.4c0.6-0.9,0.8-1.5,0.8-1.6
		c0-0.3-0.1-0.7-0.4-1.2c-0.3-0.5-0.4-0.9-0.4-1.1c0-1.1,1.2-1.6,3.5-1.6c0.7,0,1.3,0.3,1.9,1C36.9,9.8,37.2,10.5,37.2,11.2z"/>
</g>
</svg>
