<?xml version="1.0" encoding="utf-8"?>
<!-- Generator: Adobe Illustrator 24.1.3, SVG Export Plug-In . SVG Version: 6.00 Build 0)  -->
<svg version="1.1" id="Layer_1" xmlns="http://www.w3.org/2000/svg" xmlns:xlink="http://www.w3.org/1999/xlink" x="0px" y="0px"
	 viewBox="0 0 30 30" style="enable-background:new 0 0 30 30;" xml:space="preserve">
<style type="text/css">
	.st0{fill:#6D6E71;}
</style>
<g>
	<path class="st0" d="M15.7,15.9c-0.2,1.2-0.9,2.2-2,2.9c-1.1,0.7-2.2,1-3.5,0.7c-1.4-0.3-2.4-0.9-3-2c-0.7-1-0.9-2.2-0.6-3.5
		c0.2-1.1,0.9-2.1,2-2.8s2.1-1,3.2-0.8c1,0.2,2,0.8,2.9,1.9C15.6,13.5,16,14.7,15.7,15.9z M12,7.2c-0.1,0.3-0.2,0.5-0.4,0.7
		c-0.2,0.2-0.4,0.3-0.7,0.2c-0.1,0-0.3-0.1-0.5-0.3c0.1-0.4,0-2.5-0.2-6.4c0.5-0.2,0.9-0.3,1.2-0.2c0.5,0.1,0.8,0.3,0.8,0.5
		c0,0.4-0.1,1.5-0.1,3.2C12.1,6,12,6.8,12,7.2z M13.3,15.7c0.3-1.5-0.3-2.5-1.9-3c-0.6-0.1-1.1,0.1-1.5,0.5c-0.4,0.4-0.7,1-0.9,1.8
		c-0.1,0.6,0,1.1,0.3,1.6c0.3,0.5,0.7,0.8,1.3,0.9c0.6,0.1,1.2,0,1.7-0.3S13.2,16.4,13.3,15.7z M11.9,28.4c-0.1,0.6-0.4,0.9-0.9,0.8
		c-0.6-0.1-1-0.3-1.1-0.6l0-0.1c0.1-0.6,0.1-2.6,0.1-6.1c0.4-0.1,0.8-0.2,1.2-0.1c0.5,0.1,0.7,0.4,0.7,1
		C11.8,26.6,11.9,28.3,11.9,28.4z M17.4,3.4c-1.3,3.4-2.5,5.2-3.6,5.4c-0.3-0.3-0.4-0.7-0.3-0.9c0-0.2,0.3-0.8,0.7-1.7
		c0.6-1.3,1-2.4,1.4-3.4c0.2-0.2,0.4-0.3,0.6-0.2C16.3,2.5,16.7,2.8,17.4,3.4z M16.8,27.9c0,0.2-0.2,0.3-0.5,0.5
		c-0.3,0.1-0.5,0.2-0.8,0.1c-0.2,0-0.4-0.4-0.7-1c-0.6-1.3-1-2.5-1.4-3.7c-0.3-0.9-0.4-1.4-0.3-1.4c0-0.2,0.2-0.4,0.4-0.6
		c0.2-0.2,0.4-0.2,0.6-0.2c0.2,0,0.6,0.6,1.1,1.7C16.3,26,16.8,27.6,16.8,27.9z M22,6.5c0,0.2-0.4,0.5-1.1,1.1
		c-2.6,2.3-4,3.4-4.2,3.3c-0.2,0-0.3-0.2-0.5-0.4C16.1,10.3,16,10.2,16,10c0-0.1,0.4-0.4,1.1-1.1c1.1-1,2.1-1.9,2.9-2.7
		c0.2-0.2,0.3-0.3,0.5-0.5c0.2-0.2,0.4-0.2,0.7-0.1c0.2,0,0.4,0.2,0.6,0.4C22,6.1,22.1,6.3,22,6.5z M20.7,25c0,0.2-0.2,0.4-0.5,0.5
		c-0.3,0.1-0.5,0.2-0.8,0.1c-0.3-0.1-0.8-0.5-1.4-1.4c-1.7-2.1-2.5-3.3-2.5-3.5c0-0.1,0.4-0.5,1-1C19.4,22.8,20.8,24.5,20.7,25z
		 M24.4,11.3c-0.1,0.3-0.7,0.6-1.8,1c-2.5,0.7-4,1.1-4.4,1c-0.2,0-0.4-0.2-0.5-0.4c-0.2-0.2-0.2-0.4-0.2-0.5c0-0.2,0.6-0.4,1.6-0.8
		c2.9-0.9,4.5-1.4,4.7-1.3c0.2,0,0.3,0.2,0.5,0.4C24.4,10.9,24.4,11.1,24.4,11.3z M23.2,20.4L23,21.1c-0.5,0.2-0.8,0.3-0.9,0.3
		c-0.1,0-0.6-0.3-1.4-0.7c-1.2-0.7-2.3-1.3-3.3-1.8c0.2-0.8,0.7-1.2,1.3-1c0.3,0.1,0.7,0.3,1.5,0.7c0.7,0.4,1.2,0.7,1.5,0.7
		C21.8,19.4,22.3,19.8,23.2,20.4z M24.4,16.4c-0.1,0.5-0.5,0.8-1.1,0.7c0,0-0.6,0-1.8-0.1c-0.8,0-1.5-0.1-2.2-0.3
		c-1-0.2-1.4-0.6-1.3-1.2c0.1-0.4,0.5-0.6,1.3-0.4c0.6,0.1,1.3,0.1,2.4-0.1c1-0.1,1.7-0.2,2-0.1C24.3,15.1,24.5,15.5,24.4,16.4z"/>
</g>
</svg>
