<?xml version="1.0" encoding="utf-8"?>
<!-- Generator: Adobe Illustrator 24.1.3, SVG Export Plug-In . SVG Version: 6.00 Build 0)  -->
<svg version="1.1" id="Layer_1" xmlns="http://www.w3.org/2000/svg" xmlns:xlink="http://www.w3.org/1999/xlink" x="0px" y="0px"
	 viewBox="0 0 242 52" style="enable-background:new 0 0 242 52;" xml:space="preserve">
<style type="text/css">
	.st0{fill:#D1D3D4;stroke:#6D6E71;stroke-miterlimit:10;}
	.st1{fill:#282829;stroke:#6D6E71;stroke-miterlimit:10;}
	.st2{fill:#6D6E71;}
</style>
<g>
	<path class="st0" d="M10.7,1.2h229.9l-0.1,50H10.5"/>
	<rect x="1" y="1.2" class="st1" width="50" height="50"/>
	<g>
		<path class="st2" d="M31.5,28.6h2.7c1.5,0,2.7,0.5,3.8,1.6c1,1.1,1.6,2.3,1.6,3.8s-0.5,2.7-1.6,3.8c-1,1.1-2.3,1.6-3.8,1.6
			c-1.5,0-2.7-0.5-3.8-1.6c-1.1-1-1.6-2.3-1.6-3.8v-2.7h-5.3v2.7c0,1.4-0.5,2.7-1.6,3.7c-1,1.1-2.3,1.6-3.8,1.6
			c-1.4,0-2.7-0.5-3.7-1.6c-1.1-1-1.6-2.3-1.6-3.8c0-1.5,0.5-2.7,1.6-3.8c1.1-1,2.3-1.6,3.8-1.6h2.7v-5.3h-2.7
			c-1.5,0-2.7-0.5-3.8-1.6c-1.1-1-1.6-2.3-1.6-3.8s0.5-2.7,1.6-3.8c1.1-1,2.3-1.6,3.8-1.6c1.5,0,2.7,0.5,3.8,1.6s1.6,2.3,1.6,3.8
			v2.7h5.3v-2.7c0-1.5,0.5-2.7,1.6-3.8s2.3-1.6,3.8-1.6c1.5,0,2.7,0.5,3.8,1.6c1.1,1,1.6,2.3,1.6,3.8c0,1.5-0.5,2.7-1.6,3.8
			c-1,1.1-2.3,1.6-3.8,1.6h-2.7V28.6z M20.8,20.6v-2.7c0-0.7-0.3-1.3-0.8-1.9c-0.5-0.5-1.2-0.8-1.9-0.8c-0.7,0-1.3,0.3-1.9,0.8
			c-0.5,0.5-0.8,1.1-0.8,1.9c0,0.7,0.3,1.4,0.8,1.9c0.5,0.5,1.2,0.8,1.9,0.8H20.8z M20.8,31.3h-2.7c-0.7,0-1.4,0.3-1.9,0.8
			c-0.5,0.5-0.8,1.1-0.8,1.9c0,0.7,0.3,1.3,0.8,1.9c0.5,0.5,1.2,0.8,1.9,0.8c0.7,0,1.4-0.3,1.9-0.8c0.5-0.5,0.8-1.1,0.8-1.9V31.3z
			 M28.8,28.6v-5.3h-5.3v5.3H28.8z M31.5,20.6h2.7c0.7,0,1.4-0.3,1.9-0.8c0.5-0.5,0.8-1.1,0.8-1.9c0-0.7-0.3-1.3-0.8-1.9
			c-0.5-0.5-1.2-0.8-1.9-0.8c-0.7,0-1.4,0.3-1.9,0.8c-0.5,0.5-0.8,1.1-0.8,1.9V20.6z M31.5,31.3v2.7c0,0.7,0.3,1.4,0.8,1.9
			c0.5,0.5,1.2,0.8,1.9,0.8c0.7,0,1.3-0.3,1.9-0.8c0.5-0.5,0.8-1.1,0.8-1.9c0-0.7-0.3-1.4-0.8-1.9c-0.5-0.5-1.2-0.8-1.9-0.8H31.5z"
			/>
	</g>
</g>
</svg>
