<?xml version="1.0" encoding="utf-8"?>
<!-- Generator: Adobe Illustrator 24.1.3, SVG Export Plug-In . SVG Version: 6.00 Build 0)  -->
<svg version="1.1" id="Layer_1" xmlns="http://www.w3.org/2000/svg" xmlns:xlink="http://www.w3.org/1999/xlink" x="0px" y="0px"
	 viewBox="0 0 242 32" style="enable-background:new 0 0 242 32;" xml:space="preserve">
<style type="text/css">
	.st0{fill:#151514;stroke:#6D6E71;stroke-miterlimit:10;}
	.st1{fill:#6B6F60;}
	.st2{fill:#909685;}
</style>
<g>
	<path class="st0" d="M0.9,1.2h240.4l-0.1,30H0.8"/>
	<g>
		<rect x="0.8" y="1.3" class="st1" width="16" height="30"/>
		<g>
			<path class="st2" d="M13.2,21.7c0,1.4-0.4,2.4-1.2,3.2c-0.8,0.8-1.9,1.2-3.2,1.2c-1.1,0-2-0.4-2.8-1.3C5,24,4.6,23,4.6,21.9
				c0-1.6,0.9-2.9,2.6-4c0.3-0.2,0.9-0.3,1.8-0.3c1.4,0,2.5,0.7,3.4,2C12.9,20.3,13.2,21,13.2,21.7z M12.3,21.9
				c0-0.6-0.1-1.1-0.2-1.4c-0.2-0.5-0.6-1-1.3-1.5s-1.3-0.7-1.9-0.7c-0.9,0-1.6,0.3-2.3,1c-0.7,0.7-1,1.5-1,2.4c0,1,0.3,1.9,1,2.6
				c0.6,0.7,1.4,1,2.3,1c1,0,1.8-0.3,2.4-1C12,23.7,12.3,22.9,12.3,21.9z M10.3,21.6c0,0.4-0.1,0.7-0.3,1S9.4,23,9,23
				c-0.3,0-0.6-0.1-0.9-0.4c-0.2-0.3-0.4-0.6-0.4-0.9c0-0.3,0.1-0.6,0.4-0.9c0.3-0.3,0.5-0.4,0.8-0.4c0.3,0,0.6,0.1,0.9,0.4
				C10.1,21,10.3,21.3,10.3,21.6z"/>
		</g>
		<g>
			<path class="st2" d="M13.2,9.7c0,1.4-0.4,2.4-1.2,3.2c-0.8,0.8-1.9,1.2-3.2,1.2c-1.1,0-2-0.4-2.8-1.3C5,12,4.6,11,4.6,9.9
				c0-1.6,0.9-2.9,2.6-4C7.5,5.7,8.1,5.5,9,5.5c1.4,0,2.5,0.7,3.4,2C12.9,8.3,13.2,9,13.2,9.7z M12.3,9.9c0-0.6-0.1-1.1-0.2-1.4
				c-0.2-0.5-0.6-1-1.3-1.5S9.5,6.3,8.9,6.3c-0.9,0-1.6,0.3-2.3,1c-0.7,0.7-1,1.5-1,2.4c0,1,0.3,1.9,1,2.6c0.6,0.7,1.4,1,2.3,1
				c1,0,1.8-0.3,2.4-1C12,11.7,12.3,10.9,12.3,9.9z M10.3,9.6c0,0.4-0.1,0.7-0.3,1S9.4,11,9,11c-0.3,0-0.6-0.1-0.9-0.4
				C7.8,10.3,7.7,10,7.7,9.7c0-0.3,0.1-0.6,0.4-0.9c0.3-0.3,0.5-0.4,0.8-0.4c0.3,0,0.6,0.1,0.9,0.4C10.1,9,10.3,9.3,10.3,9.6z"/>
		</g>
	</g>
</g>
</svg>
