<?xml version="1.0" encoding="utf-8"?>
<!-- Generator: Adobe Illustrator 24.1.3, SVG Export Plug-In . SVG Version: 6.00 Build 0)  -->
<svg version="1.1" id="Layer_1" xmlns="http://www.w3.org/2000/svg" xmlns:xlink="http://www.w3.org/1999/xlink" x="0px" y="0px"
	 viewBox="0 0 370 90" style="enable-background:new 0 0 370 90;" xml:space="preserve">
<style type="text/css">
	.st0{fill:#FFFFFF;}
	.st1{fill:#010101;stroke:#010101;stroke-width:2;stroke-miterlimit:10;}
	.st2{fill:#989898;stroke:#989898;stroke-width:2;stroke-miterlimit:10;}
	.st3{fill:#734924;}
	.st4{fill:#010101;}
	.st5{fill:none;stroke:#010101;stroke-miterlimit:10;}
	.st6{fill:none;stroke:#A89A7C;stroke-linecap:round;stroke-miterlimit:10;}
	.st7{fill:none;stroke:#818181;stroke-linecap:round;stroke-miterlimit:10;}
</style>
<g>
	<rect x="14.9" y="14.5" class="st0" width="337" height="58.8"/>
	<g>
		<g>
			<path class="st1" d="M31.4,7.6c-2.6,0-5.4-0.3-8.4-0.7c-4.3-0.9-7.5-1.6-9.7-2.2C11.1,4.2,9,4.4,6.9,5.1C5.2,5.8,4,6.8,3.3,8.3
				C2.6,9.7,2.5,11.1,3,12.5c0.5,1.3,1.3,2.2,2.4,2.8c1.1,0.6,2.2,0.7,3.2,0.3c0.9-0.3,1.6-0.9,2-1.7c0.4-0.8,0.4-1.6,0.2-2.4
				c-0.3-0.7-0.6-1-1.1-1c-0.3,1.3-0.7,2-1.2,2.2C7,13.3,6,13,5.5,11.7C5.3,11,5.3,10.4,5.7,9.8c0.4-0.6,0.9-1.1,1.6-1.4
				C8.2,8.1,9,8.2,9.8,8.7c0.8,0.5,1.5,1.4,1.9,2.5c0.4,1,0.3,2-0.2,3.1c-0.5,1.1-1.3,1.8-2.3,2.2c-1.5,0.5-2.9,0.5-4.3-0.2
				c-1.3-0.7-2.2-1.7-2.7-3.1c-0.7-1.8-0.6-3.6,0.3-5.3C3.4,6,4.9,4.7,7,3.9C6.2,3.5,5.7,3.2,5.6,2.9s-0.1-0.5,0-0.8
				c0.1-0.3,0.2-0.5,0.5-0.5c1.8-0.6,4.1-0.3,7.1,1c0.8,0.4,1.5,0.8,2.3,1.2c1.5,0.7,3.3,1.3,5.2,1.8c1.6,0.4,3.4,0.7,5.4,0.9
				c1.9,0.2,3.7,0.3,5.4,0.2c1-0.1,2-0.1,3.1-0.2c0.2,0,0.3,0.1,0.4,0.3c0.1,0.3,0.1,0.5-0.2,0.6C34.5,7.6,33.3,7.6,31.4,7.6z"/>
		</g>
		<g>
			<path class="st1" d="M183.4,8.3c-0.7-1.5-2-2.5-3.6-3.1c-2.1-0.8-4.2-0.9-6.4-0.4c-2.2,0.6-5.5,1.3-9.7,2.2
				c-3,0.4-5.8,0.7-8.4,0.7c-1.9,0-120.3,0-120.7-0.2c-0.2-0.1-0.3-0.3-0.2-0.6c0.1-0.2,0.2-0.4,0.4-0.3c1,0.1,119.3,0.1,120.4,0.2
				c1.8,0.1,3.6,0,5.4-0.2c2-0.2,3.8-0.5,5.4-0.9c1.9-0.5,3.7-1.1,5.2-1.8c0.8-0.4,1.5-0.8,2.3-1.2c3-1.3,5.3-1.7,7.1-1
				c0.2,0.1,0.4,0.3,0.5,0.5c0.1,0.3,0.1,0.5,0,0.8s-0.6,0.6-1.4,0.9c2.1,0.8,3.6,2.1,4.5,3.9c0.2,0.4,0.4,0.9,0.5,1.3L183.4,8.3z"
				/>
		</g>
		<g>
			<path class="st1" d="M333.8,7.4c-0.2-0.1-0.3-0.3-0.2-0.6c0.1-0.2,0.2-0.4,0.4-0.3c1,0.1,2,0.1,3.1,0.2c1.8,0.1,3.6,0,5.4-0.2
				c2-0.2,3.8-0.5,5.4-0.9c1.9-0.5,3.7-1.1,5.2-1.8c0.8-0.4,1.5-0.8,2.3-1.2c3-1.3,5.3-1.7,7.1-1c0.2,0.1,0.4,0.3,0.5,0.5
				c0.1,0.3,0.1,0.5,0,0.8s-0.6,0.6-1.4,0.9c2.1,0.8,3.6,2.1,4.5,3.9c0.9,1.7,1,3.5,0.3,5.3c-0.5,1.4-1.4,2.4-2.7,3.1
				c-1.4,0.7-2.8,0.8-4.3,0.2c-1-0.4-1.8-1.1-2.3-2.2c-0.5-1.1-0.6-2.1-0.2-3.1c0.4-1.1,1-1.9,1.9-2.5c0.8-0.5,1.7-0.7,2.5-0.3
				c0.7,0.3,1.3,0.7,1.6,1.4c0.4,0.6,0.4,1.3,0.2,1.9c-0.5,1.3-1.5,1.6-3,1.1c-0.5-0.2-0.9-0.9-1.2-2.2c-0.5-0.1-0.9,0.3-1.1,1
				c-0.3,0.8-0.2,1.6,0.2,2.4c0.4,0.8,1.1,1.4,2,1.7c1,0.4,2.1,0.3,3.2-0.3c1.1-0.6,1.9-1.5,2.4-2.8c0.5-1.4,0.4-2.8-0.3-4.2
				c-0.7-1.5-2-2.5-3.6-3.1c-2.1-0.8-4.2-0.9-6.4-0.4c-2.2,0.6-5.5,1.3-9.7,2.2c-3,0.4-5.8,0.7-8.4,0.7
				C335.3,7.6,334.2,7.6,333.8,7.4z"/>
		</g>
		<g>
			<path class="st1" d="M184,9.1c0.1-0.4,0.3-0.9,0.5-1.3c0.9-1.8,2.4-3.1,4.5-3.9c-0.9-0.4-1.3-0.7-1.4-0.9s-0.1-0.5,0-0.8
				c0.1-0.3,0.2-0.5,0.5-0.5c1.8-0.6,4.1-0.3,7.1,1c0.8,0.4,1.5,0.8,2.3,1.2c1.5,0.7,3.3,1.3,5.2,1.8c1.6,0.4,3.4,0.7,5.4,0.9
				c1.9,0.2,3.7,0.3,5.4,0.2c1-0.1,119.3-0.1,120.4-0.2c0.2,0,0.3,0.1,0.4,0.3c0.1,0.3,0.1,0.5-0.2,0.6
				c-0.4,0.1-118.8,0.2-120.7,0.2c-2.6,0-5.4-0.3-8.4-0.7c-4.3-0.9-7.5-1.6-9.7-2.2c-2.2-0.5-4.3-0.3-6.4,0.4
				c-1.7,0.6-2.9,1.7-3.6,3.1L184,9.1z"/>
		</g>
		<g>
			<path class="st2" d="M157.9,81.9c-0.1,0-123.4-0.1-124.2-0.4c-1.4-0.4-3.9-0.5-7.6-0.2c-1.1,0.1-2.9,0.3-5.2,0.7
				c-4,0.7-6.5,1.1-7.3,1.2c-2.4,0.2-4.3,0-5.9-0.6c-2-0.8-3.5-2-4.3-3.7c-0.9-1.7-1-3.4-0.3-5.2c0.6-1.6,1.6-2.7,3-3.4
				c1.3-0.7,2.6-0.8,3.8-0.3c1.4,0.6,2.4,1.4,3.1,2.6c0.6,1.2,0.7,2.3,0.3,3.5c-0.4,0.9-1,1.6-2,2c-1,0.5-1.9,0.5-2.7,0.2
				C7.7,78,7,77.5,6.6,76.8c-0.4-0.7-0.5-1.3-0.3-1.9c0.3-0.8,0.8-1.3,1.4-1.7C8.3,72.8,9,72.8,9.6,73c0.6,0.3,1.1,0.7,1.4,1.4
				c0.3,0.7,0.5,1,0.6,1.1c0.1,0,0.2,0,0.3-0.1l0.1-0.2c0.7-1.9-0.1-3.3-2.5-4.2c-1.1-0.4-2.2-0.4-3.2,0.2c-1,0.6-1.8,1.5-2.3,2.8
				c-0.6,1.5-0.5,2.8,0.2,4.1c0.7,1.2,2,2.2,3.9,3c1.2,0.5,3,0.5,5.6,0c1.6-0.3,2.9-0.7,3.8-1.2c0.2-0.1,1.2-0.8,3-2.1
				c0.9-0.7,1.7-0.9,2.2-0.7c0.6,0.2,0.7,0.6,0.5,1.1c-0.1,0.1-0.2,0.3-0.4,0.6c-0.2,0.3-0.4,0.5-0.4,0.6c-0.1,0.4-0.1,0.6,0.2,0.7
				c0.3,0.1,1.4-0.4,3.2-1.6c1.2-0.8,2.3-1,3.2-0.7c0.4,0.1,0.5,0.4,0.4,0.6c0,0.1-0.2,0.3-0.4,0.5c-0.2,0.2-0.3,0.4-0.4,0.5
				c-0.1,0.2,0,0.3,0.3,0.4c0.1,0,0.3,0.1,0.4,0.1c3.7,0.4,128.5,0.6,128.7,0.7"/>
		</g>
		<g>
			<path class="st1" d="M163.7,80.6c0.7-0.1,1.7,0.1,2.4,0.3c0.7,0.2,0.6,1.9,0.1,1.9c-0.6,0-1.1-0.4-2.6-0.7
				c-1.5-0.2-5.7-0.2-5.7-0.2c-0.1,0-123.4-0.1-124.2-0.4c-1.4-0.4-3.9-0.5-7.6-0.2c-1.1,0.1-2.9,0.3-5.2,0.7
				c-4,0.7-6.5,1.1-7.3,1.2c-2.4,0.2-4.3,0-5.9-0.6c-2-0.8-3.5-2-4.3-3.7c-0.9-1.7-1-3.4-0.3-5.2c0.6-1.6,1.6-2.7,3-3.4
				c1.3-0.7,2.6-0.8,3.8-0.3c1.4,0.6,2.4,1.4,3.1,2.6c0.6,1.2,0.7,2.3,0.3,3.5c-0.4,0.9-1,1.6-2,2c-1,0.5-1.9,0.5-2.7,0.2
				C7.7,78,7,77.5,6.6,76.8c-0.4-0.7-0.5-1.3-0.3-1.9c0.3-0.8,0.8-1.3,1.4-1.7C8.3,72.8,9,72.8,9.6,73c0.6,0.3,1.1,0.7,1.4,1.4
				c0.3,0.7,0.5,1,0.6,1.1c0.1,0,0.2,0,0.3-0.1l0.1-0.2c0.7-1.9-0.1-3.3-2.5-4.2c-1.1-0.4-2.2-0.4-3.2,0.2c-1,0.6-1.8,1.5-2.3,2.8
				c-0.6,1.5-0.5,2.8,0.2,4.1c0.7,1.2,2,2.2,3.9,3c1.2,0.5,3,0.5,5.6,0c1.6-0.3,2.9-0.7,3.8-1.2c0.2-0.1,1.2-0.8,3-2.1
				c0.9-0.7,1.7-0.9,2.2-0.7c0.6,0.2,0.7,0.6,0.5,1.1c-0.1,0.1-0.2,0.3-0.4,0.6c-0.2,0.3-0.4,0.5-0.4,0.6c-0.1,0.4-0.1,0.6,0.2,0.7
				c0.3,0.1,1.4-0.4,3.2-1.6c1.2-0.8,2.3-1,3.2-0.7c0.4,0.1,0.5,0.4,0.4,0.6c0,0.1-0.2,0.3-0.4,0.5c-0.2,0.2-0.3,0.4-0.4,0.5
				c-0.1,0.2,0,0.3,0.3,0.4c0.1,0,0.3,0.1,0.4,0.1c3.7,0.4,128.5,0.6,128.7,0.7C158.1,80.6,162.9,80.7,163.7,80.6z"/>
		</g>
		<g>
			<path class="st1" d="M162.2,80.9c0.7-0.2,1.4-0.3,2.1-0.5c0.8-0.2,1.5-0.4,2.3-0.7c1-0.2,2-0.4,3-0.4c1.1,0,2.9,0.3,5.3,1
				c0.4,0.1,0.9,0.2,1.3,0.4c0.6,0.1,1.1,0.2,1.6,0.2c0.3,0,0.5,0.1,0.5,0.2c0,0.1-0.5,0.3-1.4,0.5c-1.6,0.4-3,0.7-4.1,1.1
				c-1.5,0.4-2.8,0.7-3.8,0.7c-0.7,0-1.4-0.1-2.1-0.2c-0.1,0-0.6-0.2-1.5-0.5c-0.5-0.2-1-0.3-1.4-0.5c-0.6-0.2-1.1-0.3-1.5-0.4
				c-0.3,0-0.5-0.1-0.8-0.1c-0.2,0-0.3-0.1-0.3-0.2C161.5,81.1,161.8,81,162.2,80.9z M165.4,85.4c1.2-0.3,3.5-0.6,7-1
				c0.4,0,1.1-0.1,2.2-0.2c0.8-0.1,1.3-0.1,1.6-0.2c0.9-0.2,1.6-0.6,2.1-1.1c0.5-0.5,0.8-1,0.8-1.5c0-0.8-0.4-1.4-1.3-1.9
				c-1.4-0.8-2.8-1.3-4.2-1.3c-0.2,0-0.5,0-0.9,0s-0.7,0-0.9,0c-2.9,0-5.3-0.3-7.2-1c-1.8-0.6-2.7-1.3-2.7-2.1
				c0-0.2,0.1-0.5,0.2-0.7c0.2-0.2,0.3-0.3,0.6-0.3c0.3,0,0.4,0.1,0.4,0.3c0,0.1,0,0.2,0,0.3s0,0.3,0,0.4c0,0.5,0.3,0.8,0.9,1.2
				c0.7,0.3,1.5,0.5,2.5,0.5c0.5,0,1.3-0.1,2.3-0.4c1-0.2,1.7-0.4,2.1-0.4c1.3,0,2.4,0.2,3.4,0.6c0.8,0.3,1.7,0.8,2.7,1.6
				c0.8,0.6,1.5,1.3,2.1,2c0.5,0.6,0.7,1,0.7,1.2c0,0.4-0.3,0.9-0.9,1.4c-0.5,0.5-1.4,1.2-2.7,2c-1.7,1.1-3.2,1.7-4.6,1.7
				c-0.8,0-1.7-0.1-2.8-0.3c-1.1-0.2-1.8-0.3-2.1-0.3c-1.1,0-2.1,0.2-2.8,0.5s-1.1,0.7-1.1,1.2c0,0.1,0,0.2,0,0.3c0,0.1,0,0.2,0,0.3
				c0,0.4-0.2,0.5-0.5,0.5c-0.4,0-0.6-0.2-0.6-0.6C161.8,86.9,163,86,165.4,85.4z M167.4,81.4c0.2,0,0.7,0,1.3,0.1
				c0.6,0.1,1.1,0.1,1.5,0.1c1.3,0,2.4-0.1,3.3-0.2c0.8-0.1,1.2-0.2,1.2-0.2c0,0,0,0-0.1,0c-0.1,0-0.2,0-0.2,0c-1.4,0-2.7,0-3.9-0.1
				s-1.8-0.1-1.6-0.1c-0.3,0-0.6,0.1-1.1,0.2c-0.4,0.1-0.6,0.2-0.6,0.2C167.3,81.4,167.3,81.4,167.4,81.4z"/>
		</g>
		<g>
			<path class="st1" d="M213.3,80.6c0.2-0.1,125-0.3,128.7-0.7c0.2,0,0.3,0,0.4-0.1c0.2-0.1,0.3-0.2,0.3-0.4
				c-0.1-0.1-0.2-0.3-0.4-0.5c-0.2-0.2-0.3-0.4-0.4-0.5c-0.1-0.3,0-0.5,0.4-0.6c0.9-0.4,2-0.1,3.2,0.7c1.8,1.2,2.9,1.8,3.2,1.6
				c0.3-0.1,0.4-0.4,0.2-0.7c-0.1-0.2-0.2-0.4-0.4-0.6c-0.2-0.3-0.3-0.4-0.4-0.6c-0.2-0.5,0-0.8,0.5-1.1c0.6-0.2,1.3,0,2.2,0.7
				c1.8,1.3,2.8,2,3,2.1c0.9,0.5,2.2,0.9,3.8,1.2c2.6,0.5,4.4,0.5,5.6,0c1.9-0.8,3.2-1.8,3.9-3c0.7-1.2,0.8-2.6,0.2-4.1
				c-0.5-1.3-1.3-2.3-2.3-2.8c-1-0.5-2.1-0.6-3.2-0.2c-2.4,0.9-3.2,2.3-2.5,4.2l0.1,0.2c0.1,0.1,0.2,0.1,0.3,0.1
				c0.1,0,0.3-0.4,0.6-1.1c0.3-0.7,0.8-1.2,1.4-1.4s1.3-0.2,1.9,0.1c0.6,0.3,1.1,0.9,1.4,1.7c0.2,0.6,0.1,1.2-0.3,1.9
				c-0.4,0.7-1.1,1.2-1.9,1.5c-0.8,0.3-1.8,0.3-2.7-0.2c-1-0.5-1.6-1.1-2-2c-0.5-1.2-0.4-2.4,0.3-3.5c0.6-1.2,1.7-2,3.1-2.6
				c1.2-0.5,2.5-0.4,3.8,0.3c1.4,0.7,2.4,1.8,3,3.4c0.7,1.7,0.6,3.5-0.3,5.2c-0.9,1.7-2.3,2.9-4.3,3.7c-1.6,0.6-3.6,0.8-5.9,0.6
				c-0.8-0.1-3.3-0.5-7.3-1.2c-2.4-0.4-4.1-0.7-5.2-0.7c-3.7-0.3-6.2-0.2-7.6,0.2c-0.8,0.2-124.1,0.4-124.2,0.4c0,0-4.2,0-5.7,0.2
				s-2.1,0.7-2.6,0.7c-0.6,0-0.7-1.8,0.1-1.9c0.7-0.2,1.7-0.4,2.4-0.3C208.4,80.7,213.3,80.6,213.3,80.6z"/>
		</g>
		<g>
			<path class="st1" d="M209.9,81.4c0,0.1-0.1,0.2-0.3,0.2c-0.3,0-0.5,0.1-0.8,0.1c-0.4,0.1-0.9,0.2-1.5,0.4c-0.5,0.2-1,0.4-1.4,0.5
				c-0.8,0.3-1.3,0.4-1.5,0.5c-0.7,0.2-1.3,0.2-2.1,0.2c-1,0-2.2-0.2-3.8-0.7c-1.1-0.3-2.5-0.7-4.1-1.1c-0.9-0.2-1.4-0.4-1.4-0.5
				c0-0.1,0.2-0.2,0.5-0.2c0.5,0,1.1-0.1,1.6-0.2c0.4-0.1,0.9-0.2,1.3-0.4c2.4-0.6,4.2-1,5.3-1c1,0,2,0.1,3,0.4
				c0.8,0.2,1.5,0.4,2.3,0.7c0.7,0.1,1.4,0.3,2.1,0.5C209.6,81,209.9,81.1,209.9,81.4z M209.5,88.1c0,0.4-0.2,0.6-0.6,0.6
				c-0.3,0-0.5-0.2-0.5-0.5c0-0.1,0-0.1,0-0.3c0-0.1,0-0.2,0-0.3c0-0.5-0.4-0.9-1.1-1.2s-1.7-0.5-2.8-0.5c-0.3,0-1,0.1-2.1,0.3
				c-1.1,0.2-2,0.3-2.8,0.3c-1.4,0-3-0.6-4.6-1.7c-1.2-0.8-2.1-1.5-2.7-2c-0.6-0.6-0.9-1-0.9-1.4c0-0.2,0.2-0.6,0.7-1.2
				c0.6-0.7,1.3-1.3,2.1-2c1-0.7,1.9-1.3,2.7-1.6c1-0.4,2.1-0.6,3.4-0.6c0.4,0,1.1,0.1,2.1,0.4c1,0.2,1.8,0.4,2.3,0.4
				c1,0,1.8-0.2,2.5-0.5c0.6-0.3,0.9-0.7,0.9-1.2c0-0.1,0-0.2,0-0.4s0-0.3,0-0.3c0-0.2,0.1-0.3,0.4-0.3c0.2,0,0.4,0.1,0.6,0.3
				c0.2,0.2,0.2,0.4,0.2,0.7c0,0.8-0.9,1.5-2.7,2.1c-1.9,0.7-4.3,1-7.2,1c-0.2,0-0.5,0-0.9,0s-0.7,0-0.9,0c-1.4,0-2.8,0.4-4.2,1.3
				c-0.8,0.5-1.3,1.1-1.3,1.9c0,0.5,0.3,1,0.8,1.5c0.5,0.5,1.2,0.9,2.1,1.1c0.3,0.1,0.9,0.2,1.6,0.2c1.1,0.1,1.8,0.1,2.2,0.2
				c3.5,0.4,5.8,0.8,7,1C208.3,86,209.5,86.9,209.5,88.1z M204.1,81.3c0,0-0.2-0.1-0.6-0.2c-0.4-0.1-0.8-0.2-1.1-0.2
				c0.2,0-0.4,0-1.6,0.1s-2.5,0.1-3.9,0.1c0,0-0.1,0-0.2,0c0,0-0.1,0-0.1,0c0,0.1,0.4,0.1,1.2,0.2c0.9,0.1,2,0.2,3.3,0.2
				c0.4,0,0.9,0,1.5-0.1c0.6-0.1,1.1-0.1,1.3-0.1C204.1,81.4,204.1,81.4,204.1,81.3z"/>
		</g>
		<g>
			<path class="st1" d="M192.4,80.7c0,2.2-0.7,3.9-2,5.2c-1.3,1.3-3,1.9-5.2,1.9c-1.7,0-3.2-0.7-4.6-2c-1.4-1.4-2-3-2-4.8
				c0-2.5,1.4-4.7,4.2-6.4c0.5-0.3,1.5-0.5,2.8-0.5c2.2,0,4,1.1,5.5,3.2C192,78.4,192.4,79.5,192.4,80.7z M191,81
				c0-0.9-0.1-1.7-0.4-2.3c-0.3-0.9-1-1.7-2-2.4c-1-0.7-2-1-3.1-1c-1.4,0-2.6,0.5-3.7,1.6c-1.1,1.1-1.6,2.3-1.6,3.8
				c0,1.7,0.6,3.1,1.7,4.2c1,1,2.2,1.6,3.6,1.6c1.6,0,2.9-0.5,3.9-1.5C190.4,83.9,191,82.6,191,81z M187.7,80.5
				c0,0.7-0.2,1.2-0.6,1.6s-0.9,0.6-1.5,0.6c-0.5,0-1-0.2-1.4-0.6s-0.6-0.9-0.6-1.5c0-0.5,0.2-0.9,0.6-1.4c0.4-0.5,0.9-0.7,1.3-0.7
				c0.5,0,1,0.2,1.4,0.6C187.5,79.5,187.7,80,187.7,80.5z"/>
		</g>
		<g>
			<path class="st1" d="M361.3,42.2c0,1.1-0.5,1.6-1.5,1.6c-0.4,0-0.7-0.1-0.9-0.4c-0.3-0.3-0.4-0.6-0.4-1c0-0.5,0.1-1,0.4-1.4
				c0.2-0.4,0.5-0.7,0.8-0.7c0.4,0,0.8,0.2,1.1,0.5C361.1,41.3,361.3,41.7,361.3,42.2z M363,15.8l-0.3,0.4c-0.4,0.5-0.8,1.5-1.3,3.3
				c-1,3.3-1.5,12.9-1.5,14.9v0.7c0.2-0.1,0.6-0.6,1.1-1.5c0.4-0.8,0.8-1.1,1.1-1.1c0.1,0,0.2,0,0.3,0.1l-0.1,0.3
				c-0.6,0.9-1,1.6-1.2,2.1c-0.3,0.7-0.4,1.6-0.4,2.6c0,0.2,0.1,0.5,0.2,1c0.1,0.5,0.2,0.8,0.2,1c0,0.3-0.2,0.5-0.5,0.5
				c-0.7,0-1.1-0.3-1.3-0.9c-0.2-0.2-0.3-0.6-0.5-1.1c-0.1-0.3-0.1-1.1-0.1-2.3s0.3-2.9,0.8-5.1c1.1-4.3,2.1-13.9,3.2-14.9l0.3-0.1
				L363,15.8z M363.4,69.4l0,0.3c0,0.1-0.1,0.2-0.3,0.2c-0.3,0-0.7-0.9-1.3-2.7c-0.2-0.4-0.6-8.6-1.2-10.4c-1-3.4-1.5-6.6-1.5-9.4
				c0-2.1,0.6-3.1,1.8-3.1c0.2,0,0.3,0.2,0.3,0.7c0,0.2,0,0.6-0.1,1.2c-0.1,0.7-0.1,1.2-0.1,1.7c0,0.6,0.1,1.3,0.4,2
				c0.3,0.7,0.6,1.4,0.9,2.1v0.2h-0.1c-0.3-0.1-0.6-0.4-0.9-1c-0.3-0.5-0.6-0.9-0.8-1c0.1,3,1.1,13.8,3,18.4L363.4,69.4z"/>
		</g>
	</g>
	<path class="st3" d="M183.5,7.9c0,0,1.3-3.5,5.3-4.5c3.5-0.9,7.7,0.3,12.6,1.7s9.8,1.2,9.8,1.2l115.9-0.2c0,0,6.8,0.3,11,0.3
		c4.2,0,12.8-2.5,16.5-3.2c3.7-0.7,4.5-0.8,7.1,0.8c2.7,1.7,4.9,4.7,3.5,8c-1.4,3.3-3.3,3.3-3.3,3.3s-3.2,11.5-3.2,19.8
		c0,3.2,0.3,6,0.3,6s0,6.7,0.2,10.1c0.2,3.5,3.7,18.1,3.7,18.1c0.3-0.5,1.4-0.4,3.2,1.8c2.2,2.7,1.9,4,0.5,6.3
		c-1.7,2.8-5.5,4-9.6,3.7c-4.5-0.4-14.3-1.5-14.3-1.5l-16,0.5H193.8l-2.4-0.2c0,0-1.4,4.2-4.7,5.8l-1.5,0.6
		c-5.3,0.2-7.4-6.3-7.4-6.3l-2.4,0.2H40.3l-16-0.5c0,0-7.3,1.1-11.8,1.5c-4.2,0.3-8.7-0.8-9.6-3.7c-0.8-2.5-1.2-4.3,0.5-6.3
		c1.8-2.2,2.8-2.3,3.2-1.8c0,0,3.5-14.6,3.7-18.1c0.2-3.5,0.2-10.1,0.2-10.1s0.3-1.8,0.3-5c0-8.3-3.2-20.8-3.2-20.8s-4.4,0-5.8-3.3
		c-1.4-3.3,0.8-6.3,3.5-8s3.5-1.5,7.1-0.8s12.3,3.2,16.5,3.2s11-0.3,11-0.3l115.9,0.2c0,0,4.9,0.2,9.8-1.2c4.9-1.3,9.1-2.5,12.6-1.7
		C182.2,4.4,183.5,7.9,183.5,7.9z M18.9,66.3c0,1.1,0.9,2,2,2h325.7c1.1,0,2-0.9,2-2V19.4c0-1.1-0.9-2-2-2H20.9c-1.1,0-2,0.9-2,2
		V66.3z"/>
	<g>
		<g>
			<path class="st4" d="M30.4,6.6c-2.6,0-5.4-0.3-8.4-0.7c-4.3-0.9-7.5-1.6-9.7-2.2C10.1,3.2,8,3.4,5.9,4.1C4.2,4.8,3,5.8,2.3,7.3
				C1.6,8.7,1.5,10.1,2,11.5c0.5,1.3,1.3,2.2,2.4,2.8c1.1,0.6,2.2,0.7,3.2,0.3c0.9-0.3,1.6-0.9,2-1.7c0.4-0.8,0.4-1.6,0.2-2.4
				c-0.3-0.7-0.6-1-1.1-1c-0.3,1.3-0.7,2-1.2,2.2C6,12.3,5,12,4.5,10.7C4.3,10,4.3,9.4,4.7,8.8c0.4-0.6,0.9-1.1,1.6-1.4
				C7.2,7.1,8,7.2,8.8,7.7c0.8,0.5,1.5,1.4,1.9,2.5c0.4,1,0.3,2-0.2,3.1C10,14.3,9.2,15,8.2,15.4c-1.5,0.5-2.9,0.5-4.3-0.2
				c-1.3-0.7-2.2-1.7-2.7-3.1c-0.7-1.8-0.6-3.6,0.3-5.3C2.4,5,3.9,3.7,6,2.9C5.2,2.5,4.7,2.2,4.6,1.9s-0.1-0.5,0-0.8
				c0.1-0.3,0.2-0.5,0.5-0.5c1.8-0.6,4.1-0.3,7.1,1c0.8,0.4,1.5,0.8,2.3,1.2c1.5,0.7,3.3,1.3,5.2,1.8c1.6,0.4,3.4,0.7,5.4,0.9
				c1.9,0.2,3.7,0.3,5.4,0.2c1-0.1,2-0.1,3.1-0.2c0.2,0,0.3,0.1,0.4,0.3c0.1,0.3,0.1,0.5-0.2,0.6C33.5,6.6,32.3,6.6,30.4,6.6z"/>
		</g>
		<g>
			<path class="st4" d="M182.4,7.3c-0.7-1.5-2-2.5-3.6-3.1c-2.1-0.8-4.2-0.9-6.4-0.4c-2.2,0.6-5.5,1.3-9.7,2.2
				c-3,0.4-5.8,0.7-8.4,0.7c-1.9,0-120.3,0-120.7-0.2c-0.2-0.1-0.3-0.3-0.2-0.6c0.1-0.2,0.2-0.4,0.4-0.3c1,0.1,119.3,0.1,120.4,0.2
				c1.8,0.1,3.6,0,5.4-0.2c2-0.2,3.8-0.5,5.4-0.9c1.9-0.5,3.7-1.1,5.2-1.8c0.8-0.4,1.5-0.8,2.3-1.2c3-1.3,5.3-1.7,7.1-1
				c0.2,0.1,0.4,0.3,0.5,0.5c0.1,0.3,0.1,0.5,0,0.8s-0.6,0.6-1.4,0.9c2.1,0.8,3.6,2.1,4.5,3.9c0.2,0.4,0.4,0.9,0.5,1.3L182.4,7.3z"
				/>
		</g>
		<g>
			<path class="st4" d="M332.8,6.4c-0.2-0.1-0.3-0.3-0.2-0.6c0.1-0.2,0.2-0.4,0.4-0.3c1,0.1,2,0.1,3.1,0.2c1.8,0.1,3.6,0,5.4-0.2
				c2-0.2,3.8-0.5,5.4-0.9c1.9-0.5,3.7-1.1,5.2-1.8c0.8-0.4,1.5-0.8,2.3-1.2c3-1.3,5.3-1.7,7.1-1c0.2,0.1,0.4,0.3,0.5,0.5
				c0.1,0.3,0.1,0.5,0,0.8s-0.6,0.6-1.4,0.9c2.1,0.8,3.6,2.1,4.5,3.9c0.9,1.7,1,3.5,0.3,5.3c-0.5,1.4-1.4,2.4-2.7,3.1
				c-1.4,0.7-2.8,0.8-4.3,0.2c-1-0.4-1.8-1.1-2.3-2.2c-0.5-1.1-0.6-2.1-0.2-3.1c0.4-1.1,1-1.9,1.9-2.5c0.8-0.5,1.7-0.7,2.5-0.3
				c0.7,0.3,1.3,0.7,1.6,1.4c0.4,0.6,0.4,1.3,0.2,1.9c-0.5,1.3-1.5,1.6-3,1.1c-0.5-0.2-0.9-0.9-1.2-2.2c-0.5-0.1-0.9,0.3-1.1,1
				c-0.3,0.8-0.2,1.6,0.2,2.4c0.4,0.8,1.1,1.4,2,1.7c1,0.4,2.1,0.3,3.2-0.3c1.1-0.6,1.9-1.5,2.4-2.8c0.5-1.4,0.4-2.8-0.3-4.2
				c-0.7-1.5-2-2.5-3.6-3.1c-2.1-0.8-4.2-0.9-6.4-0.4c-2.2,0.6-5.5,1.3-9.7,2.2c-3,0.4-5.8,0.7-8.4,0.7
				C334.3,6.6,333.2,6.6,332.8,6.4z"/>
		</g>
		<g>
			<path class="st4" d="M183,8.1c0.1-0.4,0.3-0.9,0.5-1.3c0.9-1.8,2.4-3.1,4.5-3.9c-0.9-0.4-1.3-0.7-1.4-0.9s-0.1-0.5,0-0.8
				c0.1-0.3,0.2-0.5,0.5-0.5c1.8-0.6,4.1-0.3,7.1,1c0.8,0.4,1.5,0.8,2.3,1.2c1.5,0.7,3.3,1.3,5.2,1.8c1.6,0.4,3.4,0.7,5.4,0.9
				c1.9,0.2,3.7,0.3,5.4,0.2c1-0.1,119.3-0.1,120.4-0.2c0.2,0,0.3,0.1,0.4,0.3c0.1,0.3,0.1,0.5-0.2,0.6
				c-0.4,0.1-118.8,0.2-120.7,0.2c-2.6,0-5.4-0.3-8.4-0.7c-4.3-0.9-7.5-1.6-9.7-2.2c-2.2-0.5-4.3-0.3-6.4,0.4
				c-1.7,0.6-2.9,1.7-3.6,3.1L183,8.1z"/>
		</g>
		<g>
			<path class="st4" d="M156.9,80.9c-0.1,0-123.4-0.1-124.2-0.4c-1.4-0.4-3.9-0.5-7.6-0.2c-1.1,0.1-2.9,0.3-5.2,0.7
				c-4,0.7-6.5,1.1-7.3,1.2c-2.4,0.2-4.3,0-5.9-0.6c-2-0.8-3.5-2-4.3-3.7c-0.9-1.7-1-3.4-0.3-5.2c0.6-1.6,1.6-2.7,3-3.4
				c1.3-0.7,2.6-0.8,3.8-0.3c1.4,0.6,2.4,1.4,3.1,2.6c0.6,1.2,0.7,2.3,0.3,3.5c-0.4,0.9-1,1.6-2,2c-1,0.5-1.9,0.5-2.7,0.2
				C6.7,77,6,76.5,5.6,75.8c-0.4-0.7-0.5-1.3-0.3-1.9c0.3-0.8,0.8-1.3,1.4-1.7C7.3,71.8,8,71.8,8.6,72c0.6,0.3,1.1,0.7,1.4,1.4
				c0.3,0.7,0.5,1,0.6,1.1c0.1,0,0.2,0,0.3-0.1l0.1-0.2c0.7-1.9-0.1-3.3-2.5-4.2c-1.1-0.4-2.2-0.4-3.2,0.2c-1,0.6-1.8,1.5-2.3,2.8
				c-0.6,1.5-0.5,2.8,0.2,4.1c0.7,1.2,2,2.2,3.9,3c1.2,0.5,3,0.5,5.6,0c1.6-0.3,2.9-0.7,3.8-1.2c0.2-0.1,1.2-0.8,3-2.1
				c0.9-0.7,1.7-0.9,2.2-0.7c0.6,0.2,0.7,0.6,0.5,1.1c-0.1,0.1-0.2,0.3-0.4,0.6c-0.2,0.3-0.4,0.5-0.4,0.6c-0.1,0.4-0.1,0.6,0.2,0.7
				c0.3,0.1,1.4-0.4,3.2-1.6c1.2-0.8,2.3-1,3.2-0.7c0.4,0.1,0.5,0.4,0.4,0.6c0,0.1-0.2,0.3-0.4,0.5c-0.2,0.2-0.3,0.4-0.4,0.5
				c-0.1,0.2,0,0.3,0.3,0.4c0.1,0,0.3,0.1,0.4,0.1c3.7,0.4,128.5,0.6,128.7,0.7"/>
		</g>
		<g>
			<path class="st4" d="M162.7,79.6c0.7-0.1,1.7,0.1,2.4,0.3c0.7,0.2,0.6,1.9,0.1,1.9c-0.6,0-1.1-0.4-2.6-0.7
				c-1.5-0.2-5.7-0.2-5.7-0.2c-0.1,0-123.4-0.1-124.2-0.4c-1.4-0.4-3.9-0.5-7.6-0.2c-1.1,0.1-2.9,0.3-5.2,0.7
				c-4,0.7-6.5,1.1-7.3,1.2c-2.4,0.2-4.3,0-5.9-0.6c-2-0.8-3.5-2-4.3-3.7c-0.9-1.7-1-3.4-0.3-5.2c0.6-1.6,1.6-2.7,3-3.4
				c1.3-0.7,2.6-0.8,3.8-0.3c1.4,0.6,2.4,1.4,3.1,2.6c0.6,1.2,0.7,2.3,0.3,3.5c-0.4,0.9-1,1.6-2,2c-1,0.5-1.9,0.5-2.7,0.2
				C6.7,77,6,76.5,5.6,75.8c-0.4-0.7-0.5-1.3-0.3-1.9c0.3-0.8,0.8-1.3,1.4-1.7C7.3,71.8,8,71.8,8.6,72c0.6,0.3,1.1,0.7,1.4,1.4
				c0.3,0.7,0.5,1,0.6,1.1c0.1,0,0.2,0,0.3-0.1l0.1-0.2c0.7-1.9-0.1-3.3-2.5-4.2c-1.1-0.4-2.2-0.4-3.2,0.2c-1,0.6-1.8,1.5-2.3,2.8
				c-0.6,1.5-0.5,2.8,0.2,4.1c0.7,1.2,2,2.2,3.9,3c1.2,0.5,3,0.5,5.6,0c1.6-0.3,2.9-0.7,3.8-1.2c0.2-0.1,1.2-0.8,3-2.1
				c0.9-0.7,1.7-0.9,2.2-0.7c0.6,0.2,0.7,0.6,0.5,1.1c-0.1,0.1-0.2,0.3-0.4,0.6c-0.2,0.3-0.4,0.5-0.4,0.6c-0.1,0.4-0.1,0.6,0.2,0.7
				c0.3,0.1,1.4-0.4,3.2-1.6c1.2-0.8,2.3-1,3.2-0.7c0.4,0.1,0.5,0.4,0.4,0.6c0,0.1-0.2,0.3-0.4,0.5c-0.2,0.2-0.3,0.4-0.4,0.5
				c-0.1,0.2,0,0.3,0.3,0.4c0.1,0,0.3,0.1,0.4,0.1c3.7,0.4,128.5,0.6,128.7,0.7C157.1,79.6,161.9,79.7,162.7,79.6z"/>
		</g>
		<g>
			<path class="st4" d="M161.2,79.9c0.7-0.2,1.4-0.3,2.1-0.5c0.8-0.2,1.5-0.4,2.3-0.7c1-0.2,2-0.4,3-0.4c1.1,0,2.9,0.3,5.3,1
				c0.4,0.1,0.9,0.2,1.3,0.4c0.6,0.1,1.1,0.2,1.6,0.2c0.3,0,0.5,0.1,0.5,0.2c0,0.1-0.5,0.3-1.4,0.5c-1.6,0.4-3,0.7-4.1,1.1
				c-1.5,0.4-2.8,0.7-3.8,0.7c-0.7,0-1.4-0.1-2.1-0.2c-0.1,0-0.6-0.2-1.5-0.5c-0.5-0.2-1-0.3-1.4-0.5c-0.6-0.2-1.1-0.3-1.5-0.4
				c-0.3,0-0.5-0.1-0.8-0.1c-0.2,0-0.3-0.1-0.3-0.2C160.5,80.1,160.8,80,161.2,79.9z M164.4,84.4c1.2-0.3,3.5-0.6,7-1
				c0.4,0,1.1-0.1,2.2-0.2c0.8-0.1,1.3-0.1,1.6-0.2c0.9-0.2,1.6-0.6,2.1-1.1c0.5-0.5,0.8-1,0.8-1.5c0-0.8-0.4-1.4-1.3-1.9
				c-1.4-0.8-2.8-1.3-4.2-1.3c-0.2,0-0.5,0-0.9,0s-0.7,0-0.9,0c-2.9,0-5.3-0.3-7.2-1c-1.8-0.6-2.7-1.3-2.7-2.1
				c0-0.2,0.1-0.5,0.2-0.7c0.2-0.2,0.3-0.3,0.6-0.3c0.3,0,0.4,0.1,0.4,0.3c0,0.1,0,0.2,0,0.3s0,0.3,0,0.4c0,0.5,0.3,0.8,0.9,1.2
				c0.7,0.3,1.5,0.5,2.5,0.5c0.5,0,1.3-0.1,2.3-0.4c1-0.2,1.7-0.4,2.1-0.4c1.3,0,2.4,0.2,3.4,0.6c0.8,0.3,1.7,0.8,2.7,1.6
				c0.8,0.6,1.5,1.3,2.1,2c0.5,0.6,0.7,1,0.7,1.2c0,0.4-0.3,0.9-0.9,1.4c-0.5,0.5-1.4,1.2-2.7,2c-1.7,1.1-3.2,1.7-4.6,1.7
				c-0.8,0-1.7-0.1-2.8-0.3c-1.1-0.2-1.8-0.3-2.1-0.3c-1.1,0-2.1,0.2-2.8,0.5s-1.1,0.7-1.1,1.2c0,0.1,0,0.2,0,0.3c0,0.1,0,0.2,0,0.3
				c0,0.4-0.2,0.5-0.5,0.5c-0.4,0-0.6-0.2-0.6-0.6C160.8,85.9,162,85,164.4,84.4z M166.4,80.4c0.2,0,0.7,0,1.3,0.1
				c0.6,0.1,1.1,0.1,1.5,0.1c1.3,0,2.4-0.1,3.3-0.2c0.8-0.1,1.2-0.2,1.2-0.2c0,0,0,0-0.1,0c-0.1,0-0.2,0-0.2,0c-1.4,0-2.7,0-3.9-0.1
				s-1.8-0.1-1.6-0.1c-0.3,0-0.6,0.1-1.1,0.2c-0.4,0.1-0.6,0.2-0.6,0.2C166.3,80.4,166.3,80.4,166.4,80.4z"/>
		</g>
		<g>
			<path class="st4" d="M212.3,79.6c0.2-0.1,125-0.3,128.7-0.7c0.2,0,0.3,0,0.4-0.1c0.2-0.1,0.3-0.2,0.3-0.4
				c-0.1-0.1-0.2-0.3-0.4-0.5c-0.2-0.2-0.3-0.4-0.4-0.5c-0.1-0.3,0-0.5,0.4-0.6c0.9-0.4,2-0.1,3.2,0.7c1.8,1.2,2.9,1.8,3.2,1.6
				c0.3-0.1,0.4-0.4,0.2-0.7c-0.1-0.2-0.2-0.4-0.4-0.6c-0.2-0.3-0.3-0.4-0.4-0.6c-0.2-0.5,0-0.8,0.5-1.1c0.6-0.2,1.3,0,2.2,0.7
				c1.8,1.3,2.8,2,3,2.1c0.9,0.5,2.2,0.9,3.8,1.2c2.6,0.5,4.4,0.5,5.6,0c1.9-0.8,3.2-1.8,3.9-3c0.7-1.2,0.8-2.6,0.2-4.1
				c-0.5-1.3-1.3-2.3-2.3-2.8c-1-0.5-2.1-0.6-3.2-0.2c-2.4,0.9-3.2,2.3-2.5,4.2l0.1,0.2c0.1,0.1,0.2,0.1,0.3,0.1
				c0.1,0,0.3-0.4,0.6-1.1c0.3-0.7,0.8-1.2,1.4-1.4s1.3-0.2,1.9,0.1c0.6,0.3,1.1,0.9,1.4,1.7c0.2,0.6,0.1,1.2-0.3,1.9
				c-0.4,0.7-1.1,1.2-1.9,1.5c-0.8,0.3-1.8,0.3-2.7-0.2c-1-0.5-1.6-1.1-2-2c-0.5-1.2-0.4-2.4,0.3-3.5c0.6-1.2,1.7-2,3.1-2.6
				c1.2-0.5,2.5-0.4,3.8,0.3c1.4,0.7,2.4,1.8,3,3.4c0.7,1.7,0.6,3.5-0.3,5.2c-0.9,1.7-2.3,2.9-4.3,3.7c-1.6,0.6-3.6,0.8-5.9,0.6
				c-0.8-0.1-3.3-0.5-7.3-1.2c-2.4-0.4-4.1-0.7-5.2-0.7c-3.7-0.3-6.2-0.2-7.6,0.2c-0.8,0.2-124.1,0.4-124.2,0.4c0,0-4.2,0-5.7,0.2
				s-2.1,0.7-2.6,0.7c-0.6,0-0.7-1.8,0.1-1.9c0.7-0.2,1.7-0.4,2.4-0.3C207.4,79.7,212.3,79.6,212.3,79.6z"/>
		</g>
		<g>
			<path class="st4" d="M208.9,80.4c0,0.1-0.1,0.2-0.3,0.2c-0.3,0-0.5,0.1-0.8,0.1c-0.4,0.1-0.9,0.2-1.5,0.4c-0.5,0.2-1,0.4-1.4,0.5
				c-0.8,0.3-1.3,0.4-1.5,0.5c-0.7,0.2-1.3,0.2-2.1,0.2c-1,0-2.2-0.2-3.8-0.7c-1.1-0.3-2.5-0.7-4.1-1.1c-0.9-0.2-1.4-0.4-1.4-0.5
				c0-0.1,0.2-0.2,0.5-0.2c0.5,0,1.1-0.1,1.6-0.2c0.4-0.1,0.9-0.2,1.3-0.4c2.4-0.6,4.2-1,5.3-1c1,0,2,0.1,3,0.4
				c0.8,0.2,1.5,0.4,2.3,0.7c0.7,0.1,1.4,0.3,2.1,0.5C208.6,80,208.9,80.1,208.9,80.4z M208.5,87.1c0,0.4-0.2,0.6-0.6,0.6
				c-0.3,0-0.5-0.2-0.5-0.5c0-0.1,0-0.1,0-0.3c0-0.1,0-0.2,0-0.3c0-0.5-0.4-0.9-1.1-1.2s-1.7-0.5-2.8-0.5c-0.3,0-1,0.1-2.1,0.3
				c-1.1,0.2-2,0.3-2.8,0.3c-1.4,0-3-0.6-4.6-1.7c-1.2-0.8-2.1-1.5-2.7-2c-0.6-0.6-0.9-1-0.9-1.4c0-0.2,0.2-0.6,0.7-1.2
				c0.6-0.7,1.3-1.3,2.1-2c1-0.7,1.9-1.3,2.7-1.6c1-0.4,2.1-0.6,3.4-0.6c0.4,0,1.1,0.1,2.1,0.4c1,0.2,1.8,0.4,2.3,0.4
				c1,0,1.8-0.2,2.5-0.5c0.6-0.3,0.9-0.7,0.9-1.2c0-0.1,0-0.2,0-0.4s0-0.3,0-0.3c0-0.2,0.1-0.3,0.4-0.3c0.2,0,0.4,0.1,0.6,0.3
				c0.2,0.2,0.2,0.4,0.2,0.7c0,0.8-0.9,1.5-2.7,2.1c-1.9,0.7-4.3,1-7.2,1c-0.2,0-0.5,0-0.9,0s-0.7,0-0.9,0c-1.4,0-2.8,0.4-4.2,1.3
				c-0.8,0.5-1.3,1.1-1.3,1.9c0,0.5,0.3,1,0.8,1.5c0.5,0.5,1.2,0.9,2.1,1.1c0.3,0.1,0.9,0.2,1.6,0.2c1.1,0.1,1.8,0.1,2.2,0.2
				c3.5,0.4,5.8,0.8,7,1C207.3,85,208.5,85.9,208.5,87.1z M203.1,80.3c0,0-0.2-0.1-0.6-0.2c-0.4-0.1-0.8-0.2-1.1-0.2
				c0.2,0-0.4,0-1.6,0.1s-2.5,0.1-3.9,0.1c0,0-0.1,0-0.2,0c0,0-0.1,0-0.1,0c0,0.1,0.4,0.1,1.2,0.2c0.9,0.1,2,0.2,3.3,0.2
				c0.4,0,0.9,0,1.5-0.1c0.6-0.1,1.1-0.1,1.3-0.1C203.1,80.4,203.1,80.4,203.1,80.3z"/>
		</g>
		<g>
			<path class="st4" d="M191.4,79.7c0,2.2-0.7,3.9-2,5.2c-1.3,1.3-3,1.9-5.2,1.9c-1.7,0-3.2-0.7-4.6-2c-1.4-1.4-2-3-2-4.8
				c0-2.5,1.4-4.7,4.2-6.4c0.5-0.3,1.5-0.5,2.8-0.5c2.2,0,4,1.1,5.5,3.2C191,77.4,191.4,78.5,191.4,79.7z M190,80
				c0-0.9-0.1-1.7-0.4-2.3c-0.3-0.9-1-1.7-2-2.4c-1-0.7-2-1-3.1-1c-1.4,0-2.6,0.5-3.7,1.6c-1.1,1.1-1.6,2.3-1.6,3.8
				c0,1.7,0.6,3.1,1.7,4.2c1,1,2.2,1.6,3.6,1.6c1.6,0,2.9-0.5,3.9-1.5C189.4,82.9,190,81.6,190,80z M186.7,79.5
				c0,0.7-0.2,1.2-0.6,1.6s-0.9,0.6-1.5,0.6c-0.5,0-1-0.2-1.4-0.6s-0.6-0.9-0.6-1.5c0-0.5,0.2-0.9,0.6-1.4c0.4-0.5,0.9-0.7,1.3-0.7
				c0.5,0,1,0.2,1.4,0.6C186.5,78.5,186.7,79,186.7,79.5z"/>
		</g>
		<g>
			<path class="st4" d="M360.3,41.2c0,1.1-0.5,1.6-1.5,1.6c-0.4,0-0.7-0.1-0.9-0.4c-0.3-0.3-0.4-0.6-0.4-1c0-0.5,0.1-1,0.4-1.4
				c0.2-0.4,0.5-0.7,0.8-0.7c0.4,0,0.8,0.2,1.1,0.5C360.1,40.3,360.3,40.7,360.3,41.2z M362,14.8l-0.3,0.4c-0.4,0.5-0.8,1.5-1.3,3.3
				c-1,3.3-1.5,12.9-1.5,14.9v0.7c0.2-0.1,0.6-0.6,1.1-1.5c0.4-0.8,0.8-1.1,1.1-1.1c0.1,0,0.2,0,0.3,0.1l-0.1,0.3
				c-0.6,0.9-1,1.6-1.2,2.1c-0.3,0.7-0.4,1.6-0.4,2.6c0,0.2,0.1,0.5,0.2,1c0.1,0.5,0.2,0.8,0.2,1c0,0.3-0.2,0.5-0.5,0.5
				c-0.7,0-1.1-0.3-1.3-0.9c-0.2-0.2-0.3-0.6-0.5-1.1c-0.1-0.3-0.1-1.1-0.1-2.3s0.3-2.9,0.8-5.1c1.1-4.3,2.1-13.9,3.2-14.9l0.3-0.1
				L362,14.8z M362.4,68.4l0,0.3c0,0.1-0.1,0.2-0.3,0.2c-0.3,0-0.7-0.9-1.3-2.7c-0.2-0.4-0.6-8.6-1.2-10.4c-1-3.4-1.5-6.6-1.5-9.4
				c0-2.1,0.6-3.1,1.8-3.1c0.2,0,0.3,0.2,0.3,0.7c0,0.2,0,0.6-0.1,1.2c-0.1,0.7-0.1,1.2-0.1,1.7c0,0.6,0.1,1.3,0.4,2
				c0.3,0.7,0.6,1.4,0.9,2.1v0.2h-0.1c-0.3-0.1-0.6-0.4-0.9-1c-0.3-0.5-0.6-0.9-0.8-1c0.1,3,1.1,13.8,3,18.4L362.4,68.4z"/>
		</g>
		<g>
			<path class="st4" d="M9.2,40.1c0.3-0.4,0.7-0.5,1.1-0.5c0.3,0,0.6,0.2,0.8,0.7c0.2,0.4,0.4,0.9,0.4,1.4c0,0.4-0.1,0.7-0.4,1
				c-0.3,0.3-0.6,0.4-0.9,0.4c-1,0-1.5-0.5-1.5-1.6C8.7,40.9,8.9,40.5,9.2,40.1z M7,14.8l0.3,0.1c1.1,1,2.2,10.6,3.2,14.9
				c0.5,2.2,0.8,3.9,0.8,5.1s0,2-0.1,2.3c-0.2,0.5-0.4,0.9-0.5,1.1c-0.2,0.6-0.6,0.9-1.3,0.9c-0.3,0-0.5-0.2-0.5-0.5
				c0-0.2,0.1-0.5,0.2-1c0.1-0.5,0.2-0.8,0.2-1c0-1-0.1-1.9-0.4-2.6c-0.2-0.5-0.6-1.2-1.2-2.1l-0.1-0.3c0.2-0.1,0.3-0.1,0.3-0.1
				c0.3,0,0.7,0.4,1.1,1.1c0.5,0.9,0.9,1.4,1.1,1.5v-0.7c0-2-0.5-11.6-1.5-14.9c-0.5-1.7-1-2.8-1.3-3.3L7,15.1L7,14.8z M6.6,67.9
				c1.8-4.6,2.8-15.4,3-18.4c-0.2,0.1-0.4,0.4-0.8,1c-0.3,0.5-0.7,0.9-0.9,1H7.7v-0.2c0.3-0.7,0.6-1.4,0.9-2.1
				c0.3-0.7,0.4-1.4,0.4-2c0-0.5,0-1-0.1-1.7s-0.1-1.1-0.1-1.2c0-0.4,0.1-0.7,0.3-0.7c1.2,0,1.8,1,1.8,3.1c0,2.8-0.5,5.9-1.5,9.4
				c-0.6,1.8-1,9.9-1.2,10.4c-0.6,1.8-1.1,2.7-1.3,2.7c-0.2,0-0.2-0.1-0.3-0.2l0-0.3L6.6,67.9z"/>
		</g>
	</g>
	<path class="st5" d="M18.8,66.3c0,1.1,0.9,2,2,2h325.7c1.1,0,2-0.9,2-2V19.4c0-1.1-0.9-2-2-2H20.8c-1.1,0-2,0.9-2,2V66.3z"/>
	<path class="st6" d="M18.8,67.3c0,1.1,0.9,2,2,2h323.7"/>
	<path class="st7" d="M347.8,65.2V20.1c0.1-0.9-0.7-1.7-1.7-1.7H20"/>
</g>
</svg>
