<?xml version="1.0" encoding="utf-8"?>
<!-- Generator: Adobe Illustrator 24.1.3, SVG Export Plug-In . SVG Version: 6.00 Build 0)  -->
<svg version="1.1" id="Layer_1" xmlns="http://www.w3.org/2000/svg" xmlns:xlink="http://www.w3.org/1999/xlink" x="0px" y="0px"
	 viewBox="0 0 356 188" style="enable-background:new 0 0 356 188;" xml:space="preserve">
<style type="text/css">
	.st0{fill:none;stroke:#E1D5BE;stroke-width:4;stroke-miterlimit:10;}
	.st1{opacity:0.84;fill:#111629;stroke:#7D8499;stroke-miterlimit:10;}
	.st2{fill:#3E3E3E;}
	.st3{fill:#868978;}
	.st4{fill:#6B6F60;}
	.st5{fill:#909685;}
	.st6{fill:#475CA0;stroke:#000000;stroke-width:0.18;stroke-miterlimit:10;}
	.st7{fill:#CC9E2E;stroke:#000000;stroke-width:0.18;stroke-miterlimit:10;}
	.st8{fill:#3C4D87;stroke:#000000;stroke-width:0.18;stroke-miterlimit:10;}
	.st9{fill:#CD7629;}
	.st10{fill:#FEC111;stroke:#000000;stroke-width:0.54;stroke-miterlimit:10;}
	.st11{fill:#CD9E2E;}
	.st12{fill:#333132;stroke:#282829;stroke-width:1.08;stroke-miterlimit:10;}
	.st13{fill:#B21F25;}
	.st14{fill:none;stroke:#000000;stroke-width:0.72;stroke-miterlimit:10;}
	.st15{fill:#D1D3D4;}
	.st16{fill:none;stroke:#939598;stroke-width:0.54;stroke-miterlimit:10;}
	.st17{fill:#141414;stroke:#000000;stroke-width:0.54;stroke-miterlimit:10;}
	.st18{fill:#1E448A;}
	.st19{fill:#214185;}
	.st20{fill:#EDECEC;}
	.st21{fill:#D2D3D4;stroke:#000000;stroke-width:0.18;stroke-miterlimit:10;}
	.st22{fill:#D2D3D4;stroke:#000000;stroke-width:0.2242;stroke-miterlimit:10;}
</style>
<path class="st0" d="M93.5,54.2"/>
<g>
	<g>
		<path class="st1" d="M63.5,151h288.3V41.2H78.5c0,0,32.5,19.9,28.2,69.4C104.6,135.1,63.5,151,63.5,151z"/>
		<g>
			<path class="st2" d="M336.7,40.4h13.7c0,0,1.6-0.3,1.9,0.6c0.2,0.7,0.2,1.6,0.2,1.6v14.6c0,0-1.3-0.6-1.5-1.3
				c-0.1-0.7-1.1-2.2-1.1-2.2s2.2-2.4,1-3c-1.2-0.6-2.7,3.1-2.7,3.1s-1.5,0.1-1.6-1.6c-0.1-1.7-0.1-2.3-0.1-2.3s-2.9,0.4-3.6-1
				c-0.7-1.3-0.1-2.7-0.1-2.7s-1.1,0.2-2.4-0.4c-1.3-0.6-2.2-1.1-2.2-1.1s2.7-0.4,3.3-1.3c0.6-1,0.6-1.6,0.6-1.6s-0.7-0.8-1.5-0.2
				c-0.7,0.6-1.6,1.1-1.6,1.1L336.7,40.4z"/>
			<path class="st3" d="M336.9,40.2h13.7c0,0,1.6-0.3,1.9,0.6c0.2,0.7,0.2,1.6,0.2,1.6V57c0,0-1.3-0.6-1.5-1.3
				c-0.1-0.7-1.1-2.2-1.1-2.2s2.2-2.4,1-3s-2.7,3.1-2.7,3.1s-1.5,0.1-1.6-1.6c-0.1-1.7-0.1-2.3-0.1-2.3s-2.9,0.4-3.6-1
				c-0.7-1.3-0.1-2.7-0.1-2.7s-1.1,0.2-2.4-0.4c-1.3-0.6-2.2-1.1-2.2-1.1s2.7-0.4,3.3-1.3c0.6-1,0.6-1.6,0.6-1.6s-0.7-0.8-1.5-0.2
				s-1.6,1.1-1.6,1.1L336.9,40.2z"/>
			<path class="st2" d="M344.2,44.6c0,0,0.2-0.2,0.1-1.5c-0.1-1.2-1.1-2.1-1.1-2.1h7.4l-3.3,3.7c0,0-1.3-0.4-1.7-0.2
				C345.3,44.7,344.2,44.6,344.2,44.6z"/>
			<path class="st4" d="M344.4,44.4c0,0,0.2-0.2,0.1-1.3c-0.1-1.1-1-1.9-1-1.9h6.7l-2.9,3.4c0,0-1.2-0.3-1.5-0.2
				S344.4,44.4,344.4,44.4z"/>
			<path class="st2" d="M347.4,45.8c0,0,0.4,0.5,0.4,1.2c0,0.7,0.1,1.3,0.1,1.3s0.8-0.2,1.6,0s1.6,0.6,1.6,0.6s0.8-7,0.4-7
				C350.9,41.9,347.4,45.8,347.4,45.8z"/>
			<path class="st4" d="M347.7,45.9c0,0,0.3,0.4,0.3,1.1c0,0.7,0.1,1.2,0.1,1.2s0.8-0.2,1.4,0s1.4,0.5,1.4,0.5s0.8-6.3,0.3-6.3
				C350.9,42.4,347.7,45.9,347.7,45.9z"/>
			<path class="st2" d="M350.8,49.6c0,0-1.7,0-2.2,0.7c-0.5,0.7-0.1,2.1-0.1,2.1s-2.2-1.3-0.6-2.9C349.1,48.4,350.8,49.6,350.8,49.6
				z"/>
			<path class="st4" d="M350.2,49.7c0,0-1.2,0-1.6,0.7c-0.4,0.6-0.1,2-0.1,2s-1.6-1.2-0.4-2.7C348.9,48.5,350.2,49.7,350.2,49.7z"/>
			<path class="st2" d="M340.3,44.9c0,0,1.5-0.2,2.3-0.9c0.5-0.4,0.5-1.8,0.5-1.8s1.2,2.1-0.1,2.9C341.6,45.9,340.3,44.9,340.3,44.9
				z"/>
			<path class="st4" d="M340.9,44.9c0,0,1.2-0.2,1.8-0.7c0.4-0.3,0.4-1.5,0.4-1.5s1,1.7-0.1,2.3C341.9,45.7,340.9,44.9,340.9,44.9z"
				/>
			<path class="st2" d="M344,46c0.7-0.6,1.9-1.1,2.6-0.4c0.6,0.8,0.9,2.2,0.4,2.8s-2,1.1-2.7,0.2C343.4,47.7,343.5,46.4,344,46z"/>
			<path class="st4" d="M344.2,46c0.6-0.6,1.7-1,2.3-0.3c0.6,0.7,0.8,2,0.3,2.5c-0.5,0.6-1.8,1-2.5,0.2
				C343.7,47.6,343.7,46.4,344.2,46z"/>
			<circle class="st2" cx="339.4" cy="41.1" r="0.6"/>
			<circle class="st2" cx="351.6" cy="54.2" r="0.6"/>
			<circle class="st2" cx="351.7" cy="40.7" r="0.6"/>
			<circle class="st5" cx="339.5" cy="41.1" r="0.5"/>
			<circle class="st5" cx="351.5" cy="54.2" r="0.5"/>
			<circle class="st5" cx="351.7" cy="40.7" r="0.5"/>
		</g>
		<g>
			<path class="st2" d="M336.7,151.2h13.7c0,0,1.6,0.3,1.9-0.6c0.2-0.7,0.2-1.6,0.2-1.6v-14.6c0,0-1.3,0.6-1.5,1.3
				c-0.1,0.7-1.1,2.2-1.1,2.2s2.2,2.4,1,3c-1.2,0.6-2.7-3.1-2.7-3.1s-1.5-0.1-1.6,1.6c-0.1,1.7-0.1,2.3-0.1,2.3s-2.9-0.4-3.6,1
				c-0.7,1.3-0.1,2.7-0.1,2.7s-1.1-0.2-2.4,0.4c-1.3,0.6-2.2,1.1-2.2,1.1s2.7,0.4,3.3,1.3c0.6,1,0.6,1.6,0.6,1.6s-0.7,0.8-1.5,0.2
				c-0.7-0.6-1.6-1.1-1.6-1.1L336.7,151.2z"/>
			<path class="st3" d="M336.9,151.4h13.7c0,0,1.6,0.3,1.9-0.6c0.2-0.7,0.2-1.6,0.2-1.6v-14.6c0,0-1.3,0.6-1.5,1.3
				c-0.1,0.7-1.1,2.2-1.1,2.2s2.2,2.4,1,3s-2.7-3.1-2.7-3.1s-1.5-0.1-1.6,1.6c-0.1,1.7-0.1,2.3-0.1,2.3s-2.9-0.4-3.6,1
				c-0.7,1.3-0.1,2.7-0.1,2.7s-1.1-0.2-2.4,0.4s-2.2,1.1-2.2,1.1s2.7,0.4,3.3,1.3c0.6,1,0.6,1.6,0.6,1.6s-0.7,0.8-1.5,0.2
				s-1.6-1.1-1.6-1.1L336.9,151.4z"/>
			<path class="st2" d="M344.2,147.1c0,0,0.2,0.2,0.1,1.5c-0.1,1.2-1.1,2.1-1.1,2.1h7.4l-3.3-3.7c0,0-1.3,0.4-1.7,0.2
				C345.3,147,344.2,147.1,344.2,147.1z"/>
			<path class="st4" d="M344.4,147.3c0,0,0.2,0.2,0.1,1.3c-0.1,1.1-1,1.9-1,1.9h6.7l-2.9-3.4c0,0-1.2,0.3-1.5,0.2
				S344.4,147.3,344.4,147.3z"/>
			<path class="st2" d="M347.4,145.9c0,0,0.4-0.5,0.4-1.2c0-0.7,0.1-1.3,0.1-1.3s0.8,0.2,1.6,0s1.6-0.6,1.6-0.6s0.8,7,0.4,7
				C350.9,149.7,347.4,145.9,347.4,145.9z"/>
			<path class="st4" d="M347.7,145.8c0,0,0.3-0.4,0.3-1.1s0.1-1.2,0.1-1.2s0.8,0.2,1.4,0c0.7-0.2,1.4-0.5,1.4-0.5s0.8,6.3,0.3,6.3
				C350.9,149.3,347.7,145.8,347.7,145.8z"/>
			<path class="st2" d="M350.8,142.1c0,0-1.7,0-2.2-0.7c-0.5-0.7-0.1-2.1-0.1-2.1s-2.2,1.3-0.6,2.9
				C349.1,143.3,350.8,142.1,350.8,142.1z"/>
			<path class="st4" d="M350.2,142c0,0-1.2,0-1.6-0.7c-0.4-0.6-0.1-2-0.1-2s-1.6,1.2-0.4,2.7C348.9,143.1,350.2,142,350.2,142z"/>
			<path class="st2" d="M340.3,146.8c0,0,1.5,0.2,2.3,0.9c0.5,0.4,0.5,1.8,0.5,1.8s1.2-2.1-0.1-2.9
				C341.6,145.8,340.3,146.8,340.3,146.8z"/>
			<path class="st4" d="M340.9,146.8c0,0,1.2,0.2,1.8,0.7c0.4,0.3,0.4,1.5,0.4,1.5s1-1.7-0.1-2.3S340.9,146.8,340.9,146.8z"/>
			<path class="st2" d="M344,145.7c0.7,0.6,1.9,1.1,2.6,0.4c0.6-0.8,0.9-2.2,0.4-2.8s-2-1.1-2.7-0.2
				C343.4,144,343.5,145.2,344,145.7z"/>
			<path class="st4" d="M344.2,145.7c0.6,0.6,1.7,1,2.3,0.3c0.6-0.7,0.8-2,0.3-2.5c-0.5-0.6-1.8-1-2.5-0.2
				C343.7,144.1,343.7,145.2,344.2,145.7z"/>
			<circle class="st2" cx="339.4" cy="150.5" r="0.6"/>
			<circle class="st2" cx="351.6" cy="137.5" r="0.6"/>
			<circle class="st2" cx="351.7" cy="150.9" r="0.6"/>
			<circle class="st5" cx="339.5" cy="150.5" r="0.5"/>
			<circle class="st5" cx="351.5" cy="137.5" r="0.5"/>
			<circle class="st5" cx="351.7" cy="150.9" r="0.5"/>
		</g>
	</g>
	<g>
		<rect x="55.2" y="141.2" class="st6" width="11.5" height="23"/>
		<path class="st7" d="M2.7,94.6c0-32,25.9-57.9,57.9-57.9s57.9,25.9,57.9,57.9s-25.9,57.9-57.9,57.9S2.7,126.6,2.7,94.6z
			 M60.7,144.4c27.5,0,49.8-22.3,49.8-49.8S88.2,44.8,60.7,44.8S10.8,67.1,10.8,94.6S33.1,144.4,60.7,144.4z"/>
		<path class="st8" d="M5,94.6C5,63.9,29.9,39,60.7,39s55.6,24.9,55.6,55.6s-24.9,55.6-55.6,55.6S5,125.3,5,94.6z M60.6,136.8
			c23.3,0,42.3-18.9,42.3-42.3S83.9,52.2,60.6,52.2S18.3,71.2,18.3,94.5S37.3,136.8,60.6,136.8z"/>
		<g>
			<path class="st7" d="M63.4,164.3c0.5-0.8-0.1-9.6,4.5-9.2c4.1,0.4,4,2.4,3.7,3.7c-0.3,1.3-2,1.5-2,1.5s-1.5,0.2-1.2,3.5
				c0.2,3.4-0.7,6.4-1.4,7.4c-1.2,1.9-3.2,2.4-3.2,2.4s0.4,0.4,0.1,1.3c-0.3,1.2-1.4,1.4-1.4,1.4s2.3,1.3,1.4,4.2
				c-1,2.9-2.8,6.1-2.8,6.1h-0.1c0,0-1.9-3.2-2.8-6.1s1.4-4.2,1.4-4.2s-1.1-0.3-1.4-1.4c-0.2-0.8,0.1-1.3,0.1-1.3s-2-0.4-3.2-2.4
				c-0.6-1-1.6-4.1-1.4-7.4c0.2-3.4-1.2-3.5-1.2-3.5s-1.8-0.2-2-1.5c-0.3-1.3-0.4-3.3,3.7-3.7c4.6-0.4,4.4,10.2,4.5,9.2
				c0,0,0,0.2,0.3,0c0.3-0.2,0.4-4.9,2.1-5s2.1,4.8,2.2,4.9C63.2,164.5,63.3,164.6,63.4,164.3z"/>
			<path class="st9" d="M61.6,176.3c0,0,1.2,1,0.7,3.4c-0.5,2.3-1.5,4.9-1.5,4.9h-0.1c0,0-1-2.6-1.5-4.9c-0.5-2.3,0.7-3.4,0.7-3.4"
				/>
			<path class="st9" d="M52,157.6c0,0,1-0.9,2-0.5c1,0.4,1.6,1.3,1.8,3.2c0.2,1.8,0.5,3.3,0.5,4.5c0,1.2,0.2,1.8-0.2,1.8
				c-0.4,0-0.6-0.6-0.7-0.3c0,0.3-0.2,0.7,0,0.8s0.7-0.3,1,0.1c0.4,0.4,0.4,1.5,0.6,2s1.6,2.4,1.6,2.4s-1.4-2.2-1.2-3.3
				c0.2-1.1,0-2,0.2-2.6c0.2-0.6,0.6-0.5,0.6-0.2s-0.1,0.1,0.5,0.4c0.6,0.2,0.8,1,0.6,1.1c-0.2,0.1-0.6-0.9-1-0.7
				c-0.4,0.2-0.6,1.5-0.4,2.6c0.2,1,1.2,2.8,1.4,3c0.2,0.2-1.2,0.4-1.4,0c-0.3-0.3-1.2-2-1.2-2.3c-0.1-0.3-0.4-2.1-0.6-2.1
				s-0.4,0.2-0.4,0.8c0.1,0.5,0.5,1.4,0.5,1.4s-1.4-1.4-1.4-2.3c0-0.9,0-1.8,0.3-2c0.3-0.2,0.4-0.8,0.4-1.5c0-0.7,0.4-1-0.2-1.2
				c-0.5-0.2-0.8-1.6-1.1-2.1c-0.4-0.5-0.7-0.3-0.7-0.3l-0.3-0.3c0,0,0.8-0.2,0.6-1.2S52,157.6,52,157.6z"/>
			<path class="st9" d="M69.4,157.6c0,0-1-0.9-2-0.5c-1,0.4-1.6,1.3-1.8,3.2c-0.2,1.8-0.5,3.3-0.5,4.5c0,1.2-0.2,1.8,0.2,1.8
				c0.4,0,0.6-0.6,0.7-0.3c0,0.3,0.2,0.7,0,0.8c-0.2,0-0.7-0.3-1,0.1c-0.4,0.4-0.4,1.5-0.6,2c-0.2,0.5-1.6,2.4-1.6,2.4
				s1.4-2.2,1.2-3.3s0-2-0.2-2.6s-0.6-0.5-0.6-0.2s0.1,0.1-0.5,0.4c-0.6,0.2-0.8,1-0.6,1.1c0.2,0.1,0.6-0.9,1-0.7s0.6,1.5,0.4,2.6
				c-0.2,1-1.2,2.8-1.4,3s1.2,0.4,1.4,0c0.3-0.3,1.2-2,1.2-2.3c0.1-0.3,0.4-2.1,0.6-2.1c0.2,0,0.4,0.2,0.4,0.8
				c-0.1,0.5-0.5,1.4-0.5,1.4s1.4-1.4,1.4-2.3c0-0.9,0-1.8-0.3-2c-0.3-0.2-0.4-0.8-0.4-1.5c0-0.7-0.4-1,0.2-1.2
				c0.5-0.2,0.8-1.6,1.1-2.1c0.4-0.5,0.7-0.3,0.7-0.3l0.3-0.3c0,0-0.8-0.2-0.6-1.2S69.4,157.6,69.4,157.6z"/>
		</g>
		<g>
			<path class="st7" d="M12.8,79.7c0.6,0.1,1,0.5,1.3,1c0.3,0.5,0.4,1.1,0.2,1.6c-0.1,0.6-0.5,1-1,1.3c-0.5,0.3-1.1,0.4-1.6,0.2
				c-0.4-0.1-0.7-0.3-1-0.5c-0.3-0.3-0.5-0.6-0.6-0.9c-0.1-0.4-0.1-0.7,0-1.1c0.1-0.4,0.3-0.7,0.5-1s0.6-0.5,1-0.6
				C12.1,79.6,12.5,79.6,12.8,79.7z"/>
			<path class="st7" d="M16.6,70.5c0.5,0.3,0.9,0.7,1.1,1.2c0.2,0.6,0.2,1.1-0.1,1.6c-0.3,0.5-0.7,0.9-1.2,1.1
				c-0.6,0.2-1.1,0.2-1.6-0.1c-0.3-0.2-0.6-0.4-0.8-0.7c-0.2-0.3-0.3-0.7-0.4-1c0-0.4,0-0.7,0.2-1.1c0.2-0.3,0.4-0.6,0.7-0.8
				c0.3-0.2,0.7-0.3,1-0.4S16.2,70.4,16.6,70.5z"/>
			<path class="st7" d="M22,62.3c0.5,0.3,0.8,0.8,0.8,1.4c0.1,0.6,0,1.1-0.4,1.6c-0.3,0.5-0.8,0.7-1.4,0.8c-0.6,0.1-1.1,0-1.6-0.4
				c-0.3-0.2-0.5-0.5-0.7-0.9s-0.2-0.7-0.2-1.1c0-0.4,0.2-0.7,0.4-1c0.2-0.3,0.5-0.5,0.9-0.7s0.7-0.2,1.1-0.2
				C21.4,61.9,21.7,62.1,22,62.3z"/>
			<path class="st7" d="M28.9,55.3c0.4,0.4,0.6,0.9,0.6,1.5c0,0.6-0.3,1.1-0.7,1.5c-0.4,0.4-0.9,0.6-1.5,0.5s-1.1-0.3-1.5-0.7
				c-0.3-0.3-0.4-0.6-0.5-1c-0.1-0.4-0.1-0.7,0.1-1.1c0.1-0.4,0.3-0.7,0.6-0.9c0.3-0.3,0.6-0.4,1-0.5c0.4-0.1,0.7-0.1,1.1,0.1
				S28.7,55,28.9,55.3z"/>
			<path class="st7" d="M37.1,49.7c0.3,0.5,0.4,1,0.2,1.6c-0.1,0.6-0.5,1-1,1.3c-0.5,0.3-1,0.4-1.6,0.2c-0.6-0.1-1-0.5-1.3-1
				c-0.2-0.3-0.3-0.7-0.3-1.1c0-0.4,0.1-0.7,0.3-1.1s0.4-0.6,0.8-0.8c0.3-0.2,0.7-0.3,1.1-0.3s0.7,0.1,1.1,0.3
				C36.7,49.1,36.9,49.4,37.1,49.7z"/>
			<path class="st7" d="M46.2,45.8c0.2,0.6,0.2,1.1-0.1,1.6c-0.3,0.5-0.7,0.9-1.2,1.1c-0.6,0.2-1.1,0.2-1.6-0.1
				c-0.5-0.3-0.9-0.7-1.1-1.2c-0.1-0.4-0.2-0.7-0.1-1.1c0.1-0.4,0.2-0.7,0.5-1s0.5-0.5,0.9-0.6c0.4-0.1,0.7-0.2,1.1-0.1
				c0.4,0.1,0.7,0.2,1,0.5C45.9,45.2,46.1,45.5,46.2,45.8z"/>
			<path class="st7" d="M55.9,43.8c0.1,0.6,0,1.1-0.4,1.6s-0.8,0.8-1.4,0.9c-0.6,0.1-1.1-0.1-1.6-0.4c-0.5-0.4-0.8-0.8-0.8-1.4
				c-0.1-0.4,0-0.7,0.1-1.1c0.1-0.4,0.4-0.6,0.7-0.9c0.3-0.2,0.6-0.4,1-0.4c0.4-0.1,0.7,0,1.1,0.1c0.4,0.1,0.7,0.4,0.9,0.7
				C55.7,43.1,55.9,43.5,55.9,43.8z"/>
			<path class="st7" d="M65.8,43.8c0,0.6-0.3,1.1-0.7,1.5c-0.4,0.4-1,0.6-1.6,0.6c-0.6,0-1.1-0.3-1.5-0.7c-0.4-0.4-0.6-1-0.6-1.5
				c0-0.4,0.1-0.7,0.3-1.1c0.2-0.3,0.5-0.6,0.8-0.7c0.3-0.2,0.7-0.3,1.1-0.2c0.4,0,0.7,0.1,1.1,0.3c0.3,0.2,0.6,0.5,0.7,0.8
				C65.7,43,65.8,43.4,65.8,43.8z"/>
			<path class="st7" d="M75.5,45.6c-0.1,0.6-0.5,1-1,1.3c-0.5,0.3-1.1,0.4-1.6,0.3c-0.6-0.1-1-0.5-1.3-1c-0.3-0.5-0.4-1.1-0.2-1.6
				c0.1-0.4,0.3-0.7,0.5-1s0.6-0.5,0.9-0.6c0.4-0.1,0.7-0.1,1.1,0c0.4,0.1,0.7,0.3,1,0.5c0.3,0.3,0.5,0.6,0.6,0.9
				S75.6,45.2,75.5,45.6z"/>
			<path class="st7" d="M84.7,49.3c-0.2,0.5-0.7,0.9-1.2,1.1s-1.1,0.2-1.6-0.1c-0.5-0.2-0.9-0.7-1.1-1.2c-0.2-0.6-0.2-1.1,0.1-1.6
				c0.2-0.3,0.4-0.6,0.7-0.8c0.3-0.2,0.7-0.3,1-0.4c0.4,0,0.7,0,1.1,0.2c0.3,0.2,0.6,0.4,0.8,0.7c0.2,0.3,0.3,0.7,0.4,1
				S84.8,49,84.7,49.3z"/>
			<path class="st7" d="M92.9,54.7c-0.3,0.5-0.8,0.8-1.4,0.8c-0.6,0.1-1.1,0-1.6-0.4c-0.5-0.3-0.7-0.8-0.8-1.4
				c-0.1-0.6,0-1.1,0.4-1.6c0.2-0.3,0.5-0.5,0.9-0.7c0.4-0.2,0.7-0.2,1.1-0.2c0.4,0,0.7,0.2,1,0.4c0.3,0.2,0.5,0.5,0.7,0.9
				c0.2,0.3,0.2,0.7,0.2,1.1S93.2,54.4,92.9,54.7z"/>
			<path class="st7" d="M100,61.7c-0.4,0.4-0.9,0.6-1.5,0.6c-0.6,0-1.1-0.3-1.5-0.7c-0.4-0.4-0.6-0.9-0.5-1.5s0.3-1.1,0.7-1.5
				c0.3-0.3,0.6-0.4,1-0.5c0.4-0.1,0.7-0.1,1.1,0.1s0.7,0.3,0.9,0.6c0.3,0.3,0.4,0.6,0.5,1c0.1,0.4,0.1,0.7,0,1.1
				C100.5,61.1,100.3,61.4,100,61.7z"/>
			<path class="st7" d="M105.6,69.8c-0.5,0.3-1,0.4-1.6,0.2c-0.6-0.1-1-0.5-1.3-1c-0.3-0.5-0.4-1-0.2-1.6c0.1-0.6,0.5-1,1-1.3
				c0.3-0.2,0.7-0.3,1.1-0.3c0.4,0,0.7,0.1,1.1,0.3c0.3,0.2,0.6,0.4,0.8,0.8c0.2,0.3,0.3,0.7,0.3,1.1c0,0.4-0.1,0.7-0.3,1.1
				C106.1,69.4,105.9,69.6,105.6,69.8z"/>
			<path class="st7" d="M109.4,78.9c-0.6,0.2-1.1,0.2-1.6-0.1c-0.5-0.2-0.9-0.7-1.1-1.2c-0.2-0.6-0.2-1.1,0.1-1.6
				c0.3-0.5,0.7-0.9,1.2-1.1c0.4-0.1,0.7-0.2,1.1-0.1s0.7,0.2,1,0.5c0.3,0.2,0.5,0.5,0.6,0.9c0.1,0.4,0.2,0.7,0.1,1.1
				s-0.2,0.7-0.5,1C110.1,78.6,109.8,78.8,109.4,78.9z"/>
			<path class="st7" d="M111.5,88.6c-0.6,0.1-1.1,0-1.6-0.4s-0.8-0.8-0.9-1.4c-0.1-0.6,0-1.1,0.4-1.6s0.8-0.8,1.4-0.8
				c0.4-0.1,0.7,0,1.1,0.1c0.4,0.1,0.7,0.4,0.9,0.7c0.2,0.3,0.4,0.6,0.4,1c0.1,0.4,0,0.7-0.1,1.1c-0.1,0.4-0.4,0.7-0.7,0.9
				C112.2,88.4,111.8,88.5,111.5,88.6z"/>
			<path class="st7" d="M111.6,98.5c-0.6,0-1.1-0.3-1.5-0.7c-0.4-0.4-0.6-1-0.6-1.5c0-0.6,0.3-1.1,0.7-1.5c0.4-0.4,1-0.6,1.5-0.6
				c0.4,0,0.7,0.1,1.1,0.3c0.3,0.2,0.6,0.5,0.7,0.8c0.2,0.3,0.3,0.7,0.2,1.1c0,0.4-0.1,0.7-0.3,1.1s-0.5,0.6-0.8,0.8
				C112.3,98.4,111.9,98.5,111.6,98.5z"/>
			<path class="st7" d="M109.8,108.2c-0.6-0.1-1-0.5-1.3-1c-0.3-0.5-0.4-1.1-0.3-1.6c0.1-0.6,0.5-1,1-1.3c0.5-0.3,1.1-0.4,1.6-0.3
				c0.4,0.1,0.7,0.3,1,0.5c0.3,0.3,0.5,0.6,0.6,0.9c0.1,0.4,0.1,0.7,0,1.1c-0.1,0.4-0.3,0.7-0.5,1s-0.6,0.5-0.9,0.6
				S110.1,108.3,109.8,108.2z"/>
			<path class="st7" d="M106.1,117.4c-0.5-0.2-0.9-0.7-1.1-1.2c-0.2-0.6-0.2-1.1,0.1-1.6c0.2-0.5,0.7-0.9,1.2-1.1
				c0.6-0.2,1.1-0.2,1.6,0.1c0.3,0.2,0.6,0.4,0.8,0.7c0.2,0.3,0.3,0.7,0.4,1s0,0.7-0.2,1.1c-0.2,0.3-0.4,0.6-0.7,0.9
				c-0.3,0.2-0.7,0.3-1,0.4C106.8,117.6,106.4,117.5,106.1,117.4z"/>
			<path class="st7" d="M100.7,125.7c-0.5-0.3-0.8-0.8-0.8-1.4c-0.1-0.6,0-1.1,0.4-1.6c0.3-0.5,0.8-0.8,1.4-0.8
				c0.6-0.1,1.1,0,1.6,0.4c0.3,0.2,0.5,0.5,0.7,0.9c0.2,0.4,0.2,0.7,0.2,1.1c0,0.4-0.2,0.7-0.4,1c-0.2,0.3-0.5,0.5-0.9,0.7
				c-0.3,0.2-0.7,0.2-1.1,0.2S101,125.9,100.7,125.7z"/>
			<path class="st7" d="M93.7,132.7c-0.4-0.4-0.6-0.9-0.6-1.5c0-0.6,0.3-1.1,0.7-1.5c0.4-0.4,0.9-0.6,1.5-0.5c0.6,0,1.1,0.3,1.5,0.7
				c0.3,0.3,0.4,0.6,0.5,1s0.1,0.7-0.1,1.1c-0.1,0.4-0.3,0.7-0.6,0.9c-0.3,0.3-0.6,0.4-1,0.5s-0.7,0.1-1.1,0S94,133,93.7,132.7z"/>
			<path class="st7" d="M85.6,138.3c-0.3-0.5-0.4-1-0.2-1.6c0.1-0.6,0.5-1,1-1.3c0.5-0.3,1-0.4,1.6-0.2c0.6,0.1,1,0.5,1.3,1
				c0.2,0.3,0.3,0.7,0.3,1.1c0,0.4-0.1,0.7-0.3,1.1c-0.2,0.3-0.4,0.6-0.8,0.8c-0.3,0.2-0.7,0.3-1.1,0.3c-0.4,0-0.7-0.1-1.1-0.3
				S85.8,138.7,85.6,138.3z"/>
			<path class="st7" d="M76.5,142.2c-0.2-0.6-0.2-1.1,0.1-1.6c0.2-0.5,0.7-0.9,1.2-1.1c0.5-0.2,1.1-0.2,1.6,0.1
				c0.5,0.3,0.9,0.7,1.1,1.2c0.1,0.4,0.2,0.7,0.1,1.1s-0.2,0.7-0.5,1c-0.2,0.3-0.5,0.5-0.9,0.6c-0.4,0.1-0.7,0.2-1.1,0.1
				s-0.7-0.2-1-0.5C76.9,142.9,76.6,142.6,76.5,142.2z"/>
			<path class="st7" d="M66.8,144.3c-0.1-0.6,0-1.1,0.4-1.6s0.8-0.8,1.4-0.9c0.6-0.1,1.1,0,1.6,0.4c0.5,0.4,0.8,0.8,0.9,1.4
				c0.1,0.4,0,0.7-0.1,1.1c-0.1,0.4-0.4,0.7-0.7,0.9c-0.3,0.2-0.6,0.4-1,0.4c-0.4,0.1-0.7,0-1.1-0.1s-0.7-0.4-0.9-0.7
				C67.1,145,66.9,144.6,66.8,144.3z"/>
			<path class="st7" d="M57,144.4c0-0.6,0.3-1.1,0.7-1.5c0.4-0.4,1-0.6,1.5-0.6c0.6,0,1.1,0.3,1.5,0.7c0.4,0.4,0.6,1,0.6,1.5
				c0,0.4-0.1,0.7-0.3,1.1c-0.2,0.3-0.5,0.6-0.8,0.7s-0.7,0.3-1.1,0.2c-0.4,0-0.7-0.1-1.1-0.3s-0.6-0.5-0.8-0.8
				C57,145.1,56.9,144.8,57,144.4z"/>
			<path class="st7" d="M47.2,142.6c0.1-0.6,0.5-1,1-1.3c0.5-0.3,1.1-0.4,1.6-0.3c0.6,0.1,1,0.5,1.3,1c0.3,0.5,0.4,1.1,0.3,1.6
				c-0.1,0.4-0.3,0.7-0.5,1c-0.3,0.3-0.6,0.5-0.9,0.6c-0.4,0.1-0.7,0.1-1.1,0c-0.4-0.1-0.7-0.3-1-0.5s-0.5-0.6-0.6-0.9
				C47.2,143.3,47.2,143,47.2,142.6z"/>
			<path class="st7" d="M38.1,138.9c0.2-0.5,0.6-0.9,1.2-1.1c0.6-0.2,1.1-0.2,1.6,0.1c0.5,0.2,0.9,0.7,1.1,1.2
				c0.2,0.6,0.2,1.1-0.1,1.6c-0.2,0.3-0.4,0.6-0.7,0.9c-0.3,0.2-0.7,0.3-1,0.4s-0.7,0-1.1-0.2c-0.3-0.2-0.6-0.4-0.9-0.7
				s-0.3-0.7-0.4-1C37.8,139.7,37.9,139.3,38.1,138.9z"/>
			<path class="st7" d="M29.8,133.6c0.3-0.5,0.8-0.8,1.4-0.9c0.6-0.1,1.1,0,1.6,0.4c0.5,0.3,0.8,0.8,0.8,1.4c0.1,0.6,0,1.1-0.4,1.6
				c-0.2,0.3-0.5,0.5-0.9,0.7c-0.4,0.2-0.7,0.2-1.1,0.2c-0.4,0-0.7-0.2-1-0.4c-0.3-0.2-0.5-0.5-0.7-0.9s-0.2-0.7-0.2-1.1
				C29.4,134.2,29.5,133.9,29.8,133.6z"/>
			<path class="st7" d="M22.7,126.7c0.4-0.4,0.9-0.6,1.5-0.6c0.6,0,1.1,0.3,1.5,0.7c0.4,0.4,0.6,0.9,0.6,1.5c0,0.6-0.3,1.1-0.7,1.5
				c-0.3,0.3-0.6,0.4-1,0.5c-0.4,0.1-0.7,0.1-1.1,0s-0.7-0.3-0.9-0.6c-0.3-0.3-0.4-0.6-0.5-1c-0.1-0.4-0.1-0.7,0-1.1
				C22.2,127.2,22.4,126.9,22.7,126.7z"/>
			<path class="st7" d="M17.1,118.5c0.5-0.3,1-0.4,1.6-0.3c0.6,0.1,1,0.5,1.3,1c0.3,0.5,0.4,1,0.2,1.6c-0.1,0.6-0.5,1-1,1.3
				c-0.3,0.2-0.7,0.3-1.1,0.3c-0.4,0-0.7-0.1-1.1-0.3c-0.3-0.2-0.6-0.4-0.8-0.8c-0.2-0.3-0.3-0.7-0.3-1.1c0-0.4,0.1-0.7,0.3-1.1
				S16.7,118.7,17.1,118.5z"/>
			<path class="st7" d="M13.1,109.4c0.5-0.2,1.1-0.2,1.6,0.1c0.5,0.2,0.9,0.7,1.1,1.2c0.2,0.5,0.2,1.1-0.1,1.6
				c-0.3,0.5-0.7,0.9-1.2,1.1c-0.4,0.1-0.7,0.2-1.1,0.1c-0.4-0.1-0.7-0.2-1-0.5c-0.3-0.2-0.5-0.5-0.6-0.9c-0.1-0.4-0.2-0.7-0.1-1.1
				c0.1-0.4,0.2-0.7,0.5-1C12.5,109.8,12.8,109.6,13.1,109.4z"/>
			<path class="st7" d="M11.1,99.8c0.6-0.1,1.1,0,1.6,0.4c0.5,0.3,0.8,0.8,0.9,1.4c0.1,0.6,0,1.1-0.4,1.6c-0.4,0.5-0.8,0.8-1.4,0.9
				c-0.4,0.1-0.7,0-1.1-0.1c-0.4-0.1-0.7-0.4-0.9-0.7s-0.4-0.6-0.4-1c-0.1-0.4,0-0.7,0.1-1.1c0.1-0.4,0.4-0.7,0.7-0.9
				C10.4,100,10.7,99.8,11.1,99.8z"/>
			<path class="st7" d="M10.9,89.9c0.6,0,1.1,0.3,1.5,0.7c0.4,0.4,0.6,1,0.6,1.5c0,0.6-0.3,1.1-0.7,1.5c-0.4,0.4-1,0.6-1.5,0.6
				c-0.4,0-0.7-0.1-1.1-0.3c-0.3-0.2-0.6-0.5-0.7-0.8c-0.2-0.3-0.3-0.7-0.2-1.1c0-0.4,0.1-0.7,0.3-1.1c0.2-0.3,0.5-0.6,0.8-0.8
				C10.2,90,10.5,89.9,10.9,89.9z"/>
		</g>
		<path class="st0" d="M93.5,54.2"/>
		<path class="st7" d="M18.3,94.5c0-23.3,18.9-42.3,42.3-42.3s42.3,18.9,42.3,42.3s-18.9,42.3-42.3,42.3S18.3,117.8,18.3,94.5z
			 M60.6,134.2c21.9,0,39.7-17.8,39.7-39.7S82.5,54.8,60.6,54.8S20.9,72.5,20.9,94.5S38.6,134.2,60.6,134.2z"/>
		<g>
			<g>
				<path class="st10" d="M60.7,1.5c1.7,0,4.1,1.9,4.5,3.8s-1.4,3.4-1.4,3.4s2.9,0.2,4.5,0.7c1.7,0.5,4.1,1.4,4.1,1.4
					s18.7-2.9,21.8,9.3c1.3,5.2-0.5,6.7-0.5,6.7s2.9,0.5,4.8,1.7s-1.2,4.3-2.6,4.8s0.2-2.2,0.2-2.2s-1.7,0.5-2.6,1.4
					c-1,1-2.9,1.2-3.8,1.9s-2.9,3.4-2.9,3.4s1,1.2,1.4,2.4c0.5,1.2-3.4,1.4-3.4,1.4l-1.7,5.7l1.7,1.2H36.5l1.7-1.2l-1.7-5.7
					c0,0-3.8-0.2-3.4-1.4c0.5-1.2,1.4-2.4,1.4-2.4s-1.9-2.6-2.9-3.4s-2.9-1-3.8-1.9s-2.6-1.4-2.6-1.4s1.7,2.6,0.2,2.2
					c-1.4-0.5-4.5-3.6-2.6-4.8s4.8-1.7,4.8-1.7s-1.8-1.5-0.5-6.7c3.1-12.2,21.8-9.3,21.8-9.3s2.4-1,4.1-1.4c1.7-0.5,4.5-0.7,4.5-0.7
					s-1.9-1.4-1.4-3.4S59,1.5,60.7,1.5 M45.6,12c0,0-13.6,1-14.6,8.4c-0.8,6,0.7,5.7,0.7,5.7s4.5,1.7,4.8,4.5s-1.7,4.1-1.7,4.1
					s1.1,1.8,4.3,1.4c3.8-0.5,4.3-3.4,4.3-3.4s-5.3-1.2-5.5-4.8s2.4-5.7,2.4-5.7s-0.5-2.9,1.7-5.5S45.6,12,45.6,12z M58,10.6
					c0,0-8.4,0-10.1,4.1c-1.5,3.7-1.9,6.9-1.9,6.9s4.5,1.7,4.1,5S47,30.7,47,30.7s1.9,3.4,5,3.1s5.3-2.2,5.3-2.2s-5-2.9-4.3-5.3
					s3.6-6.5,3.6-6.5L58,10.6z M65.1,19.9c0,0,2.9,4.1,3.6,6.5c0.7,2.4-4.3,5.3-4.3,5.3s2.2,1.9,5.3,2.2c3.1,0.2,5-3.1,5-3.1
					S72,30,71.6,26.6s4.1-5,4.1-5s-0.4-3.2-1.9-6.9c-1.7-4.1-10.1-4.1-10.1-4.1L65.1,19.9z M79.7,16.8c2.2,2.6,1.7,5.5,1.7,5.5
					s2.6,2.2,2.4,5.7c-0.2,3.6-5.5,4.8-5.5,4.8s0.5,2.9,4.3,3.4c3.2,0.4,4.3-1.4,4.3-1.4s-1.9-1.2-1.7-4.1c0.2-2.9,4.8-4.5,4.8-4.5
					s1.5,0.2,0.7-5.7C89.8,13,76.1,12,76.1,12S77.6,14.2,79.7,16.8z"/>
			</g>
			<g>
				<path class="st11" d="M60.7,1.5c1.7,0,4.1,1.9,4.5,3.8s-1.4,3.4-1.4,3.4s2.9,0.2,4.5,0.7c1.7,0.5,4.1,1.4,4.1,1.4
					s18.7-2.9,21.8,9.3c1.3,5.2-0.5,6.7-0.5,6.7s2.9,0.5,4.8,1.7s-1.2,4.3-2.6,4.8s0.2-2.2,0.2-2.2s-1.7,0.5-2.6,1.4
					c-1,1-2.9,1.2-3.8,1.9s-2.9,3.4-2.9,3.4s1,1.2,1.4,2.4c0.5,1.2-3.4,1.4-3.4,1.4l-1.7,5.7l1.7,1.2H36.5l1.7-1.2l-1.7-5.7
					c0,0-3.8-0.2-3.4-1.4c0.5-1.2,1.4-2.4,1.4-2.4s-1.9-2.6-2.9-3.4s-2.9-1-3.8-1.9s-2.6-1.4-2.6-1.4s1.7,2.6,0.2,2.2
					c-1.4-0.5-4.5-3.6-2.6-4.8s4.8-1.7,4.8-1.7s-1.8-1.5-0.5-6.7c3.1-12.2,21.8-9.3,21.8-9.3s2.4-1,4.1-1.4c1.7-0.5,4.5-0.7,4.5-0.7
					s-1.9-1.4-1.4-3.4S59,1.5,60.7,1.5 M45.6,12c0,0-13.6,1-14.6,8.4c-0.8,6,0.7,5.7,0.7,5.7s4.5,1.7,4.8,4.5s-1.7,4.1-1.7,4.1
					s1.1,1.8,4.3,1.4c3.8-0.5,4.3-3.4,4.3-3.4s-5.3-1.2-5.5-4.8s2.4-5.7,2.4-5.7s-0.5-2.9,1.7-5.5S45.6,12,45.6,12z M58,10.6
					c0,0-8.4,0-10.1,4.1c-1.5,3.7-1.9,6.9-1.9,6.9s4.5,1.7,4.1,5S47,30.7,47,30.7s1.9,3.4,5,3.1s5.3-2.2,5.3-2.2s-5-2.9-4.3-5.3
					s3.6-6.5,3.6-6.5L58,10.6z M65.1,19.9c0,0,2.9,4.1,3.6,6.5c0.7,2.4-4.3,5.3-4.3,5.3s2.2,1.9,5.3,2.2c3.1,0.2,5-3.1,5-3.1
					S72,30,71.6,26.6s4.1-5,4.1-5s-0.4-3.2-1.9-6.9c-1.7-4.1-10.1-4.1-10.1-4.1L65.1,19.9z M79.7,16.8c2.2,2.6,1.7,5.5,1.7,5.5
					s2.6,2.2,2.4,5.7c-0.2,3.6-5.5,4.8-5.5,4.8s0.5,2.9,4.3,3.4c3.2,0.4,4.3-1.4,4.3-1.4s-1.9-1.2-1.7-4.1c0.2-2.9,4.8-4.5,4.8-4.5
					s1.5,0.2,0.7-5.7C89.8,13,76.1,12,76.1,12S77.6,14.2,79.7,16.8z"/>
				<polyline class="st9" points="84.2,44 83.2,47.6 84.9,48.8 36.4,48.8 38.1,47.6 37,44 				"/>
				<path class="st9" d="M88.1,40.3c0.5,1.2-3.4,1.4-3.4,1.4H36.4c0,0-3.8-0.2-3.4-1.4H88.1z"/>
			</g>
		</g>
		<g>
			<g>
				<path class="st12" d="M61.4,138.7c0,0,15.2-7.2,26.3-21.6c9.9-12.8,10.4-29.5,10.4-29.5V49.4H24.2v38.3c0,0,0.5,16.7,10.4,29.5
					c11.1,14.4,26.3,21.6,26.3,21.6H61.4z"/>
			</g>
			<g>
				<path class="st11" d="M60.8,137.6c0,0,15.2-7.2,26.3-21.6c9.9-12.8,10.4-29.5,10.4-29.5V48.3H23.7v38.3c0,0,0.5,16.7,10.4,29.5
					c11.1,14.4,26.3,21.6,26.3,21.6H60.8z"/>
				<path class="st13" d="M60.7,134c0,0,14-6.6,24.2-19.9c9.1-11.8,9.5-27.1,9.5-27.1V51.8H26.6V87c0,0,0.4,15.3,9.5,27.1
					C46.3,127.4,60.3,134,60.3,134H60.7z"/>
				<path class="st14" d="M94.5,51.8H26.6V87c0,0,0.4,15.3,9.5,27.1C46.3,127.4,60.3,134,60.3,134"/>
				<path class="st15" d="M60.7,124.1c0,0,10.6-5,18.4-15.1c6.9-9,7.2-20.6,7.2-20.6V59.1H34.7v29.3c0,0,0.3,11.6,7.2,20.6
					c7.8,10.1,18.4,15.1,18.4,15.1H60.7z"/>
				<path class="st16" d="M86.3,59.1H34.7v29.3c0,0,0.3,11.6,7.2,20.6c7.8,10.1,18.4,15.1,18.4,15.1"/>
			</g>
			<g>
				<g>
					<path class="st17" d="M72.1,79.8c-0.3,0.2-0.4,0.3-0.5,0.3c0,0-0.1,0.1-0.2,0.2c-0.1,0.1-0.2,0.3-0.3,0.5
						c-0.1,0.2-0.3,0.4-0.4,0.7c-0.1,0.3-0.3,0.7-0.4,1.1c-0.2,0.8-0.5,1.6-0.9,2.5c-0.3,0.9-0.7,1.9-1,2.9c-0.3,1-0.7,2-1,3
						c-0.3,1-0.7,1.9-1,2.8l-1,2.2h-0.2c-0.4-1.1-0.8-2.2-1.2-3.2c-0.4-1-0.7-2-1-3c-0.3-0.9-0.7-1.9-1-2.8c-0.3-0.9-0.6-1.8-1-2.6
						c-0.2,0.7-0.5,1.5-0.8,2.3c-0.3,0.8-0.6,1.6-0.8,2.4c-0.3,0.8-0.6,1.6-0.8,2.4c-0.3,0.8-0.6,1.5-0.8,2.3l-1,2.3h-0.3
						c-0.5-1.3-0.9-2.5-1.4-3.6c-0.4-1.1-0.8-2.2-1.2-3.3c-0.4-1-0.8-2.1-1.2-3.1c-0.4-1-0.7-2-1.1-3c-0.1-0.3-0.2-0.6-0.3-0.8
						c-0.1-0.2-0.2-0.4-0.2-0.6c-0.1-0.2-0.1-0.4-0.2-0.5c-0.1-0.2-0.2-0.3-0.3-0.5c0-0.1-0.1-0.2-0.2-0.3c-0.1-0.1-0.2-0.3-0.4-0.4
						c-0.2-0.1-0.3-0.2-0.6-0.3c-0.2-0.1-0.5-0.2-0.8-0.2v-0.3h6.6v0.2c-0.1,0-0.2,0-0.4,0c-0.2,0-0.4,0.1-0.6,0.2
						c-0.2,0.1-0.4,0.2-0.5,0.3c-0.1,0.2-0.2,0.4-0.2,0.6c0,0.1,0.1,0.5,0.2,1c0.2,0.5,0.4,1.1,0.6,1.8c0.3,0.7,0.6,1.5,0.9,2.4
						c0.3,0.9,0.6,1.7,1,2.5c0.3,0.8,0.6,1.6,0.9,2.3c0.3,0.7,0.5,1.3,0.7,1.8c0-0.1,0.2-0.4,0.3-1c0.2-0.5,0.4-1.2,0.7-2
						c0.3-0.8,0.6-1.7,0.9-2.7c0.3-1,0.7-2,1-3.1c-0.2-0.6-0.4-1.2-0.6-1.6c-0.2-0.5-0.4-0.9-0.6-1.4c-0.1-0.1-0.1-0.3-0.2-0.4
						c-0.1-0.1-0.2-0.3-0.4-0.4c-0.2-0.1-0.4-0.2-0.7-0.3c-0.3-0.1-0.6-0.1-1-0.2v-0.3h7.3v0.2c-0.1,0-0.3,0-0.5,0.1
						c-0.2,0-0.5,0.1-0.7,0.2c-0.2,0.1-0.5,0.2-0.7,0.4c-0.2,0.2-0.3,0.3-0.3,0.6c0,0.1,0.1,0.4,0.3,0.9c0.2,0.5,0.4,1.2,0.7,2
						c0.3,0.8,0.6,1.6,0.9,2.5c0.3,0.9,0.6,1.8,0.9,2.6c0.3,0.8,0.6,1.6,0.8,2.2c0.2,0.7,0.4,1.1,0.5,1.4c0-0.1,0.1-0.3,0.2-0.7
						c0.1-0.3,0.3-0.8,0.4-1.3c0.2-0.5,0.4-1.1,0.6-1.7c0.2-0.6,0.4-1.3,0.6-1.9c0.2-0.6,0.4-1.3,0.6-1.9c0.2-0.6,0.4-1.2,0.6-1.8
						c0.2-0.7,0.3-1.2,0.4-1.6c0-0.3,0-0.6,0-0.7c0-0.2-0.1-0.4-0.2-0.6c-0.1-0.1-0.3-0.3-0.5-0.4c-0.2-0.1-0.4-0.2-0.7-0.2
						c-0.2-0.1-0.4-0.1-0.6-0.1v-0.2h5.1v0.2C72.7,79.5,72.4,79.6,72.1,79.8z"/>
				</g>
				<g>
					<path class="st18" d="M72.3,79.6c-0.3,0.2-0.4,0.3-0.5,0.3c0,0-0.1,0.1-0.2,0.2s-0.2,0.3-0.3,0.5c-0.1,0.2-0.3,0.4-0.4,0.7
						c-0.1,0.3-0.3,0.7-0.4,1.1c-0.2,0.8-0.5,1.6-0.9,2.5c-0.3,0.9-0.7,1.9-1,2.9c-0.3,1-0.7,2-1,3c-0.3,1-0.7,1.9-1,2.8l-1,2.2
						h-0.2c-0.4-1.1-0.8-2.2-1.2-3.2c-0.4-1-0.7-2-1-3c-0.3-0.9-0.7-1.9-1-2.8c-0.3-0.9-0.6-1.8-1-2.6c-0.2,0.7-0.5,1.5-0.8,2.3
						c-0.3,0.8-0.6,1.6-0.8,2.4c-0.3,0.8-0.6,1.6-0.8,2.4c-0.3,0.8-0.6,1.5-0.8,2.3l-1,2.3h-0.3c-0.5-1.3-0.9-2.5-1.4-3.6
						c-0.4-1.1-0.8-2.2-1.2-3.3c-0.4-1-0.8-2.1-1.2-3.1c-0.4-1-0.7-2-1.1-3c-0.1-0.3-0.2-0.6-0.3-0.8c-0.1-0.2-0.2-0.4-0.2-0.6
						c-0.1-0.2-0.1-0.4-0.2-0.5c-0.1-0.2-0.2-0.3-0.3-0.5c0-0.1-0.1-0.2-0.2-0.3c-0.1-0.1-0.2-0.3-0.4-0.4c-0.2-0.1-0.3-0.2-0.6-0.3
						c-0.2-0.1-0.5-0.2-0.8-0.2v-0.3h6.6v0.2c-0.1,0-0.2,0-0.4,0c-0.2,0-0.4,0.1-0.6,0.2c-0.2,0.1-0.4,0.2-0.5,0.3
						c-0.1,0.2-0.2,0.4-0.2,0.6c0,0.1,0.1,0.5,0.2,1c0.2,0.5,0.4,1.1,0.6,1.8c0.3,0.7,0.6,1.5,0.9,2.4c0.3,0.9,0.6,1.7,1,2.5
						c0.3,0.8,0.6,1.6,0.9,2.3c0.3,0.7,0.5,1.3,0.7,1.8c0-0.1,0.2-0.4,0.3-1c0.2-0.5,0.4-1.2,0.7-2c0.3-0.8,0.6-1.7,0.9-2.7
						c0.3-1,0.7-2,1-3.1c-0.2-0.6-0.4-1.2-0.6-1.6c-0.2-0.5-0.4-0.9-0.6-1.4c-0.1-0.1-0.1-0.3-0.2-0.4c-0.1-0.1-0.2-0.3-0.4-0.4
						c-0.2-0.1-0.4-0.2-0.7-0.3c-0.3-0.1-0.6-0.1-1-0.2v-0.3h7.3v0.2c-0.1,0-0.3,0-0.5,0.1c-0.2,0-0.5,0.1-0.7,0.2
						c-0.2,0.1-0.5,0.2-0.7,0.4c-0.2,0.2-0.3,0.3-0.3,0.6c0,0.1,0.1,0.4,0.3,0.9c0.2,0.5,0.4,1.2,0.7,2c0.3,0.8,0.6,1.6,0.9,2.5
						c0.3,0.9,0.6,1.8,0.9,2.6c0.3,0.8,0.6,1.6,0.8,2.2c0.2,0.7,0.4,1.1,0.5,1.4c0-0.1,0.1-0.3,0.2-0.7c0.1-0.3,0.3-0.8,0.4-1.3
						c0.2-0.5,0.4-1.1,0.6-1.7c0.2-0.6,0.4-1.3,0.6-1.9c0.2-0.6,0.4-1.3,0.6-1.9c0.2-0.6,0.4-1.2,0.6-1.8c0.2-0.7,0.3-1.2,0.4-1.6
						c0-0.3,0-0.6,0-0.7c0-0.2-0.1-0.4-0.2-0.6c-0.1-0.1-0.3-0.3-0.5-0.4c-0.2-0.1-0.4-0.2-0.7-0.2c-0.2-0.1-0.4-0.1-0.6-0.1v-0.2
						h5.1v0.2C72.9,79.3,72.6,79.5,72.3,79.6z"/>
				</g>
			</g>
			<g>
				<path d="M38.8,83.6c0,0-1,2.4-0.9,4.8c0.1,2.3,1.3,4.3,1.3,4.3s2.1,0,5.4-1.2c3.4-1.3,4.7-3.5,4.7-3.5s-2.5-3-4.9-3.6
					C41.3,83.6,38.8,83.6,38.8,83.6z"/>
				<path class="st19" d="M38.5,83.3c0,0-1,2.4-0.9,4.8c0.1,2.3,1.3,4.3,1.3,4.3s2.1,0,5.4-1.2c3.4-1.3,4.7-3.5,4.7-3.5
					s-2.5-3-4.9-3.6C41.1,83.3,38.5,83.3,38.5,83.3z"/>
				<g>
					<path class="st20" d="M40.6,88c0,0.1,0,0.1-0.1,0.1c0,0-0.1,0-0.1,0c0,0-0.1-0.1-0.1-0.1c0-0.1,0.1-0.1,0.2-0.1
						C40.5,87.8,40.5,87.9,40.6,88C40.6,87.9,40.6,87.9,40.6,88z M42,88.1c-0.3,0.2-0.8,0.4-1.4,0.6c0,0,0,0-0.1-0.1
						c0.4-0.2,0.7-0.4,1-0.5C41.8,88.1,41.9,88,42,88.1C41.9,88,42,88.1,42,88.1L42,88.1z M42,87.8C42,87.8,42,87.8,42,87.8
						c-0.1,0-0.2,0-0.4-0.2c-0.4-0.2-0.7-0.3-1-0.5l0,0c0,0,0,0,0,0s0,0,0,0c0.3,0.1,0.6,0.3,1,0.5C41.9,87.6,42,87.7,42,87.8
						L42,87.8z M41.7,87.9c0,0-0.1,0.1-0.2,0.1c-0.1,0.1-0.3,0.1-0.4,0.2s-0.2,0.1-0.3,0.1c-0.1,0-0.1-0.1-0.1-0.2
						c0,0,0-0.1,0.1-0.2c-0.1-0.1-0.1-0.2-0.1-0.2c0-0.1,0.1-0.1,0.3-0.1c0.1,0,0.2,0,0.4,0.1C41.5,87.8,41.7,87.9,41.7,87.9z
						 M41.8,88.5c-0.2,0.6-0.4,0.9-0.5,0.9c0,0-0.1-0.1-0.2-0.2c-0.1,0-0.1-0.1-0.1-0.1c-0.1,0-0.1,0-0.1,0c0,0,0-0.1,0-0.1
						c0-0.1,0.1-0.2,0.2-0.2c0.1-0.1,0.3-0.2,0.5-0.2C41.6,88.5,41.7,88.4,41.8,88.5C41.8,88.4,41.8,88.5,41.8,88.5z M41.8,87.4
						C41.8,87.4,41.8,87.4,41.8,87.4c-0.1,0.1-0.4-0.1-0.8-0.3c0,0,0,0-0.1-0.1c0,0,0-0.1,0-0.1c0,0,0-0.1,0.1-0.1
						c0,0,0.1,0,0.2-0.1c0-0.2,0.1-0.2,0.1-0.3c0,0,0,0,0.1,0h0.1c0.1,0,0.1,0.1,0.2,0.4C41.7,87,41.8,87.2,41.8,87.4z M41.1,86.5
						c0,0.1,0,0.1-0.1,0.1h0c0,0-0.1-0.1-0.1-0.1v0c0,0,0,0,0-0.1l0.1,0C41.1,86.5,41.1,86.5,41.1,86.5z M41.1,89.4
						C41.1,89.4,41.1,89.4,41.1,89.4c-0.2,0.1-0.2,0-0.2-0.1c0-0.1,0-0.1,0.1-0.1C41.1,89.3,41.1,89.3,41.1,89.4z M42.2,88.4
						c0,0-0.1,0.1-0.2,0.3c-0.2,0.3-0.3,0.6-0.4,1c0,0.1-0.1,0.2-0.1,0.2l-0.1,0c0.1-0.2,0.3-0.6,0.6-1.4
						C42,88.4,42.1,88.4,42.2,88.4L42.2,88.4C42.2,88.3,42.2,88.3,42.2,88.4z M42.2,87.5C42.2,87.5,42.2,87.6,42.2,87.5l-0.1,0
						c-0.2-0.4-0.3-0.8-0.5-1.2c-0.1-0.3-0.2-0.4-0.2-0.4l0-0.1h0c0.2,0.4,0.3,0.8,0.5,1.2C42.2,87.4,42.2,87.5,42.2,87.5z
						 M42.7,89.5c0,0,0,0.1,0,0.1c0,0-0.1,0.1-0.1,0.1c0,0-0.1,0-0.2-0.1c-0.1,0.1-0.2,0.1-0.2,0.1c-0.1,0-0.1-0.1-0.1-0.2
						c0-0.2,0.1-0.6,0.4-0.9c0.1,0.2,0.2,0.4,0.3,0.6C42.7,89.4,42.7,89.5,42.7,89.5z M42.7,86.2c0,0.1,0,0.2-0.1,0.3
						c-0.1,0.2-0.1,0.4-0.2,0.6c0,0-0.1,0-0.1,0c-0.1,0-0.2-0.3-0.3-0.9c0-0.1,0-0.2,0.1-0.2c0,0,0.1,0,0.2,0.1c0,0,0.1,0,0.1-0.1
						c0-0.1,0.1-0.1,0.1-0.1c0,0,0.1,0,0.1,0.1C42.7,86.1,42.7,86.2,42.7,86.2z M42.5,89.8C42.5,89.8,42.5,89.9,42.5,89.8
						c-0.1,0.1-0.1,0.1-0.2,0.1c-0.1,0-0.1,0-0.1-0.1c0,0,0,0,0.1-0.1c0,0,0.1,0,0.1,0C42.4,89.7,42.4,89.7,42.5,89.8
						C42.5,89.8,42.5,89.8,42.5,89.8z M42.4,85.9c0,0.1,0,0.2-0.1,0.2c0,0-0.1,0-0.1-0.1c0-0.1,0.1-0.2,0.1-0.2c0,0,0,0,0.1,0
						C42.4,85.8,42.4,85.8,42.4,85.9C42.4,85.9,42.4,85.9,42.4,85.9z M43.2,89.9C43.2,89.9,43.2,89.9,43.2,89.9
						c-0.1,0-0.1-0.1-0.2-0.2c-0.1-0.3-0.3-0.6-0.4-0.9c-0.1-0.2-0.2-0.4-0.2-0.4c0,0,0-0.1,0.1-0.1c0.1,0,0.1,0.1,0.2,0.3
						c0.1,0.3,0.2,0.6,0.4,0.9C43.2,89.7,43.2,89.8,43.2,89.9L43.2,89.9z M43.2,85.9c0,0-0.1,0.2-0.2,0.5c-0.1,0.4-0.3,0.8-0.5,1.2
						c0,0-0.1,0-0.1-0.1l0.2-0.4C42.8,86.7,43,86.3,43.2,85.9L43.2,85.9z M44.3,87.1C44.3,87.2,44.3,87.2,44.3,87.1l-1.5,0.7h-0.1
						l0,0c0,0-0.1,0-0.1,0h0C42.6,87.8,43.1,87.5,44.3,87.1C44.3,87.1,44.3,87.1,44.3,87.1z M44.2,88.8L44.2,88.8l-0.2,0
						c-0.2-0.1-0.4-0.2-0.6-0.3L43,88.3l-0.2-0.1c0,0-0.1,0-0.1-0.1c0,0,0,0,0.1,0C42.9,88.1,43.4,88.3,44.2,88.8L44.2,88.8z
						 M43.9,86.8c0,0.1-0.1,0.1-0.2,0.2c-0.1,0-0.2,0.1-0.4,0.3c-0.2,0.1-0.4,0.2-0.5,0.2c0,0,0,0,0,0l0,0v-0.1
						c0.1-0.3,0.2-0.5,0.3-0.8c0.1-0.2,0.2-0.3,0.2-0.3c0.1,0,0.1,0.1,0.2,0.3C43.7,86.7,43.8,86.7,43.9,86.8
						C43.9,86.8,43.9,86.8,43.9,86.8z M43.9,89c0,0-0.1,0.1-0.3,0.2c0,0.1,0,0.1,0,0.2c0,0.1,0,0.1-0.1,0.1c-0.2,0-0.4-0.3-0.7-0.8
						l0-0.1H43C43.6,88.7,43.9,88.9,43.9,89z M44.2,88.2c0,0,0,0.1-0.1,0.1c0,0-0.1,0.1-0.2,0.1c0,0-0.1,0-0.3-0.1
						c-0.2-0.1-0.4-0.2-0.6-0.3l-0.1,0l0,0c0,0,0.2-0.1,0.7-0.3c0.1-0.1,0.2-0.1,0.3-0.1c0.1,0,0.2,0,0.2,0.1c0,0,0,0.1,0,0.1
						c0,0-0.1,0.1-0.1,0.1C44.1,88,44.2,88.1,44.2,88.2z M43.8,86.5c0,0.1-0.1,0.2-0.1,0.2c0,0,0,0-0.1,0c0,0,0-0.1,0-0.1
						c0,0,0-0.1,0-0.1c0,0,0-0.1,0-0.1c0,0,0.1,0,0.1,0C43.8,86.4,43.8,86.4,43.8,86.5z M43.9,89.3C43.9,89.3,43.9,89.3,43.9,89.3
						c-0.1,0.1-0.1,0.1-0.2,0c0,0,0,0,0,0c0,0,0,0,0,0l0.1,0L43.9,89.3C43.9,89.2,43.9,89.2,43.9,89.3z M44.4,87.9
						c0,0.1-0.1,0.2-0.1,0.2c-0.1,0-0.1-0.1-0.1-0.2c0-0.1,0.1-0.1,0.1-0.1c0,0,0,0,0.1,0C44.3,87.7,44.4,87.8,44.4,87.9z"/>
				</g>
			</g>
			<g>
				<path d="M56.2,110.7c0,0,2.4,1,4.8,0.9c2.3-0.1,4.3-1.3,4.3-1.3s0-2.1-1.2-5.4c-1.3-3.4-3.5-4.7-3.5-4.7s-3,2.5-3.6,4.9
					C56.2,108.2,56.2,110.7,56.2,110.7z"/>
				<path class="st19" d="M55.9,111c0,0,2.4,1,4.8,0.9c2.3-0.1,4.3-1.3,4.3-1.3s0-2.1-1.2-5.4c-1.3-3.4-3.5-4.7-3.5-4.7
					s-3,2.5-3.6,4.9C55.9,108.5,55.9,111,55.9,111z"/>
				<g>
					<path class="st20" d="M60.5,109c0.1,0,0.1,0,0.1,0.1c0,0,0,0.1,0,0.1c0,0-0.1,0.1-0.1,0.1c-0.1,0-0.1-0.1-0.1-0.2
						C60.4,109,60.4,109,60.5,109C60.5,109,60.5,109,60.5,109z M60.7,107.5c0.2,0.3,0.4,0.8,0.6,1.4c0,0,0,0-0.1,0.1
						c-0.2-0.4-0.4-0.7-0.5-1C60.7,107.8,60.6,107.6,60.7,107.5C60.6,107.6,60.6,107.6,60.7,107.5L60.7,107.5z M60.3,107.6
						C60.4,107.6,60.4,107.6,60.3,107.6c0,0.1,0,0.2-0.2,0.4c-0.2,0.4-0.3,0.7-0.5,1l0,0c0,0,0,0,0,0s0,0,0,0c0.1-0.3,0.3-0.6,0.5-1
						C60.2,107.7,60.3,107.6,60.3,107.6L60.3,107.6z M60.5,107.9c0,0,0.1,0.1,0.1,0.2c0.1,0.1,0.1,0.3,0.2,0.4
						c0.1,0.1,0.1,0.2,0.1,0.3c0,0.1-0.1,0.1-0.2,0.1c0,0-0.1,0-0.2-0.1c-0.1,0.1-0.2,0.1-0.2,0.1c-0.1,0-0.1-0.1-0.1-0.3
						c0-0.1,0-0.2,0.1-0.4C60.4,108,60.5,107.9,60.5,107.9z M61.1,107.7c0.6,0.2,0.9,0.4,0.9,0.5c0,0-0.1,0.1-0.2,0.2
						c0,0.1-0.1,0.1-0.1,0.1c0,0.1,0,0.1,0,0.1c0,0-0.1,0-0.1,0c-0.1,0-0.2-0.1-0.2-0.2c-0.1-0.1-0.2-0.3-0.2-0.5
						C61,107.9,61,107.8,61.1,107.7C61,107.8,61,107.7,61.1,107.7z M59.9,107.7C60,107.7,60,107.7,59.9,107.7
						c0.1,0.1-0.1,0.4-0.3,0.8c0,0,0,0-0.1,0.1c0,0-0.1,0-0.1,0c0,0-0.1,0-0.1-0.1c0,0,0-0.1-0.1-0.2c-0.2,0-0.2-0.1-0.3-0.1
						c0,0,0,0,0-0.1v-0.1c0-0.1,0.1-0.1,0.4-0.2C59.6,107.8,59.8,107.8,59.9,107.7z M59.1,108.4c0.1,0,0.1,0,0.1,0.1v0
						c0,0-0.1,0.1-0.1,0.1h0c0,0,0,0-0.1,0l0-0.1C59,108.5,59.1,108.4,59.1,108.4z M62,108.4C62,108.4,62,108.4,62,108.4
						c0.1,0.2,0,0.2-0.1,0.2c-0.1,0-0.1,0-0.1-0.1C61.8,108.5,61.9,108.4,62,108.4z M60.9,107.4c0,0,0.1,0.1,0.3,0.2
						c0.3,0.2,0.6,0.3,1,0.4c0.1,0,0.2,0.1,0.2,0.1l0,0.1c-0.2-0.1-0.6-0.3-1.4-0.6C61,107.5,60.9,107.5,60.9,107.4L60.9,107.4
						C60.9,107.4,60.9,107.4,60.9,107.4z M60.1,107.3C60.1,107.3,60.1,107.3,60.1,107.3l0,0.1c-0.4,0.2-0.8,0.3-1.2,0.5
						c-0.3,0.1-0.4,0.2-0.4,0.2l-0.1,0v0c0.4-0.2,0.8-0.3,1.2-0.5C59.9,107.4,60.1,107.3,60.1,107.3z M62.1,106.9c0,0,0.1,0,0.1,0
						c0,0,0.1,0.1,0.1,0.1c0,0,0,0.1-0.1,0.2c0.1,0.1,0.1,0.2,0.1,0.2c0,0.1-0.1,0.1-0.2,0.1c-0.2,0-0.6-0.1-0.9-0.4
						c0.2-0.1,0.4-0.2,0.6-0.3C61.9,106.9,62.1,106.9,62.1,106.9z M58.8,106.8c0.1,0,0.2,0,0.3,0.1c0.2,0.1,0.4,0.1,0.6,0.2
						c0,0,0,0.1,0,0.1c0,0.1-0.3,0.2-0.9,0.3c-0.1,0-0.2,0-0.2-0.1c0,0,0-0.1,0.1-0.2c0,0,0-0.1-0.1-0.1c-0.1,0-0.1-0.1-0.1-0.1
						c0,0,0-0.1,0.1-0.1C58.7,106.8,58.8,106.8,58.8,106.8z M62.4,107.1C62.4,107.1,62.4,107.1,62.4,107.1c0.1,0.1,0.1,0.1,0.1,0.2
						c0,0.1,0,0.1-0.1,0.1c0,0,0,0-0.1-0.1c0,0,0-0.1,0-0.1C62.3,107.2,62.3,107.1,62.4,107.1C62.3,107.1,62.4,107.1,62.4,107.1z
						 M58.5,107.1c0.1,0,0.2,0,0.2,0.1c0,0,0,0.1-0.1,0.1c-0.1,0-0.2-0.1-0.2-0.1c0,0,0,0,0-0.1C58.4,107.1,58.4,107.1,58.5,107.1
						C58.4,107.1,58.5,107.1,58.5,107.1z M62.4,106.3C62.4,106.3,62.4,106.3,62.4,106.3c0,0.1-0.1,0.1-0.2,0.2
						c-0.3,0.1-0.6,0.3-0.9,0.4c-0.2,0.1-0.4,0.2-0.4,0.2c0,0-0.1,0-0.1-0.1c0-0.1,0.1-0.1,0.3-0.2c0.3-0.1,0.6-0.2,0.9-0.4
						C62.3,106.4,62.4,106.3,62.4,106.3L62.4,106.3z M58.5,106.3c0,0,0.2,0.1,0.5,0.2c0.4,0.1,0.8,0.3,1.2,0.5c0,0,0,0.1-0.1,0.1
						l-0.4-0.2C59.3,106.7,58.9,106.5,58.5,106.3L58.5,106.3z M59.7,105.2C59.7,105.2,59.7,105.3,59.7,105.2l0.7,1.5v0.1l0,0
						c0,0,0,0.1,0,0.1v0C60.3,107,60.1,106.4,59.7,105.2C59.7,105.3,59.7,105.2,59.7,105.2z M61.3,105.3L61.3,105.3l0,0.2
						c-0.1,0.2-0.2,0.4-0.3,0.6l-0.2,0.3l-0.1,0.2c0,0,0,0.1-0.1,0.1c0,0,0,0,0-0.1C60.6,106.6,60.9,106.2,61.3,105.3L61.3,105.3z
						 M59.4,105.6c0.1,0,0.1,0.1,0.2,0.2c0,0.1,0.1,0.2,0.3,0.4c0.1,0.2,0.2,0.4,0.2,0.5c0,0,0,0,0,0l0,0H60
						c-0.3-0.1-0.5-0.2-0.8-0.3c-0.2-0.1-0.3-0.2-0.3-0.2c0-0.1,0.1-0.1,0.3-0.2C59.3,105.9,59.3,105.8,59.4,105.6
						C59.3,105.6,59.4,105.6,59.4,105.6z M61.6,105.6c0,0,0.1,0.1,0.2,0.3c0.1,0,0.1,0,0.2,0c0.1,0,0.1,0,0.1,0.1
						c0,0.2-0.3,0.4-0.8,0.7l-0.1,0v-0.1C61.3,105.9,61.5,105.6,61.6,105.6z M60.7,105.4c0,0,0.1,0,0.1,0.1c0,0,0.1,0.1,0.1,0.2
						c0,0,0,0.1-0.1,0.3c-0.1,0.2-0.2,0.4-0.3,0.6l0,0.1l0,0c0,0-0.1-0.2-0.3-0.7c-0.1-0.1-0.1-0.2-0.1-0.3c0-0.1,0-0.2,0.1-0.2
						c0,0,0.1,0,0.1,0c0,0,0.1,0.1,0.1,0.1C60.6,105.4,60.7,105.4,60.7,105.4z M59,105.7c0.1,0,0.2,0.1,0.2,0.1c0,0,0,0,0,0.1
						c0,0-0.1,0-0.1,0c0,0-0.1,0-0.1,0c0,0-0.1,0-0.1,0c0,0,0-0.1,0-0.1C59,105.8,59,105.7,59,105.7z M61.8,105.6
						C61.9,105.6,61.9,105.7,61.8,105.6c0.1,0.1,0.1,0.1,0,0.2c0,0,0,0,0,0c0,0,0,0,0,0l0-0.1L61.8,105.6
						C61.7,105.7,61.8,105.6,61.8,105.6z M60.5,105.1c0.1,0,0.2,0.1,0.2,0.1c0,0.1-0.1,0.1-0.2,0.1c-0.1,0-0.1-0.1-0.1-0.1
						c0,0,0,0,0-0.1C60.3,105.2,60.3,105.2,60.5,105.1z"/>
				</g>
			</g>
			<g>
				<path d="M56.2,65.1c0,0,2.4-1,4.8-0.9c2.3,0.1,4.3,1.3,4.3,1.3s0,2.1-1.2,5.4c-1.3,3.4-3.5,4.7-3.5,4.7s-3-2.5-3.6-4.9
					C56.2,67.6,56.2,65.1,56.2,65.1z"/>
				<path class="st19" d="M55.9,64.9c0,0,2.4-1,4.8-0.9c2.3,0.1,4.3,1.3,4.3,1.3s0,2.1-1.2,5.4c-1.3,3.4-3.5,4.7-3.5,4.7
					s-3-2.5-3.6-4.9C55.9,67.4,55.9,64.9,55.9,64.9z"/>
				<g>
					<path class="st20" d="M60.5,66.9C60.4,66.8,60.4,66.8,60.5,66.9c0-0.2,0-0.2,0.1-0.2c0,0,0.1,0,0.1,0.1c0,0,0,0.1,0,0.1
						C60.7,66.9,60.6,66.9,60.5,66.9C60.5,66.9,60.5,66.9,60.5,66.9z M60.6,68.3C60.6,68.3,60.6,68.3,60.6,68.3c0-0.1,0-0.2,0.1-0.5
						c0.1-0.3,0.3-0.7,0.5-1c0,0,0,0,0.1,0.1C61.1,67.5,60.8,68,60.6,68.3L60.6,68.3z M60.3,68.3c0,0-0.1-0.1-0.2-0.4
						c-0.2-0.4-0.3-0.8-0.5-1c0,0,0,0,0,0s0,0,0,0l0,0c0.1,0.3,0.3,0.6,0.5,1C60.3,68.1,60.4,68.3,60.3,68.3
						C60.4,68.3,60.4,68.3,60.3,68.3L60.3,68.3z M60.3,67.5c-0.1-0.2-0.1-0.3-0.1-0.4c0-0.2,0-0.3,0.1-0.3c0.1,0,0.1,0,0.2,0.1
						c0.1-0.1,0.2-0.1,0.2-0.1c0.1,0,0.2,0,0.2,0.1c0,0.1,0,0.2-0.1,0.3c-0.1,0.1-0.1,0.3-0.2,0.4c-0.1,0.1-0.1,0.2-0.1,0.2
						C60.5,68,60.4,67.8,60.3,67.5z M61,68.1c0,0,0-0.1,0.1-0.3c0.1-0.2,0.2-0.3,0.2-0.5c0.1-0.1,0.2-0.2,0.2-0.2c0.1,0,0.1,0,0.1,0
						c0,0,0,0.1,0,0.1c0,0,0,0.1,0.1,0.1c0.1,0.1,0.2,0.1,0.2,0.2C62,67.8,61.7,67.9,61,68.1C61,68.1,61,68.1,61,68.1z M59.4,67.9
						c-0.3-0.1-0.4-0.2-0.4-0.2v-0.1c0,0,0,0,0-0.1c0,0,0.1-0.1,0.3-0.1c0-0.1,0-0.2,0.1-0.2c0,0,0.1-0.1,0.1-0.1c0,0,0.1,0,0.1,0
						c0.1,0.1,0.1,0.1,0.1,0.1c0.2,0.5,0.4,0.7,0.4,0.8c0,0,0,0.1-0.1,0.1C59.8,68.1,59.6,68,59.4,67.9z M59,67.3L59,67.3
						c0-0.1,0-0.1,0-0.1h0c0.1,0,0.1,0,0.1,0.1v0c0,0.1,0,0.1-0.1,0.1C59.1,67.4,59,67.4,59,67.3z M61.8,67.3
						C61.8,67.3,61.8,67.3,61.8,67.3c0.2-0.1,0.2,0,0.2,0.1c0,0,0,0.1-0.1,0.1C61.9,67.5,61.8,67.4,61.8,67.3z M60.9,68.5L60.9,68.5
						c0.1-0.1,0.1-0.1,0.2-0.1c0.7-0.3,1.2-0.5,1.4-0.6l0,0.1c0,0.1-0.1,0.1-0.2,0.1c-0.3,0.1-0.6,0.3-1,0.4
						C61.1,68.5,60.9,68.5,60.9,68.5C60.9,68.5,60.9,68.5,60.9,68.5z M59.6,68.4c-0.4-0.2-0.8-0.3-1.2-0.5v0l0.1,0
						c0,0,0.1,0.1,0.4,0.2c0.4,0.1,0.8,0.3,1.2,0.5l0,0c0,0,0,0.1-0.1,0.1C60.1,68.6,59.9,68.5,59.6,68.4z M61.8,68.9
						c-0.2-0.1-0.4-0.2-0.6-0.3c0.4-0.3,0.7-0.4,0.9-0.4c0.1,0,0.2,0,0.2,0.1c0,0.1,0,0.1-0.1,0.2c0.1,0.1,0.1,0.2,0.1,0.2
						c0,0,0,0.1-0.1,0.1c0,0-0.1,0-0.1,0C62.1,69,61.9,69,61.8,68.9z M58.6,69c-0.1,0-0.1-0.1-0.1-0.1c0,0,0-0.1,0.1-0.1
						c0.1,0,0.1-0.1,0.1-0.1c0-0.1-0.1-0.2-0.1-0.2c0-0.1,0.1-0.1,0.2-0.1c0.6,0.2,0.9,0.3,0.9,0.3c0,0,0,0,0,0.1
						c-0.2,0.1-0.4,0.2-0.6,0.2C59,69,58.9,69,58.8,69C58.8,69,58.7,69,58.6,69z M62.3,68.8c0,0,0-0.1,0-0.1c0,0,0-0.1,0-0.1
						c0,0,0-0.1,0.1-0.1c0.1,0,0.1,0,0.1,0.1c0,0,0,0.1,0,0.1C62.4,68.8,62.4,68.8,62.3,68.8C62.4,68.8,62.3,68.8,62.3,68.8z
						 M58.4,68.7C58.4,68.7,58.4,68.7,58.4,68.7C58.4,68.7,58.4,68.7,58.4,68.7c-0.1-0.1,0-0.2,0.1-0.2c0.1,0,0.1,0.1,0.1,0.1
						C58.6,68.7,58.6,68.7,58.4,68.7C58.5,68.7,58.4,68.7,58.4,68.7z M62.4,69.6c0,0-0.1-0.1-0.3-0.2c-0.3-0.1-0.6-0.3-0.9-0.4
						c-0.2-0.1-0.3-0.1-0.3-0.2c0,0,0-0.1,0.1-0.1c0.1,0,0.2,0.1,0.4,0.2c0.3,0.1,0.6,0.3,0.9,0.4C62.4,69.4,62.4,69.5,62.4,69.6
						C62.4,69.5,62.4,69.5,62.4,69.6L62.4,69.6z M58.4,69.5c0.4-0.2,0.8-0.3,1.2-0.5l0.4-0.2c0,0,0.1,0,0.1,0.1
						c-0.4,0.2-0.8,0.4-1.2,0.5C58.7,69.5,58.5,69.6,58.4,69.5L58.4,69.5z M59.7,70.6c0.4-1.1,0.7-1.7,0.7-1.7v0c0,0,0,0,0,0.1l0,0
						v0.1l-0.6,1.5C59.7,70.6,59.7,70.6,59.7,70.6C59.7,70.6,59.7,70.6,59.7,70.6z M61.3,70.5c-0.4-0.8-0.6-1.3-0.6-1.4
						c0,0,0,0,0-0.1c0.1,0,0.1,0.1,0.1,0.1l0.1,0.2l0.2,0.3c0.1,0.2,0.2,0.4,0.3,0.6L61.3,70.5L61.3,70.5L61.3,70.5z M59.3,70.2
						c0-0.1,0-0.2,0-0.2c-0.2-0.1-0.3-0.2-0.3-0.2c0-0.1,0.1-0.2,0.3-0.2c0.3-0.1,0.5-0.2,0.8-0.3H60l0,0c0,0,0,0,0,0
						c0,0.1-0.1,0.2-0.2,0.5c-0.1,0.2-0.2,0.4-0.3,0.4C59.5,70.2,59.4,70.2,59.3,70.2C59.4,70.2,59.3,70.2,59.3,70.2z M61.1,69.3
						L61.1,69.3L61.1,69.3c0.6,0.2,0.9,0.4,0.9,0.6c0,0.1,0,0.1-0.1,0.1c0,0-0.1,0-0.2,0c-0.1,0.2-0.1,0.3-0.2,0.3
						C61.5,70.2,61.3,69.9,61.1,69.3z M60.5,70.3c0,0-0.1,0.1-0.1,0.1c0,0-0.1,0-0.1,0c-0.1,0-0.1-0.1-0.1-0.2c0-0.1,0-0.2,0.1-0.3
						c0.2-0.5,0.3-0.7,0.3-0.7l0,0l0,0.1c0.1,0.2,0.2,0.4,0.3,0.6c0.1,0.2,0.1,0.3,0.1,0.3c0,0.1,0,0.1-0.1,0.2c0,0-0.1,0.1-0.1,0.1
						C60.7,70.5,60.6,70.4,60.5,70.3z M59,70.1C59,70,59,70,59,70.1c0.1-0.1,0.1-0.1,0.1-0.1c0,0,0,0,0.1,0c0,0,0.1,0,0.1,0
						c0,0,0,0.1,0,0.1c0,0.1-0.1,0.1-0.2,0.1C59,70.1,59,70.1,59,70.1z M61.7,70.1L61.7,70.1L61.7,70.1C61.8,70,61.8,70,61.7,70.1
						c0.1-0.1,0.1-0.1,0.1-0.1c0,0,0.1,0.1,0.1,0.1C61.9,70.2,61.9,70.2,61.7,70.1C61.8,70.2,61.7,70.2,61.7,70.1z M60.3,70.6
						C60.3,70.6,60.3,70.6,60.3,70.6c0-0.1,0.1-0.1,0.2-0.2c0.1,0,0.2,0.1,0.2,0.1c0,0.1-0.1,0.1-0.2,0.1
						C60.3,70.7,60.3,70.6,60.3,70.6z"/>
				</g>
			</g>
			<g>
				<path d="M82.9,83.6c0,0,1,2.4,0.9,4.8c-0.1,2.3-1.3,4.3-1.3,4.3s-2.1,0-5.4-1.2c-3.4-1.3-4.7-3.5-4.7-3.5s2.5-3,4.9-3.6
					C80.4,83.6,82.9,83.6,82.9,83.6z"/>
				<path class="st19" d="M83.1,83.3c0,0,1,2.4,0.9,4.8c-0.1,2.3-1.3,4.3-1.3,4.3s-2.1,0-5.4-1.2c-3.4-1.3-4.7-3.5-4.7-3.5
					s2.5-3,4.9-3.6C80.6,83.3,83.1,83.3,83.1,83.3z"/>
				<g>
					<path class="st20" d="M81.1,87.9C81.1,87.9,81.2,87.8,81.1,87.9c0.2,0,0.2,0,0.2,0.1c0,0,0,0.1-0.1,0.1c0,0-0.1,0-0.1,0
						C81.1,88.1,81.1,88.1,81.1,87.9C81.1,87.9,81.1,87.9,81.1,87.9z M79.7,88.1C79.7,88.1,79.7,88,79.7,88.1c0.1,0,0.2,0,0.5,0.1
						c0.3,0.1,0.7,0.3,1,0.5c0,0,0,0-0.1,0.1C80.4,88.5,80,88.3,79.7,88.1L79.7,88.1z M79.7,87.7c0,0,0.1-0.1,0.4-0.2
						c0.4-0.2,0.8-0.3,1-0.5c0,0,0,0,0,0s0,0,0,0l0,0c-0.3,0.1-0.6,0.3-1,0.5C79.9,87.7,79.7,87.8,79.7,87.7
						C79.7,87.8,79.7,87.8,79.7,87.7L79.7,87.7z M80.5,87.7c0.2-0.1,0.3-0.1,0.4-0.1c0.2,0,0.3,0,0.3,0.1c0,0.1,0,0.1-0.1,0.2
						C81,88,81,88.1,81,88.1c0,0.1,0,0.2-0.1,0.2c-0.1,0-0.2,0-0.3-0.1c-0.1-0.1-0.3-0.1-0.4-0.2C80.1,88,80,88,80,87.9
						C80,87.9,80.2,87.8,80.5,87.7z M79.9,88.4c0,0,0.1,0,0.3,0.1c0.2,0.1,0.3,0.2,0.5,0.2c0.1,0.1,0.2,0.2,0.2,0.2
						c0,0.1,0,0.1,0,0.1c0,0-0.1,0-0.1,0c0,0-0.1,0-0.1,0.1c-0.1,0.1-0.1,0.2-0.2,0.2C80.2,89.4,80,89.1,79.9,88.4
						C79.9,88.5,79.9,88.4,79.9,88.4z M80.1,86.8c0.1-0.3,0.2-0.4,0.2-0.4h0.1c0,0,0,0,0.1,0c0,0,0.1,0.1,0.1,0.3
						c0.1,0,0.2,0,0.2,0.1c0,0,0.1,0.1,0.1,0.1c0,0,0,0.1,0,0.1c-0.1,0.1-0.1,0.1-0.1,0.1c-0.5,0.2-0.7,0.4-0.8,0.4
						c0,0-0.1,0-0.1-0.1C79.9,87.2,80,87,80.1,86.8z M80.6,86.4L80.6,86.4c0.1,0,0.1,0,0.1,0v0c0,0.1,0,0.1-0.1,0.1h0
						c-0.1,0-0.1,0-0.1-0.1C80.6,86.5,80.6,86.5,80.6,86.4z M80.6,89.2C80.7,89.3,80.7,89.3,80.6,89.2c0.1,0.2,0,0.2-0.1,0.2
						c0,0-0.1,0-0.1-0.1C80.5,89.3,80.6,89.3,80.6,89.2z M79.5,88.3L79.5,88.3c0.1,0.1,0.1,0.1,0.1,0.2c0.3,0.7,0.5,1.2,0.6,1.4
						l-0.1,0c-0.1,0-0.1-0.1-0.1-0.2c-0.1-0.3-0.3-0.6-0.4-1C79.5,88.5,79.5,88.4,79.5,88.3C79.5,88.3,79.5,88.3,79.5,88.3z
						 M79.6,87.1c0.2-0.4,0.3-0.8,0.5-1.2h0l0,0.1c0,0-0.1,0.1-0.2,0.4c-0.1,0.4-0.3,0.8-0.5,1.2l0,0c0,0-0.1,0-0.1-0.1
						C79.4,87.5,79.5,87.4,79.6,87.1z M79.1,89.2c0.1-0.2,0.2-0.4,0.3-0.6c0.3,0.4,0.4,0.7,0.4,0.9c0,0.1,0,0.2-0.1,0.2
						c-0.1,0-0.1,0-0.2-0.1c-0.1,0.1-0.2,0.1-0.2,0.1c0,0-0.1,0-0.1-0.1c0,0,0-0.1,0-0.1C79,89.5,79,89.4,79.1,89.2z M79,86.1
						c0-0.1,0.1-0.1,0.1-0.1c0,0,0.1,0,0.1,0.1c0,0.1,0.1,0.1,0.1,0.1c0.1,0,0.2-0.1,0.2-0.1c0.1,0,0.1,0.1,0.1,0.2
						c-0.2,0.6-0.3,0.9-0.3,0.9c0,0,0,0-0.1,0c-0.1-0.2-0.2-0.4-0.2-0.6c0-0.1-0.1-0.2-0.1-0.3C78.9,86.2,79,86.1,79,86.1z
						 M79.2,89.7c0,0,0.1,0,0.1,0c0,0,0.1,0,0.1,0c0,0,0.1,0,0.1,0.1c0,0.1,0,0.1-0.1,0.1c0,0-0.1,0-0.1,0
						C79.2,89.9,79.2,89.8,79.2,89.7C79.2,89.8,79.2,89.8,79.2,89.7z M79.2,85.9C79.3,85.8,79.3,85.8,79.2,85.9
						C79.3,85.8,79.3,85.8,79.2,85.9c0.1-0.1,0.2,0,0.2,0.1c0,0.1-0.1,0.1-0.1,0.1C79.3,86.1,79.3,86,79.2,85.9
						C79.2,85.9,79.2,85.9,79.2,85.9z M78.4,89.8c0,0,0.1-0.1,0.2-0.3c0.1-0.3,0.3-0.6,0.4-0.9c0.1-0.2,0.1-0.3,0.2-0.3
						c0,0,0.1,0,0.1,0.1c0,0.1-0.1,0.2-0.2,0.4c-0.1,0.3-0.3,0.6-0.4,0.9C78.6,89.8,78.5,89.9,78.4,89.8
						C78.5,89.9,78.4,89.9,78.4,89.8L78.4,89.8z M78.5,85.9c0.2,0.4,0.3,0.8,0.5,1.2l0.2,0.4c0,0,0,0.1-0.1,0.1
						c-0.2-0.4-0.4-0.8-0.5-1.2C78.5,86.1,78.4,86,78.5,85.9L78.5,85.9z M77.4,87.1c1.1,0.4,1.7,0.7,1.7,0.7h0c0,0,0,0-0.1,0l0,0
						h-0.1l-1.5-0.6C77.4,87.2,77.4,87.2,77.4,87.1C77.4,87.1,77.4,87.1,77.4,87.1z M77.5,88.7c0.8-0.4,1.3-0.6,1.4-0.6
						c0,0,0,0,0.1,0c0,0.1-0.1,0.1-0.1,0.1l-0.2,0.1l-0.3,0.2c-0.2,0.1-0.4,0.2-0.6,0.3L77.5,88.7L77.5,88.7L77.5,88.7z M77.8,86.7
						c0.1,0,0.2,0,0.2,0c0.1-0.2,0.2-0.3,0.2-0.3c0.1,0,0.2,0.1,0.2,0.3c0.1,0.3,0.2,0.5,0.3,0.8v0.1l0,0c0,0,0,0,0,0
						c-0.1,0-0.2-0.1-0.5-0.2c-0.2-0.1-0.4-0.2-0.4-0.3C77.8,86.9,77.8,86.9,77.8,86.7C77.8,86.8,77.8,86.8,77.8,86.7z M78.7,88.5
						L78.7,88.5L78.7,88.5c-0.2,0.6-0.4,0.9-0.6,0.9c-0.1,0-0.1,0-0.1-0.1c0,0,0-0.1,0-0.2c-0.2-0.1-0.3-0.1-0.3-0.2
						C77.8,88.9,78.1,88.7,78.7,88.5z M77.7,87.9c0,0-0.1-0.1-0.1-0.1c0,0,0-0.1,0-0.1c0-0.1,0.1-0.1,0.2-0.1c0.1,0,0.2,0,0.3,0.1
						c0.5,0.2,0.7,0.3,0.7,0.3l0,0l-0.1,0c-0.2,0.1-0.4,0.2-0.6,0.3c-0.2,0.1-0.3,0.1-0.3,0.1c-0.1,0-0.1,0-0.2-0.1
						c0,0-0.1-0.1-0.1-0.1C77.5,88.1,77.5,88,77.7,87.9z M77.9,86.4C77.9,86.4,78,86.4,77.9,86.4c0.1,0.1,0.1,0.1,0.1,0.1
						c0,0,0,0,0,0.1c0,0,0,0.1,0,0.1c0,0-0.1,0-0.1,0c-0.1,0-0.1-0.1-0.1-0.2C77.8,86.4,77.9,86.4,77.9,86.4z M77.9,89.2L77.9,89.2
						L77.9,89.2C77.9,89.2,77.9,89.2,77.9,89.2c0.1,0.1,0.1,0.1,0.1,0.1c0,0-0.1,0.1-0.1,0.1C77.8,89.3,77.8,89.3,77.9,89.2
						C77.8,89.2,77.8,89.2,77.9,89.2z M77.4,87.7C77.4,87.7,77.4,87.7,77.4,87.7c0.1,0,0.1,0.1,0.2,0.2c0,0.1-0.1,0.2-0.1,0.2
						c-0.1,0-0.1-0.1-0.1-0.2C77.3,87.8,77.3,87.7,77.4,87.7z"/>
				</g>
			</g>
		</g>
		<circle class="st9" cx="60.7" cy="25.4" r="4.3"/>
		<circle class="st9" cx="77.7" cy="26.3" r="3.7"/>
		<circle class="st9" cx="43.5" cy="26.3" r="3.7"/>
		<path class="st9" d="M29.1,28c0,0,3.8-1,4.8,1.4s0,4.1,0,4.1s-2.9-1-4-2.2C28.8,30.1,29.1,28,29.1,28z"/>
		<path class="st9" d="M92.8,28c0,0-3.8-1-4.8,1.4s0,4.1,0,4.1s2.9-1,4-2.2C93.1,30.1,92.8,28,92.8,28z"/>
		<circle class="st21" cx="43.2" cy="26.2" r="2.8"/>
		<circle class="st22" cx="60.6" cy="25.1" r="3.4"/>
		<circle class="st21" cx="77.7" cy="26.2" r="2.8"/>
		<path class="st21" d="M29.5,28.9c0,0,2-0.9,3.1,0.8c1,1.4,0.5,2.9,0.5,2.9s-2.6,0.4-3.7-1.3C28.6,30,29.5,28.9,29.5,28.9z"/>
		<path class="st21" d="M92,28.6c0,0-2-0.9-3.1,0.8c-1,1.4-0.5,2.9-0.5,2.9s2.6,0.4,3.7-1.3C93,29.6,92,28.6,92,28.6z"/>
		<path class="st9" d="M61.5,6.8c3.5,0,2.8-3.1,2.8-3.1c0.4,0.5,0.7,1.1,0.8,1.6c0.5,1.9-1.4,3.4-1.4,3.4h-6.2c0,0-0.9-0.7-1.3-1.7
			C56.2,6.9,58,6.8,61.5,6.8z"/>
	</g>
</g>
</svg>
