<?xml version="1.0" encoding="utf-8"?>
<!-- Generator: Adobe Illustrator 24.1.3, SVG Export Plug-In . SVG Version: 6.00 Build 0)  -->
<svg version="1.1" id="Layer_1" xmlns="http://www.w3.org/2000/svg" xmlns:xlink="http://www.w3.org/1999/xlink" x="0px" y="0px"
	 viewBox="0 0 420 330" style="enable-background:new 0 0 420 330;" xml:space="preserve">
<style type="text/css">
	.st0{fill:#F1F2F2;stroke:#7D8499;stroke-width:1.0022;stroke-miterlimit:10;}
	.st1{fill:#CD7629;}
	.st2{fill:#614630;}
	.st3{fill:#CD9E2E;}
	.st4{fill:#D52B2B;}
</style>
<rect x="31.2" y="27.5" class="st0" width="357.8" height="258.4"/>
<g>
	<g>
		<g>
			<g>
				<g>
					<g>
						<path class="st1" d="M390.5,309.1h22.7c2.8,0,5-2.3,5-5v-23.6c0-2.8-2.3-5-5-5h-23.6"/>
					</g>
					<polygon class="st2" points="402.3,284.9 390,284.9 390,309.3 402.3,301 					"/>
				</g>
				<g>
					<g>
						<path class="st1" d="M29.9,309.1H7.2c-2.8,0-5-2.3-5-5v-23.6c0-2.8,2.3-5,5-5h22.7"/>
					</g>
					<polygon class="st2" points="18.1,284.9 30.4,284.9 30.4,309.3 18.1,301 					"/>
				</g>
				<g>
					<path class="st3" d="M17,300.4v-29.3c0-2.8,2.3-5,5-5h376.4c2.8,0,5,2.3,5,5v29.3"/>
				</g>
				<g>
					<path class="st4" d="M177.6,283.5"/>
				</g>
			</g>
		</g>
	</g>
</g>
<g>
	<path d="M137.3,291v-12.9h4.2c1.6,0,2.6,0.1,3.1,0.2c0.7,0.2,1.4,0.6,1.9,1.3s0.7,1.5,0.7,2.5c0,0.8-0.1,1.5-0.4,2s-0.7,1-1.1,1.3
		c-0.4,0.3-0.9,0.5-1.3,0.6c-0.6,0.1-1.5,0.2-2.7,0.2h-1.7v4.9H137.3z M139.9,280.3v3.7h1.4c1,0,1.7-0.1,2.1-0.2s0.6-0.3,0.8-0.6
		c0.2-0.3,0.3-0.6,0.3-1c0-0.5-0.1-0.9-0.4-1.2s-0.6-0.5-1-0.6c-0.3-0.1-0.9-0.1-1.9-0.1H139.9z"/>
	<path d="M149.3,291v-12.9h9.6v2.2h-7v2.9h6.5v2.2h-6.5v3.5h7.2v2.2H149.3z"/>
	<path d="M161.3,291v-12.9h5.5c1.4,0,2.4,0.1,3,0.3c0.6,0.2,1.1,0.6,1.5,1.2s0.6,1.3,0.6,2c0,1-0.3,1.8-0.9,2.4s-1.4,1-2.5,1.2
		c0.6,0.3,1,0.7,1.4,1.1c0.4,0.4,0.9,1.1,1.5,2.1l1.6,2.5h-3.1l-1.9-2.8c-0.7-1-1.1-1.6-1.4-1.9s-0.5-0.4-0.8-0.5s-0.7-0.1-1.3-0.1
		h-0.5v5.4H161.3z M163.9,283.6h1.9c1.2,0,2-0.1,2.3-0.2s0.6-0.3,0.7-0.5s0.3-0.6,0.3-1c0-0.4-0.1-0.8-0.3-1c-0.2-0.3-0.6-0.4-1-0.5
		c-0.2,0-0.8,0-1.9,0h-2V283.6z"/>
	<path d="M173.7,286.9l2.5-0.2c0.2,0.8,0.5,1.5,0.9,1.9c0.5,0.4,1.1,0.6,1.9,0.6c0.8,0,1.5-0.2,1.9-0.5c0.4-0.4,0.6-0.8,0.6-1.2
		c0-0.3-0.1-0.6-0.3-0.8c-0.2-0.2-0.5-0.4-0.9-0.6c-0.3-0.1-1-0.3-2.1-0.6c-1.4-0.3-2.4-0.8-2.9-1.3c-0.8-0.7-1.2-1.6-1.2-2.6
		c0-0.7,0.2-1.3,0.6-1.8c0.4-0.6,0.9-1,1.6-1.3c0.7-0.3,1.5-0.4,2.5-0.4c1.6,0,2.8,0.4,3.7,1.1c0.8,0.7,1.2,1.7,1.3,2.8l-2.6,0.1
		c-0.1-0.7-0.4-1.1-0.7-1.4c-0.4-0.3-0.9-0.4-1.6-0.4c-0.8,0-1.3,0.2-1.8,0.5c-0.3,0.2-0.4,0.5-0.4,0.8c0,0.3,0.1,0.6,0.4,0.8
		c0.3,0.3,1.1,0.6,2.4,0.9s2.2,0.6,2.8,0.9c0.6,0.3,1.1,0.8,1.4,1.3c0.3,0.6,0.5,1.2,0.5,2.1c0,0.7-0.2,1.4-0.6,2.1s-1,1.1-1.7,1.4
		s-1.7,0.5-2.8,0.5c-1.6,0-2.9-0.4-3.8-1.1S173.8,288.3,173.7,286.9z"/>
	<path d="M185.8,284.7c0-1.3,0.2-2.4,0.6-3.3c0.3-0.7,0.7-1.2,1.2-1.8c0.5-0.5,1.1-0.9,1.7-1.2c0.8-0.3,1.7-0.5,2.8-0.5
		c1.9,0,3.4,0.6,4.6,1.8c1.1,1.2,1.7,2.8,1.7,4.9c0,2.1-0.6,3.7-1.7,4.9s-2.6,1.8-4.5,1.8c-1.9,0-3.4-0.6-4.6-1.8
		S185.8,286.7,185.8,284.7z M188.5,284.6c0,1.5,0.3,2.6,1,3.3s1.5,1.1,2.6,1.1s1.9-0.4,2.6-1.1c0.7-0.7,1-1.9,1-3.4
		c0-1.5-0.3-2.6-1-3.3c-0.6-0.7-1.5-1.1-2.6-1.1s-1.9,0.4-2.6,1.1S188.5,283.1,188.5,284.6z"/>
	<path d="M200.4,291v-12.9h2.5l5.3,8.6v-8.6h2.4V291H208l-5.2-8.4v8.4H200.4z"/>
	<path d="M224.9,291h-2.8l-1.1-2.9h-5.2l-1.1,2.9H212l5-12.9h2.8L224.9,291z M220.2,285.9l-1.8-4.8l-1.7,4.8H220.2z"/>
	<path d="M226.4,291v-12.8h2.6v10.6h6.5v2.2H226.4z"/>
	<path d="M242,278.2h5.2c1,0,1.8,0,2.3,0.1c0.5,0.1,0.9,0.3,1.3,0.5c0.4,0.3,0.7,0.6,1,1.1s0.4,1,0.4,1.5c0,0.6-0.2,1.2-0.5,1.7
		c-0.3,0.5-0.8,0.9-1.3,1.1c0.8,0.2,1.4,0.6,1.8,1.2s0.6,1.2,0.6,1.9c0,0.6-0.1,1.2-0.4,1.7c-0.3,0.6-0.6,1-1.1,1.3
		c-0.5,0.3-1.1,0.5-1.7,0.6c-0.4,0-1.5,0.1-3.1,0.1H242V278.2z M244.6,280.3v3h1.7c1,0,1.6,0,1.9,0c0.4-0.1,0.8-0.2,1.1-0.5
		c0.3-0.3,0.4-0.6,0.4-1c0-0.4-0.1-0.7-0.3-1c-0.2-0.2-0.5-0.4-1-0.5c-0.3,0-1,0-2.2,0H244.6z M244.6,285.4v3.4h2.4
		c0.9,0,1.5,0,1.8-0.1c0.4-0.1,0.7-0.2,0.9-0.5c0.2-0.3,0.4-0.6,0.4-1.1c0-0.4-0.1-0.7-0.3-1s-0.5-0.5-0.8-0.6
		c-0.4-0.1-1.1-0.2-2.3-0.2H244.6z"/>
	<path d="M255,291v-12.9h9.6v2.2h-7v2.9h6.5v2.2h-6.5v3.5h7.2v2.2H255z"/>
	<path d="M266.3,286.9l2.5-0.2c0.2,0.8,0.5,1.5,0.9,1.9c0.5,0.4,1.1,0.6,1.9,0.6c0.8,0,1.5-0.2,1.9-0.5c0.4-0.4,0.6-0.8,0.6-1.2
		c0-0.3-0.1-0.6-0.3-0.8c-0.2-0.2-0.5-0.4-0.9-0.6c-0.3-0.1-1-0.3-2.1-0.6c-1.4-0.3-2.4-0.8-2.9-1.3c-0.8-0.7-1.2-1.6-1.2-2.6
		c0-0.7,0.2-1.3,0.6-1.8c0.4-0.6,0.9-1,1.6-1.3c0.7-0.3,1.5-0.4,2.5-0.4c1.6,0,2.8,0.4,3.7,1.1c0.8,0.7,1.2,1.7,1.3,2.8l-2.6,0.1
		c-0.1-0.7-0.3-1.1-0.7-1.4c-0.4-0.3-0.9-0.4-1.6-0.4c-0.8,0-1.3,0.2-1.8,0.5c-0.3,0.2-0.4,0.5-0.4,0.8c0,0.3,0.1,0.6,0.4,0.8
		c0.3,0.3,1.1,0.6,2.4,0.9s2.2,0.6,2.8,0.9c0.6,0.3,1.1,0.8,1.4,1.3c0.3,0.6,0.5,1.2,0.5,2.1c0,0.7-0.2,1.4-0.6,2.1s-1,1.1-1.7,1.4
		s-1.7,0.5-2.8,0.5c-1.6,0-2.9-0.4-3.8-1.1S266.5,288.3,266.3,286.9z"/>
	<path d="M281.9,291v-10.7h-3.8v-2.2h10.2v2.2h-3.8V291H281.9z"/>
</g>
</svg>
