<?xml version="1.0" encoding="utf-8"?>
<!-- Generator: Adobe Illustrator 24.1.3, SVG Export Plug-In . SVG Version: 6.00 Build 0)  -->
<svg version="1.1" id="Layer_1" xmlns="http://www.w3.org/2000/svg" xmlns:xlink="http://www.w3.org/1999/xlink" x="0px" y="0px"
	 viewBox="0 0 245 120" style="enable-background:new 0 0 245 120;" xml:space="preserve">
<style type="text/css">
	.st0{fill:#734924;}
	.st1{fill:#603913;}
	.st2{fill:#452500;}
	.st3{fill:#6A4320;}
	.st4{fill:none;stroke:#939598;stroke-width:0.5;stroke-miterlimit:10;}
	.st5{fill:#AD8A6A;}
	.st6{fill:#A97C50;}
	.st7{fill:#A7A9AC;}
	.st8{fill:#BCBEC0;}
	.st9{fill:#808285;}
</style>
<g>
	<polygon class="st0" points="27.9,32.5 20.8,32.5 21.4,9.9 27.3,9.9 	"/>
	<polygon class="st0" points="27.9,56.1 20.8,56.1 21.4,78.1 27.3,78.1 	"/>
	<path class="st1" d="M19.3,81.3l0-4.1c0-0.4,0.3-0.7,0.7-0.7h8.3c0.4,0,0.7,0.3,0.7,0.7l0,4.1H19.3z"/>
	<rect x="20.9" y="33.6" class="st2" width="7.3" height="19.3"/>
	<path class="st0" d="M21.9,33.2c0,0-0.4,2-0.5,3.1c-0.1,1.1-0.5,4.4-0.5,4.4v4c0,0,1.2-4.7,1.9-6.9c0.7-2.3,0.9-4.8,0.9-4.8
		S21.8,33.4,21.9,33.2z"/>
	<path class="st0" d="M25.1,33.8l-4.4,14.8v3.6l5.6-18.6C26.3,33.5,25.3,34,25.1,33.8z"/>
	<polygon class="st0" points="21.9,52.7 23.7,52.7 28.1,37.9 28.1,33.5 27.5,33.5 	"/>
	<path class="st0" d="M27.8,43.6L25,53.1h2C27,53.1,28.1,43.3,27.8,43.6z"/>
	<g>
		<path class="st3" d="M29.3,30.9c0,0.2-0.1,0.3-0.3,0.3h-9.1c-0.2,0-0.3-0.1-0.3-0.3l0-0.6c0-0.2,0.1-0.3,0.3-0.3H29
			c0.2,0,0.3,0.1,0.3,0.3L29.3,30.9z"/>
		<path class="st3" d="M29.3,33.9c0,0.2-0.1,0.3-0.3,0.3h-9.1c-0.2,0-0.3-0.1-0.3-0.3l0-0.6c0-0.2,0.1-0.3,0.3-0.3H29
			c0.2,0,0.3,0.1,0.3,0.3L29.3,33.9z"/>
		<path class="st2" d="M28.7,33.1c-0.3,0-0.5-0.5-0.5-1c0-0.6,0.2-1,0.5-1h-8.4c0.3,0,0.5,0.5,0.5,1c0,0.6-0.2,1-0.5,1H28.7z"/>
	</g>
	<g>
		<path class="st3" d="M29.3,53.5c0,0.2-0.1,0.3-0.3,0.3h-9.1c-0.2,0-0.3-0.1-0.3-0.3l0-0.6c0-0.2,0.1-0.3,0.3-0.3H29
			c0.2,0,0.3,0.1,0.3,0.3L29.3,53.5z"/>
		<path class="st3" d="M29.3,56.5c0,0.2-0.1,0.3-0.3,0.3h-9.1c-0.2,0-0.3-0.1-0.3-0.3l0-0.6c0-0.2,0.1-0.3,0.3-0.3H29
			c0.2,0,0.3,0.1,0.3,0.3L29.3,56.5z"/>
		<path class="st2" d="M28.7,55.7c-0.3,0-0.5-0.5-0.5-1c0-0.6,0.2-1,0.5-1h-8.4c0.3,0,0.5,0.5,0.5,1c0,0.6-0.2,1-0.5,1H28.7z"/>
	</g>
	<polygon class="st0" points="68.8,32.5 61.8,32.5 62.4,9.9 68.2,9.9 	"/>
	<polygon class="st0" points="68.8,56.1 61.8,56.1 62.4,78.1 68.2,78.1 	"/>
	<path class="st1" d="M60.3,81.3l0-4.1c0-0.4,0.3-0.7,0.7-0.7h8.3c0.4,0,0.7,0.3,0.7,0.7l0,4.1H60.3z"/>
	<rect x="61.8" y="33.6" class="st2" width="7.3" height="19.3"/>
	<path class="st0" d="M62.9,33.2c0,0-0.4,2-0.5,3.1c-0.1,1.1-0.5,4.4-0.5,4.4v4c0,0,1.2-4.7,1.9-6.9c0.7-2.3,0.9-4.8,0.9-4.8
		S62.8,33.4,62.9,33.2z"/>
	<path class="st0" d="M66.1,33.8l-4.4,14.8v3.6l5.6-18.6C67.3,33.5,66.3,34,66.1,33.8z"/>
	<polygon class="st0" points="62.9,52.7 64.6,52.7 69,37.9 69,33.5 68.5,33.5 	"/>
	<path class="st0" d="M68.8,43.6L66,53.1h2C68,53.1,69.1,43.3,68.8,43.6z"/>
	<g>
		<path class="st3" d="M70.2,30.9c0,0.2-0.1,0.3-0.3,0.3h-9.1c-0.2,0-0.3-0.1-0.3-0.3l0-0.6c0-0.2,0.1-0.3,0.3-0.3h9.1
			c0.2,0,0.3,0.1,0.3,0.3L70.2,30.9z"/>
		<path class="st3" d="M70.2,33.9c0,0.2-0.1,0.3-0.3,0.3h-9.1c-0.2,0-0.3-0.1-0.3-0.3l0-0.6c0-0.2,0.1-0.3,0.3-0.3h9.1
			c0.2,0,0.3,0.1,0.3,0.3L70.2,33.9z"/>
		<path class="st2" d="M69.6,33.1c-0.3,0-0.5-0.5-0.5-1c0-0.6,0.2-1,0.5-1h-8.4c0.3,0,0.5,0.5,0.5,1c0,0.6-0.2,1-0.5,1H69.6z"/>
	</g>
	<g>
		<path class="st3" d="M70.2,53.5c0,0.2-0.1,0.3-0.3,0.3h-9.1c-0.2,0-0.3-0.1-0.3-0.3l0-0.6c0-0.2,0.1-0.3,0.3-0.3h9.1
			c0.2,0,0.3,0.1,0.3,0.3L70.2,53.5z"/>
		<path class="st3" d="M70.2,56.5c0,0.2-0.1,0.3-0.3,0.3h-9.1c-0.2,0-0.3-0.1-0.3-0.3l0-0.6c0-0.2,0.1-0.3,0.3-0.3h9.1
			c0.2,0,0.3,0.1,0.3,0.3L70.2,56.5z"/>
		<path class="st2" d="M69.6,55.7c-0.3,0-0.5-0.5-0.5-1c0-0.6,0.2-1,0.5-1h-8.4c0.3,0,0.5,0.5,0.5,1c0,0.6-0.2,1-0.5,1H69.6z"/>
	</g>
	<path class="st4" d="M48.7,48.9c4.8,3.4,11.1,11.6,11.1,17.9C59.8,75.1,53,82,44.6,82s-15.2-6.8-15.2-15.2
		c0-6.9,7.9-15.2,12.6-18.1c0,0,1.1-1.6,1.1-3.1s-1-2.4-1-2.4c-4.7-2.8-12.6-11.2-12.6-18.1c0-8.4,6.8-15.2,15.2-15.2
		s15.2,6.8,15.2,15.2c0,6.3-6.6,13.9-11.4,17.3c0,0-0.6,2.3-0.5,3.6S48.7,48.9,48.7,48.9z"/>
	<path class="st1" d="M19.3,9.7l0,4.1c0,0.4,0.3,0.7,0.7,0.7h8.3c0.4,0,0.7-0.3,0.7-0.7l0-4.1H19.3z"/>
	<path class="st1" d="M60.3,9.7l0,4.1c0,0.4,0.3,0.7,0.7,0.7h8.3c0.4,0,0.7-0.3,0.7-0.7l0-4.1H60.3z"/>
	<path class="st1" d="M12,91.3l0-3.9c0-0.8,0.6-1.4,1.4-1.4h63.2c0.8,0,1.4,0.6,1.4,1.4l0,3.9H12z"/>
	<path class="st2" d="M74.5,86l0-0.9c0-0.8-0.6-1.4-1.4-1.4H17c-0.8,0-1.4,0.6-1.4,1.4l0,0.9H74.5z"/>
	<path class="st1" d="M72.7,83.7l0-0.9c0-0.8-0.6-1.4-1.4-1.4H18.8c-0.8,0-1.4,0.6-1.4,1.4l0,0.9H72.7z"/>
	<path class="st3" d="M71.2,81.3H18.8c-0.8,0-1.4,0.6-1.4,1.4v0.9H18v-0.8c0,0,0-0.4,0.2-0.7c0.2-0.2,0.6-0.3,0.6-0.3l50.8-0.3
		L71.2,81.3z"/>
	<path class="st1" d="M69.3,83.8H16.9c-0.8,0-1.4,0.6-1.4,1.4v0.9h0.7v-0.8c0,0,0-0.4,0.2-0.7c0.2-0.2,0.6-0.3,0.6-0.3l50.8-0.3
		L69.3,83.8z"/>
	<path class="st3" d="M65.9,85.9H13.5c-0.8,0-1.4,0.6-1.4,1.4v3.9h0.7v-3.8c0,0,0-0.4,0.2-0.7s0.6-0.3,0.6-0.3l50.8-0.3L65.9,85.9z"
		/>
	<path class="st5" d="M37,14"/>
	<path class="st5" d="M58.3,25.3c0,5.7-5.9,12.5-10.2,15.5c0,0-0.9,1.6-0.6,2.7c0.1,0.3-1.1,1.3-1.7,1.7c-0.7,0.4-0.3,1.2-0.7,2
		c-0.4,0.8-0.9,0.7-1.2-0.7c0,0,0-1,0-2.4c0-1.4-1.5-2.6-1.5-2.6C38.1,39.1,31,31.5,31,25.3c0-4.7,2.2-9.2,6-11.3
		c0.6-0.4,1.2,5.6,4,9.4c2.8,3.7,4.1,4.5,8.5,4.8S58.3,25.3,58.3,25.3z"/>
	<path class="st6" d="M58.3,25.3c0,0-4.5,3.1-8.8,2.8s-5.7-1.1-8.5-4.8c-2.8-3.7-4.6-9.8-4-9.4c0.8,0.6,2.1,2.6,5.4,5.2
		c3.3,2.7,5.6,4.9,8.6,5.1C54.1,24.4,58.3,25.3,58.3,25.3z"/>
	<path class="st5" d="M57,72.8c-2.2,4.6-6.9,7.7-12.3,7.7c-4.7,0-8.8-2.5-11.3-6c-0.7-1-0.3-1.3,0.5-1.5c0.8-0.3,6.4,0,6.9-1.6
		c0.5-1.6,2.4-6.8,2.9-6.8s2.9,4.1,4,5.6s3.2,1.9,5.6,1.7C55.6,71.7,57,72.8,57,72.8z"/>
	<path class="st6" d="M57,72.8c0,0-1.4-1-3.8-0.9c-2.4,0.1-4.5-0.3-5.6-1.7s-4-6.1-4-5.6c0.2,1.7,2.8,6.2,3.1,7.8s-0.3,5.1,3.3,4.1
		C53.7,75.4,57,72.8,57,72.8z"/>
	<path class="st5" d="M44.6,50.5c-0.3-0.4-0.8,1.9-0.5,3.8c0.1,0.7,0.3,1.5,0.3,2.1c0,2.4,0.7,6.8-0.1,6.4c-0.8-0.4-1-4.8-0.7-5.7
		C43.8,56.2,45.8,51.8,44.6,50.5z"/>
	<path class="st7" d="M39.6,15.1c0,0-1.7,2-2.3,4.3s-0.5,2.3-0.5,2.3s2.4,1.5,4.1,1.7c1.7,0.3,1.7,0.3,1.7,0.3s0.7-3.7,1.2-4.8
		c0.5-1.1,0.7-1.7,0.7-1.7s-1.9-0.5-2.9-0.9C40.6,15.7,39.6,15.1,39.6,15.1z"/>
	<path class="st7" d="M35.7,57.3c0,0-2,1.2-2.5,3.5c-0.5,2.3-0.4,2.7-0.4,2.7s0.3,1.1,2,1.4c1.7,0.3,2.5,0.8,2.5,0.8s0.1-2,0.7-3.1
		c0.5-1.1,1.7-2.2,1.7-2.2s-1.4-0.7-2.4-1.1C36.1,58.8,35.7,57.3,35.7,57.3z"/>
	<path class="st8" d="M43.1,45.5c1.9,0.1,1.9,0.7,2,1.7c0.1,1.1-2.3,0.4-2.3,0.4L43.1,45.5z"/>
	<path class="st9" d="M52.1,15.1c0,0,1.1,0,1.7,1.1c0.7,1.1,1.5,2,1.5,2l-3.5-0.5L52.1,15.1z"/>
	<path class="st1" d="M72.7,7.9l0,0.3c0,0.8-0.6,1.4-1.4,2H18.8c-0.8-0.6-1.4-1.2-1.4-2l0-0.3H72.7z"/>
	<path class="st2" d="M74.5,6l0,0.3c0,0.8-0.6,1.4-1.4,2H17c-0.8-0.6-1.4-1.2-1.4-2l0-0.3H74.5z"/>
	<path class="st1" d="M12,6.5l0-3.9c0-0.8,0.6-1.4,1.4-1.4h63.2c0.8,0,1.4,0.6,1.4,1.4l0,3.9H12z"/>
</g>
<rect x="0.6" y="91.3" class="st0" width="243.4" height="9.3"/>
<polygon class="st2" points="31.5,119.2 21.6,119.2 20.6,100.6 32.5,100.6 "/>
<polygon class="st2" points="222.3,119.2 212.4,119.2 211.4,100.6 223.3,100.6 "/>
</svg>
