<?xml version="1.0" encoding="utf-8"?>
<!-- Generator: Adobe Illustrator 24.1.3, SVG Export Plug-In . SVG Version: 6.00 Build 0)  -->
<svg version="1.1" id="Layer_1" xmlns="http://www.w3.org/2000/svg" xmlns:xlink="http://www.w3.org/1999/xlink" x="0px" y="0px"
	 viewBox="0 0 83 83" style="enable-background:new 0 0 83 83;" xml:space="preserve">
<style type="text/css">
	.st0{fill:#1A1A1A;}
	.st1{fill:#A2BBD2;}
	.st2{fill:#5C8FAD;}
	.st3{fill:#F3F2F7;}
</style>
<g>
	<path class="st0" d="M81.7,76.4c0,3.2-2.4,5.5-5.5,5.5H8.3c-2.8,0-5-2.3-5-5L3.4,8.2c0-2.8,2.3-5,5-5h68.3c2.8,0,5,2.3,5,5
		L81.7,76.4z"/>
	<path class="st1" d="M79.2,74.4c0,2.8-2.3,5-5,5H5.8c-2.8,0-5-2.3-5-5L0.9,5.8c0-2.8,2.3-5,5-5h68.3c2.8,0,5,2.3,5,5L79.2,74.4z"/>
	<path class="st2" d="M76.3,1.1c1.8,0.8,3.1,2.6,3.1,4.6l-0.1,68.7c0,2.8-2.3,5-5,5H5.8c-1.4,0-2.7-0.6-3.6-1.5L76.3,1.1z"/>
	<path class="st3" d="M76.5,71.9c0,2.7-2.2,4.8-4.8,4.8H8.3c-2.7,0-4.8-2.2-4.8-4.8L3.7,8.3c0-2.7,2.2-4.8,4.8-4.8h63.3
		c2.7,0,4.8,2.2,4.8,4.8L76.5,71.9z"/>
</g>
</svg>
