<?xml version="1.0" encoding="utf-8"?>
<!-- Generator: Adobe Illustrator 24.1.3, SVG Export Plug-In . SVG Version: 6.00 Build 0)  -->
<svg version="1.1" id="Layer_1" xmlns="http://www.w3.org/2000/svg" xmlns:xlink="http://www.w3.org/1999/xlink" x="0px" y="0px"
	 viewBox="0 0 420 330" style="enable-background:new 0 0 420 330;" xml:space="preserve">
<style type="text/css">
	.st0{fill:#F1F2F2;}
	.st1{fill:none;stroke:#7D8499;stroke-width:1.0022;stroke-miterlimit:10;}
	.st2{fill:#CD7629;}
	.st3{fill:#614630;}
	.st4{fill:#CD9E2E;}
	.st5{fill:#D52B2B;}
</style>
<g>
	<path class="st0" d="M389,311.1c0,3.3-2.7,6-6,6H37.2c-3.3,0-6-2.7-6-6V9.8c0-3.3,2.7-6,6-6H383c3.3,0,6,2.7,6,6V311.1z"/>
	<path class="st1" d="M389,311.1c0,3.3-2.7,6-6,6H37.2c-3.3,0-6-2.7-6-6V9.8c0-3.3,2.7-6,6-6H383c3.3,0,6,2.7,6,6V311.1z"/>
</g>
<g>
	<g>
		<g>
			<g>
				<g>
					<g>
						<path class="st2" d="M390.5,326.5h22.7c2.8,0,5-2.3,5-5v-23.6c0-2.8-2.3-5-5-5h-23.6"/>
					</g>
					<polygon class="st3" points="402.3,302.3 390,302.3 390,326.7 402.3,318.4 					"/>
				</g>
				<g>
					<g>
						<path class="st2" d="M29.9,326.5H7.2c-2.8,0-5-2.3-5-5v-23.6c0-2.8,2.3-5,5-5h22.7"/>
					</g>
					<polygon class="st3" points="18.1,302.3 30.4,302.3 30.4,326.7 18.1,318.4 					"/>
				</g>
				<g>
					<path class="st4" d="M17,317.8v-29.3c0-2.8,2.3-5,5-5h376.4c2.8,0,5,2.3,5,5v29.3"/>
				</g>
				<g>
					<path class="st5" d="M177.6,300.9"/>
				</g>
			</g>
		</g>
	</g>
</g>
<g>
	<path d="M132,308.4l-3.1-12.9h2.7l1.9,8.9l2.4-8.9h3.1l2.3,9l2-9h2.6l-3.1,12.9h-2.8l-2.6-9.6l-2.6,9.6H132z"/>
	<path d="M147.1,308.4v-12.9h2.6v12.9H147.1z"/>
	<path d="M151,308.4v-2.3l6.8-8.4h-6v-2.2h9.4v2l-7.1,8.7h7.3v2.2H151z"/>
	<path d="M174.8,308.4h-2.8l-1.1-2.9h-5.2l-1.1,2.9h-2.8l5-12.9h2.8L174.8,308.4z M170,303.3l-1.8-4.8l-1.7,4.8H170z"/>
	<path d="M176.2,308.4v-12.9h5.5c1.4,0,2.4,0.1,3,0.3s1.1,0.6,1.5,1.2s0.6,1.3,0.6,2c0,1-0.3,1.8-0.9,2.4s-1.4,1-2.5,1.2
		c0.6,0.3,1,0.7,1.4,1.1s0.9,1.1,1.5,2.1l1.6,2.5h-3.1l-1.9-2.8c-0.7-1-1.1-1.6-1.4-1.9s-0.5-0.4-0.8-0.5s-0.7-0.1-1.3-0.1h-0.5v5.4
		H176.2z M178.8,301h1.9c1.2,0,2-0.1,2.3-0.2s0.6-0.3,0.7-0.5s0.3-0.6,0.3-1c0-0.4-0.1-0.8-0.3-1s-0.6-0.4-1-0.5c-0.2,0-0.8,0-1.9,0
		h-2V301z"/>
	<path d="M189.1,295.6h4.8c1.1,0,1.9,0.1,2.5,0.2c0.8,0.2,1.4,0.6,1.9,1.2s0.9,1.3,1.2,2.1s0.4,1.8,0.4,3c0,1.1-0.1,2-0.4,2.7
		c-0.3,0.9-0.8,1.7-1.4,2.3c-0.5,0.4-1.1,0.8-1.8,1c-0.6,0.2-1.3,0.3-2.3,0.3h-4.9V295.6z M191.7,297.7v8.5h1.9c0.7,0,1.3,0,1.6-0.1
		c0.4-0.1,0.8-0.3,1-0.5s0.5-0.7,0.7-1.2s0.3-1.4,0.3-2.4s-0.1-1.8-0.3-2.3s-0.4-0.9-0.7-1.2s-0.7-0.5-1.2-0.6
		c-0.4-0.1-1.1-0.1-2.1-0.1H191.7z"/>
	<path d="M207.2,308.4v-12.9h5.5c1.4,0,2.4,0.1,3,0.3s1.1,0.6,1.5,1.2s0.6,1.3,0.6,2c0,1-0.3,1.8-0.9,2.4s-1.4,1-2.5,1.2
		c0.6,0.3,1,0.7,1.4,1.1s0.9,1.1,1.5,2.1l1.6,2.5h-3.1l-1.9-2.8c-0.7-1-1.1-1.6-1.4-1.9s-0.5-0.4-0.8-0.5s-0.7-0.1-1.3-0.1h-0.5v5.4
		H207.2z M209.8,301h1.9c1.2,0,2-0.1,2.3-0.2s0.6-0.3,0.7-0.5s0.3-0.6,0.3-1c0-0.4-0.1-0.8-0.3-1s-0.6-0.4-1-0.5c-0.2,0-0.8,0-1.9,0
		h-2V301z"/>
	<path d="M220.1,308.4v-12.9h9.6v2.2h-7v2.9h6.5v2.2h-6.5v3.5h7.2v2.2H220.1z"/>
	<path d="M240.4,303.7l2.5,0.8c-0.4,1.4-1,2.5-1.9,3.1s-2,1-3.4,1c-1.7,0-3.1-0.6-4.2-1.8s-1.7-2.8-1.7-4.8c0-2.1,0.6-3.8,1.7-5
		s2.6-1.8,4.4-1.8c1.6,0,2.9,0.5,3.8,1.4c0.6,0.6,1,1.3,1.3,2.4l-2.6,0.6c-0.2-0.7-0.5-1.2-1-1.6s-1.1-0.6-1.8-0.6
		c-1,0-1.7,0.3-2.3,1s-0.9,1.8-0.9,3.3c0,1.6,0.3,2.8,0.9,3.5s1.3,1,2.3,1c0.7,0,1.3-0.2,1.8-0.7S240.2,304.6,240.4,303.7z"/>
	<path d="M244.6,302.1c0-1.3,0.2-2.4,0.6-3.3c0.3-0.7,0.7-1.2,1.2-1.8s1.1-0.9,1.7-1.2c0.8-0.3,1.7-0.5,2.8-0.5
		c1.9,0,3.4,0.6,4.6,1.8s1.7,2.8,1.7,4.9c0,2.1-0.6,3.7-1.7,4.9s-2.6,1.8-4.5,1.8c-1.9,0-3.4-0.6-4.6-1.8S244.6,304.1,244.6,302.1z
		 M247.3,302c0,1.5,0.3,2.6,1,3.3s1.5,1.1,2.6,1.1s1.9-0.4,2.6-1.1s1-1.9,1-3.4c0-1.5-0.3-2.6-1-3.3s-1.5-1.1-2.6-1.1
		s-1.9,0.4-2.6,1.1S247.3,300.5,247.3,302z"/>
	<path d="M259.2,308.4v-12.9h5.5c1.4,0,2.4,0.1,3,0.3s1.1,0.6,1.5,1.2s0.6,1.3,0.6,2c0,1-0.3,1.8-0.9,2.4s-1.4,1-2.5,1.2
		c0.6,0.3,1,0.7,1.4,1.1s0.9,1.1,1.5,2.1l1.6,2.5h-3.1l-1.9-2.8c-0.7-1-1.1-1.6-1.4-1.9s-0.5-0.4-0.8-0.5s-0.7-0.1-1.3-0.1h-0.5v5.4
		H259.2z M261.8,301h1.9c1.2,0,2-0.1,2.3-0.2s0.6-0.3,0.7-0.5s0.3-0.6,0.3-1c0-0.4-0.1-0.8-0.3-1s-0.6-0.4-1-0.5c-0.2,0-0.8,0-1.9,0
		h-2V301z"/>
	<path d="M272.1,295.6h4.8c1.1,0,1.9,0.1,2.5,0.2c0.8,0.2,1.4,0.6,1.9,1.2s0.9,1.3,1.2,2.1s0.4,1.8,0.4,3c0,1.1-0.1,2-0.4,2.7
		c-0.3,0.9-0.8,1.7-1.4,2.3c-0.5,0.4-1.1,0.8-1.8,1c-0.6,0.2-1.3,0.3-2.3,0.3h-4.9V295.6z M274.7,297.7v8.5h1.9c0.7,0,1.3,0,1.6-0.1
		c0.4-0.1,0.8-0.3,1-0.5s0.5-0.7,0.7-1.2s0.3-1.4,0.3-2.4s-0.1-1.8-0.3-2.3s-0.4-0.9-0.7-1.2s-0.7-0.5-1.2-0.6
		c-0.4-0.1-1.1-0.1-2.1-0.1H274.7z"/>
	<path d="M284.5,304.2l2.5-0.2c0.2,0.8,0.5,1.5,0.9,1.9s1.1,0.6,1.9,0.6c0.8,0,1.5-0.2,1.9-0.5s0.6-0.8,0.6-1.2
		c0-0.3-0.1-0.6-0.3-0.8s-0.5-0.4-0.9-0.6c-0.3-0.1-1-0.3-2.1-0.6c-1.4-0.3-2.4-0.8-2.9-1.3c-0.8-0.7-1.2-1.6-1.2-2.6
		c0-0.7,0.2-1.3,0.6-1.8s0.9-1,1.6-1.3s1.5-0.4,2.5-0.4c1.6,0,2.8,0.4,3.7,1.1s1.2,1.7,1.3,2.8l-2.6,0.1c-0.1-0.7-0.3-1.1-0.7-1.4
		s-0.9-0.4-1.6-0.4c-0.8,0-1.3,0.2-1.8,0.5c-0.3,0.2-0.4,0.5-0.4,0.8c0,0.3,0.1,0.6,0.4,0.8c0.3,0.3,1.1,0.6,2.4,0.9
		s2.2,0.6,2.8,0.9s1.1,0.8,1.4,1.3s0.5,1.2,0.5,2.1c0,0.7-0.2,1.4-0.6,2.1s-1,1.1-1.7,1.4s-1.7,0.5-2.8,0.5c-1.6,0-2.9-0.4-3.8-1.1
		S284.7,305.7,284.5,304.2z"/>
</g>
</svg>
