<?xml version="1.0" encoding="utf-8"?>
<!-- Generator: Adobe Illustrator 24.1.3, SVG Export Plug-In . SVG Version: 6.00 Build 0)  -->
<svg version="1.1" id="Layer_1" xmlns="http://www.w3.org/2000/svg" xmlns:xlink="http://www.w3.org/1999/xlink" x="0px" y="0px"
	 viewBox="0 0 364 460" style="enable-background:new 0 0 364 460;" xml:space="preserve">
<style type="text/css">
	.st0{opacity:0.84;fill:#111629;stroke:#7D8499;stroke-miterlimit:10;}
	.st1{fill:#3E3E3E;}
	.st2{fill:#868978;}
	.st3{fill:#6B6F60;}
	.st4{fill:#909685;}
</style>
<g>
	<rect x="2.7" y="3.6" class="st0" width="358.7" height="453.1"/>
	<g>
		<path class="st1" d="M331.3,2.9h27.3c0,0,3.2-0.5,3.8,1.1c0.5,1.5,0.3,3.2,0.3,3.2v29.3c0,0-2.7-1.2-2.9-2.7s-2.2-4.4-2.2-4.4
			s4.4-4.8,1.9-6c-2.4-1.2-5.3,6.3-5.3,6.3s-2.9,0.2-3.1-3.1s-0.2-4.6-0.2-4.6s-5.8,0.7-7.3-1.9c-1.5-2.7-0.2-5.3-0.2-5.3
			s-2.2,0.5-4.8-0.7c-2.7-1.2-4.4-2.2-4.4-2.2s5.3-0.7,6.5-2.7s1.2-3.1,1.2-3.1s-1.5-1.7-2.9-0.5c-1.5,1.2-3.1,2.2-3.1,2.2
			L331.3,2.9z"/>
		<path class="st2" d="M331.7,2.5H359c0,0,3.2-0.5,3.8,1.1c0.5,1.5,0.3,3.2,0.3,3.2v29.3c0,0-2.7-1.2-2.9-2.7
			c-0.2-1.5-2.2-4.4-2.2-4.4s4.4-4.8,1.9-6c-2.4-1.2-5.3,6.3-5.3,6.3s-2.9,0.2-3.1-3.1s-0.2-4.6-0.2-4.6s-5.8,0.7-7.3-1.9
			s-0.2-5.3-0.2-5.3s-2.2,0.5-4.8-0.7c-2.7-1.2-4.4-2.2-4.4-2.2s5.3-0.7,6.5-2.7c1.2-1.9,1.2-3.1,1.2-3.1s-1.5-1.7-2.9-0.5
			s-3.1,2.2-3.1,2.2L331.7,2.5z"/>
		<path class="st1" d="M346.2,11.2c0,0,0.5-0.5,0.2-2.9c-0.2-2.4-2.2-4.1-2.2-4.1H359l-6.5,7.5c0,0-2.7-0.7-3.4-0.5
			S346.2,11.2,346.2,11.2z"/>
		<path class="st3" d="M346.6,10.9c0,0,0.4-0.4,0.2-2.6s-2-3.7-2-3.7h13.3l-5.9,6.8c0,0-2.4-0.7-3.1-0.4
			C348.6,11.1,346.6,10.9,346.6,10.9z"/>
		<path class="st1" d="M352.7,13.6c0,0,0.7,1,0.7,2.4s0.2,2.7,0.2,2.7s1.7-0.5,3.1,0c1.5,0.5,3.1,1.2,3.1,1.2s1.7-14,0.7-14
			C359.7,5.9,352.7,13.6,352.7,13.6z"/>
		<path class="st3" d="M353.3,13.8c0,0,0.7,0.9,0.7,2.2s0.2,2.4,0.2,2.4s1.5-0.4,2.8,0c1.3,0.4,2.8,1.1,2.8,1.1s1.5-12.6,0.7-12.6
			S353.3,13.8,353.3,13.8z"/>
		<path class="st1" d="M359.5,21.2c0,0-3.3,0.1-4.4,1.5c-1.1,1.4-0.2,4.3-0.2,4.3s-4.4-2.6-1.1-5.8
			C356.1,18.8,359.5,21.2,359.5,21.2z"/>
		<path class="st3" d="M358.2,21.4c0,0-2.5,0.1-3.2,1.3c-0.8,1.3-0.2,3.9-0.2,3.9s-3.2-2.4-0.8-5.3
			C355.6,19.1,358.2,21.4,358.2,21.4z"/>
		<path class="st1" d="M338.5,11.8c0,0,2.9-0.5,4.5-1.8c1.1-0.9,1-3.6,1-3.6s2.5,4.2-0.2,5.8S338.5,11.8,338.5,11.8z"/>
		<path class="st3" d="M339.6,11.8c0,0,2.3-0.4,3.6-1.4c0.9-0.7,0.8-2.9,0.8-2.9s2,3.4-0.2,4.6S339.6,11.8,339.6,11.8z"/>
		<path class="st1" d="M345.8,14c1.4-1.3,3.9-2.3,5.2-0.7c1.3,1.5,1.9,4.4,0.7,5.6c-1.1,1.3-3.9,2.3-5.5,0.4
			C344.7,17.4,344.8,14.9,345.8,14z"/>
		<path class="st3" d="M346.3,14c1.3-1.2,3.5-2,4.7-0.7s1.7,3.9,0.7,5.1s-3.6,2-4.9,0.4C345.3,17.2,345.3,14.9,346.3,14z"/>
		<circle class="st1" cx="336.6" cy="4.3" r="1.2"/>
		<circle class="st1" cx="361" cy="30.4" r="1.3"/>
		<circle class="st1" cx="361.2" cy="3.5" r="1.1"/>
		<circle class="st4" cx="336.8" cy="4.3" r="1"/>
		<circle class="st4" cx="360.8" cy="30.4" r="1.1"/>
		<circle class="st4" cx="361.2" cy="3.5" r="1"/>
	</g>
	<g>
		<path class="st1" d="M331.3,457.5h27.3c0,0,3.2,0.5,3.8-1.1c0.5-1.5,0.3-3.2,0.3-3.2v-29.3c0,0-2.7,1.2-2.9,2.7
			c-0.2,1.5-2.2,4.4-2.2,4.4s4.4,4.8,1.9,6c-2.4,1.2-5.3-6.3-5.3-6.3s-2.9-0.2-3.1,3.1c-0.2,3.4-0.2,4.6-0.2,4.6s-5.8-0.7-7.3,1.9
			c-1.5,2.7-0.2,5.3-0.2,5.3s-2.2-0.5-4.8,0.7c-2.7,1.2-4.4,2.2-4.4,2.2s5.3,0.7,6.5,2.7s1.2,3.1,1.2,3.1s-1.5,1.7-2.9,0.5
			c-1.5-1.2-3.1-2.2-3.1-2.2L331.3,457.5z"/>
		<path class="st2" d="M331.7,457.8H359c0,0,3.2,0.5,3.8-1.1c0.5-1.5,0.3-3.2,0.3-3.2v-29.3c0,0-2.7,1.2-2.9,2.7
			c-0.2,1.5-2.2,4.4-2.2,4.4s4.4,4.8,1.9,6c-2.4,1.2-5.3-6.3-5.3-6.3s-2.9-0.2-3.1,3.1c-0.2,3.4-0.2,4.6-0.2,4.6s-5.8-0.7-7.3,1.9
			c-1.5,2.7-0.2,5.3-0.2,5.3s-2.2-0.5-4.8,0.7c-2.7,1.2-4.4,2.2-4.4,2.2s5.3,0.7,6.5,2.7c1.2,1.9,1.2,3.1,1.2,3.1s-1.5,1.7-2.9,0.5
			s-3.1-2.2-3.1-2.2L331.7,457.8z"/>
		<path class="st1" d="M346.2,449.1c0,0,0.5,0.5,0.2,2.9c-0.2,2.4-2.2,4.1-2.2,4.1H359l-6.5-7.5c0,0-2.7,0.7-3.4,0.5
			S346.2,449.1,346.2,449.1z"/>
		<path class="st3" d="M346.6,449.5c0,0,0.4,0.4,0.2,2.6s-2,3.7-2,3.7h13.3l-5.9-6.8c0,0-2.4,0.7-3.1,0.4
			C348.6,449.3,346.6,449.5,346.6,449.5z"/>
		<path class="st1" d="M352.7,446.7c0,0,0.7-1,0.7-2.4c0-1.5,0.2-2.7,0.2-2.7s1.7,0.5,3.1,0c1.5-0.5,3.1-1.2,3.1-1.2s1.7,14,0.7,14
			C359.7,454.4,352.7,446.7,352.7,446.7z"/>
		<path class="st3" d="M353.3,446.5c0,0,0.7-0.9,0.7-2.2c0-1.3,0.2-2.4,0.2-2.4s1.5,0.4,2.8,0c1.3-0.4,2.8-1.1,2.8-1.1
			s1.5,12.6,0.7,12.6S353.3,446.5,353.3,446.5z"/>
		<path class="st1" d="M359.5,439.1c0,0-3.3-0.1-4.4-1.5c-1.1-1.4-0.2-4.3-0.2-4.3s-4.4,2.6-1.1,5.8
			C356.1,441.5,359.5,439.1,359.5,439.1z"/>
		<path class="st3" d="M358.2,439c0,0-2.5-0.1-3.2-1.3c-0.8-1.3-0.2-3.9-0.2-3.9s-3.2,2.4-0.8,5.3C355.6,441.2,358.2,439,358.2,439z
			"/>
		<path class="st1" d="M338.5,448.6c0,0,2.9,0.5,4.5,1.8c1.1,0.9,1,3.6,1,3.6s2.5-4.2-0.2-5.8C341.1,446.5,338.5,448.6,338.5,448.6z
			"/>
		<path class="st3" d="M339.6,448.6c0,0,2.3,0.4,3.6,1.4c0.9,0.7,0.8,2.9,0.8,2.9s2-3.4-0.2-4.6C341.6,447,339.6,448.6,339.6,448.6z
			"/>
		<path class="st1" d="M345.8,446.4c1.4,1.3,3.9,2.3,5.2,0.7c1.3-1.5,1.9-4.4,0.7-5.6c-1.1-1.3-3.9-2.3-5.5-0.4
			C344.7,442.9,344.8,445.4,345.8,446.4z"/>
		<path class="st3" d="M346.3,446.3c1.3,1.2,3.5,2,4.7,0.7s1.7-3.9,0.7-5.1s-3.6-2-4.9-0.4C345.3,443.2,345.3,445.4,346.3,446.3z"/>
		<circle class="st1" cx="336.6" cy="456" r="1.2"/>
		<circle class="st1" cx="361" cy="429.9" r="1.3"/>
		<circle class="st1" cx="361.2" cy="456.9" r="1.1"/>
		<circle class="st4" cx="336.8" cy="456" r="1"/>
		<circle class="st4" cx="360.8" cy="429.9" r="1.1"/>
		<circle class="st4" cx="361.2" cy="456.9" r="1"/>
	</g>
	<g>
		<path class="st1" d="M33.1,2.9H5.8c0,0-3.2-0.5-3.8,1.1C1.5,5.5,1.7,7.2,1.7,7.2v29.3c0,0,2.7-1.2,2.9-2.7s2.2-4.4,2.2-4.4
			s-4.4-4.8-1.9-6s5.3,6.3,5.3,6.3s2.9,0.2,3.1-3.1c0.2-3.4,0.2-4.6,0.2-4.6s5.8,0.7,7.3-1.9s0.2-5.3,0.2-5.3s2.2,0.5,4.8-0.7
			s4.4-2.2,4.4-2.2s-5.3-0.7-6.5-2.7S22.4,6,22.4,6s1.5-1.7,2.9-0.5s3.1,2.2,3.1,2.2L33.1,2.9z"/>
		<path class="st2" d="M32.7,2.5H5.4c0,0-3.2-0.5-3.8,1.1C1.1,5.1,1.3,6.9,1.3,6.9v29.3c0,0,2.7-1.2,2.9-2.7
			c0.2-1.5,2.2-4.4,2.2-4.4s-4.4-4.8-1.9-6c2.4-1.2,5.3,6.3,5.3,6.3s2.9,0.2,3.1-3.1s0.2-4.6,0.2-4.6s5.8,0.7,7.3-1.9
			s0.2-5.3,0.2-5.3s2.2,0.5,4.8-0.7s4.4-2.2,4.4-2.2s-5.3-0.7-6.5-2.7c-1.2-1.9-1.2-3.1-1.2-3.1S23.5,4,25,5.2s3.1,2.2,3.1,2.2
			L32.7,2.5z"/>
		<path class="st1" d="M18.2,11.2c0,0-0.5-0.5-0.2-2.9s2.2-4.1,2.2-4.1H5.4l6.5,7.5c0,0,2.7-0.7,3.4-0.5
			C16,11.5,18.2,11.2,18.2,11.2z"/>
		<path class="st3" d="M17.8,10.9c0,0-0.4-0.4-0.2-2.6c0.2-2.2,2-3.7,2-3.7H6.2l5.9,6.8c0,0,2.4-0.7,3.1-0.4S17.8,10.9,17.8,10.9z"
			/>
		<path class="st1" d="M11.7,13.6c0,0-0.7,1-0.7,2.4s-0.2,2.7-0.2,2.7s-1.7-0.5-3.1,0c-1.5,0.5-3.1,1.2-3.1,1.2s-1.7-14-0.7-14
			S11.7,13.6,11.7,13.6z"/>
		<path class="st3" d="M11.1,13.8c0,0-0.7,0.9-0.7,2.2s-0.2,2.4-0.2,2.4s-1.5-0.4-2.8,0s-2.8,1.1-2.8,1.1S3.1,6.9,4,6.9
			S11.1,13.8,11.1,13.8z"/>
		<path class="st1" d="M4.9,21.2c0,0,3.3,0.1,4.4,1.5c1.1,1.4,0.2,4.3,0.2,4.3s4.4-2.6,1.1-5.8C8.3,18.8,4.9,21.2,4.9,21.2z"/>
		<path class="st3" d="M6.2,21.4c0,0,2.5,0.1,3.2,1.3c0.8,1.3,0.2,3.9,0.2,3.9s3.2-2.4,0.8-5.3C8.7,19.1,6.2,21.4,6.2,21.4z"/>
		<path class="st1" d="M25.9,11.8c0,0-2.9-0.5-4.5-1.8c-1.1-0.9-1-3.6-1-3.6s-2.5,4.2,0.2,5.8S25.9,11.8,25.9,11.8z"/>
		<path class="st3" d="M24.8,11.8c0,0-2.3-0.4-3.6-1.4c-0.9-0.7-0.8-2.9-0.8-2.9s-2,3.4,0.2,4.6S24.8,11.8,24.8,11.8z"/>
		<path class="st1" d="M18.5,14c-1.4-1.3-3.9-2.3-5.2-0.7s-1.9,4.4-0.7,5.6c1.1,1.3,3.9,2.3,5.5,0.4C19.7,17.4,19.6,14.9,18.5,14z"
			/>
		<path class="st3" d="M18.1,14c-1.3-1.2-3.5-2-4.7-0.7s-1.7,3.9-0.7,5.1s3.6,2,4.9,0.4C19.1,17.2,19.1,14.9,18.1,14z"/>
		<circle class="st1" cx="27.8" cy="4.3" r="1.2"/>
		<circle class="st1" cx="3.4" cy="30.4" r="1.3"/>
		<circle class="st1" cx="3.1" cy="3.5" r="1.1"/>
		<circle class="st4" cx="27.6" cy="4.3" r="1"/>
		<circle class="st4" cx="3.6" cy="30.4" r="1.1"/>
		<circle class="st4" cx="3.1" cy="3.5" r="1"/>
	</g>
	<g>
		<path class="st1" d="M33.1,457.5H5.8c0,0-3.2,0.5-3.8-1.1c-0.5-1.5-0.3-3.2-0.3-3.2v-29.3c0,0,2.7,1.2,2.9,2.7
			c0.2,1.5,2.2,4.4,2.2,4.4s-4.4,4.8-1.9,6s5.3-6.3,5.3-6.3s2.9-0.2,3.1,3.1c0.2,3.4,0.2,4.6,0.2,4.6s5.8-0.7,7.3,1.9
			c1.5,2.7,0.2,5.3,0.2,5.3s2.2-0.5,4.8,0.7s4.4,2.2,4.4,2.2s-5.3,0.7-6.5,2.7s-1.2,3.1-1.2,3.1s1.5,1.7,2.9,0.5s3.1-2.2,3.1-2.2
			L33.1,457.5z"/>
		<path class="st2" d="M32.7,457.8H5.4c0,0-3.2,0.5-3.8-1.1c-0.5-1.5-0.3-3.2-0.3-3.2v-29.3c0,0,2.7,1.2,2.9,2.7s2.2,4.4,2.2,4.4
			s-4.4,4.8-1.9,6s5.3-6.3,5.3-6.3s2.9-0.2,3.1,3.1c0.2,3.4,0.2,4.6,0.2,4.6s5.8-0.7,7.3,1.9c1.5,2.7,0.2,5.3,0.2,5.3
			s2.2-0.5,4.8,0.7s4.4,2.2,4.4,2.2s-5.3,0.7-6.5,2.7c-1.2,1.9-1.2,3.1-1.2,3.1s1.5,1.7,2.9,0.5s3.1-2.2,3.1-2.2L32.7,457.8z"/>
		<path class="st1" d="M18.2,449.1c0,0-0.5,0.5-0.2,2.9c0.2,2.4,2.2,4.1,2.2,4.1H5.4l6.5-7.5c0,0,2.7,0.7,3.4,0.5
			C16,448.9,18.2,449.1,18.2,449.1z"/>
		<path class="st3" d="M17.8,449.5c0,0-0.4,0.4-0.2,2.6c0.2,2.2,2,3.7,2,3.7H6.2l5.9-6.8c0,0,2.4,0.7,3.1,0.4
			C15.8,449.3,17.8,449.5,17.8,449.5z"/>
		<path class="st1" d="M11.7,446.7c0,0-0.7-1-0.7-2.4c0-1.5-0.2-2.7-0.2-2.7s-1.7,0.5-3.1,0s-3.1-1.2-3.1-1.2s-1.7,14-0.7,14
			S11.7,446.7,11.7,446.7z"/>
		<path class="st3" d="M11.1,446.5c0,0-0.7-0.9-0.7-2.2c0-1.3-0.2-2.4-0.2-2.4s-1.5,0.4-2.8,0c-1.3-0.4-2.8-1.1-2.8-1.1
			S3.1,453.5,4,453.5S11.1,446.5,11.1,446.5z"/>
		<path class="st1" d="M4.9,439.1c0,0,3.3-0.1,4.4-1.5c1.1-1.4,0.2-4.3,0.2-4.3s4.4,2.6,1.1,5.8C8.3,441.5,4.9,439.1,4.9,439.1z"/>
		<path class="st3" d="M6.2,439c0,0,2.5-0.1,3.2-1.3c0.8-1.3,0.2-3.9,0.2-3.9s3.2,2.4,0.8,5.3C8.7,441.2,6.2,439,6.2,439z"/>
		<path class="st1" d="M25.9,448.6c0,0-2.9,0.5-4.5,1.8c-1.1,0.9-1,3.6-1,3.6s-2.5-4.2,0.2-5.8C23.3,446.5,25.9,448.6,25.9,448.6z"
			/>
		<path class="st3" d="M24.8,448.6c0,0-2.3,0.4-3.6,1.4c-0.9,0.7-0.8,2.9-0.8,2.9s-2-3.4,0.2-4.6C22.7,447,24.8,448.6,24.8,448.6z"
			/>
		<path class="st1" d="M18.5,446.4c-1.4,1.3-3.9,2.3-5.2,0.7c-1.3-1.5-1.9-4.4-0.7-5.6s3.9-2.3,5.5-0.4
			C19.7,442.9,19.6,445.4,18.5,446.4z"/>
		<path class="st3" d="M18.1,446.3c-1.3,1.2-3.5,2-4.7,0.7s-1.7-3.9-0.7-5.1s3.6-2,4.9-0.4C19.1,443.2,19.1,445.4,18.1,446.3z"/>
		<circle class="st1" cx="27.8" cy="456" r="1.2"/>
		<circle class="st1" cx="3.4" cy="429.9" r="1.3"/>
		<circle class="st1" cx="3.1" cy="456.9" r="1.1"/>
		<circle class="st4" cx="27.6" cy="456" r="1"/>
		<circle class="st4" cx="3.6" cy="429.9" r="1.1"/>
		<circle class="st4" cx="3.1" cy="456.9" r="1"/>
	</g>
</g>
</svg>
