<?xml version="1.0" encoding="utf-8"?>
<!-- Generator: Adobe Illustrator 24.1.3, SVG Export Plug-In . SVG Version: 6.00 Build 0)  -->
<svg version="1.1" id="Layer_1" xmlns="http://www.w3.org/2000/svg" xmlns:xlink="http://www.w3.org/1999/xlink" x="0px" y="0px"
	 viewBox="0 0 124 32" style="enable-background:new 0 0 124 32;" xml:space="preserve">
<style type="text/css">
	.st0{fill:#1A1A1A;}
	.st1{fill:#A2BBD2;}
	.st2{fill:#5C8EAC;}
	.st3{fill:#F3F2F7;}
</style>
<path class="st0" d="M121.5,25.6c0,3.2-2.4,5.5-5.5,5.5H9.2c-2.8,0-5-2.3-5-5L4.3,8.3c0-2.8,2.3-5,5-5h107.3c2.8,0,5,2.3,5,5
	L121.5,25.6z"/>
<path class="st1" d="M119.1,23.6c0,2.8-2.3,5-5,5H6.7c-2.8,0-5-2.3-5-5L1.8,5.9c0-2.8,2.3-5,5-5h107.3c2.8,0,5,2.3,5,5L119.1,23.6z"
	/>
<path class="st2" d="M116.1,1.2c1.8,0.8,3.1,2.6,3.1,4.6l-0.1,17.7c0,2.8-2.3,5-5,5H6.7c-1.4,0-2.7-0.6-3.6-1.5L116.1,1.2z"/>
<path class="st3" d="M116.3,21c0,2.7-2.2,4.8-4.8,4.8H9.2c-2.7,0-4.8-2.2-4.8-4.8L4.5,8.4c0-2.7,2.2-4.8,4.8-4.8h102.3
	c2.7,0,4.8,2.2,4.8,4.8L116.3,21z"/>
</svg>
