<?xml version="1.0" encoding="utf-8"?>
<!-- Generator: Adobe Illustrator 24.1.3, SVG Export Plug-In . SVG Version: 6.00 Build 0)  -->
<svg version="1.1" id="Layer_1" xmlns="http://www.w3.org/2000/svg" xmlns:xlink="http://www.w3.org/1999/xlink" x="0px" y="0px"
	 viewBox="0 0 72 32" style="enable-background:new 0 0 72 32;" xml:space="preserve">
<style type="text/css">
	.st0{fill:#1A1A1A;}
	.st1{fill:#A2BBD2;}
	.st2{fill:#5C8EAC;}
	.st3{fill:#F3F2F7;}
</style>
<path class="st0" d="M71.2,26c0,3.2-2.4,5.5-5.5,5.5H8.9c-2.8,0-5-2.3-5-5L4,8.7c0-2.8,2.3-5,5-5h57.3c2.8,0,5,2.3,5,5L71.2,26z"/>
<path class="st1" d="M68.8,24c0,2.8-2.3,5-5,5H6.4c-2.8,0-5-2.3-5-5L1.5,6.3c0-2.8,2.3-5,5-5h57.3c2.8,0,5,2.3,5,5L68.8,24z"/>
<path class="st2" d="M65.8,1.6c1.8,0.8,3.1,2.6,3.1,4.6L68.8,24c0,2.8-2.3,5-5,5H6.4c-1.4,0-2.7-0.6-3.6-1.5L65.8,1.6z"/>
<path class="st3" d="M66,21.4c0,2.7-2.2,4.8-4.8,4.8H8.9c-2.7,0-4.8-2.2-4.8-4.8L4.2,8.8c0-2.7,2.2-4.8,4.8-4.8h52.3
	c2.7,0,4.8,2.2,4.8,4.8L66,21.4z"/>
</svg>
