<?xml version="1.0" encoding="utf-8"?>
<!-- Generator: Adobe Illustrator 24.1.3, SVG Export Plug-In . SVG Version: 6.00 Build 0)  -->
<svg version="1.1" id="Layer_1" xmlns="http://www.w3.org/2000/svg" xmlns:xlink="http://www.w3.org/1999/xlink" x="0px" y="0px"
	 viewBox="0 0 92 42" style="enable-background:new 0 0 92 42;" xml:space="preserve">
<style type="text/css">
	.st0{fill:#1A1A1A;}
	.st1{fill:#A2BBD2;}
	.st2{fill:#5C8EAC;}
	.st3{fill:#F3F2F7;}
</style>
<path class="st0" d="M90.7,35.3c0,3.2-2.4,5.5-5.5,5.5H8.3c-2.8,0-5-2.3-5-5L3.4,8.1c0-2.8,2.3-5,5-5h77.3c2.8,0,5,2.3,5,5
	L90.7,35.3z"/>
<path class="st1" d="M88.2,33.3c0,2.8-2.3,5-5,5H5.8c-2.8,0-5-2.3-5-5L0.9,5.6c0-2.8,2.3-5,5-5h77.3c2.8,0,5,2.3,5,5L88.2,33.3z"/>
<path class="st2" d="M85.3,1c1.8,0.8,3.1,2.6,3.1,4.6l-0.1,27.7c0,2.8-2.3,5-5,5H5.8c-1.4,0-2.7-0.6-3.6-1.5L85.3,1z"/>
<path class="st3" d="M85.5,30.8c0,2.7-2.2,4.8-4.8,4.8H8.3c-2.7,0-4.8-2.2-4.8-4.8L3.7,8.1c0-2.7,2.2-4.8,4.8-4.8h72.3
	c2.7,0,4.8,2.2,4.8,4.8L85.5,30.8z"/>
</svg>
